<svg width="676" height="676" viewBox="0 0 676 676" fill="none" xmlns="http://www.w3.org/2000/svg">
<g clip-path="url(#clip0_102_546)">
<rect width="675.999" height="675.999" rx="150" fill="white"/>
<line x1="-141.811" y1="37.834" x2="774.657" y2="37.834" stroke="#B6B6B6" stroke-opacity="0.34" stroke-width="2.99999"/>
<line x1="-141.811" y1="78.8345" x2="774.657" y2="78.8345" stroke="#B6B6B6" stroke-opacity="0.34" stroke-width="2.99999"/>
<line x1="-141.811" y1="119.834" x2="774.657" y2="119.834" stroke="#B6B6B6" stroke-opacity="0.34" stroke-width="2.99999"/>
<line x1="-141.811" y1="160.834" x2="774.657" y2="160.834" stroke="#B6B6B6" stroke-opacity="0.34" stroke-width="2.99999"/>
<line x1="-141.811" y1="201.835" x2="774.657" y2="201.835" stroke="#B6B6B6" stroke-opacity="0.34" stroke-width="2.99999"/>
<line x1="-141.811" y1="242.835" x2="774.657" y2="242.835" stroke="#B6B6B6" stroke-opacity="0.34" stroke-width="2.99999"/>
<line x1="-141.811" y1="283.834" x2="774.657" y2="283.834" stroke="#B6B6B6" stroke-opacity="0.34" stroke-width="2.99999"/>
<line x1="-141.811" y1="324.833" x2="774.657" y2="324.833" stroke="#B6B6B6" stroke-opacity="0.34" stroke-width="2.99999"/>
<line x1="-141.811" y1="365.834" x2="774.657" y2="365.834" stroke="#B6B6B6" stroke-opacity="0.34" stroke-width="2.99999"/>
<line x1="-141.811" y1="406.834" x2="774.657" y2="406.834" stroke="#B6B6B6" stroke-opacity="0.34" stroke-width="2.99999"/>
<line x1="-141.811" y1="447.834" x2="774.657" y2="447.834" stroke="#B6B6B6" stroke-opacity="0.34" stroke-width="2.99999"/>
<line x1="-141.811" y1="488.833" x2="774.657" y2="488.833" stroke="#B6B6B6" stroke-opacity="0.34" stroke-width="2.99999"/>
<line x1="-141.811" y1="529.834" x2="774.657" y2="529.834" stroke="#B6B6B6" stroke-opacity="0.34" stroke-width="2.99999"/>
<line x1="-141.811" y1="570.834" x2="774.657" y2="570.834" stroke="#B6B6B6" stroke-opacity="0.34" stroke-width="2.99999"/>
<line x1="-141.811" y1="611.833" x2="774.657" y2="611.833" stroke="#B6B6B6" stroke-opacity="0.34" stroke-width="2.99999"/>
<line x1="-141.811" y1="652.833" x2="774.657" y2="652.833" stroke="#B6B6B6" stroke-opacity="0.34" stroke-width="2.99999"/>
<line x1="23.0374" y1="825.567" x2="23.0373" y2="-90.8997" stroke="#B6B6B6" stroke-opacity="0.34" stroke-width="2.99999"/>
<line x1="64.0376" y1="825.567" x2="64.0376" y2="-90.8997" stroke="#B6B6B6" stroke-opacity="0.34" stroke-width="2.99999"/>
<line x1="105.038" y1="825.567" x2="105.038" y2="-90.8997" stroke="#B6B6B6" stroke-opacity="0.34" stroke-width="2.99999"/>
<line x1="146.037" y1="825.567" x2="146.037" y2="-90.8997" stroke="#B6B6B6" stroke-opacity="0.34" stroke-width="2.99999"/>
<line x1="187.037" y1="825.567" x2="187.037" y2="-90.8997" stroke="#B6B6B6" stroke-opacity="0.34" stroke-width="2.99999"/>
<line x1="228.037" y1="825.567" x2="228.037" y2="-90.8997" stroke="#B6B6B6" stroke-opacity="0.34" stroke-width="2.99999"/>
<line x1="269.037" y1="825.567" x2="269.037" y2="-90.8997" stroke="#B6B6B6" stroke-opacity="0.34" stroke-width="2.99999"/>
<line x1="310.037" y1="825.567" x2="310.037" y2="-90.8997" stroke="#B6B6B6" stroke-opacity="0.34" stroke-width="2.99999"/>
<line x1="351.037" y1="825.567" x2="351.037" y2="-90.8997" stroke="#B6B6B6" stroke-opacity="0.34" stroke-width="2.99999"/>
<line x1="392.037" y1="825.567" x2="392.037" y2="-90.8997" stroke="#B6B6B6" stroke-opacity="0.34" stroke-width="2.99999"/>
<line x1="433.036" y1="825.567" x2="433.036" y2="-90.8997" stroke="#B6B6B6" stroke-opacity="0.34" stroke-width="2.99999"/>
<line x1="474.037" y1="825.567" x2="474.037" y2="-90.8997" stroke="#B6B6B6" stroke-opacity="0.34" stroke-width="2.99999"/>
<line x1="515.036" y1="825.567" x2="515.036" y2="-90.8997" stroke="#B6B6B6" stroke-opacity="0.34" stroke-width="2.99999"/>
<line x1="556.036" y1="825.567" x2="556.036" y2="-90.8997" stroke="#B6B6B6" stroke-opacity="0.34" stroke-width="2.99999"/>
<line x1="597.036" y1="825.567" x2="597.036" y2="-90.8997" stroke="#B6B6B6" stroke-opacity="0.34" stroke-width="2.99999"/>
<line x1="638.036" y1="825.567" x2="638.036" y2="-90.8997" stroke="#B6B6B6" stroke-opacity="0.34" stroke-width="2.99999"/>
<rect x="-94.9299" y="-165.427" width="255.214" height="1302.47" fill="#EBEBFD" stroke="#9599FF" stroke-width="20"/>
<path fill-rule="evenodd" clip-rule="evenodd" d="M168.869 414.243H276.335L300.024 483.577C300.298 484.565 300.911 485.426 301.757 486.007C302.602 486.588 303.625 486.853 304.646 486.754H365.024C367.913 486.754 368.78 485.31 367.913 482.132L262.469 186.022C262.18 184.577 260.735 183.71 258.713 183.71H183.891C183.176 183.851 182.541 184.257 182.112 184.846C181.683 185.435 181.493 186.165 181.58 186.888C181.59 193.188 181.009 199.475 179.847 205.666L179.846 205.667C178.691 209.133 177.824 211.733 176.958 214.621L83.9356 481.265C83.069 484.732 83.9356 486.465 87.1134 486.465H141.424C142.679 486.598 143.938 486.256 144.953 485.508C145.969 484.759 146.668 483.658 146.913 482.421L168.869 414.243ZM259.002 356.755H185.624C189.958 344.621 194.58 331.043 198.335 316.31C201.197 307.367 203.948 298.425 206.657 289.619C208.323 284.202 209.974 278.836 211.624 273.555C215.571 261.32 218.85 248.879 221.446 236.288H222.024C224.046 243.221 226.069 250.444 228.38 258.821C230.691 267.199 233.291 275.577 236.18 284.532C239.069 293.488 241.958 302.444 244.558 311.11C247.158 319.777 249.758 328.443 252.357 335.955C254.957 343.466 257.269 350.688 259.002 356.755ZM447.646 387.666H539.224C543.094 387.666 546.811 387.972 550.415 388.27C553.804 388.55 557.092 388.821 560.312 388.821C565.91 388.876 571.506 388.586 577.068 387.954C578.69 387.853 580.135 387.752 581.401 387.663C583.743 387.498 585.476 387.377 586.601 387.377C587.609 387.324 588.565 386.919 589.305 386.232C590.044 385.546 590.518 384.622 590.646 383.621C590.704 383.101 590.773 382.523 590.849 381.887C591.154 379.345 591.57 375.879 591.801 371.488C592.09 365.999 592.379 359.932 592.379 352.999C592.416 341.035 590.564 329.141 586.89 317.755C583.104 305.839 577.236 294.688 569.557 284.821C561.469 274.773 551.059 266.841 539.224 261.71C525.142 255.456 509.85 252.397 494.446 252.755C475.957 252.755 459.779 255.066 446.202 261.71C432.72 268.251 420.8 277.61 411.246 289.155C401.543 300.829 394.186 314.268 389.58 328.732C380.361 357.321 379.959 388.022 388.424 416.843C392.428 430.681 399.211 443.558 408.357 454.688C418.145 466.59 430.621 475.996 444.757 482.132C459.779 488.776 478.268 492.243 500.224 492.243C513.982 492.537 527.732 491.375 541.246 488.777C551.193 487.078 560.895 484.167 570.135 480.11C570.945 479.588 571.635 478.898 572.157 478.088C572.49 476.96 572.684 475.796 572.735 474.621V430.421C572.735 427.532 571.868 426.954 570.424 428.11C562.158 431.369 553.523 433.601 544.713 434.754C534.809 436.684 524.756 437.747 514.668 437.932C501.97 438.165 489.367 435.704 477.69 430.71C469.063 427.209 461.707 421.163 456.602 413.377C451.794 405.554 448.739 396.782 447.646 387.666ZM508.602 345.488H447.646C448.477 338.225 450.631 331.175 454.002 324.688C457.603 317.71 463.148 311.924 469.966 308.028C476.784 304.132 484.583 302.293 492.424 302.732C500.72 302.488 508.87 304.949 515.644 309.743C522.419 314.538 527.45 321.405 529.979 329.31C531.139 332.754 531.724 336.365 531.713 339.999V342.888C529.728 344.206 527.442 345.001 525.068 345.199C521.602 345.488 516.113 345.488 508.603 345.488H508.602Z" fill="#00005B"/>
</g>
<defs>
<clipPath id="clip0_102_546">
<rect width="675.999" height="675.999" rx="150" fill="white"/>
</clipPath>
</defs>
</svg>
