<svg width="59" height="58" viewBox="0 0 59 58" fill="none" xmlns="http://www.w3.org/2000/svg">
<g clip-path="url(#clip0_102_73)">
<path d="M48.5521 1.25001L48.5533 1.25C49.7599 1.24886 50.9551 1.48762 52.0707 1.95289C53.1863 2.41817 54.2006 3.10098 55.0553 3.96273C55.91 4.82451 56.5883 5.84832 57.0509 6.97585C57.5135 8.1034 57.7511 9.31222 57.75 10.533V10.5342V47.4658V47.467C57.7511 48.6878 57.5135 49.8966 57.0509 51.0242C56.5883 52.1517 55.91 53.1755 55.0553 54.0373C54.2006 54.899 53.1863 55.5818 52.0707 56.0471C50.9551 56.5124 49.7599 56.7512 48.5533 56.75H48.5521H10.4479H10.4467C9.24012 56.7512 8.04487 56.5124 6.92932 56.0471C5.81375 55.5818 4.79945 54.899 3.94475 54.0373C3.09004 53.1755 2.41172 52.1517 1.94912 51.0242C1.48652 49.8966 1.24886 48.6878 1.25 47.467V47.4658L1.25001 10.5342L1.25 10.533C1.24886 9.31222 1.48652 8.1034 1.94912 6.97585C2.41172 5.84832 3.09004 4.82451 3.94475 3.96273C4.79945 3.10098 5.81374 2.41817 6.92932 1.95289C8.04487 1.48762 9.24012 1.24886 10.4467 1.25H10.4479L48.5521 1.25001Z" stroke="#D9D9D9" stroke-width="2.5"/>
<path d="M23.6983 34.7009H14.5533L12.6849 40.5505C12.664 40.6566 12.6046 40.7511 12.5181 40.8153C12.4317 40.8795 12.3246 40.9088 12.2178 40.8975H7.59618C7.32576 40.8975 7.25201 40.7487 7.32576 40.4513L15.2416 17.5735C15.3153 17.3257 15.3891 17.1026 15.4874 16.8051C15.5864 16.2739 15.6357 15.7345 15.6349 15.194C15.6276 15.132 15.6437 15.0694 15.6802 15.0188C15.7167 14.9682 15.7708 14.9334 15.8316 14.9214H22.1987C22.3708 14.9214 22.4937 14.9957 22.5183 15.1197L31.4912 40.5257C31.5649 40.7983 31.4912 40.9222 31.2453 40.9222H26.1074C26.0205 40.9307 25.9335 40.908 25.8615 40.8581C25.7896 40.8082 25.7374 40.7344 25.7141 40.6496L23.6983 34.7009ZM15.9791 29.7684H22.2233C22.0758 29.2479 21.8791 28.6282 21.6578 27.9838C21.4366 27.3393 21.2153 26.5957 20.9941 25.8522C20.7728 25.1086 20.527 24.3402 20.2812 23.5718C20.0353 22.8034 19.8141 22.0846 19.6174 21.3658C19.4208 20.647 19.2487 20.0274 19.0766 19.4325H19.0274C18.8065 20.5128 18.5275 21.5802 18.1916 22.6299C17.8228 23.8197 17.4541 25.059 17.0608 26.2983C16.7412 27.5624 16.3478 28.7274 15.9791 29.7684Z" fill="#D9D9D9"/>
<path d="M46.0692 32.4205H38.2763C38.3693 33.2027 38.6293 33.9553 39.0383 34.6265C39.4728 35.2946 40.0988 35.8133 40.8329 36.1137C41.8266 36.5421 42.8991 36.7533 43.9796 36.7333C44.8381 36.7175 45.6935 36.6262 46.5363 36.4607C47.286 36.3617 48.0208 36.1703 48.7242 35.8906C48.8471 35.7915 48.9208 35.841 48.9208 36.0889V39.8812C48.9165 39.982 48.9 40.0819 48.8717 40.1786C48.8272 40.2482 48.7686 40.3073 48.6996 40.3521C47.9133 40.7003 47.0877 40.95 46.2413 41.0957C45.0913 41.3187 43.9212 41.4184 42.7504 41.3932C40.8821 41.3932 39.3088 41.0957 38.0304 40.5256C36.8275 39.9992 35.7659 39.1922 34.9329 38.1709C34.1546 37.216 33.5774 36.1112 33.2367 34.9239C32.5163 32.4511 32.5506 29.817 33.335 27.3641C33.727 26.1231 34.3531 24.9701 35.1788 23.9684C35.9917 22.9779 37.0061 22.1749 38.1533 21.6137C39.3088 21.0436 40.6854 20.8453 42.2588 20.8453C43.5696 20.8146 44.8709 21.077 46.0692 21.6137C47.0763 22.0539 47.9622 22.7344 48.6504 23.5966C49.3039 24.4432 49.8033 25.3998 50.1254 26.4222C50.4381 27.3991 50.5957 28.4197 50.5925 29.4462C50.5925 30.041 50.5679 30.5615 50.5433 31.0325C50.5188 31.5034 50.4696 31.8504 50.445 32.0735C50.4342 32.1594 50.3938 32.2387 50.3309 32.2976C50.268 32.3565 50.1866 32.3912 50.1008 32.3957C49.9533 32.3957 49.6829 32.4205 49.2896 32.4453C48.8163 32.4995 48.3401 32.5243 47.8638 32.5197C47.2983 32.5197 46.7083 32.4205 46.0692 32.4205ZM38.2763 28.8017H43.4633C44.1025 28.8017 44.5696 28.8017 44.8646 28.7769C45.0666 28.76 45.2611 28.6918 45.43 28.5786V28.3308C45.431 28.019 45.3812 27.7092 45.2825 27.4137C45.0673 26.7355 44.6392 26.1462 44.0627 25.7349C43.4862 25.3235 42.7926 25.1124 42.0867 25.1333C41.4195 25.0956 40.7558 25.2534 40.1756 25.5877C39.5954 25.922 39.1236 26.4184 38.8171 27.0171C38.5303 27.5737 38.347 28.1785 38.2763 28.8017V28.8017Z" fill="#D9D9D9"/>
</g>
<defs>
<clipPath id="clip0_102_73">
<rect width="59" height="58" fill="white"/>
</clipPath>
</defs>
</svg>
