<svg width="400" height="90" viewBox="0 0 400 90" fill="none" xmlns="http://www.w3.org/2000/svg">
<path d="M110.66 32.9601C106.739 21.8531 97.595 17.9351 86.396 17.9351C80.5206 17.9351 75.012 19.2416 70.344 23.1591C65.7712 26.985 63.4371 32.211 63.4371 38.1821C63.4371 52.1811 74.6361 55.5411 86.0221 57.8751C89.9357 58.7096 97.2191 59.7412 97.2191 65.0628C97.2191 70.3785 91.5309 71.9678 87.237 71.9678C80.6128 71.9678 75.763 69.6317 73.895 62.912L60.075 66.0847C62.9747 78.5917 73.895 83.8217 85.928 83.8217C92.3708 83.8217 99.366 82.6088 104.494 78.5918C109.449 74.762 112.433 68.793 112.433 62.5398C112.433 56.1984 109.254 50.8788 104.032 47.4258C99.5508 44.4384 92.5519 43.1299 87.3319 42.0126C83.6873 41.3535 78.0869 40.2361 78.0869 35.5776C78.0869 30.6265 82.9424 29.5969 86.9536 29.5969C92.6437 29.5969 96.0991 31.7458 97.9676 37.159L110.66 32.9601ZM160.118 82.8861C159.369 80.5558 159.182 78.2178 159.182 75.792V53.675C159.182 47.9849 159.65 42.757 154.8 38.839C150.965 35.6664 144.623 34.5431 139.777 34.5431C129.789 34.5431 118.592 37.9069 117.194 49.3811L130.162 50.5979C130.162 45.9316 133.99 43.6891 138.37 43.6891C140.427 43.6891 142.759 44.3442 143.974 45.9316C145.376 47.7022 145.185 50.1261 145.185 52.1814V53.2988C139.4 53.8623 131.841 54.2328 126.434 56.2882C120.183 58.6204 115.793 63.3862 115.793 70.3792C115.793 79.3414 122.322 83.8222 130.722 83.8222C137.818 83.8222 141.917 81.1117 145.844 75.5132C145.749 77.941 145.934 80.4565 146.496 82.8862L160.118 82.8861ZM145.185 62.0741C145.185 65.4437 145.282 68.2342 143.323 71.2215C141.733 73.6512 139.214 75.141 136.414 75.141C132.592 75.141 130.351 72.6197 130.351 68.8893C130.351 61.9805 139.957 60.7715 145.185 60.2059L145.185 62.0741ZM180.654 56.1987C180.654 51.1599 181.58 43.9717 188.208 43.9717C195.77 43.9717 195.77 53.8621 195.77 59.1817C195.77 64.3122 195.77 74.2047 188.023 74.2047C185.502 74.2047 183.54 72.9957 182.237 70.9385C180.744 68.6121 180.654 65.6189 180.654 63.0098L180.654 56.1987ZM166.745 82.8867H174.208C175.05 80.3673 175.612 77.6568 177.287 75.6073C180.744 81.2994 184.01 83.8227 190.822 83.8227C205.096 83.8227 210.043 71.5927 210.043 59.1827C210.043 47.9857 205.938 34.5447 192.407 34.5447C187.085 34.5447 183.172 36.7853 180.834 41.4536H180.465V18.8686H166.745L166.745 82.8867ZM257.171 82.8867C256.42 80.5564 256.243 78.2184 256.243 75.7926V53.6756C256.243 47.9855 256.707 42.7576 251.846 38.8396C248.027 35.667 241.679 34.5437 236.827 34.5437C226.844 34.5437 215.641 37.9075 214.245 49.3817L227.215 50.5985C227.215 45.9322 231.039 43.6897 235.426 43.6897C237.481 43.6897 239.81 44.3448 241.026 45.9322C242.425 47.7028 242.245 50.1267 242.245 52.182V53.2994C236.456 53.8629 228.897 54.2334 223.48 56.2888C217.229 58.621 212.837 63.3868 212.837 70.3798C212.837 79.342 219.374 83.8228 227.772 83.8228C234.864 83.8228 238.971 81.1123 242.896 75.5138C242.801 77.9416 242.982 80.4571 243.548 82.8868L257.171 82.8867ZM242.246 62.0747C242.246 65.4443 242.336 68.2348 240.376 71.2221C238.787 73.6518 236.265 75.1416 233.471 75.1416C229.641 75.1416 227.403 72.6203 227.403 68.8899C227.403 61.9811 237.01 60.7721 242.246 60.2065L242.246 62.0747ZM304.297 82.8867V18.8677H290.581V40.5187C287.59 36.1312 284.052 34.5439 278.727 34.5439C264.915 34.5439 261.37 48.4509 261.37 59.7419C261.37 70.7539 265.1 83.8229 278.446 83.8229C284.513 83.8229 288.434 80.5566 291.051 75.5139H291.236V82.8869L304.297 82.8867ZM290.581 63.1037C290.581 65.4437 290.486 67.9573 289.368 70.1023C288.245 72.2434 285.915 73.9282 283.397 73.9282C276.58 73.9282 275.833 65.2487 275.833 60.1142C275.833 54.4202 276.118 44.1552 283.951 44.1552C290.207 44.1552 290.581 51.9942 290.581 56.5712V63.1037ZM354.695 61.5125C354.789 55.0755 353.759 48.3575 349.84 42.9465C345.914 37.5333 339.106 34.5439 332.48 34.5439C317.73 34.5439 309.434 45.8359 309.434 59.8359C309.434 73.9289 318.669 83.8229 332.849 83.8229C348.903 83.8229 354.409 69.8219 354.409 67.4859L341.712 66.5557C341.712 70.9393 337.522 74.0203 333.322 74.0203C327.351 74.0203 324.174 69.4495 324.174 63.8473L324.268 61.5132L354.695 61.5125ZM324.174 53.3966C324.646 47.9853 326.974 43.5003 333.041 43.5003C339.014 43.5003 340.695 48.2603 340.971 53.3966H324.174ZM360.758 82.8866H374.472V18.8676H360.758V82.8866ZM381.288 82.8866H395V18.8676H381.288V82.8866Z" fill="white"/>
<path d="M35.137 9.2251C21.111 9.2251 9.73999 20.5941 9.73999 34.6201C9.73999 48.6481 21.11 60.0171 35.137 60.0171C49.158 60.0171 60.536 48.6481 60.536 34.6201C60.536 20.5941 49.158 9.2251 35.137 9.2251Z" fill="white"/>
<path d="M38.274 31.389C38.976 30.8722 39.3504 29.9518 39.3504 29.0978C39.3504 28.1677 38.9078 27.2804 38.0868 26.7987C37.2425 26.3151 35.6844 26.4243 34.6821 26.4243H31.0902V31.9799H35.1306C36.166 31.9799 37.3887 32.0559 38.274 31.389ZM38.4567 36.981C37.6065 36.4974 36.4229 36.4974 35.4615 36.4974H31.0915V42.6068H35.2021C36.2765 42.6068 37.6455 42.6752 38.5698 42.0491C39.4259 41.4934 39.9056 40.4579 39.9056 39.4225C39.9056 38.4553 39.3109 37.4587 38.4567 36.981ZM43.0459 45.9382C41.1993 47.3091 38.7227 47.3091 36.5329 47.3091H25.1699V21.9121H36.5329C38.5355 21.9121 40.6065 21.9121 42.3459 23.0217C44.3798 24.3223 45.4562 26.171 45.4562 28.5811C45.4562 31.4632 43.5296 33.3898 40.8659 34.0567V34.1268C44.0113 34.7586 46.1621 37.1649 46.1621 40.4565C46.1621 42.6756 44.8262 44.6453 43.0459 45.9382Z" fill="black"/>
</svg>
