<svg width="524" height="524" viewBox="0 0 524 524" fill="none" xmlns="http://www.w3.org/2000/svg">
<g opacity="0.6">
<rect x="0.5" y="0.5" width="523" height="523" stroke="white"/>
<rect width="524" height="150" fill="white"/>
<g filter="url(#filter0_d_1016_1739)">
<path d="M480.9 46.5625C480.4 46.5625 479.9 46.4125 479.45 46.1625C478.55 45.6125 478 44.7125 478 43.6125V26.9625C478 25.9125 478.55 24.9625 479.45 24.4125C480.4 23.8625 481.5 23.8625 482.4 24.4125L497.45 33.2125C498.2 33.6625 498.6 34.4125 498.6 35.2625C498.6 36.1125 498.15 36.8625 497.45 37.3125L482.4 46.1625C481.95 46.4125 481.4 46.5625 480.9 46.5625Z" fill="white"/>
</g>
<rect y="374" width="524" height="150" fill="white"/>
<g filter="url(#filter1_d_1016_1739)">
<path d="M38.3042 106H30.6722V93.994H33.2282V103.75H38.3042V106ZM47.891 106H45.605V104.902C45.011 105.568 43.967 106.216 42.545 106.216C40.637 106.216 39.737 105.172 39.737 103.48V97.306H42.023V102.58C42.023 103.786 42.653 104.182 43.625 104.182C44.507 104.182 45.209 103.696 45.605 103.192V97.306H47.891V106ZM57.9188 106H55.3628L53.3828 103.066L51.3848 106H48.8468L51.9248 101.536L49.0268 97.306H51.5828L53.3828 99.988L55.1648 97.306H57.7208L54.8048 101.536L57.9188 106ZM67.0251 106H64.7391V104.902C64.1451 105.568 63.1011 106.216 61.6791 106.216C59.7711 106.216 58.8711 105.172 58.8711 103.48V97.306H61.1571V102.58C61.1571 103.786 61.7871 104.182 62.7591 104.182C63.6411 104.182 64.3431 103.696 64.7391 103.192V97.306H67.0251V106ZM71.401 106H69.115V97.306H71.401V98.494C72.013 97.72 73.093 97.09 74.173 97.09V99.322C74.011 99.286 73.795 99.268 73.543 99.268C72.787 99.268 71.779 99.7 71.401 100.258V106ZM75.1153 109.402L75.4573 107.35C75.6553 107.44 75.9613 107.494 76.1773 107.494C76.7713 107.494 77.1673 107.332 77.3833 106.864L77.7073 106.126L74.1793 97.306H76.6273L78.8953 103.354L81.1633 97.306H83.6293L79.5433 107.422C78.8953 109.06 77.7433 109.492 76.2493 109.528C75.9793 109.528 75.4033 109.474 75.1153 109.402Z" fill="#161616"/>
</g>
<path d="M76.3613 41.0526C76.3613 44.7847 75.2751 48.2646 73.398 51.1935C75.2814 54.3412 76.3613 58.0187 76.3613 61.9464C76.3613 73.5739 66.9064 83 55.2454 83C47.4609 83 40.6592 78.8011 37 72.5499L44.3964 66.631C46.2714 70.7375 50.4241 73.5907 55.2454 73.5907C61.8257 73.5907 67.1595 68.2732 67.1595 61.713C67.1595 60.2853 66.9064 58.9186 66.4445 57.6507C63.766 59.0973 60.6973 59.9194 57.4388 59.9194C56.03 59.9194 54.6591 59.766 53.3388 59.4737C50.2596 58.7987 47.463 57.3732 45.1494 55.3988C42.7366 53.3445 40.8511 50.6973 39.7165 47.6822C38.9382 45.6195 38.5143 43.3844 38.5143 41.0526V41H46.7628C46.7691 41.5446 46.8198 42.0808 46.9062 42.6022C47.4546 45.8823 49.5067 48.6557 52.3328 50.1906C53.8492 51.0169 55.5892 51.4858 57.4388 51.4858C58.4997 51.4858 59.5247 51.3323 60.4906 51.0443C63.6479 50.1065 66.1935 47.7536 67.383 44.7217C67.8365 43.5652 68.0938 42.312 68.1128 41H76.3613V41.0526Z" fill="#161616"/>
</g>
<defs>
<filter id="filter0_d_1016_1739" x="474" y="24" width="28.5996" height="30.5625" filterUnits="userSpaceOnUse" color-interpolation-filters="sRGB">
<feFlood flood-opacity="0" result="BackgroundImageFix"/>
<feColorMatrix in="SourceAlpha" type="matrix" values="0 0 0 0 0 0 0 0 0 0 0 0 0 0 0 0 0 0 127 0" result="hardAlpha"/>
<feOffset dy="4"/>
<feGaussianBlur stdDeviation="2"/>
<feComposite in2="hardAlpha" operator="out"/>
<feColorMatrix type="matrix" values="0 0 0 0 0 0 0 0 0 0 0 0 0 0 0 0 0 0 0.25 0"/>
<feBlend mode="normal" in2="BackgroundImageFix" result="effect1_dropShadow_1016_1739"/>
<feBlend mode="normal" in="SourceGraphic" in2="effect1_dropShadow_1016_1739" result="shape"/>
</filter>
<filter id="filter1_d_1016_1739" x="26.6719" y="93.9941" width="60.957" height="23.5332" filterUnits="userSpaceOnUse" color-interpolation-filters="sRGB">
<feFlood flood-opacity="0" result="BackgroundImageFix"/>
<feColorMatrix in="SourceAlpha" type="matrix" values="0 0 0 0 0 0 0 0 0 0 0 0 0 0 0 0 0 0 127 0" result="hardAlpha"/>
<feOffset dy="4"/>
<feGaussianBlur stdDeviation="2"/>
<feComposite in2="hardAlpha" operator="out"/>
<feColorMatrix type="matrix" values="0 0 0 0 0 0 0 0 0 0 0 0 0 0 0 0 0 0 0.25 0"/>
<feBlend mode="normal" in2="BackgroundImageFix" result="effect1_dropShadow_1016_1739"/>
<feBlend mode="normal" in="SourceGraphic" in2="effect1_dropShadow_1016_1739" result="shape"/>
</filter>
</defs>
</svg>
