<svg width="523" height="524" viewBox="0 0 523 524" fill="none" xmlns="http://www.w3.org/2000/svg">
<g opacity="0.6">
<rect x="2.49902" y="0.5" width="519.999" height="522.999" stroke="white"/>
<g filter="url(#filter0_d_1016_1676)">
<path d="M480.716 46.546C480.216 46.546 479.717 46.3961 479.267 46.1462C478.367 45.5964 477.817 44.6967 477.817 43.5971V26.9535C477.817 25.904 478.367 24.9543 479.267 24.4045C480.216 23.8547 481.316 23.8547 482.216 24.4045L497.26 33.2011C498.01 33.651 498.409 34.4007 498.409 35.2504C498.409 36.1 497.96 36.8497 497.26 37.2996L482.216 46.1462C481.766 46.3961 481.216 46.546 480.716 46.546Z" fill="white"/>
</g>
<path d="M243.807 343.267H183.43V282.891H143.346V343.267H82.9688V383.352H143.346V443.729H183.43V383.352H243.807V343.267Z" fill="white"/>
<path fill-rule="evenodd" clip-rule="evenodd" d="M0 523.999L79.9191 523.999L79.9191 484.664L39.0848 484.664V443.83L0 443.83V523.999Z" fill="white"/>
<path fill-rule="evenodd" clip-rule="evenodd" d="M522.803 485.012L483.765 485.012V523.799H444.68V485.012H443.828V484.163H403.944V523.799H364.859V483.813H403.846L403.846 444.828L443.828 444.828V404.843H482.913V444.828H483.765V445.677H522.803V485.012ZM522.803 324.873V405.042H522.801V404.191L482.819 404.191L482.819 364.856L522.801 364.856V324.873H522.803ZM364.711 405.042H363.86V404.191L323.877 404.191L323.877 364.856L363.86 364.856V324.873L402.945 324.873V364.856H403.796V365.707L443.779 365.707V405.042L403.796 405.042V445.025L364.711 445.025L364.711 405.042Z" fill="white"/>
<path fill-rule="evenodd" clip-rule="evenodd" d="M101.384 45.1935C103.357 42.2646 104.499 38.7847 104.499 35.0526V35H95.8266C95.8067 36.312 95.5361 37.5652 95.0594 38.7217C93.8087 41.7536 91.1323 44.1086 87.8106 45.0443C86.795 45.3323 85.7195 45.4858 84.6041 45.4858C82.6594 45.4858 80.83 45.0169 79.2357 44.1906C76.2643 42.6557 74.1068 39.8823 73.5302 36.6022C73.4393 36.0807 73.3861 35.5446 73.3794 35H64.707V35.0526C64.707 37.3844 65.1527 39.6195 65.971 41.6822C67.1639 44.6973 69.1463 47.3445 71.6831 49.3988C74.1156 51.3732 77.056 52.7987 80.2934 53.4737C81.6815 53.766 83.1229 53.9194 84.6041 53.9194C88.0301 53.9194 91.2565 53.0973 94.0726 51.6507C94.5582 52.9186 94.8243 54.2853 94.8243 55.713C94.8243 62.2732 89.2164 67.5907 82.2958 67.5907C80.474 67.5907 78.7432 67.2222 77.1818 66.5594L69.4815 73.1399C73.1013 75.5711 77.5224 77 82.2958 77C94.5582 77 104.499 67.5739 104.499 55.9464C104.499 52.0187 103.364 48.3412 101.384 45.1935Z" fill="white"/>
<path fill-rule="evenodd" clip-rule="evenodd" d="M67.2384 53.7617H70.1228V58.2587H74.8652V60.9937H70.1228V65.4876H67.2384V60.9937H62.499V58.2587H67.2384V53.7617Z" fill="white"/>
<path d="M41.9725 94.636H38.7505V98.29H37.1845V94.636H33.9445V93.214H37.1845V89.704H38.7505V93.214H41.9725V94.636ZM53.6142 100.216C49.9962 100.216 47.3502 97.624 47.3502 94.006C47.3502 90.388 49.9962 87.796 53.6142 87.796C57.2502 87.796 59.8962 90.388 59.8962 94.006C59.8962 95.698 59.3202 97.174 58.3302 98.254L59.2122 99.28L57.4302 100.738L56.4582 99.622C55.6122 100 54.6582 100.216 53.6142 100.216ZM53.6142 97.948C54.0642 97.948 54.4782 97.876 54.8742 97.75L53.5602 96.202L55.3242 94.744L56.6562 96.31C57.0522 95.662 57.2682 94.87 57.2682 94.006C57.2682 91.756 55.8282 90.064 53.6142 90.064C51.4002 90.064 49.9782 91.756 49.9782 94.006C49.9782 96.238 51.4002 97.948 53.6142 97.948ZM69.6099 100H67.3239V98.902C66.7299 99.568 65.6859 100.216 64.2639 100.216C62.3559 100.216 61.4559 99.172 61.4559 97.48V91.306H63.7419V96.58C63.7419 97.786 64.3719 98.182 65.3439 98.182C66.2259 98.182 66.9279 97.696 67.3239 97.192V91.306H69.6099V100ZM75.7857 100.216C73.1397 100.216 71.1417 98.434 71.1417 95.644C71.1417 93.124 72.9957 91.09 75.6417 91.09C78.2337 91.09 79.9977 93.034 79.9977 95.878V96.382H73.5357C73.6797 97.48 74.5617 98.398 76.0377 98.398C76.7757 98.398 77.8017 98.074 78.3597 97.534L79.3677 99.01C78.5037 99.802 77.1357 100.216 75.7857 100.216ZM77.7837 94.834C77.7297 94.006 77.1537 92.908 75.6417 92.908C74.2197 92.908 73.6077 93.97 73.4997 94.834H77.7837ZM91.8524 100H89.2964V95.086L84.6704 87.994H87.5864L90.5744 92.818L93.5264 87.994H96.4424L91.8524 95.086V100ZM99.1696 100.216C96.5236 100.216 94.5256 98.434 94.5256 95.644C94.5256 93.124 96.3796 91.09 99.0256 91.09C101.618 91.09 103.382 93.034 103.382 95.878V96.382H96.9196C97.0636 97.48 97.9456 98.398 99.4216 98.398C100.16 98.398 101.186 98.074 101.744 97.534L102.752 99.01C101.888 99.802 100.52 100.216 99.1696 100.216ZM101.168 94.834C101.114 94.006 100.538 92.908 99.0256 92.908C97.6036 92.908 96.9916 93.97 96.8836 94.834H101.168ZM107.139 100H104.853V87.994H107.139V100ZM122.312 100H120.008V94.51C120.008 93.7 119.648 93.124 118.712 93.124C117.902 93.124 117.236 93.664 116.912 94.132V100H114.608V94.51C114.608 93.7 114.248 93.124 113.312 93.124C112.52 93.124 111.854 93.664 111.512 94.15V100H109.226V91.306H111.512V92.44C111.872 91.918 113.024 91.09 114.356 91.09C115.634 91.09 116.444 91.684 116.768 92.674C117.272 91.882 118.424 91.09 119.756 91.09C121.358 91.09 122.312 91.936 122.312 93.718V100ZM128.406 100.216C125.544 100.216 123.816 98.128 123.816 95.644C123.816 93.178 125.544 91.09 128.406 91.09C131.286 91.09 133.014 93.178 133.014 95.644C133.014 98.128 131.286 100.216 128.406 100.216ZM128.406 98.182C129.828 98.182 130.638 97.012 130.638 95.644C130.638 94.294 129.828 93.124 128.406 93.124C126.984 93.124 126.192 94.294 126.192 95.644C126.192 97.012 126.984 98.182 128.406 98.182Z" fill="white"/>
</g>
<defs>
<filter id="filter0_d_1016_1676" x="473.817" y="23.9922" width="28.5918" height="30.5547" filterUnits="userSpaceOnUse" color-interpolation-filters="sRGB">
<feFlood flood-opacity="0" result="BackgroundImageFix"/>
<feColorMatrix in="SourceAlpha" type="matrix" values="0 0 0 0 0 0 0 0 0 0 0 0 0 0 0 0 0 0 127 0" result="hardAlpha"/>
<feOffset dy="4"/>
<feGaussianBlur stdDeviation="2"/>
<feComposite in2="hardAlpha" operator="out"/>
<feColorMatrix type="matrix" values="0 0 0 0 0 0 0 0 0 0 0 0 0 0 0 0 0 0 0.25 0"/>
<feBlend mode="normal" in2="BackgroundImageFix" result="effect1_dropShadow_1016_1676"/>
<feBlend mode="normal" in="SourceGraphic" in2="effect1_dropShadow_1016_1676" result="shape"/>
</filter>
</defs>
</svg>
