<svg width="521" height="524" viewBox="0 0 521 524" fill="none" xmlns="http://www.w3.org/2000/svg">
<g opacity="0.5">
<rect x="0.5" y="0.5" width="520" height="523" stroke="white"/>
<path fill-rule="evenodd" clip-rule="evenodd" d="M188.912 470C115.928 470 49.5272 441.652 0 395.308V472.837C3.39912 472.286 6.88626 472 10.4399 472C41.8061 472 67.9933 494.302 74.1801 524H521V0H391.121C437.75 49.9168 466.315 117.103 466.315 191C466.315 226.177 459.842 259.834 448.029 290.831C474.728 299.009 494.155 323.973 494.155 353.5C494.155 389.675 464.997 419 429.03 419C408.602 419 390.37 409.54 378.43 394.739C328.839 441.421 262.194 470 188.912 470ZM414.613 458.5C414.613 479.763 397.474 497 376.333 497C355.192 497 338.053 479.763 338.053 458.5C338.053 437.237 355.192 420 376.333 420C397.474 420 414.613 437.237 414.613 458.5ZM466.812 497C481.364 497 493.16 485.136 493.16 470.5C493.16 455.864 481.364 444 466.812 444C452.26 444 440.464 455.864 440.464 470.5C440.464 485.136 452.26 497 466.812 497Z" fill="white"/>
<g filter="url(#filter0_d_1016_1643)">
<path d="M478.147 46.5625C477.65 46.5625 477.153 46.4125 476.705 46.1625C475.811 45.6125 475.264 44.7125 475.264 43.6125V26.9625C475.264 25.9125 475.811 24.9625 476.705 24.4125C477.65 23.8625 478.744 23.8625 479.638 24.4125L494.602 33.2125C495.348 33.6625 495.746 34.4125 495.746 35.2625C495.746 36.1125 495.298 36.8625 494.602 37.3125L479.638 46.1625C479.191 46.4125 478.644 46.5625 478.147 46.5625Z" fill="white"/>
</g>
<path d="M40.0804 43.1584C42.4829 43.1584 44.4304 41.3321 44.4304 39.0792C44.4304 36.8263 42.4829 35 40.0804 35C37.678 35 35.7305 36.8263 35.7305 39.0792C35.7305 41.3321 37.678 43.1584 40.0804 43.1584Z" fill="white"/>
<path d="M71.1498 43.1584C73.5522 43.1584 75.4997 41.3321 75.4997 39.0792C75.4997 36.8263 73.5522 35 71.1498 35C68.7474 35 66.7998 36.8263 66.7998 39.0792C66.7998 41.3321 68.7474 43.1584 71.1498 43.1584Z" fill="white"/>
<path fill-rule="evenodd" clip-rule="evenodd" d="M72.3639 58.3845C74.3475 55.4731 75.4954 52.014 75.4954 48.3042V48.252H66.7786C66.7586 49.5561 66.4866 50.8018 66.0075 51.9513C64.7504 54.9652 62.0603 57.306 58.7216 58.2361C57.7008 58.5224 56.6199 58.675 55.4988 58.675C53.5442 58.675 51.7054 58.2089 50.1029 57.3875C47.1164 55.8618 44.9478 53.105 44.3683 49.8446C44.2769 49.3262 44.2234 48.7933 44.2167 48.252H35.5V48.3042C35.5 50.6221 35.948 52.8438 36.7704 54.8941C37.9695 57.8912 39.962 60.5226 42.5117 62.5646C44.9567 64.5271 47.912 65.9442 51.1661 66.6151C52.5613 66.9056 54.01 67.0582 55.4988 67.0582C58.9422 67.0582 62.1851 66.241 65.0157 64.803C65.5038 66.0633 65.7712 67.4218 65.7712 68.841C65.7712 75.3619 60.1346 80.6477 53.1786 80.6477C51.3476 80.6477 49.6082 80.2814 48.0388 79.6226L40.2991 86.1637C43.9373 88.5803 48.381 90.0006 53.1786 90.0006C65.5038 90.0006 75.4954 80.6309 75.4954 69.073C75.4954 65.1688 74.3542 61.5133 72.3639 58.3845Z" fill="white"/>
<path d="M33.7917 113.216C32.5857 113.216 31.4337 112.892 30.5697 112.046L31.6857 110.084C32.1537 110.534 32.7657 110.948 33.5937 110.948C34.7277 110.948 35.4657 110.192 35.4657 109.022V100.994H38.0217V109.058C38.0217 111.902 36.2577 113.216 33.7917 113.216ZM48.3236 113H46.0376V111.902C45.4436 112.568 44.3996 113.216 42.9776 113.216C41.0696 113.216 40.1696 112.172 40.1696 110.48V104.306H42.4556V109.58C42.4556 110.786 43.0856 111.182 44.0576 111.182C44.9396 111.182 45.6416 110.696 46.0376 110.192V104.306H48.3236V113ZM58.5675 113H56.2815V107.744C56.2815 106.538 55.6515 106.124 54.6795 106.124C53.7795 106.124 53.0775 106.628 52.6995 107.15V113H50.4135V104.306H52.6995V105.44C53.2575 104.774 54.3195 104.09 55.7415 104.09C57.6495 104.09 58.5675 105.17 58.5675 106.862V113ZM61.7913 103.37C61.0533 103.37 60.4233 102.758 60.4233 102.002C60.4233 101.246 61.0533 100.652 61.7913 100.652C62.5473 100.652 63.1593 101.246 63.1593 102.002C63.1593 102.758 62.5473 103.37 61.7913 103.37ZM62.9433 113H60.6573V104.306H62.9433V113ZM69.062 113.216C66.2 113.216 64.472 111.128 64.472 108.644C64.472 106.178 66.2 104.09 69.062 104.09C71.942 104.09 73.67 106.178 73.67 108.644C73.67 111.128 71.942 113.216 69.062 113.216ZM69.062 111.182C70.484 111.182 71.294 110.012 71.294 108.644C71.294 107.294 70.484 106.124 69.062 106.124C67.64 106.124 66.848 107.294 66.848 108.644C66.848 110.012 67.64 111.182 69.062 111.182ZM77.472 113H75.186V104.306H77.472V105.494C78.084 104.72 79.164 104.09 80.244 104.09V106.322C80.082 106.286 79.866 106.268 79.614 106.268C78.858 106.268 77.85 106.7 77.472 107.258V113Z" fill="white"/>
</g>
<defs>
<filter id="filter0_d_1016_1643" x="471.264" y="24" width="28.4824" height="30.5625" filterUnits="userSpaceOnUse" color-interpolation-filters="sRGB">
<feFlood flood-opacity="0" result="BackgroundImageFix"/>
<feColorMatrix in="SourceAlpha" type="matrix" values="0 0 0 0 0 0 0 0 0 0 0 0 0 0 0 0 0 0 127 0" result="hardAlpha"/>
<feOffset dy="4"/>
<feGaussianBlur stdDeviation="2"/>
<feComposite in2="hardAlpha" operator="out"/>
<feColorMatrix type="matrix" values="0 0 0 0 0 0 0 0 0 0 0 0 0 0 0 0 0 0 0.25 0"/>
<feBlend mode="normal" in2="BackgroundImageFix" result="effect1_dropShadow_1016_1643"/>
<feBlend mode="normal" in="SourceGraphic" in2="effect1_dropShadow_1016_1643" result="shape"/>
</filter>
</defs>
</svg>
