<svg width="544" height="637" viewBox="0 0 544 637" fill="none" xmlns="http://www.w3.org/2000/svg">
<path fill-rule="evenodd" clip-rule="evenodd" d="M529.945 110.813C538.723 97.0743 543.802 80.7522 543.802 63.2466V63H505.23C505.141 69.1541 503.938 75.032 501.818 80.4563C496.255 94.6778 484.352 105.724 469.578 110.112C465.061 111.463 460.278 112.183 455.317 112.183C446.668 112.183 438.531 109.984 431.44 106.108C418.225 98.9087 408.629 85.9003 406.064 70.5151C405.66 68.0692 405.423 65.5543 405.394 63H366.822V63.2466C366.822 74.1839 368.805 84.6675 372.444 94.3425C377.75 108.485 386.567 120.902 397.849 130.537C408.668 139.798 421.746 146.485 436.145 149.65C442.318 151.021 448.729 151.741 455.317 151.741C470.554 151.741 484.904 147.885 497.429 141.1C499.589 147.047 500.772 153.457 500.772 160.154C500.772 190.924 475.831 215.866 445.05 215.866C436.947 215.866 429.248 214.137 422.303 211.028L388.055 241.893C404.155 253.297 423.819 260 445.05 260C499.589 260 543.802 215.787 543.802 161.249C543.802 142.826 538.752 125.576 529.945 110.813Z" fill="#FFDE00"/>
<path fill-rule="evenodd" clip-rule="evenodd" d="M378.078 151H390.907V172.093H412V184.921H390.907V206H378.078V184.921H357V172.093H378.078V151Z" fill="#312783"/>
<path d="M20.2681 38.4972C30.8989 38.4972 39.5168 29.8793 39.5168 19.2486C39.5168 8.6179 30.8989 0 20.2681 0C9.63743 0 1.01953 8.6179 1.01953 19.2486C1.01953 29.8793 9.63743 38.4972 20.2681 38.4972Z" fill="#312783"/>
<path d="M157.751 38.4972C168.381 38.4972 176.999 29.8793 176.999 19.2486C176.999 8.6179 168.381 0 157.751 0C147.12 0 138.502 8.6179 138.502 19.2486C138.502 29.8793 147.12 38.4972 157.751 38.4972Z" fill="#312783"/>
<path fill-rule="evenodd" clip-rule="evenodd" d="M163.123 110.342C171.9 96.6036 176.979 80.2815 176.979 62.7759V62.5293H138.408C138.319 68.6834 137.116 74.5613 134.996 79.9856C129.433 94.2071 117.529 105.253 102.756 109.642C98.2387 110.993 93.4554 111.713 88.4947 111.713C79.8454 111.713 71.709 109.513 64.618 105.638C51.4025 98.438 41.8064 85.4296 39.2422 70.0444C38.8378 67.5985 38.6011 65.0836 38.5716 62.5293H0V62.7759C0 73.7132 1.98232 84.1968 5.62152 93.8718C10.9275 108.014 19.7444 120.431 31.0269 130.067C41.8458 139.327 54.9233 146.014 69.3223 149.18C75.4961 150.551 81.9066 151.271 88.4947 151.271C103.732 151.271 118.082 147.414 130.607 140.629C132.767 146.576 133.95 152.987 133.95 159.683C133.95 190.454 109.008 215.395 78.228 215.395C70.1255 215.395 62.428 213.667 55.4836 210.558L21.2352 241.424C37.3346 252.827 56.998 259.529 78.228 259.529C132.767 259.529 176.979 215.316 176.979 160.778C176.979 142.355 171.93 125.106 163.123 110.342Z" fill="#312783"/>
<path fill-rule="evenodd" clip-rule="evenodd" d="M163.123 487.813C171.9 474.074 176.979 457.752 176.979 440.247V440H138.408C138.319 446.154 137.116 452.032 134.996 457.456C129.433 471.678 117.529 482.724 102.756 487.112C98.2387 488.463 93.4554 489.183 88.4947 489.183C79.8454 489.183 71.709 486.984 64.618 483.108C51.4025 475.909 41.8064 462.9 39.2422 447.515C38.8378 445.069 38.6011 442.554 38.5716 440H0V440.247C0 451.184 1.98232 461.668 5.62152 471.342C10.9275 485.485 19.7444 497.902 31.0269 507.537C41.8458 516.798 54.9233 523.485 69.3223 526.65C75.4961 528.021 81.9066 528.741 88.4947 528.741C103.732 528.741 118.082 524.885 130.607 518.1C132.767 524.047 133.95 530.457 133.95 537.154C133.95 567.924 109.008 592.866 78.228 592.866C70.1255 592.866 62.428 591.138 55.4836 588.029L21.2352 618.894C37.3346 630.298 56.998 637 78.228 637C132.767 637 176.979 592.787 176.979 538.249C176.979 519.826 171.93 502.576 163.123 487.813Z" fill="#FFDE00"/>
<path fill-rule="evenodd" clip-rule="evenodd" d="M520.101 487.813C528.879 474.074 533.958 457.752 533.958 440.247V440H495.386C495.298 446.154 494.094 452.032 491.974 457.456C486.412 471.678 474.508 482.724 459.734 487.112C455.217 488.463 450.434 489.183 445.473 489.183C436.824 489.183 428.688 486.984 421.596 483.108C408.381 475.909 398.785 462.9 396.221 447.515C395.816 445.069 395.58 442.554 395.55 440H356.979V440.247C356.979 451.184 358.961 461.668 362.6 471.342C367.906 485.485 376.723 497.902 388.005 507.537C398.824 516.798 411.902 523.485 426.301 526.65C432.475 528.021 438.885 528.741 445.473 528.741C460.71 528.741 475.06 524.885 487.585 518.1C489.745 524.047 490.929 530.457 490.929 537.154C490.929 567.924 465.987 592.866 435.206 592.866C427.104 592.866 419.407 591.138 412.462 588.029L378.214 618.894C394.313 630.298 413.977 637 435.206 637C489.745 637 533.958 592.787 533.958 538.249C533.958 519.826 528.908 502.576 520.101 487.813Z" fill="white"/>
</svg>
