<svg width="754" height="754" viewBox="0 0 754 754" fill="none" xmlns="http://www.w3.org/2000/svg">
<rect width="754" height="754" fill="white"/>
<g clip-path="url(#clip0_166_62)">
<path d="M256.83 403.69C256.7 409.07 253.37 414.43 246.83 418.52C240.1 422.74 231.26 424.82 222.42 424.78C213.58 424.82 204.73 422.73 198.01 418.52C191.47 414.43 188.14 409.07 188.01 403.69C188 403.53 188 403.37 188 403.21L188.04 457.98C188.04 469.86 203.44 479.48 222.44 479.48C241.44 479.48 256.84 469.86 256.84 457.98V403.2C256.84 403.37 256.84 403.52 256.83 403.69Z" fill="#FFEE3B" stroke="#262626" stroke-width="4" stroke-linecap="round" stroke-linejoin="round"/>
<path d="M256.84 403.2V403.11C256.84 403.11 256.84 403.17 256.84 403.2Z" fill="#FFEE3B" stroke="#262626" stroke-width="4" stroke-linecap="round" stroke-linejoin="round"/>
<path d="M235.25 346.53H209.59C208.44 375.28 188 378.91 188 403.2C188 403.37 188 403.52 188.01 403.69C188.14 409.07 191.47 414.43 198.01 418.52C204.74 422.74 213.58 424.82 222.42 424.78C231.26 424.82 240.11 422.73 246.83 418.52C253.37 414.43 256.7 409.07 256.83 403.69C256.84 403.52 256.84 403.37 256.84 403.2C256.84 378.91 236.4 375.28 235.25 346.53Z" fill="white" stroke="#262626" stroke-width="4" stroke-linecap="round" stroke-linejoin="round"/>
<path d="M222.67 327.08C214.97 327.08 208.74 330.07 208.74 333.77V345.43C208.74 349.12 214.96 352.12 222.62 352.12C230.28 352.12 236.5 349.12 236.5 345.43L236.59 333.77C236.59 330.07 230.35 327.08 222.67 327.08Z" fill="#262626" stroke="#262626" stroke-width="4" stroke-linecap="round" stroke-linejoin="round"/>
<path d="M236.6 333.77L236.51 345.43C236.51 349.12 230.29 352.12 222.63 352.12C214.97 352.12 208.75 349.12 208.75 345.43V333.77C208.75 335.66 210.47 337.37 213.1 338.59C215.6 339.74 218.98 340.46 222.72 340.46C226.46 340.46 229.76 339.77 232.25 338.63C234.93 337.41 236.6 335.68 236.6 333.78V333.77Z" fill="white" stroke="#262626" stroke-width="4" stroke-linecap="round" stroke-linejoin="round"/>
<path d="M368.71 343.48C306.93 343.48 256.84 376.71 256.84 417.68V436.11C256.84 477.09 306.93 510.31 368.71 510.31C430.49 510.31 480.58 477.09 480.58 436.11V417.68C480.58 376.71 430.49 343.48 368.71 343.48Z" fill="#262626" stroke="#262626" stroke-width="4" stroke-linejoin="round"/>
<path d="M368.9 489.05C307.35 489.05 257.45 456.45 257.45 416.26C257.45 402.87 262.98 390.33 272.63 379.56C291.97 357.98 327.83 343.48 368.89 343.48C409.95 343.48 445.95 358.02 465.26 379.67C474.86 390.41 480.35 402.93 480.35 416.26C480.35 456.46 430.45 489.05 368.89 489.05H368.9Z" fill="white" stroke="#262626" stroke-width="4" stroke-linejoin="round"/>
<path d="M368.56 227C317 227 275.21 268.79 275.21 320.35V347.88V415.89C275.21 445.08 317 468.76 368.56 468.76C420.12 468.76 461.91 445.08 461.91 415.89V320.35C461.91 268.79 420.12 227 368.56 227Z" fill="#76E5A3" stroke="#262626" stroke-width="4" stroke-linejoin="round"/>
<path d="M422.44 290.89C413.24 275.41 394.87 270.3 381.42 279.49C367.97 288.67 364.51 308.67 373.71 324.15C382.91 339.64 401.27 344.74 414.73 335.57C428.18 326.38 431.63 306.39 422.44 290.9V290.89Z" fill="#FFEE3B" stroke="#262626" stroke-width="4" stroke-linejoin="round"/>
<path d="M407.84 321.79C401.2 326.32 391.87 323.32 386.98 315.1C382.1 306.88 383.52 296.54 390.16 292.01C396.8 287.48 406.13 290.48 411.02 298.7C415.9 306.92 414.48 317.26 407.84 321.79Z" fill="#262626" stroke="#262626" stroke-width="4" stroke-linejoin="round"/>
<path d="M566.59 396.88V445.08C566.59 454.7 551.17 462.5 532.16 462.5C513.15 462.5 497.73 454.7 497.73 445.08V396.88C497.73 387.26 513.15 379.46 532.16 379.46C551.17 379.46 566.59 387.26 566.59 396.88Z" fill="#FFEE3B" stroke="#262626" stroke-width="4.44" stroke-linecap="round" stroke-linejoin="round"/>
<path d="M544.73 332.55C542.33 324.25 540.73 315.05 540.73 304.64L540.83 293.04L532.19 293.14L523.46 293.1L523.56 304.7C523.56 315.1 522.04 324.25 519.64 332.55C512.54 358.36 497.74 375.86 497.74 393.26V396.96C497.74 406.55 513.21 414.34 532.18 414.36C551.15 414.34 566.62 406.55 566.62 396.96V393.26C566.62 375.86 551.82 358.35 544.72 332.55H544.73Z" fill="white" stroke="#262626" stroke-width="4.44" stroke-linecap="round" stroke-linejoin="round"/>
<path d="M540.87 284.19L540.81 293.07C540.81 295.77 536.92 297.97 532.13 297.97C527.34 297.97 523.46 295.78 523.46 293.07L523.52 284.19C523.52 281.49 527.4 279.3 532.19 279.3C536.98 279.3 540.87 281.48 540.87 284.19Z" fill="white" stroke="#262626" stroke-width="4.44" stroke-linecap="round" stroke-linejoin="round"/>
<path d="M523.51 284.2C523.51 285.58 524.53 286.84 526.18 287.73C527.74 288.58 529.86 289.1 532.19 289.1C534.52 289.1 536.59 288.59 538.15 287.76C539.83 286.87 540.87 285.6 540.87 284.21" stroke="#262626" stroke-width="4.44" stroke-linecap="round" stroke-linejoin="round"/>
<path d="M308.64 449.64V449.69C308.63 450.24 308.59 450.78 308.52 451.32C307.03 462.61 292.24 471.49 274.22 471.49C256.2 471.49 241.41 462.61 239.92 451.32C239.85 450.78 239.81 450.24 239.8 449.69V449.64C239.88 441.29 243.79 433.75 250.06 428.3V435.39C250.06 444.11 260.88 451.18 274.23 451.18C287.58 451.18 298.38 444.11 298.38 435.39V428.3C304.65 433.75 308.56 441.29 308.64 449.64Z" fill="white" stroke="#262626" stroke-width="4" stroke-linejoin="round"/>
<path d="M298.38 428.3V435.39C298.38 444.11 287.56 451.18 274.23 451.18C260.9 451.18 250.06 444.11 250.06 435.39V428.3C250.35 428.05 250.65 427.79 250.96 427.55C257.08 422.6 265.25 419.58 274.22 419.58C283.19 419.58 291.36 422.6 297.48 427.56C297.79 427.79 298.09 428.05 298.38 428.3Z" fill="white" stroke="#262626" stroke-width="4" stroke-linejoin="round"/>
<path d="M298.38 423.29C298.38 425.43 297.73 427.48 296.54 429.34C292.91 435.05 284.28 439.07 274.22 439.07C264.16 439.07 255.53 435.04 251.9 429.34C250.71 427.48 250.06 425.43 250.06 423.29C250.06 414.56 260.88 407.49 274.22 407.49C287.56 407.49 298.37 414.56 298.37 423.29H298.38Z" fill="white" stroke="#262626" stroke-width="4" stroke-linejoin="round"/>
<path d="M298.38 423.29V435.39C298.38 444.11 287.56 451.18 274.23 451.18C260.9 451.18 250.06 444.11 250.06 435.39V423.29C250.06 424.76 250.37 426.2 250.96 427.55C251.22 428.17 251.54 428.76 251.91 429.34C255.54 435.05 264.16 439.08 274.23 439.08C284.3 439.08 292.91 435.05 296.55 429.34C296.91 428.77 297.23 428.17 297.48 427.56C298.07 426.2 298.38 424.77 298.38 423.29Z" fill="#262626" stroke="#262626" stroke-width="4" stroke-linejoin="round"/>
<path d="M308.64 449.69V505.49C308.63 506.04 308.59 506.58 308.52 507.12C307.03 518.41 292.24 527.29 274.22 527.29C256.2 527.29 241.41 518.41 239.92 507.12C239.85 506.58 239.81 506.04 239.8 505.49V449.69C239.81 450.24 239.85 450.78 239.92 451.32C241.41 462.61 256.2 471.49 274.22 471.49C292.24 471.49 307.03 462.61 308.52 451.32C308.59 450.78 308.63 450.24 308.64 449.69Z" fill="#D0E7D4" stroke="#262626" stroke-width="4" stroke-linejoin="round"/>
</g>
<defs>
<clipPath id="clip0_166_62">
<rect width="382.85" height="304.29" fill="white" transform="translate(186 225)"/>
</clipPath>
</defs>
</svg>
