<svg width="57" height="57" viewBox="0 0 57 57" fill="none" xmlns="http://www.w3.org/2000/svg">
<path d="M51.12 37.73L51.94 34.69L45.62 28.38H56.52L51.12 37.73Z" stroke="black" stroke-width="0.5" stroke-linecap="round" stroke-linejoin="round"/>
<path d="M4.87 22.09L11.16 28.38L0.25 28.39L5.68 19L4.87 22.09Z" fill="black" stroke="black" stroke-width="0.5" stroke-linecap="round" stroke-linejoin="round"/>
<path d="M56.52 28.38H45.59L45.6 28.37L51.9 22.06L51.06 18.89L56.52 28.38Z" fill="black" stroke="black" stroke-width="0.5" stroke-linecap="round" stroke-linejoin="round"/>
<path d="M4.85 34.68L5.68 37.77L0.25 28.39L11.16 28.38L4.85 34.68Z" stroke="black" stroke-width="0.5" stroke-linecap="round" stroke-linejoin="round"/>
<path d="M16.22 40.5601L16.2 40.5801V40.5601H16.22Z" fill="black" stroke="black" stroke-width="0.5" stroke-linecap="round" stroke-linejoin="round"/>
<path d="M28.39 45.62V56.52L19.02 51.11L22.08 51.93L28.39 45.62Z" fill="black" stroke="black" stroke-width="0.5" stroke-linecap="round" stroke-linejoin="round"/>
<path d="M37.77 5.68L34.69 4.86L28.37 11.17L22.06 4.87L18.98 5.69L28.38 0.25L37.77 5.68Z" stroke="black" stroke-width="0.5" stroke-linecap="round" stroke-linejoin="round"/>
<path d="M37.85 51.07L28.39 56.52V45.62L34.69 51.92L37.85 51.07Z" stroke="black" stroke-width="0.5" stroke-linecap="round" stroke-linejoin="round"/>
<path d="M19.78 37L16.22 40.56H16.2V40.58L8.49998 48.28L5.67998 37.77L4.84998 34.68L11.16 28.38L13.17 30.39L16.2 33.43L19.78 37Z" fill="black" stroke="black" stroke-width="0.5" stroke-linecap="round" stroke-linejoin="round"/>
<path d="M16.2199 40.5599L16.2 40.5799V40.5599H16.2199Z" fill="black" stroke="black" stroke-width="0.5" stroke-linecap="round" stroke-linejoin="round"/>
<path d="M51.9 22.06L40.55 19.03L38.33 18.44L37.73 16.2L36.04 9.88999L34.69 4.85999L37.77 5.67999H37.78L48.28 8.47998L51.06 18.89L51.9 22.06Z" stroke="black" stroke-width="0.5" stroke-linecap="round" stroke-linejoin="round"/>
<path d="M36.99 36.9899L48.28 48.2799L37.85 51.0699L34.69 51.9199L28.39 45.6199L22.08 51.9299L19.02 51.1099L8.5 48.2799L19.78 36.9999L16.2 33.4299L13.17 30.3899L11.16 28.3799L4.87 22.0899L9.89999 20.7399L16.21 19.0399L18.45 18.4399L19.77 19.7699L28.39 28.3799L37 19.7799L38.33 18.4399L40.55 19.0299L51.9 22.0599L45.6 28.3699L40.56 33.4099L36.99 36.9899Z" stroke="black" stroke-width="0.5" stroke-linecap="round" stroke-linejoin="round"/>
<path d="M22.06 4.87L20.72 9.89999L19.04 16.22L18.45 18.44L16.21 19.04L9.89998 20.74L4.86999 22.09H4.85999L5.67999 19L8.48998 8.5L18.98 5.69L22.06 4.87Z" stroke="black" stroke-width="0.5" stroke-linecap="round" stroke-linejoin="round"/>
<path d="M38.33 18.44L37 19.78L28.39 28.38L19.77 19.77L18.45 18.44L19.04 16.22L20.72 9.89998L22.06 4.86999L28.37 11.17L34.69 4.85999L36.04 9.88999L37.73 16.2L38.33 18.44Z" fill="black" stroke="black" stroke-width="0.5" stroke-linecap="round" stroke-linejoin="round"/>
<path d="M51.94 34.69L51.12 37.73L48.28 48.28L36.99 36.99L40.56 33.41L45.59 28.38H45.62L51.94 34.69Z" fill="black" stroke="black" stroke-width="0.5" stroke-linecap="round" stroke-linejoin="round"/>
<path d="M45.62 28.38H45.59L45.6 28.37L45.62 28.38Z" fill="black" stroke="black" stroke-width="0.5" stroke-linecap="round" stroke-linejoin="round"/>
</svg>
