<svg width="57" height="57" viewBox="0 0 57 57" fill="none" xmlns="http://www.w3.org/2000/svg">
<path d="M19.78 36.9999L16.22 40.5599H7.29999L13.17 30.3899L16.2 33.4299L19.78 36.9999Z" fill="white" stroke="black" stroke-width="0.5" stroke-linecap="round" stroke-linejoin="round"/>
<path d="M56.52 28.3799L51.12 37.7299L49.48 40.5699H40.57L36.99 36.9899L40.56 33.4099L45.59 28.3799H56.52Z" fill="white" stroke="black" stroke-width="0.5" stroke-linecap="round" stroke-linejoin="round"/>
<path d="M45.6 28.3699L51.9 22.0599L40.55 19.0299L38.33 18.4399L37 19.7799L28.39 28.3799L19.77 19.7699L18.45 18.4399L16.21 19.0399L9.9 20.7399L4.87 22.0899L11.16 28.3799L0.25 28.3899L5.68 18.9999L7.29 16.2299L16.21 16.2199H19.04L23.33 16.2099H33.42L37.73 16.1999H40.55L49.5 16.1899L51.06 18.8899L56.52 28.3799H45.59L45.6 28.3699Z" fill="black" stroke="black" stroke-width="0.5" stroke-linecap="round" stroke-linejoin="round"/>
<path d="M13.17 30.3899L7.31 40.5599H7.3L5.68 37.7699L0.25 28.3899L11.16 28.3799L13.17 30.3899Z" fill="white" stroke="black" stroke-width="0.5" stroke-linecap="round" stroke-linejoin="round"/>
<path d="M16.2 33.4301L19.78 37.0001L16.2 40.5801V33.4301Z" fill="black" stroke="black" stroke-width="0.5" stroke-linecap="round" stroke-linejoin="round"/>
<path d="M28.39 14.33V28.38L19.77 19.77L18.45 18.44L16.21 19.04V7.30005L20.72 9.90005L26.38 13.17L28.39 14.33Z" fill="black" stroke="black" stroke-width="0.5" stroke-linecap="round" stroke-linejoin="round"/>
<path d="M28.39 45.62V56.52L19.02 51.11L22.08 51.93L28.39 45.62Z" fill="black" stroke="black" stroke-width="0.5" stroke-linecap="round" stroke-linejoin="round"/>
<path d="M16.21 7.3L28.38 0.25L40.54 7.28L28.39 14.33L16.21 7.3Z" fill="white" stroke="black" stroke-width="0.5" stroke-linecap="round" stroke-linejoin="round"/>
<path d="M37.85 51.07L28.39 56.52V45.62L34.69 51.92L37.85 51.07Z" fill="white" stroke="black" stroke-width="0.5" stroke-linecap="round" stroke-linejoin="round"/>
<path d="M40.55 16.2V19.03L38.33 18.44L37 19.78L28.39 28.38V14.33L30.38 13.17L36.04 9.89003L40.54 7.28003L40.55 16.2Z" fill="white" stroke="black" stroke-width="0.5" stroke-linecap="round" stroke-linejoin="round"/>
<path d="M40.57 40.57L36.99 36.99L40.56 33.41L40.57 40.57Z" fill="white" stroke="black" stroke-width="0.5" stroke-linecap="round" stroke-linejoin="round"/>
<path d="M16.2 33.43L19.78 37L8.49998 48.28L5.67998 37.77L4.84998 34.68L11.16 28.38L13.17 30.39L16.2 33.43Z" fill="black" stroke="black" stroke-width="0.5" stroke-linecap="round" stroke-linejoin="round"/>
<path d="M38.33 18.44L37 19.78L28.39 28.38L19.77 19.77L23.33 16.21L26.38 13.17L28.37 11.17L34.69 4.85999L36.04 9.88999L37.73 16.2L38.33 18.44Z" fill="black" stroke="black" stroke-width="0.5" stroke-linecap="round" stroke-linejoin="round"/>
<path d="M51.9 22.06L40.55 19.03L38.33 18.44L37.73 16.2L36.04 9.88999L34.69 4.85999L37.77 5.67999H37.78L48.28 8.47998L51.06 18.89L51.9 22.06Z" fill="white" stroke="black" stroke-width="0.5" stroke-linecap="round" stroke-linejoin="round"/>
<path d="M48.28 48.2799L37.85 51.0699L34.69 51.9199L28.39 45.6199L22.08 51.9299L19.02 51.1099L8.5 48.2799L19.78 36.9999L16.2 33.4299L13.17 30.3899L11.16 28.3799L4.87 22.0899L9.89999 20.7399L16.21 19.0399L18.45 18.4399L19.77 19.7699L28.39 28.3799L37 19.7799L38.33 18.4399L40.55 19.0299L51.9 22.0599L45.6 28.3699L40.56 33.4099L36.99 36.9899L48.28 48.2799Z" fill="white" stroke="black" stroke-width="0.5" stroke-linecap="round" stroke-linejoin="round"/>
<path d="M22.06 4.87L20.72 9.89999L19.04 16.22L18.45 18.44L16.21 19.04L9.89998 20.74L4.86999 22.09H4.85999L5.67999 19L8.48998 8.5L18.98 5.69L22.06 4.87Z" fill="white" stroke="black" stroke-width="0.5" stroke-linecap="round" stroke-linejoin="round"/>
<path d="M37 19.78L28.39 28.38L19.77 19.77L18.45 18.44L19.04 16.22L20.72 9.89999L22.06 4.87L28.37 11.17L30.38 13.17L33.42 16.21L37 19.78Z" fill="black" stroke="black" stroke-width="0.5" stroke-linecap="round" stroke-linejoin="round"/>
<path d="M51.94 34.69L51.12 37.73L48.28 48.28L36.99 36.99L40.56 33.41L45.6 28.37L45.62 28.38L51.94 34.69Z" fill="black" stroke="black" stroke-width="0.5" stroke-linecap="round" stroke-linejoin="round"/>
</svg>
