<svg width="59" height="57" viewBox="0 0 59 57" fill="none" xmlns="http://www.w3.org/2000/svg">
<g clip-path="url(#clip0_105_191)">
<path d="M48.5521 1.25001L48.5533 1.25C49.7629 1.24887 50.9606 1.48414 52.0778 1.94205C53.1949 2.39995 54.2092 3.07135 55.0629 3.91727C55.9166 4.76316 56.593 5.76694 57.0538 6.87086C57.5147 7.97475 57.7511 9.15745 57.75 10.3514V10.3526V46.6474V46.6486C57.7511 47.8426 57.5147 49.0253 57.0538 50.1292C56.593 51.2331 55.9166 52.2368 55.0629 53.0827C54.2092 53.9287 53.1949 54.6001 52.0778 55.058C50.9606 55.5159 49.7629 55.7511 48.5533 55.75H48.5521H10.4479H10.4468C9.23711 55.7511 8.03939 55.5159 6.92223 55.058C5.80508 54.6001 4.79078 53.9287 3.93707 53.0827C3.08338 52.2368 2.40704 51.2331 1.94619 50.1292C1.48534 49.0253 1.24887 47.8426 1.25 46.6486V46.6474L1.25001 10.3526L1.25 10.3514C1.24887 9.15745 1.48534 7.97475 1.94619 6.87086C2.40704 5.76694 3.08338 4.76316 3.93707 3.91727C4.79078 3.07135 5.80508 2.39995 6.92223 1.94205C8.03939 1.48414 9.23712 1.24887 10.4468 1.25H10.4479L48.5521 1.25001Z" stroke="#52525B" stroke-width="2.5"/>
<path d="M23.3542 46.7692C26.7485 46.7692 29.5 44.0427 29.5 40.6795V34.5897H23.3542C19.96 34.5897 17.2084 37.3162 17.2084 40.6795C17.2084 44.0427 19.96 46.7692 23.3542 46.7692Z" stroke="#52525B" stroke-width="2.5"/>
<path d="M17.2084 28.4999C17.2084 25.1366 19.96 22.4102 23.3542 22.4102H29.5V34.5896H23.3542C19.96 34.5896 17.2084 31.8632 17.2084 28.4999Z" stroke="#52525B" stroke-width="2.5"/>
<path d="M17.2084 16.3205C17.2084 12.9572 19.96 10.2307 23.3542 10.2307H29.5V22.4102H23.3542C19.96 22.4102 17.2084 19.6837 17.2084 16.3205Z" stroke="#52525B" stroke-width="2.5"/>
<path d="M29.5 10.2307H35.6458C39.0401 10.2307 41.7917 12.9572 41.7917 16.3205C41.7917 19.6837 39.0401 22.4102 35.6458 22.4102H29.5V10.2307Z" stroke="#52525B" stroke-width="2.5"/>
<path d="M41.7917 28.4999C41.7917 31.8632 39.0401 34.5896 35.6458 34.5896C32.2516 34.5896 29.5 31.8632 29.5 28.4999C29.5 25.1366 32.2516 22.4102 35.6458 22.4102C39.0401 22.4102 41.7917 25.1366 41.7917 28.4999Z" stroke="#52525B" stroke-width="2.5"/>
</g>
<defs>
<clipPath id="clip0_105_191">
<rect width="59" height="57" fill="white"/>
</clipPath>
</defs>
</svg>
