<?xml version="1.0" encoding="UTF-8"?>
<svg id="Layer_1" data-name="Layer 1" xmlns="http://www.w3.org/2000/svg" viewBox="0 0 318.84 319.64">
  <defs>
    <style>
      .cls-1 {
        fill: #fff;
        stroke: #fff;
        stroke-miterlimit: 10;
        stroke-width: .5px;
      }
    </style>
  </defs>
  <path class="cls-1" d="m318.84,295.83l-23.12,23.12L94.04,117.27c-9.33-9.33-19.4-21.93-30.22-37.79-10.82-15.87-19.98-27.56-27.5-35.07l-1.16,1.17c6.22,16.06,10.88,31.09,13.99,45.08,3.11,13.99,4.63,27.1,4.57,39.34-.06,12.24-.65,22.67-1.75,31.28-1.1,8.61-3.01,18.81-5.73,30.6l-41.39-2.92c9.58-32.64,14.09-62.14,13.5-88.5-.58-26.36-6.7-54.96-18.36-85.78L13.99.69c30.7,11.53,59.3,17.58,85.78,18.16,26.49.58,56.12-3.98,88.89-13.7l2.72,41.58c-11.79,2.46-21.92,4.24-30.41,5.34-8.48,1.1-18.85,1.68-31.09,1.75-12.24.06-25.36-1.46-39.35-4.57-13.99-3.11-29.01-7.77-45.08-13.99l-1.17,1.17c7.51,7.51,19.2,16.67,35.07,27.49,15.86,10.81,28.46,20.89,37.79,30.21l201.68,201.68Z"/>
</svg>