<?xml version="1.0" encoding="UTF-8"?>
<svg id="Layer_1" data-name="Layer 1" xmlns="http://www.w3.org/2000/svg" viewBox="0 0 100 100">
  <defs>
    <style>
      .cls-1 {
        fill: #020001;
      }
    </style>
  </defs>
  <path class="cls-1" d="m50,0c2.63,8.77,4.72,17.47,6.7,26.21,6.75-6.74,14.13-13.9,22.85-22.13-4.83,9.71-8.56,19.02-11.69,28.07,9.05-3.13,18.36-6.86,28.07-11.69-8.23,8.72-15.39,16.1-22.13,22.85,8.74,1.98,17.44,4.07,26.21,6.7-8.77,2.63-17.47,4.72-26.21,6.7,6.74,6.75,13.9,14.13,22.13,22.85-9.71-4.83-19.02-8.56-28.07-11.69,3.13,9.05,6.86,18.36,11.69,28.07-8.72-8.23-16.1-15.39-22.85-22.13-1.98,8.74-4.07,17.44-6.7,26.21-2.63-8.77-4.72-17.47-6.7-26.21-6.75,6.74-14.13,13.9-22.85,22.13,4.83-9.71,8.56-19.02,11.69-28.07-9.05,3.13-18.36,6.86-28.07,11.69,8.23-8.72,15.39-16.1,22.13-22.85C17.47,54.72,8.77,52.63,0,50c8.77-2.63,17.47-4.72,26.21-6.7-6.74-6.75-13.9-14.13-22.13-22.85,9.71,4.83,19.02,8.56,28.07,11.69-3.13-9.05-6.86-18.36-11.69-28.07,8.72,8.23,16.1,15.39,22.85,22.13,1.98-8.74,4.07-17.44,6.7-26.21Z"/>
</svg>