<?xml version="1.0" encoding="UTF-8"?>
<svg id="Layer_1" data-name="Layer 1" xmlns="http://www.w3.org/2000/svg" viewBox="0 0 100 100">
  <defs>
    <style>
      .cls-1 {
        fill: #020001;
      }
    </style>
  </defs>
  <path class="cls-1" d="m50,100c-.21,0-.37-.17-.37-.37,0-1.29,0-2.55,0-3.78,0-2.56,0-4.99,0-7.27-.03-9.31-.19-16.12-.96-21.29-.8-5.43-2.23-8.92-4.64-11.33-2.41-2.41-5.9-3.84-11.33-4.64-5.17-.76-11.98-.93-21.29-.96-1.16,0-2.35,0-3.59,0s-2.43,0-3.69,0c-1.22,0-2.47,0-3.76,0-.21,0-.37-.17-.37-.37H0c0-.21.17-.37.37-.37,1.29,0,2.54,0,3.76,0,1.26,0,2.49,0,3.69,0s2.43,0,3.59,0c9.31-.03,16.12-.19,21.29-.96,5.43-.8,8.92-2.23,11.33-4.64,2.41-2.41,3.84-5.9,4.64-11.33.76-5.17.93-11.98.96-21.29,0-2.29,0-4.72,0-7.3,0-1.03,0-2.93,0-3.74,0-.21.17-.38.38-.37h0c.2,0,.37.17.37.37,0,1.29,0,2.54,0,3.76,0,2.56,0,4.99,0,7.27.03,9.31.19,16.12.96,21.29.8,5.43,2.23,8.92,4.64,11.33,2.41,2.41,5.9,3.84,11.33,4.64,5.17.76,11.98.93,21.29.96,1.16,0,2.35,0,3.59,0s2.43,0,3.69,0c1.22,0,2.47,0,3.76,0,.21,0,.37.17.37.37h0c0,.21-.17.37-.37.37-1.29,0-2.54,0-3.76,0-1.26,0-2.49,0-3.69,0s-2.43,0-3.59,0c-9.31.03-16.12.19-21.29.96-5.43.8-8.92,2.23-11.33,4.64s-3.84,5.9-4.64,11.33c-.76,5.17-.93,11.98-.96,21.29,0,2.29,0,4.72,0,7.3,0,1.22,0,2.47,0,3.75,0,.21-.17.37-.37.37h0Z"/>
</svg>