<svg width="16" height="16" viewBox="0 0 16 16" fill="none" xmlns="http://www.w3.org/2000/svg">
<path d="M9.68368 15.5761C10.0885 15.4884 10.3457 15.0892 10.258 14.6844C10.1704 14.2795 9.7712 14.0224 9.36636 14.11L9.68368 15.5761ZM3.73562 12.5647C3.43222 12.2827 2.95767 12.3 2.67567 12.6034C2.39367 12.9068 2.41102 13.3814 2.71442 13.6634L3.73562 12.5647ZM8.28613 1.75743C8.70001 1.77394 9.04892 1.4518 9.06542 1.03792C9.08193 0.624031 8.75979 0.27513 8.34591 0.258623L8.28613 1.75743ZM3.83802 2.38403L4.28292 2.98782L4.28357 2.98734L3.83802 2.38403ZM2.86429 2.20888C2.55493 2.48432 2.52743 2.95839 2.80287 3.26776C3.07831 3.57712 3.55239 3.60462 3.86175 3.32918L2.86429 2.20888ZM7.71321 14.2456C7.29933 14.229 6.9503 14.551 6.93363 14.9648C6.91695 15.3787 7.23895 15.7277 7.65283 15.7444L7.71321 14.2456ZM13.2443 13.6955C13.5494 13.4153 13.5696 12.9409 13.2895 12.6358C13.0093 12.3307 12.5349 12.3104 12.2298 12.5906L13.2443 13.6955ZM6.31479 0.425908C5.9099 0.513296 5.65251 0.912366 5.7399 1.31726C5.82729 1.72215 6.22636 1.97953 6.63125 1.89215L6.31479 0.425908ZM12.2388 3.41962C12.5435 3.70028 13.018 3.68084 13.2986 3.3762C13.5793 3.07157 13.5598 2.59709 13.2552 2.31643L12.2388 3.41962ZM13.2548 2.31608C12.95 2.03563 12.4755 2.0554 12.1951 2.36024C11.9146 2.66507 11.9344 3.13953 12.2392 3.41998L13.2548 2.31608ZM14.9993 8.00722L14.2493 8.00649L14.2493 8.00649L14.9993 8.00722ZM12.2303 12.5891C11.9249 12.8689 11.9042 13.3434 12.1841 13.6487C12.4639 13.9541 12.9384 13.9748 13.2437 13.695L12.2303 12.5891ZM13.3692 3.28677C13.6005 2.94313 13.5094 2.47708 13.1658 2.24581C12.8221 2.01454 12.3561 2.10564 12.1248 2.44928L13.3692 3.28677ZM12.114 13.5596C12.3446 13.9037 12.8105 13.9957 13.1546 13.7651C13.4986 13.5345 13.5906 13.0686 13.36 12.7245L12.114 13.5596ZM2.7187 13.6626C3.02224 13.9445 3.49679 13.9269 3.77863 13.6233C4.06047 13.3198 4.04288 12.8453 3.73934 12.5634L2.7187 13.6626ZM1.00059 7.91129L1.75052 7.92101L1.00059 7.91129ZM3.85893 3.33167C4.16967 3.05779 4.19955 2.58386 3.92567 2.27311C3.65178 1.96237 3.17785 1.9325 2.86711 2.20638L3.85893 3.33167ZM2.61269 12.6857C2.37666 13.0261 2.46127 13.4933 2.80166 13.7294C3.14205 13.9654 3.60932 13.8808 3.84535 13.5404L2.61269 12.6857ZM3.99021 2.35778C3.76308 2.01139 3.29816 1.91471 2.95177 2.14183C2.60538 2.36896 2.5087 2.83389 2.73582 3.18028L3.99021 2.35778ZM9.36636 14.11C7.34968 14.5465 5.24698 13.9694 3.73562 12.5647L2.71442 13.6634C4.58505 15.4021 7.1876 16.1163 9.68368 15.5761L9.36636 14.11ZM8.34591 0.258623C6.56969 0.187783 4.82242 0.724687 3.39247 1.78072L4.28357 2.98734C5.43902 2.13403 6.85089 1.70019 8.28613 1.75743L8.34591 0.258623ZM3.39312 1.78024C3.20994 1.91521 3.03364 2.0581 2.86429 2.20888L3.86175 3.32918C3.9964 3.20929 4.13676 3.09551 4.28292 2.98782L3.39312 1.78024ZM7.65283 15.7444C9.71421 15.8275 11.7246 15.0908 13.2443 13.6955L12.2298 12.5906C11.0022 13.7176 9.37833 14.3127 7.71321 14.2456L7.65283 15.7444ZM6.63125 1.89215C8.63762 1.45911 10.7293 2.02886 12.2388 3.41962L13.2552 2.31643C11.3868 0.595114 8.79804 -0.110053 6.31479 0.425908L6.63125 1.89215ZM12.2392 3.41998C13.5218 4.59997 14.2509 6.26367 14.2493 8.00649L15.7493 8.00795C15.7514 5.8451 14.8465 3.78044 13.2548 2.31608L12.2392 3.41998ZM14.2493 8.00649C14.2476 9.74932 13.5152 11.4116 12.2303 12.5891L13.2437 13.695C14.8383 12.2337 15.7471 10.1708 15.7493 8.00795L14.2493 8.00649ZM12.1248 2.44928C9.86519 5.80684 9.86091 10.1976 12.114 13.5596L13.36 12.7245C11.4462 9.86866 11.4498 6.13888 13.3692 3.28677L12.1248 2.44928ZM3.73934 12.5634C2.45023 11.3665 1.72774 9.67997 1.75052 7.92101L0.250649 7.90158C0.222372 10.0844 1.11896 12.1773 2.7187 13.6626L3.73934 12.5634ZM1.75052 7.92101C1.77331 6.16204 2.53925 4.49483 3.85893 3.33167L2.86711 2.20638C1.22943 3.64981 0.278926 5.71876 0.250649 7.90158L1.75052 7.92101ZM3.84535 13.5404C6.16802 10.1907 6.22533 5.76652 3.99021 2.35778L2.73582 3.18028C4.63571 6.07777 4.58699 9.83837 2.61269 12.6857L3.84535 13.5404Z" fill="white"/>
</svg>
