<svg width="586" height="156" viewBox="0 0 586 156" fill="none" xmlns="http://www.w3.org/2000/svg">
<path d="M563.876 20.475C570.109 26.5202 573.236 33.9732 573.236 42.8339C573.236 51.6947 570.109 59.541 563.876 65.6276C557.643 71.735 549.857 74.7782 540.518 74.7782C531.178 74.7782 523.496 71.7764 517.304 65.7933C511.133 59.8102 508.027 52.3158 508.027 43.2894C508.027 34.263 511.112 26.3546 517.263 20.3715C523.413 14.3884 531.282 11.3865 540.849 11.3865C550.416 11.3865 557.602 14.4091 563.835 20.4543M508.296 12.2974C499.847 20.475 495.623 30.8057 495.623 43.2894C495.623 55.7731 499.827 65.5862 508.213 73.6603C516.6 81.7344 527.099 85.7714 539.71 85.7714C552.321 85.7714 563.835 81.7344 572.511 73.6603C581.188 65.5862 585.516 55.3798 585.516 43.041C585.516 30.7021 581.209 20.4543 572.615 12.2767C564.021 4.09914 553.253 0 540.331 0C527.409 0 516.724 4.09914 508.275 12.2767M441.058 12.5044C443.646 12.9392 446.4 13.8501 449.279 15.1958C452.157 16.5415 454.745 18.2805 456.982 20.3922C463.049 26.0647 466.073 33.3728 466.073 42.3578C466.073 51.3428 463.112 59.0649 457.21 65.048C455.367 66.8905 453.358 68.4225 451.142 69.6854C448.927 70.9482 446.172 71.9834 442.859 72.7908C439.546 73.5982 434.907 74.0122 428.923 74.0122H413.599V11.842H428.571C434.327 11.842 438.49 12.0697 441.078 12.5044M428.094 84.6741C435.508 84.6741 440.54 84.4671 443.17 84.0531C445.8 83.639 448.699 82.8109 451.846 81.5687C457.23 79.5399 461.973 76.5173 466.031 72.5424C470.028 68.6709 473.093 64.1785 475.246 59.0649C477.4 53.9513 478.477 48.61 478.477 43.0203C478.477 35.1946 476.53 27.9694 472.616 21.3652C468.703 14.7403 463.443 9.73028 456.816 6.31433C450.19 2.89838 441.182 1.20075 429.813 1.20075H401.63V84.6949H428.094V84.6741ZM355.493 84.7984H367.462V1.20075H355.493V84.7984ZM303.826 12.6908C306.353 13.5603 308.32 15.0716 309.728 17.204C311.116 19.3363 311.82 21.7172 311.82 24.3464C311.82 26.9756 311.198 29.3979 309.935 31.4888C308.672 33.5798 306.912 35.1532 304.675 36.1884C302.418 37.2235 298.256 37.7411 292.188 37.7411H287.633V11.3451H291.215C297.076 11.3451 301.279 11.7799 303.826 12.6701M285.873 84.7777V48.3823H288.979C292.893 48.3823 295.688 48.8377 297.345 49.728C299.001 50.6182 300.865 52.0881 302.915 54.1169C304.965 56.1458 307.243 58.8786 309.707 62.3152L313.704 68.8366L317.411 74.9439L319.751 78.2356C320.103 78.7118 320.351 79.043 320.475 79.25L324.12 84.757H338.367L333.936 78.7739C332.175 76.3931 329.835 72.8115 326.936 68.0706C322.298 60.5348 318.715 55.2349 316.168 52.2123C313.621 49.1897 310.991 46.7882 308.32 45.0284C312.876 43.2687 316.355 40.6187 318.798 37.0786C321.242 33.5384 322.443 29.3151 322.443 24.4499C322.443 17.3075 319.958 11.6349 314.988 7.45298C310.018 3.27103 303.309 1.18005 294.839 1.18005H273.883V84.7777H285.852H285.873ZM221.202 12.6701C223.728 13.5396 225.695 15.0509 227.104 17.1833C228.491 19.3156 229.195 21.6965 229.195 24.3257C229.195 26.955 228.574 29.3772 227.311 31.4681C226.047 33.5591 224.287 35.1325 222.051 36.1677C219.794 37.2028 215.631 37.7204 209.564 37.7204H205.008V11.3244H208.591C214.451 11.3244 218.655 11.7592 221.202 12.6494M203.952 84.757V48.3616H207.058C210.972 48.3616 213.768 48.817 215.424 49.7072C217.081 50.5975 218.945 52.0674 220.995 54.0962C223.045 56.1251 225.323 58.8579 227.787 62.2945L231.784 68.8159L235.49 74.9232L237.83 78.2149C238.182 78.6911 238.431 79.0223 238.534 79.2293L242.179 84.7363H256.426L251.994 78.7532C250.234 76.3724 247.894 72.7908 244.995 68.0499C240.377 60.5141 236.774 55.2142 234.227 52.1916C231.68 49.169 229.05 46.7675 226.379 45.0077C230.935 43.248 234.413 40.598 236.857 37.0579C239.3 33.5177 240.502 29.2944 240.502 24.4292C240.502 17.2868 238.017 11.6142 233.047 7.43228C228.077 3.25033 221.367 1.15936 212.898 1.15936H191.942V84.757H203.911H203.952ZM120.603 49.3346L133.11 19.0465L146.612 49.3346H120.603ZM93.1027 84.757H105.403L115.861 59.9758H151.54L162.681 84.757H174.94L137.438 0.662487H129.031L93.1027 84.757ZM48.1873 54.2411H64.298V71.6521L63.1591 72.0041C56.4911 74.1986 50.7551 75.2958 45.9715 75.2958C36.1146 75.2958 28.0592 72.2939 21.7847 66.2694C15.5102 60.2449 12.3833 52.4814 12.3833 42.9996C12.3833 33.5177 15.5102 26.2925 21.7847 20.0816C28.0385 13.8501 35.7418 10.7447 44.8947 10.7447C54.7103 10.7447 64.6087 13.6431 74.5899 19.4192V7.20455C68.129 4.49249 62.7864 2.62924 58.5412 1.61481C54.3168 0.600376 49.8439 0.0828128 45.1225 0.0828128C32.2008 0.0828128 21.4327 4.22335 12.8596 12.5251C4.28653 20.8269 0 31.2197 0 43.7035C0 56.1872 4.14158 65.5241 12.4247 73.5982C20.7079 81.6723 31.7659 85.7093 45.6195 85.7093C55.7457 85.7093 65.9754 83.4734 76.2672 79.0016V43.5792H48.1873V54.2411Z" fill="white"/>
<path d="M581.994 129.848V151.689L563.046 129.848H561.41V154.836H563.336V132.994L582.346 154.836H583.94V129.848H582.015H581.994ZM544.865 129.516C541.013 129.516 537.803 130.738 535.256 133.16C532.709 135.582 531.425 138.626 531.425 142.269C531.425 145.913 532.73 148.998 535.318 151.461C537.907 153.925 541.137 155.146 545.03 155.146C547.992 155.146 550.953 154.442 553.914 153.035V143.47H546.687V145.085H551.967V151.834C549.98 152.869 547.702 153.366 545.113 153.366C541.551 153.366 538.735 152.31 536.644 150.219C534.573 148.128 533.537 145.499 533.537 142.331C533.537 139.164 534.594 136.535 536.685 134.444C538.777 132.353 541.406 131.297 544.575 131.297C547.515 131.297 550.477 132.125 553.438 133.823V131.649C550.352 130.22 547.495 129.516 544.865 129.516ZM522.293 154.815H524.219V129.827H522.293V154.815ZM508.543 129.516C506.555 129.516 504.878 130.158 503.47 131.462C502.061 132.746 501.357 134.319 501.357 136.162C501.357 137.487 501.647 138.563 502.227 139.412C502.807 140.24 503.511 140.903 504.339 141.358C505.168 141.814 506.555 142.414 508.481 143.159C510.407 143.905 511.691 144.691 512.333 145.54C512.954 146.389 513.285 147.341 513.285 148.418C513.285 149.805 512.767 150.985 511.753 151.958C510.738 152.931 509.475 153.407 508.005 153.407C506.224 153.407 504.132 152.517 501.709 150.737V153.014C503.904 154.463 506.037 155.188 508.108 155.188C510.179 155.188 511.856 154.525 513.264 153.2C514.673 151.875 515.377 150.26 515.377 148.335C515.377 146.886 515.066 145.727 514.465 144.816C513.865 143.905 513.119 143.222 512.25 142.745C511.38 142.269 509.993 141.669 508.108 140.965C506.203 140.24 504.961 139.495 504.36 138.729C503.759 137.963 503.47 137.073 503.47 136.121C503.47 134.775 503.967 133.636 504.981 132.725C505.996 131.814 507.238 131.359 508.75 131.359C510.262 131.359 512.188 132.001 514.341 133.264V131.131C512.436 130.075 510.51 129.558 508.564 129.558M482.099 129.889V154.877H496.015V153.262H484.025V143.118H495.414V141.503H484.025V131.504H495.725V129.889H482.099ZM461.225 131.504C464.601 131.504 467.355 132.518 469.467 134.547C471.579 136.576 472.656 139.185 472.656 142.393C472.656 145.602 471.579 148.314 469.426 150.281C467.272 152.269 464.58 153.262 461.35 153.262H454.309V131.504H461.225ZM452.362 154.877H461.453C465.698 154.877 468.97 153.697 471.289 151.337C473.588 148.977 474.748 145.996 474.748 142.393C474.748 138.791 473.588 135.706 471.248 133.388C468.908 131.069 465.533 129.91 461.122 129.91H452.383V154.898L452.362 154.877ZM419.478 153.407C417.967 153.407 416.786 153.014 415.917 152.248C415.068 151.482 414.633 150.385 414.633 149.018C414.633 147.652 415.068 146.534 415.937 145.602C416.807 144.671 418.153 143.801 420.017 143.015L426.353 149.619C424.262 152.165 421.963 153.428 419.458 153.428M417.49 135.727C417.49 134.733 417.863 133.885 418.629 133.201C419.395 132.518 420.327 132.166 421.446 132.166C422.564 132.166 423.434 132.498 424.138 133.181C424.842 133.864 425.214 134.713 425.214 135.727C425.214 137.818 423.661 139.516 420.534 140.82C418.505 138.978 417.49 137.28 417.49 135.727ZM427.43 148.087L421.798 142.145C425.277 140.385 426.995 138.17 426.995 135.541C426.995 134.071 426.478 132.829 425.442 131.856C424.407 130.883 423.102 130.386 421.528 130.386C419.851 130.386 418.443 130.903 417.304 131.98C416.165 133.036 415.585 134.319 415.585 135.851C415.585 137.57 416.621 139.516 418.691 141.69C414.571 143.491 412.5 146.037 412.5 149.308C412.5 151.068 413.1 152.496 414.301 153.594C415.502 154.691 417.076 155.229 419.043 155.229C422.336 155.229 425.194 153.821 427.637 151.006L431.406 154.919H433.87L428.776 149.557C430.309 147.279 431.448 144.919 432.234 142.476H430.184C429.48 144.547 428.569 146.43 427.43 148.128M375.412 129.951V131.566H384.793V154.939H386.739V131.566H396.12V129.951H375.412ZM361.703 131.566C363.815 131.566 365.451 132.001 366.59 132.849C367.729 133.719 368.288 134.899 368.288 136.452C368.288 138.004 367.729 139.226 366.611 140.075C365.493 140.924 363.878 141.358 361.765 141.358H357.624V131.566H361.703ZM355.698 154.939H357.624V142.952H360.999C362.552 142.952 363.753 143.242 364.561 143.801C365.369 144.36 366.508 145.789 367.957 148.087L372.306 154.939H374.584L368.93 146.306C367.543 144.153 366.425 142.89 365.596 142.497C368.765 141.338 370.359 139.309 370.359 136.41C370.359 134.423 369.655 132.849 368.226 131.69C366.818 130.531 364.747 129.951 362.076 129.951H355.677V154.939H355.698ZM332.629 144.691L337.993 132.932L343.377 144.691H332.629ZM337.475 129.765L325.92 154.939H327.949L331.884 146.306H344.102L348.057 154.939H350.086L338.531 129.765H337.475ZM310.306 129.951L302.002 139.847L293.636 129.951H291.296L301.008 141.524V154.939H302.934V141.524L312.646 129.951H310.286H310.306ZM278.105 131.566C280.218 131.566 281.854 132.001 282.993 132.849C284.131 133.719 284.691 134.899 284.691 136.452C284.691 138.004 284.132 139.226 283.013 140.075C281.895 140.924 280.28 141.358 278.168 141.358H274.026V131.566H278.105ZM272.1 154.939H274.026V142.952H277.401C278.975 142.952 280.156 143.242 280.963 143.801C281.771 144.36 282.91 145.789 284.359 148.087L288.708 154.939H290.986L285.333 146.306C283.945 144.153 282.827 142.89 281.999 142.497C285.167 141.338 286.761 139.309 286.761 136.41C286.761 134.423 286.057 132.849 284.628 131.69C283.2 130.531 281.15 129.951 278.478 129.951H272.079V154.939H272.1ZM249.052 144.691L254.416 132.932L259.8 144.691H249.052ZM253.898 129.765L242.343 154.939H244.372L248.307 146.306H260.524L264.48 154.939H266.509L254.954 129.765H253.898ZM227.537 131.545C229.649 131.545 231.285 131.98 232.424 132.829C233.563 133.698 234.122 134.878 234.122 136.431C234.122 137.984 233.563 139.205 232.445 140.054C231.326 140.903 229.711 141.338 227.599 141.338H223.457V131.545H227.537ZM221.532 154.919H223.457V142.932H226.833C228.407 142.932 229.587 143.222 230.394 143.781C231.202 144.34 232.341 145.768 233.791 148.066L238.139 154.919H240.417L234.764 146.286C233.376 144.132 232.258 142.87 231.43 142.476C234.598 141.317 236.193 139.288 236.193 136.39C236.193 134.402 235.489 132.829 234.06 131.669C232.631 130.51 230.581 129.93 227.91 129.93H221.511V154.919H221.532ZM193.1 150.26C190.925 148.128 189.848 145.52 189.848 142.435C189.848 139.35 190.925 136.721 193.1 134.589C195.274 132.456 197.904 131.4 201.031 131.4C204.158 131.4 206.767 132.456 208.92 134.589C211.053 136.721 212.13 139.329 212.13 142.435C212.13 145.54 211.053 148.128 208.92 150.26C206.767 152.393 204.158 153.449 201.031 153.449C197.904 153.449 195.274 152.393 193.1 150.26ZM191.588 133.346C189.02 135.831 187.757 138.874 187.757 142.435C187.757 145.996 189.041 149.018 191.588 151.503C194.156 153.987 197.262 155.229 200.948 155.229C204.634 155.229 207.781 153.987 210.349 151.503C212.917 149.018 214.201 145.996 214.201 142.435C214.201 138.874 212.917 135.831 210.349 133.346C207.781 130.862 204.634 129.62 200.948 129.62C197.262 129.62 194.135 130.862 191.588 133.346ZM174.338 131.545C176.326 131.545 177.838 132.001 178.894 132.912C179.95 133.823 180.488 135.044 180.488 136.576C180.488 138.108 179.95 139.433 178.873 140.323C177.796 141.213 176.202 141.648 174.11 141.648H169.451V131.566H174.338V131.545ZM167.525 154.919H169.451V143.242H174.235C176.968 143.242 179.039 142.642 180.447 141.441C181.855 140.24 182.559 138.605 182.559 136.535C182.559 134.464 181.855 132.891 180.468 131.711C179.06 130.531 177.051 129.951 174.421 129.951H167.546V154.939L167.525 154.919ZM138.244 129.93H136.318V154.919H138.244V132.746L147.791 144.422L157.296 132.746V154.919H159.242V129.93H157.275L147.791 141.524L138.244 129.93ZM115.88 129.93V154.919H129.796V153.304H117.806V143.159H129.195V141.545H117.806V131.545H129.506V129.93H115.88ZM89.5186 129.93V131.545H98.8993V154.919H100.846V131.545H110.227V129.93H89.5186ZM82.0224 129.93V151.772L63.0746 129.93H61.4387V154.919H63.3645V133.077L82.3744 154.919H83.9689V129.93H82.0431H82.0224ZM33.0482 150.26C30.8739 148.128 29.797 145.52 29.797 142.435C29.797 139.35 30.8739 136.721 33.0482 134.589C35.2225 132.456 37.8524 131.4 40.9793 131.4C44.1062 131.4 46.7154 132.456 48.869 134.589C51.0019 136.721 52.0788 139.329 52.0788 142.435C52.0788 145.54 51.0019 148.128 48.869 150.26C46.7361 152.393 44.1062 153.449 40.9793 153.449C37.8524 153.449 35.2018 152.393 33.0482 150.26ZM31.5365 133.346C28.9894 135.831 27.7056 138.874 27.7056 142.435C27.7056 145.996 28.9894 149.018 31.5365 151.503C34.1043 153.987 37.2105 155.229 40.8965 155.229C44.5825 155.229 47.7301 153.987 50.2979 151.503C52.8657 149.018 54.1495 145.996 54.1495 142.435C54.1495 138.874 52.8657 135.831 50.2979 133.346C47.7301 130.862 44.6032 129.62 40.8965 129.62C37.1898 129.62 34.0836 130.862 31.5365 133.346ZM13.3964 129.62C9.81392 129.62 6.72845 130.841 4.13996 133.305C1.55147 135.769 0.267578 138.812 0.267578 142.476C0.267578 146.141 1.53076 149.143 4.05712 151.585C6.6042 154.028 9.7725 155.25 13.5621 155.25C16.5026 155.25 19.4638 154.463 22.425 152.91V150.902C19.2153 152.6 16.2541 153.469 13.5413 153.469C10.2902 153.469 7.59818 152.434 5.50668 150.385C3.41518 148.314 2.35908 145.706 2.35908 142.497C2.35908 139.288 3.41518 136.7 5.48597 134.589C7.57747 132.477 10.166 131.421 13.2721 131.421C16.1712 131.421 19.1532 132.228 22.1765 133.843V131.732C19.1325 130.344 16.2127 129.641 13.3964 129.641" fill="white"/>
</svg>
