<svg width="59" height="58" viewBox="0 0 59 58" fill="none" xmlns="http://www.w3.org/2000/svg">
<g clip-path="url(#clip0_105_104)">
<path d="M48.5521 1.25001L48.5533 1.25C49.7599 1.24886 50.9551 1.48762 52.0707 1.95289C53.1863 2.41817 54.2006 3.10098 55.0553 3.96273C55.91 4.82451 56.5883 5.84832 57.0509 6.97585C57.5135 8.1034 57.7511 9.31222 57.75 10.533V10.5342V47.4658V47.467C57.7511 48.6878 57.5135 49.8966 57.0509 51.0242C56.5883 52.1517 55.91 53.1755 55.0553 54.0373C54.2006 54.899 53.1863 55.5818 52.0707 56.0471C50.9551 56.5124 49.7599 56.7512 48.5533 56.75H48.5521H10.4479H10.4467C9.24012 56.7512 8.04487 56.5124 6.92932 56.0471C5.81375 55.5818 4.79945 54.899 3.94475 54.0373C3.09004 53.1755 2.41172 52.1517 1.94912 51.0242C1.48652 49.8966 1.24886 48.6878 1.25 47.467V47.4658L1.25001 10.5342L1.25 10.533C1.24886 9.31222 1.48652 8.1034 1.94912 6.97585C2.41172 5.84832 3.09004 4.82451 3.94475 3.96273C4.79945 3.10098 5.81374 2.41817 6.92932 1.95289C8.04487 1.48762 9.24012 1.24886 10.4467 1.25H10.4479L48.5521 1.25001Z" stroke="#232323" stroke-width="2.5"/>
<path d="M28.5905 34.8H19.4455L17.5771 40.6248C17.5563 40.731 17.4968 40.8255 17.4103 40.8897C17.3239 40.9539 17.2168 40.9832 17.1101 40.9718H12.4884C12.218 40.9718 12.1442 40.8231 12.218 40.5257L20.1338 17.5488C20.2076 17.3009 20.2813 17.0282 20.3796 16.7308C20.4786 16.1996 20.528 15.6602 20.5271 15.1197C20.5198 15.0576 20.5359 14.995 20.5724 14.9445C20.6089 14.8939 20.663 14.8591 20.7238 14.847H27.0909C27.2876 14.847 27.3859 14.9214 27.4105 15.0453L36.3834 40.5753C36.4571 40.8479 36.3834 40.9718 36.1376 40.9718H30.9996C30.9127 40.9803 30.8257 40.9576 30.7537 40.9077C30.6818 40.8578 30.6296 40.784 30.6063 40.6992L28.5905 34.8ZM20.8713 29.7684H27.1155C26.968 29.2479 26.7713 28.6282 26.5501 27.9838C26.3288 27.3394 26.1076 26.5958 25.8863 25.8522C25.6651 25.1086 25.4192 24.3402 25.1734 23.5718C24.9276 22.8035 24.7063 22.0847 24.5096 21.3658C24.313 20.647 24.1409 20.0274 23.9688 19.4325H23.9196C23.6987 20.5128 23.4197 21.5802 23.0838 22.63C22.7151 23.8197 22.3463 25.059 21.953 26.2983C21.6088 27.5624 21.2401 28.7274 20.8713 29.7684V29.7684Z" fill="#232323"/>
<path d="M41.7425 19.0855C41.339 19.0944 40.9377 19.0223 40.5621 18.8733C40.1865 18.7244 39.844 18.5016 39.5546 18.218C38.9914 17.597 38.6914 16.7786 38.7188 15.9376C38.7042 15.5279 38.7756 15.1196 38.928 14.7395C39.0805 14.3594 39.3108 14.016 39.6038 13.7316C40.1947 13.1685 40.9786 12.8577 41.7917 12.8641C42.7504 12.8641 43.4879 13.1615 44.0288 13.7316C44.5734 14.3326 44.8644 15.1239 44.84 15.9376C44.855 16.3564 44.7866 16.774 44.6388 17.1656C44.491 17.5573 44.2669 17.9151 43.9796 18.218C43.6899 18.5154 43.3403 18.7468 42.9544 18.8965C42.5685 19.0461 42.1552 19.1106 41.7425 19.0855V19.0855ZM38.9892 40.6V21.5145C38.9892 21.2667 39.0875 21.1675 39.3088 21.1675H44.1763C44.3975 21.1675 44.4958 21.2915 44.4958 21.5145V40.6C44.4958 40.8727 44.3975 40.9966 44.1763 40.9966H39.3579C39.3063 41.0009 39.2543 40.9934 39.2059 40.9746C39.1576 40.9558 39.114 40.9262 39.0786 40.8881C39.0431 40.85 39.0167 40.8042 39.0012 40.7544C38.9857 40.7045 38.9816 40.6517 38.9892 40.6V40.6Z" fill="#232323"/>
</g>
<defs>
<clipPath id="clip0_105_104">
<rect width="59" height="58" fill="white"/>
</clipPath>
</defs>
</svg>
