<svg width="676" height="676" viewBox="0 0 676 676" fill="none" xmlns="http://www.w3.org/2000/svg">
<g clip-path="url(#clip0_102_464)">
<rect width="675.999" height="675.999" rx="150" fill="white"/>
<line x1="-141.811" y1="37.835" x2="774.656" y2="37.835" stroke="#B6B6B6" stroke-opacity="0.34" stroke-width="2.99999"/>
<line x1="-141.811" y1="78.8355" x2="774.656" y2="78.8354" stroke="#B6B6B6" stroke-opacity="0.34" stroke-width="2.99999"/>
<line x1="-141.811" y1="119.835" x2="774.656" y2="119.835" stroke="#B6B6B6" stroke-opacity="0.34" stroke-width="2.99999"/>
<line x1="-141.811" y1="160.836" x2="774.656" y2="160.836" stroke="#B6B6B6" stroke-opacity="0.34" stroke-width="2.99999"/>
<line x1="-141.811" y1="201.836" x2="774.656" y2="201.836" stroke="#B6B6B6" stroke-opacity="0.34" stroke-width="2.99999"/>
<line x1="-141.811" y1="242.836" x2="774.656" y2="242.836" stroke="#B6B6B6" stroke-opacity="0.34" stroke-width="2.99999"/>
<line x1="-141.811" y1="283.835" x2="774.656" y2="283.835" stroke="#B6B6B6" stroke-opacity="0.34" stroke-width="2.99999"/>
<line x1="-141.811" y1="324.835" x2="774.656" y2="324.835" stroke="#B6B6B6" stroke-opacity="0.34" stroke-width="2.99999"/>
<line x1="-141.811" y1="365.835" x2="774.656" y2="365.835" stroke="#B6B6B6" stroke-opacity="0.34" stroke-width="2.99999"/>
<line x1="-141.811" y1="406.835" x2="774.656" y2="406.835" stroke="#B6B6B6" stroke-opacity="0.34" stroke-width="2.99999"/>
<line x1="-141.811" y1="447.835" x2="774.656" y2="447.835" stroke="#B6B6B6" stroke-opacity="0.34" stroke-width="2.99999"/>
<line x1="-141.811" y1="488.834" x2="774.656" y2="488.834" stroke="#B6B6B6" stroke-opacity="0.34" stroke-width="2.99999"/>
<line x1="-141.811" y1="529.834" x2="774.656" y2="529.834" stroke="#B6B6B6" stroke-opacity="0.34" stroke-width="2.99999"/>
<line x1="-141.811" y1="570.834" x2="774.656" y2="570.834" stroke="#B6B6B6" stroke-opacity="0.34" stroke-width="2.99999"/>
<line x1="-141.811" y1="611.834" x2="774.656" y2="611.834" stroke="#B6B6B6" stroke-opacity="0.34" stroke-width="2.99999"/>
<line x1="-141.811" y1="652.834" x2="774.656" y2="652.834" stroke="#B6B6B6" stroke-opacity="0.34" stroke-width="2.99999"/>
<line x1="23.0372" y1="825.568" x2="23.0372" y2="-90.8987" stroke="#B6B6B6" stroke-opacity="0.34" stroke-width="2.99999"/>
<line x1="64.0372" y1="825.568" x2="64.0372" y2="-90.8987" stroke="#B6B6B6" stroke-opacity="0.34" stroke-width="2.99999"/>
<line x1="105.037" y1="825.568" x2="105.037" y2="-90.8987" stroke="#B6B6B6" stroke-opacity="0.34" stroke-width="2.99999"/>
<line x1="146.037" y1="825.568" x2="146.037" y2="-90.8987" stroke="#B6B6B6" stroke-opacity="0.34" stroke-width="2.99999"/>
<line x1="187.037" y1="825.568" x2="187.037" y2="-90.8987" stroke="#B6B6B6" stroke-opacity="0.34" stroke-width="2.99999"/>
<line x1="228.037" y1="825.568" x2="228.037" y2="-90.8987" stroke="#B6B6B6" stroke-opacity="0.34" stroke-width="2.99999"/>
<line x1="269.037" y1="825.568" x2="269.037" y2="-90.8987" stroke="#B6B6B6" stroke-opacity="0.34" stroke-width="2.99999"/>
<line x1="310.037" y1="825.568" x2="310.037" y2="-90.8987" stroke="#B6B6B6" stroke-opacity="0.34" stroke-width="2.99999"/>
<line x1="351.037" y1="825.568" x2="351.036" y2="-90.8987" stroke="#B6B6B6" stroke-opacity="0.34" stroke-width="2.99999"/>
<line x1="392.037" y1="825.568" x2="392.036" y2="-90.8987" stroke="#B6B6B6" stroke-opacity="0.34" stroke-width="2.99999"/>
<line x1="433.036" y1="825.568" x2="433.036" y2="-90.8987" stroke="#B6B6B6" stroke-opacity="0.34" stroke-width="2.99999"/>
<line x1="474.036" y1="825.568" x2="474.036" y2="-90.8987" stroke="#B6B6B6" stroke-opacity="0.34" stroke-width="2.99999"/>
<line x1="515.036" y1="825.568" x2="515.036" y2="-90.8987" stroke="#B6B6B6" stroke-opacity="0.34" stroke-width="2.99999"/>
<line x1="556.036" y1="825.568" x2="556.036" y2="-90.8987" stroke="#B6B6B6" stroke-opacity="0.34" stroke-width="2.99999"/>
<line x1="597.036" y1="825.568" x2="597.036" y2="-90.8987" stroke="#B6B6B6" stroke-opacity="0.34" stroke-width="2.99999"/>
<line x1="638.036" y1="825.568" x2="638.036" y2="-90.8987" stroke="#B6B6B6" stroke-opacity="0.34" stroke-width="2.99999"/>
<rect x="-94.9299" y="-165.426" width="255.214" height="1302.47" fill="#FBEAD9" stroke="#FF9A00" stroke-width="20"/>
<path fill-rule="evenodd" clip-rule="evenodd" d="M479.552 244.087C483.966 245.823 488.681 246.664 493.423 246.56C498.273 246.853 503.13 246.101 507.665 244.357C512.2 242.613 516.308 239.916 519.712 236.449C523.088 232.919 525.722 228.749 527.459 224.184C529.195 219.619 529.999 214.752 529.823 209.871C530.109 200.387 526.69 191.165 520.29 184.16C513.934 177.516 505.268 174.049 494.001 174.049C484.447 173.974 475.234 177.597 468.29 184.16C464.847 187.474 462.141 191.477 460.349 195.907C458.557 200.337 457.719 205.095 457.89 209.871C457.568 219.673 461.093 229.212 467.712 236.449C471.113 239.755 475.138 242.351 479.552 244.087ZM461.068 274.871V497.315C460.979 497.918 461.027 498.533 461.209 499.114C461.39 499.695 461.701 500.228 462.118 500.673C462.535 501.117 463.046 501.462 463.615 501.681C464.183 501.899 464.794 501.987 465.401 501.937H522.023C524.623 501.937 525.779 500.493 525.779 497.315V274.871C525.779 272.271 524.623 270.827 522.023 270.827H464.823C462.223 270.827 461.068 271.982 461.068 274.871ZM231.401 429.715H338.868L362.557 498.471C362.83 499.459 363.444 500.32 364.289 500.901C365.135 501.482 366.158 501.747 367.179 501.648H427.556C430.445 501.648 431.312 500.204 430.445 497.026L325.001 199.471C324.712 198.027 323.557 197.16 321.246 197.16H246.424C245.709 197.301 245.073 197.706 244.644 198.296C244.216 198.885 244.026 199.614 244.112 200.338C244.122 206.638 243.542 212.924 242.379 219.116C241.56 221.572 240.887 223.883 240.255 226.049C239.995 226.94 239.743 227.807 239.49 228.649L146.468 496.448C145.602 499.915 146.468 501.648 149.646 501.648H203.957C205.212 501.781 206.47 501.439 207.486 500.691C208.501 499.942 209.2 498.841 209.446 497.604L231.401 429.715ZM321.534 371.071H248.157C252.49 358.938 256.824 345.36 260.868 330.626C263.73 321.684 266.481 312.741 269.189 303.935C270.856 298.518 272.506 293.153 274.157 287.871C278.104 275.636 281.383 263.195 283.979 250.604H284.557C286.579 257.538 288.601 264.76 290.912 273.138C293.223 281.515 295.823 289.893 298.712 298.849C301.601 307.804 304.49 316.76 307.09 325.427C309.69 334.093 312.29 342.76 314.89 350.271C317.49 357.782 319.801 365.004 321.534 371.071Z" fill="#330000"/>
</g>
<defs>
<clipPath id="clip0_102_464">
<rect width="675.999" height="675.999" rx="150" fill="white"/>
</clipPath>
</defs>
</svg>
