<svg width="676" height="676" viewBox="0 0 676 676" fill="none" xmlns="http://www.w3.org/2000/svg">
<g clip-path="url(#clip0_102_505)">
<rect width="675.999" height="675.999" rx="150" fill="white"/>
<line x1="-141.811" y1="37.835" x2="774.656" y2="37.835" stroke="#B6B6B6" stroke-opacity="0.34" stroke-width="2.99999"/>
<line x1="-141.811" y1="78.8355" x2="774.656" y2="78.8354" stroke="#B6B6B6" stroke-opacity="0.34" stroke-width="2.99999"/>
<line x1="-141.811" y1="119.835" x2="774.656" y2="119.835" stroke="#B6B6B6" stroke-opacity="0.34" stroke-width="2.99999"/>
<line x1="-141.811" y1="160.836" x2="774.656" y2="160.836" stroke="#B6B6B6" stroke-opacity="0.34" stroke-width="2.99999"/>
<line x1="-141.811" y1="201.836" x2="774.656" y2="201.836" stroke="#B6B6B6" stroke-opacity="0.34" stroke-width="2.99999"/>
<line x1="-141.811" y1="242.836" x2="774.656" y2="242.836" stroke="#B6B6B6" stroke-opacity="0.34" stroke-width="2.99999"/>
<line x1="-141.811" y1="283.835" x2="774.656" y2="283.835" stroke="#B6B6B6" stroke-opacity="0.34" stroke-width="2.99999"/>
<line x1="-141.811" y1="324.835" x2="774.656" y2="324.835" stroke="#B6B6B6" stroke-opacity="0.34" stroke-width="2.99999"/>
<line x1="-141.811" y1="365.835" x2="774.656" y2="365.835" stroke="#B6B6B6" stroke-opacity="0.34" stroke-width="2.99999"/>
<line x1="-141.811" y1="406.835" x2="774.656" y2="406.835" stroke="#B6B6B6" stroke-opacity="0.34" stroke-width="2.99999"/>
<line x1="-141.811" y1="447.835" x2="774.656" y2="447.835" stroke="#B6B6B6" stroke-opacity="0.34" stroke-width="2.99999"/>
<line x1="-141.811" y1="488.834" x2="774.656" y2="488.834" stroke="#B6B6B6" stroke-opacity="0.34" stroke-width="2.99999"/>
<line x1="-141.811" y1="529.834" x2="774.656" y2="529.834" stroke="#B6B6B6" stroke-opacity="0.34" stroke-width="2.99999"/>
<line x1="-141.811" y1="570.834" x2="774.656" y2="570.834" stroke="#B6B6B6" stroke-opacity="0.34" stroke-width="2.99999"/>
<line x1="-141.811" y1="611.834" x2="774.656" y2="611.834" stroke="#B6B6B6" stroke-opacity="0.34" stroke-width="2.99999"/>
<line x1="-141.811" y1="652.834" x2="774.656" y2="652.834" stroke="#B6B6B6" stroke-opacity="0.34" stroke-width="2.99999"/>
<line x1="23.0374" y1="825.568" x2="23.0373" y2="-90.8987" stroke="#B6B6B6" stroke-opacity="0.34" stroke-width="2.99999"/>
<line x1="64.0374" y1="825.568" x2="64.0373" y2="-90.8987" stroke="#B6B6B6" stroke-opacity="0.34" stroke-width="2.99999"/>
<line x1="105.037" y1="825.568" x2="105.037" y2="-90.8987" stroke="#B6B6B6" stroke-opacity="0.34" stroke-width="2.99999"/>
<line x1="146.037" y1="825.568" x2="146.037" y2="-90.8987" stroke="#B6B6B6" stroke-opacity="0.34" stroke-width="2.99999"/>
<line x1="187.037" y1="825.568" x2="187.037" y2="-90.8987" stroke="#B6B6B6" stroke-opacity="0.34" stroke-width="2.99999"/>
<line x1="228.037" y1="825.568" x2="228.037" y2="-90.8987" stroke="#B6B6B6" stroke-opacity="0.34" stroke-width="2.99999"/>
<line x1="269.037" y1="825.568" x2="269.037" y2="-90.8987" stroke="#B6B6B6" stroke-opacity="0.34" stroke-width="2.99999"/>
<line x1="310.037" y1="825.568" x2="310.037" y2="-90.8987" stroke="#B6B6B6" stroke-opacity="0.34" stroke-width="2.99999"/>
<line x1="351.037" y1="825.568" x2="351.037" y2="-90.8987" stroke="#B6B6B6" stroke-opacity="0.34" stroke-width="2.99999"/>
<line x1="392.037" y1="825.568" x2="392.037" y2="-90.8987" stroke="#B6B6B6" stroke-opacity="0.34" stroke-width="2.99999"/>
<line x1="433.037" y1="825.568" x2="433.036" y2="-90.8987" stroke="#B6B6B6" stroke-opacity="0.34" stroke-width="2.99999"/>
<line x1="474.036" y1="825.568" x2="474.036" y2="-90.8987" stroke="#B6B6B6" stroke-opacity="0.34" stroke-width="2.99999"/>
<line x1="515.036" y1="825.568" x2="515.036" y2="-90.8987" stroke="#B6B6B6" stroke-opacity="0.34" stroke-width="2.99999"/>
<line x1="556.036" y1="825.568" x2="556.036" y2="-90.8987" stroke="#B6B6B6" stroke-opacity="0.34" stroke-width="2.99999"/>
<line x1="597.036" y1="825.568" x2="597.036" y2="-90.8987" stroke="#B6B6B6" stroke-opacity="0.34" stroke-width="2.99999"/>
<line x1="638.036" y1="825.568" x2="638.036" y2="-90.8987" stroke="#B6B6B6" stroke-opacity="0.34" stroke-width="2.99999"/>
<rect x="-94.9298" y="-165.426" width="255.214" height="1302.47" fill="#F9D8E0" stroke="#FF3366" stroke-width="20"/>
<path fill-rule="evenodd" clip-rule="evenodd" d="M344.061 492.123C363.537 501.033 384.758 505.475 406.172 505.123C421.092 505.093 435.98 503.74 450.661 501.079C466.824 498.223 482.618 493.572 497.75 487.212C498.654 486.84 499.418 486.194 499.937 485.365C500.455 484.536 500.7 483.566 500.639 482.59C500.522 480.6 500.357 478.516 500.184 476.317C499.929 473.089 499.655 469.615 499.483 465.834C499.457 465.252 499.43 464.674 499.404 464.101C499.144 458.424 498.905 453.224 498.905 448.501V172.902C498.766 172.263 498.391 171.701 497.856 171.326C497.321 170.951 496.664 170.792 496.016 170.879H437.372C435.35 170.879 434.483 172.035 434.483 174.057V265.346C432.879 265.212 431.399 265.14 430.014 265.073C428.405 264.995 426.925 264.923 425.528 264.768C423.513 264.553 421.487 264.456 419.461 264.479C390.861 264.479 366.594 269.968 346.372 281.235C327.281 291.715 311.402 307.194 300.439 326.012C289.747 344.528 284.257 365.589 284.55 386.968C284.55 413.257 289.75 435.212 300.439 452.834C310.755 469.972 325.941 483.65 344.061 492.123ZM434.483 320.235V447.346C431.161 448.569 427.613 449.062 424.083 448.79C420.328 449.079 416.283 449.368 411.95 449.368C403.807 449.415 395.711 448.147 387.972 445.612C380.621 443.327 373.897 439.372 368.328 434.057C362.558 428.244 358.122 421.245 355.328 413.546C351.831 404.025 350.165 393.929 350.417 383.79C350.417 368.768 353.595 356.346 359.95 347.101C366.182 338.001 374.634 330.642 384.506 325.724C394.635 320.66 405.826 318.085 417.15 318.212C420.328 318.212 423.505 318.501 426.683 318.79C429.307 319.132 431.911 319.614 434.483 320.235ZM239.773 495.879V199.479C239.792 199.322 239.775 199.163 239.725 199.013C239.676 198.864 239.593 198.727 239.484 198.613C239.438 198.172 239.303 197.744 239.087 197.357C238.871 196.97 238.578 196.631 238.227 196.361C237.876 196.09 237.473 195.895 237.043 195.785C236.614 195.675 236.166 195.655 235.728 195.724H179.395C176.795 195.724 175.351 196.879 175.351 199.479V495.879C175.351 499.056 176.506 500.501 179.106 500.501H235.728C238.328 500.501 239.773 499.056 239.773 495.879Z" fill="#49021F"/>
</g>
<defs>
<clipPath id="clip0_102_505">
<rect width="675.999" height="675.999" rx="150" fill="white"/>
</clipPath>
</defs>
</svg>
