<svg width="60" height="58" viewBox="0 0 60 58" fill="none" xmlns="http://www.w3.org/2000/svg">
<g clip-path="url(#clip0_102_62)">
<path d="M49.375 1.25001L49.3762 1.25C50.609 1.24885 51.8296 1.48876 52.9683 1.95573C54.1068 2.42269 55.1407 3.1074 56.0109 3.97016C56.881 4.83289 57.5705 5.8567 58.0403 6.98271C58.5101 8.1087 58.7512 9.31512 58.75 10.533V10.5342V47.4658V47.467C58.7512 48.6849 58.5101 49.8913 58.0403 51.0173C57.5705 52.1433 56.881 53.1671 56.0109 54.0299C55.1407 54.8926 54.1068 55.5773 52.9683 56.0443C51.8296 56.5113 50.609 56.7512 49.3762 56.75H49.375H10.625H10.6238C9.39104 56.7512 8.17036 56.5113 7.03175 56.0443C5.89317 55.5773 4.85933 54.8926 3.98914 54.0299C3.11898 53.1671 2.42953 52.1433 1.95972 51.0173C1.48993 49.8913 1.24885 48.6849 1.25 47.467V47.4658L1.25001 10.5342L1.25 10.533C1.24885 9.31512 1.48993 8.1087 1.95972 6.98271C2.42953 5.8567 3.11898 4.83289 3.98914 3.97016C4.85933 3.1074 5.89317 2.42269 7.03175 1.95573C8.17036 1.48876 9.39104 1.24885 10.6238 1.25H10.625L49.375 1.25001Z" stroke="#D9D9D9" stroke-width="2.5"/>
<path d="M21.8 15.1693V40.6C21.8 40.8727 21.675 40.9966 21.45 40.9966H16.55C16.325 40.9966 16.225 40.8727 16.225 40.6V15.1693C16.225 14.9462 16.35 14.847 16.575 14.847H21.45C21.4879 14.8411 21.5266 14.8429 21.5638 14.8523C21.6009 14.8617 21.6358 14.8785 21.6662 14.9017C21.6966 14.9249 21.722 14.954 21.7407 14.9872C21.7594 15.0204 21.771 15.0571 21.775 15.0949C21.7844 15.1047 21.7916 15.1164 21.7959 15.1293C21.8002 15.1422 21.8016 15.1558 21.8 15.1693V15.1693Z" fill="#D9D9D9"/>
<path d="M36.2 41.3932C34.3469 41.4233 32.5104 41.0422 30.825 40.2778C29.257 39.5508 27.9428 38.3773 27.05 36.9068C26.125 35.3949 25.675 33.5111 25.675 31.2556C25.6497 29.4213 26.1248 27.6143 27.05 26.0257C27.9988 24.4111 29.3729 23.083 31.025 22.1838C32.775 21.2171 34.875 20.7462 37.35 20.7462C37.5254 20.7442 37.7007 20.7525 37.875 20.771C38.1 20.7957 38.35 20.7957 38.65 20.8205V12.988C38.65 12.8145 38.725 12.7154 38.9 12.7154H43.975C44.0311 12.7079 44.0879 12.7216 44.1342 12.7537C44.1806 12.7859 44.213 12.8341 44.225 12.8889V36.5351C44.225 36.9812 44.25 37.4769 44.275 38.0222C44.3 38.5675 44.35 39.0385 44.375 39.4598C44.3804 39.5435 44.3591 39.6268 44.3143 39.6979C44.2694 39.7691 44.2033 39.8245 44.125 39.8564C42.8156 40.4021 41.4488 40.8011 40.05 41.0462C38.7796 41.2745 37.4912 41.3906 36.2 41.3932ZM38.65 36.4359V25.5299C38.4274 25.4767 38.2021 25.4353 37.975 25.406C37.7 25.3812 37.425 25.3564 37.15 25.3564C36.1701 25.3455 35.2016 25.5664 34.325 26.0009C33.4707 26.4229 32.7393 27.0542 32.2 27.8351C31.65 28.6282 31.375 29.694 31.375 30.9829C31.3532 31.8529 31.4974 32.719 31.8 33.5359C32.0418 34.1965 32.4257 34.797 32.925 35.2957C33.407 35.7518 33.9888 36.0911 34.625 36.2872C35.2947 36.5046 35.9954 36.6135 36.7 36.6094C37.075 36.6094 37.425 36.5846 37.75 36.5598C38.0555 36.5832 38.3625 36.5409 38.65 36.4359V36.4359Z" fill="#D9D9D9"/>
</g>
<defs>
<clipPath id="clip0_102_62">
<rect width="60" height="58" fill="white"/>
</clipPath>
</defs>
</svg>
