<svg width="59" height="57" viewBox="0 0 59 57" fill="none" xmlns="http://www.w3.org/2000/svg">
<g clip-path="url(#clip0_102_38)">
<path d="M48.5521 1.25001L48.5533 1.25C49.7629 1.24887 50.9606 1.48414 52.0778 1.94205C53.1949 2.39995 54.2092 3.07135 55.0629 3.91727C55.9166 4.76316 56.593 5.76694 57.0538 6.87086C57.5147 7.97475 57.7511 9.15745 57.75 10.3514V10.3526V46.6474V46.6486C57.7511 47.8426 57.5147 49.0253 57.0538 50.1292C56.593 51.2331 55.9166 52.2368 55.0629 53.0827C54.2092 53.9287 53.1949 54.6001 52.0778 55.058C50.9606 55.5159 49.7629 55.7511 48.5533 55.75H48.5521H10.4479H10.4468C9.23711 55.7511 8.03939 55.5159 6.92223 55.058C5.80508 54.6001 4.79078 53.9287 3.93707 53.0827C3.08338 52.2368 2.40704 51.2331 1.94619 50.1292C1.48534 49.0253 1.24887 47.8426 1.25 46.6486V46.6474L1.25001 10.3526L1.25 10.3514C1.24887 9.15745 1.48534 7.97475 1.94619 6.87086C2.40704 5.76694 3.08338 4.76316 3.93707 3.91727C4.79078 3.07135 5.80508 2.39995 6.92223 1.94205C8.03939 1.48414 9.23712 1.24887 10.4468 1.25H10.4479L48.5521 1.25001Z" stroke="#D9D9D9" stroke-width="2.5"/>
<path d="M30.9751 40.2898H15.3893C15.1188 40.2898 14.9959 40.1436 14.9959 39.8513V14.9564C14.9904 14.9163 14.9931 14.8756 15.0038 14.8365C15.0146 14.7975 15.0331 14.761 15.0583 14.7292C15.0835 14.6974 15.1149 14.6709 15.1507 14.6514C15.1864 14.6318 15.2257 14.6196 15.2663 14.6154H20.183C20.2138 14.6098 20.2453 14.6105 20.2758 14.6174C20.3063 14.6243 20.335 14.6373 20.3603 14.6555C20.3856 14.6737 20.4069 14.6968 20.4229 14.7234C20.4389 14.75 20.4493 14.7796 20.4534 14.8103V35.3449H31.8109C32.0568 35.3449 32.1305 35.4667 32.0813 35.6859L31.3684 39.9244C31.3646 39.9803 31.3496 40.035 31.3243 40.0852C31.2989 40.1354 31.2638 40.1801 31.2209 40.2167C31.1488 40.2661 31.0628 40.2917 30.9751 40.2898V40.2898Z" fill="#D9D9D9"/>
<path d="M34.9085 20.8026H39.2106C39.3271 20.8054 39.4397 20.8445 39.5324 20.9145C39.6251 20.9845 39.6932 21.0818 39.7268 21.1923C39.8285 21.3647 39.8953 21.5549 39.9235 21.7526C39.9726 21.9962 40.0218 22.2641 40.0464 22.5077C40.071 22.7513 40.0956 23.068 40.0956 23.3846C40.8337 22.5308 41.7257 21.8204 42.726 21.2898C43.8491 20.6865 45.1117 20.3842 46.3889 20.4128C46.4293 20.4074 46.4705 20.4101 46.5099 20.4207C46.5493 20.4313 46.5861 20.4496 46.6182 20.4746C46.6503 20.4996 46.677 20.5308 46.6967 20.5662C46.7165 20.6016 46.7288 20.6406 46.7331 20.6808V25.5282C46.7331 25.7231 46.6101 25.7962 46.3397 25.7962C44.7465 25.7016 43.1536 25.9856 41.6935 26.6244C41.1955 26.8355 40.7444 27.1417 40.366 27.5257V39.9487C40.366 40.1923 40.2676 40.2898 40.0464 40.2898H35.2526C35.2073 40.2973 35.1609 40.2957 35.1162 40.2849C35.0715 40.2742 35.0295 40.2545 34.9927 40.2272C34.9559 40.1999 34.9251 40.1654 34.9022 40.1259C34.8793 40.0864 34.8647 40.0427 34.8593 39.9974V26.4051C34.8593 25.8205 34.8593 25.2116 34.8347 24.5782C34.8101 23.9449 34.8101 23.3116 34.7856 22.6782C34.761 22.1423 34.7118 21.6064 34.6381 21.0705C34.6315 21.0417 34.6308 21.0119 34.6359 20.9829C34.6411 20.9538 34.6519 20.926 34.6679 20.9011C34.6839 20.8762 34.7047 20.8547 34.7291 20.8378C34.7535 20.8209 34.7811 20.8089 34.8101 20.8026C34.8347 20.7782 34.8593 20.7782 34.9085 20.8026V20.8026Z" fill="#D9D9D9"/>
</g>
<defs>
<clipPath id="clip0_102_38">
<rect width="59" height="57" fill="white"/>
</clipPath>
</defs>
</svg>
