<svg width="676" height="676" viewBox="0 0 676 676" fill="none" xmlns="http://www.w3.org/2000/svg">
<g clip-path="url(#clip0_102_423)">
<rect width="675.999" height="675.999" rx="150" fill="white"/>
<line x1="-141.81" y1="37.835" x2="774.657" y2="37.835" stroke="#B6B6B6" stroke-opacity="0.34" stroke-width="2.99999"/>
<line x1="-141.811" y1="78.835" x2="774.657" y2="78.835" stroke="#B6B6B6" stroke-opacity="0.34" stroke-width="2.99999"/>
<line x1="-141.811" y1="119.835" x2="774.657" y2="119.835" stroke="#B6B6B6" stroke-opacity="0.34" stroke-width="2.99999"/>
<line x1="-141.811" y1="160.835" x2="774.657" y2="160.835" stroke="#B6B6B6" stroke-opacity="0.34" stroke-width="2.99999"/>
<line x1="-141.811" y1="201.836" x2="774.657" y2="201.836" stroke="#B6B6B6" stroke-opacity="0.34" stroke-width="2.99999"/>
<line x1="-141.811" y1="242.836" x2="774.657" y2="242.836" stroke="#B6B6B6" stroke-opacity="0.34" stroke-width="2.99999"/>
<line x1="-141.811" y1="283.834" x2="774.657" y2="283.834" stroke="#B6B6B6" stroke-opacity="0.34" stroke-width="2.99999"/>
<line x1="-141.811" y1="324.834" x2="774.657" y2="324.834" stroke="#B6B6B6" stroke-opacity="0.34" stroke-width="2.99999"/>
<line x1="-141.811" y1="365.835" x2="774.657" y2="365.835" stroke="#B6B6B6" stroke-opacity="0.34" stroke-width="2.99999"/>
<line x1="-141.811" y1="406.835" x2="774.657" y2="406.835" stroke="#B6B6B6" stroke-opacity="0.34" stroke-width="2.99999"/>
<line x1="-141.811" y1="447.835" x2="774.657" y2="447.835" stroke="#B6B6B6" stroke-opacity="0.34" stroke-width="2.99999"/>
<line x1="-141.811" y1="488.834" x2="774.657" y2="488.834" stroke="#B6B6B6" stroke-opacity="0.34" stroke-width="2.99999"/>
<line x1="-141.811" y1="529.834" x2="774.657" y2="529.834" stroke="#B6B6B6" stroke-opacity="0.34" stroke-width="2.99999"/>
<line x1="-141.811" y1="570.834" x2="774.657" y2="570.834" stroke="#B6B6B6" stroke-opacity="0.34" stroke-width="2.99999"/>
<line x1="-141.811" y1="611.834" x2="774.657" y2="611.834" stroke="#B6B6B6" stroke-opacity="0.34" stroke-width="2.99999"/>
<line x1="-141.811" y1="652.834" x2="774.657" y2="652.834" stroke="#B6B6B6" stroke-opacity="0.34" stroke-width="2.99999"/>
<line x1="23.0372" y1="825.568" x2="23.0372" y2="-90.8987" stroke="#B6B6B6" stroke-opacity="0.34" stroke-width="2.99999"/>
<line x1="64.0376" y1="825.568" x2="64.0376" y2="-90.8987" stroke="#B6B6B6" stroke-opacity="0.34" stroke-width="2.99999"/>
<line x1="105.038" y1="825.568" x2="105.038" y2="-90.8987" stroke="#B6B6B6" stroke-opacity="0.34" stroke-width="2.99999"/>
<line x1="146.037" y1="825.568" x2="146.037" y2="-90.8987" stroke="#B6B6B6" stroke-opacity="0.34" stroke-width="2.99999"/>
<line x1="187.037" y1="825.568" x2="187.037" y2="-90.8987" stroke="#B6B6B6" stroke-opacity="0.34" stroke-width="2.99999"/>
<line x1="228.037" y1="825.568" x2="228.037" y2="-90.8987" stroke="#B6B6B6" stroke-opacity="0.34" stroke-width="2.99999"/>
<line x1="269.037" y1="825.568" x2="269.037" y2="-90.8987" stroke="#B6B6B6" stroke-opacity="0.34" stroke-width="2.99999"/>
<line x1="310.037" y1="825.568" x2="310.037" y2="-90.8987" stroke="#B6B6B6" stroke-opacity="0.34" stroke-width="2.99999"/>
<line x1="351.037" y1="825.568" x2="351.037" y2="-90.8987" stroke="#B6B6B6" stroke-opacity="0.34" stroke-width="2.99999"/>
<line x1="392.037" y1="825.568" x2="392.037" y2="-90.8987" stroke="#B6B6B6" stroke-opacity="0.34" stroke-width="2.99999"/>
<line x1="433.036" y1="825.568" x2="433.036" y2="-90.8987" stroke="#B6B6B6" stroke-opacity="0.34" stroke-width="2.99999"/>
<line x1="474.037" y1="825.568" x2="474.036" y2="-90.8987" stroke="#B6B6B6" stroke-opacity="0.34" stroke-width="2.99999"/>
<line x1="515.036" y1="825.568" x2="515.036" y2="-90.8987" stroke="#B6B6B6" stroke-opacity="0.34" stroke-width="2.99999"/>
<line x1="556.036" y1="825.568" x2="556.036" y2="-90.8987" stroke="#B6B6B6" stroke-opacity="0.34" stroke-width="2.99999"/>
<line x1="597.036" y1="825.568" x2="597.036" y2="-90.8987" stroke="#B6B6B6" stroke-opacity="0.34" stroke-width="2.99999"/>
<line x1="638.036" y1="825.568" x2="638.036" y2="-90.8987" stroke="#B6B6B6" stroke-opacity="0.34" stroke-width="2.99999"/>
<rect x="-94.9299" y="-165.426" width="255.214" height="1302.47" fill="#DAEEFD" stroke="#31A8FF" stroke-width="20"/>
<path fill-rule="evenodd" clip-rule="evenodd" d="M159.198 482.685H339.294C340.307 482.708 341.301 482.41 342.134 481.833C342.63 481.406 343.036 480.885 343.328 480.299C343.621 479.714 343.794 479.077 343.839 478.424L352.076 428.997C352.644 426.441 351.792 425.021 348.952 425.021H217.715V185.556C217.667 185.198 217.547 184.854 217.362 184.544C217.177 184.233 216.931 183.964 216.639 183.751C216.347 183.539 216.015 183.388 215.663 183.308C215.311 183.227 214.946 183.219 214.59 183.284H157.778C157.309 183.333 156.854 183.476 156.441 183.704C156.028 183.932 155.665 184.24 155.374 184.611C155.083 184.982 154.869 185.408 154.745 185.863C154.621 186.318 154.59 186.793 154.653 187.261V477.572C154.653 480.981 156.074 482.685 159.198 482.685ZM434.454 255.436H384.743C384.175 255.152 383.891 255.152 383.607 255.436C383.271 255.51 382.953 255.649 382.671 255.846C382.389 256.044 382.148 256.295 381.964 256.585C381.779 256.875 381.653 257.199 381.594 257.538C381.535 257.877 381.543 258.225 381.619 258.56C382.471 264.81 383.039 271.059 383.323 277.308C383.465 281.001 383.536 284.694 383.607 288.387C383.678 292.079 383.749 295.772 383.891 299.465C384.175 306.851 384.175 313.952 384.175 320.77V479.276C384.237 479.804 384.406 480.314 384.671 480.774C384.936 481.235 385.291 481.637 385.716 481.956C386.142 482.275 386.627 482.504 387.143 482.629C387.66 482.754 388.196 482.774 388.72 482.685H444.112C446.669 482.685 447.805 481.549 447.805 478.708V333.837C452.178 329.36 457.39 325.788 463.144 323.326C480.016 315.877 498.422 312.566 516.832 313.668C519.957 313.668 521.377 312.816 521.377 310.544V254.015C521.328 253.546 521.185 253.092 520.957 252.679C520.729 252.266 520.421 251.903 520.05 251.611C519.679 251.32 519.253 251.106 518.798 250.982C518.343 250.858 517.868 250.827 517.4 250.891C502.642 250.557 488.053 254.082 475.075 261.117C463.516 267.305 453.21 275.589 444.68 285.546C444.68 281.853 444.396 278.161 444.112 275.32C443.828 272.479 443.26 269.355 442.692 266.514C442.366 264.209 441.594 261.99 440.419 259.981C440.031 258.691 439.245 257.557 438.173 256.741C437.102 255.925 435.8 255.468 434.454 255.436Z" fill="#001E36"/>
</g>
<defs>
<clipPath id="clip0_102_423">
<rect width="675.999" height="675.999" rx="150" fill="white"/>
</clipPath>
</defs>
</svg>
