<svg width="50" height="86" viewBox="0 0 50 86" fill="none" xmlns="http://www.w3.org/2000/svg">
<path d="M37.15 16.67V28.99C36.47 28.9 35.73 28.8 34.97 28.8C32.65 28.8 30.52 29.37 28.81 30.35C28.01 30.81 27.3 31.34 26.71 31.95C25.53 33.16 24.96 34.84 24.96 36.52V64.15L12.8 71.2V14.95L0.619995 7.90999L12.77 0.859985H12.79L24.97 7.90999V18.51C26.83 16.91 29.58 15.91 32.64 15.91C34.27 15.91 35.81 16.19 37.15 16.67Z" fill="white" stroke="black" stroke-width="0.5" stroke-linecap="round" stroke-linejoin="round"/>
<path d="M24.97 7.89999V7.90999L12.79 0.869986V0.859985L24.97 7.89999Z" fill="white" stroke="black" stroke-width="0.5" stroke-linecap="round" stroke-linejoin="round"/>
<path d="M20.46 22.96C17.4 22.96 14.65 23.96 12.79 25.56V14.95L0.609985 7.91003V64.16L12.79 71.19V44.56V43.56C12.79 41.87 13.36 40.2 14.54 38.99C15.13 38.38 15.84 37.84 16.64 37.39C18.35 36.41 20.48 35.84 22.8 35.84C23.56 35.84 24.29 35.93 24.98 36.03V23.71C23.64 23.24 22.1 22.96 20.47 22.96H20.46Z" fill="black" stroke="black" stroke-width="0.5" stroke-linecap="round" stroke-linejoin="round"/>
<path d="M24.98 36.04L24.97 78.22L37.16 85.26V43.07L24.98 36.04Z" fill="black" stroke="black" stroke-width="0.5" stroke-linecap="round" stroke-linejoin="round"/>
<path d="M49.31 36.03L37.16 43.07L24.98 36.04L24.97 23.72L37.15 16.67V28.99L49.31 36.03Z" fill="white" stroke="black" stroke-width="0.5" stroke-linecap="round" stroke-linejoin="round"/>
<path d="M27.28 17.06C26.98 17.2 26.69 17.35 26.4 17.51L14.16 24.58L14.57 24.39C15.47 23.97 16.45 23.54 17.43 23.35L18.39 23.15C19.36 22.96 20.37 23 21.35 23.05C22.11 23.09 22.87 23.2 23.61 23.38L24.97 23.71L37.14 16.66L35.91 16.34C35.37 16.2 34.82 16.1 34.26 16.05L33.55 15.99C32.94 15.94 32.33 15.94 31.73 15.99L30.92 16.07C30.31 16.13 29.71 16.24 29.12 16.41L28.6 16.56C28.15 16.69 27.71 16.85 27.28 17.05V17.06Z" fill="white" stroke="black" stroke-width="0.5" stroke-linecap="round" stroke-linejoin="round"/>
<path d="M37.16 43.07L49.31 36.03L49.35 78.24L37.16 85.26V43.07Z" fill="white" stroke="black" stroke-width="0.5" stroke-linecap="round" stroke-linejoin="round"/>
</svg>
