<svg width="49" height="85" viewBox="0 0 49 85" fill="none" xmlns="http://www.w3.org/2000/svg">
<path d="M32.02 15.25C28.96 15.25 26.21 16.25 24.35 17.85V7.23995L12.17 0.199951V70.53L24.35 63.4799V36.85V35.85C24.35 34.16 24.92 32.49 26.1 31.28C26.69 30.67 27.4 30.13 28.2 29.68C29.91 28.7 32.04 28.13 34.36 28.13C35.12 28.13 35.85 28.22 36.54 28.32V16C35.2 15.53 33.66 15.25 32.03 15.25H32.02Z" fill="white"/>
<path d="M19.85 22.3C16.79 22.3 14.04 23.3 12.18 24.9V14.29L0 7.25V63.5L12.18 70.53V43.9V42.9C12.18 41.21 12.75 39.54 13.93 38.33C14.52 37.72 15.23 37.18 16.03 36.73C17.74 35.75 19.87 35.18 22.19 35.18C22.95 35.18 23.68 35.27 24.37 35.37V23.05C23.03 22.58 21.49 22.3 19.86 22.3H19.85Z" fill="black"/>
<path d="M24.36 35.38L24.35 77.56L36.54 84.6V42.41L24.36 35.38Z" fill="black"/>
<path d="M24.35 23.05L36.53 16V28.33L24.36 35.38L24.35 23.05Z" fill="white"/>
<path d="M24.36 35.37L36.53 28.33L48.7 35.36L36.54 42.41L24.36 35.37Z" fill="white"/>
<path d="M36.54 42.41L48.7 35.36L48.73 77.57L36.54 84.6V42.41Z" fill="white"/>
</svg>
