<svg width="796" height="1960" viewBox="0 0 796 1960" fill="none" xmlns="http://www.w3.org/2000/svg">
<rect width="795" height="490" fill="#161616"/>
<path fill-rule="evenodd" clip-rule="evenodd" d="M473.123 160.813C481.9 147.074 486.979 130.752 486.979 113.247V113H448.408C448.319 119.154 447.116 125.032 444.996 130.456C439.433 144.678 427.529 155.724 412.756 160.112C408.239 161.463 403.455 162.183 398.495 162.183C389.845 162.183 381.709 159.984 374.618 156.108C361.402 148.909 351.806 135.9 349.242 120.515C348.838 118.069 348.601 115.554 348.572 113H310V113.247C310 124.184 311.982 134.668 315.622 144.342C320.927 158.485 329.744 170.902 341.027 180.537C351.846 189.798 364.923 196.485 379.322 199.65C385.496 201.021 391.907 201.741 398.495 201.741C413.732 201.741 428.082 197.885 440.607 191.1C442.767 197.047 443.95 203.457 443.95 210.154C443.95 240.924 419.008 265.866 388.228 265.866C380.125 265.866 372.428 264.137 365.483 261.029L331.235 291.894C347.334 303.298 366.998 310 388.228 310C442.767 310 486.979 265.787 486.979 211.249C486.979 192.826 481.93 175.576 473.123 160.813Z" fill="white"/>
<path d="M357.065 365H340.105V338.32H345.785V360H357.065V365ZM378.769 365H373.689V362.56C372.369 364.04 370.049 365.48 366.889 365.48C362.649 365.48 360.649 363.16 360.649 359.4V345.68H365.729V357.4C365.729 360.08 367.129 360.96 369.289 360.96C371.249 360.96 372.809 359.88 373.689 358.76V345.68H378.769V365ZM401.453 365H395.773L391.373 358.48L386.933 365H381.293L388.133 355.08L381.693 345.68H387.373L391.373 351.64L395.333 345.68H401.013L394.533 355.08L401.453 365ZM422.089 365H417.009V362.56C415.689 364.04 413.369 365.48 410.209 365.48C405.969 365.48 403.969 363.16 403.969 359.4V345.68H409.049V357.4C409.049 360.08 410.449 360.96 412.609 360.96C414.569 360.96 416.129 359.88 417.009 358.76V345.68H422.089V365ZM432.213 365H427.133V345.68H432.213V348.32C433.573 346.6 435.973 345.2 438.373 345.2V350.16C438.013 350.08 437.533 350.04 436.973 350.04C435.293 350.04 433.053 351 432.213 352.24V365ZM440.867 372.56L441.627 368C442.067 368.2 442.747 368.32 443.227 368.32C444.547 368.32 445.427 367.96 445.907 366.92L446.627 365.28L438.787 345.68H444.227L449.267 359.12L454.307 345.68H459.787L450.707 368.16C449.267 371.8 446.707 372.76 443.387 372.84C442.787 372.84 441.507 372.72 440.867 372.56Z" fill="white"/>
<rect x="1" y="980" width="795" height="490" fill="#312783"/>
<path fill-rule="evenodd" clip-rule="evenodd" d="M474.123 1140.14C482.9 1126.37 487.979 1110.02 487.979 1092.48V1092.23H449.408C449.319 1098.4 448.116 1104.29 445.996 1109.72C440.433 1123.97 428.529 1135.04 413.756 1139.44C409.239 1140.79 404.455 1141.51 399.495 1141.51C390.845 1141.51 382.709 1139.31 375.618 1135.43C362.402 1128.21 352.806 1115.18 350.242 1099.76C349.838 1097.31 349.601 1094.79 349.572 1092.23H311V1092.48C311 1103.44 312.982 1113.94 316.622 1123.64C321.927 1137.81 330.744 1150.25 342.027 1159.9C352.846 1169.18 365.923 1175.88 380.322 1179.06C386.496 1180.43 392.907 1181.15 399.495 1181.15C414.732 1181.15 429.082 1177.29 441.607 1170.49C443.767 1176.45 444.95 1182.87 444.95 1189.58C444.95 1220.41 420.008 1245.41 389.228 1245.41C381.125 1245.41 373.428 1243.68 366.484 1240.56L332.235 1271.49C348.335 1282.92 367.998 1289.63 389.228 1289.63C443.767 1289.63 487.979 1245.33 487.979 1190.68C487.979 1172.22 482.93 1154.93 474.123 1140.14Z" fill="#FFDE00"/>
<path d="M304.994 1344.67H299.314V1333.75L289.034 1317.99H295.514L302.154 1328.71L308.714 1317.99H315.194L304.994 1333.75V1344.67ZM321.655 1345.15C315.775 1345.15 311.335 1341.19 311.335 1334.99C311.335 1329.39 315.455 1324.87 321.335 1324.87C327.095 1324.87 331.015 1329.19 331.015 1335.51V1336.63H316.655C316.975 1339.07 318.935 1341.11 322.215 1341.11C323.855 1341.11 326.135 1340.39 327.375 1339.19L329.615 1342.47C327.695 1344.23 324.655 1345.15 321.655 1345.15ZM326.095 1333.19C325.975 1331.35 324.695 1328.91 321.335 1328.91C318.175 1328.91 316.815 1331.27 316.575 1333.19H326.095ZM339.764 1344.67H334.684V1317.99H339.764V1344.67ZM373.881 1344.67H368.761V1332.47C368.761 1330.67 367.961 1329.39 365.881 1329.39C364.081 1329.39 362.601 1330.59 361.881 1331.63V1344.67H356.761V1332.47C356.761 1330.67 355.961 1329.39 353.881 1329.39C352.121 1329.39 350.641 1330.59 349.881 1331.67V1344.67H344.801V1325.35H349.881V1327.87C350.681 1326.71 353.241 1324.87 356.201 1324.87C359.041 1324.87 360.841 1326.19 361.561 1328.39C362.681 1326.63 365.241 1324.87 368.201 1324.87C371.761 1324.87 373.881 1326.75 373.881 1330.71V1344.67ZM387.824 1345.15C381.464 1345.15 377.624 1340.51 377.624 1334.99C377.624 1329.51 381.464 1324.87 387.824 1324.87C394.224 1324.87 398.064 1329.51 398.064 1334.99C398.064 1340.51 394.224 1345.15 387.824 1345.15ZM387.824 1340.63C390.984 1340.63 392.784 1338.03 392.784 1334.99C392.784 1331.99 390.984 1329.39 387.824 1329.39C384.664 1329.39 382.904 1331.99 382.904 1334.99C382.904 1338.03 384.664 1340.63 387.824 1340.63ZM425.307 1345.15C417.627 1345.15 411.587 1339.55 411.587 1331.35C411.587 1323.15 417.627 1317.55 425.307 1317.55C430.027 1317.55 433.307 1319.79 435.427 1322.83L432.667 1324.39C431.147 1322.11 428.347 1320.51 425.307 1320.51C419.467 1320.51 415.027 1324.95 415.027 1331.35C415.027 1337.67 419.467 1342.19 425.307 1342.19C428.347 1342.19 431.147 1340.55 432.667 1338.31L435.467 1339.83C433.227 1342.91 430.027 1345.15 425.307 1345.15ZM441.098 1322.59C439.978 1322.59 439.058 1321.71 439.058 1320.59C439.058 1319.47 439.978 1318.55 441.098 1318.55C442.218 1318.55 443.098 1319.47 443.098 1320.59C443.098 1321.71 442.218 1322.59 441.098 1322.59ZM442.578 1344.67H439.578V1325.35H442.578V1344.67ZM464.603 1344.67H461.643V1332.03C461.643 1328.59 459.883 1327.55 457.283 1327.55C454.923 1327.55 452.723 1328.99 451.563 1330.55V1344.67H448.563V1325.35H451.563V1328.15C452.923 1326.51 455.562 1324.87 458.483 1324.87C462.483 1324.87 464.603 1326.91 464.603 1331.11V1344.67ZM479.393 1345.15C473.633 1345.15 469.513 1341.03 469.513 1334.99C469.513 1329.39 473.513 1324.87 479.033 1324.87C484.873 1324.87 488.313 1329.43 488.313 1335.23V1335.99H472.713C472.953 1339.63 475.473 1342.67 479.633 1342.67C481.873 1342.67 484.073 1341.79 485.633 1340.19L487.073 1342.15C485.113 1344.07 482.513 1345.15 479.393 1345.15ZM485.353 1333.75C485.313 1330.91 483.393 1327.35 478.993 1327.35C474.873 1327.35 472.833 1330.83 472.673 1333.75H485.353ZM499.332 1345.15C496.132 1345.15 493.492 1344.15 491.532 1342.11L493.052 1339.95C494.332 1341.43 496.772 1342.71 499.412 1342.71C502.372 1342.71 504.012 1341.31 504.012 1339.39C504.012 1334.71 492.052 1337.59 492.052 1330.43C492.052 1327.39 494.612 1324.87 499.212 1324.87C502.532 1324.87 504.852 1326.11 506.372 1327.67L504.972 1329.75C503.812 1328.35 501.732 1327.31 499.212 1327.31C496.572 1327.31 494.932 1328.63 494.932 1330.35C494.932 1334.55 506.892 1331.79 506.892 1339.31C506.892 1342.55 504.292 1345.15 499.332 1345.15Z" fill="#FFDE00"/>
<rect x="1" y="490" width="795" height="490" fill="#FFDE00"/>
<path d="M348.759 886.007C346.079 886.007 343.519 885.287 341.599 883.407L344.079 879.047C345.119 880.047 346.479 880.967 348.319 880.967C350.839 880.967 352.479 879.287 352.479 876.687V858.847H358.159V876.767C358.159 883.087 354.239 886.007 348.759 886.007ZM381.453 885.527H376.373V883.087C375.053 884.567 372.733 886.007 369.573 886.007C365.333 886.007 363.333 883.687 363.333 879.927V866.207H368.413V877.927C368.413 880.607 369.813 881.487 371.973 881.487C373.933 881.487 375.493 880.407 376.373 879.287V866.207H381.453V885.527ZM404.617 885.527H399.537V873.847C399.537 871.167 398.137 870.247 395.977 870.247C393.977 870.247 392.417 871.367 391.577 872.527V885.527H386.497V866.207H391.577V868.727C392.817 867.247 395.177 865.727 398.337 865.727C402.577 865.727 404.617 868.127 404.617 871.887V885.527ZM412.181 864.127C410.541 864.127 409.141 862.767 409.141 861.087C409.141 859.407 410.541 858.087 412.181 858.087C413.861 858.087 415.221 859.407 415.221 861.087C415.221 862.767 413.861 864.127 412.181 864.127ZM414.741 885.527H409.661V866.207H414.741V885.527ZM428.738 886.007C422.378 886.007 418.538 881.367 418.538 875.847C418.538 870.367 422.378 865.727 428.738 865.727C435.138 865.727 438.978 870.367 438.978 875.847C438.978 881.367 435.138 886.007 428.738 886.007ZM428.738 881.487C431.898 881.487 433.698 878.887 433.698 875.847C433.698 872.847 431.898 870.247 428.738 870.247C425.578 870.247 423.818 872.847 423.818 875.847C423.818 878.887 425.578 881.487 428.738 881.487ZM447.827 885.527H442.747V866.207H447.827V868.847C449.187 867.127 451.587 865.727 453.987 865.727V870.687C453.627 870.607 453.147 870.567 452.587 870.567C450.907 870.567 448.667 871.527 447.827 872.767V885.527Z" fill="#312783"/>
<path d="M330.268 611.497C340.899 611.497 349.517 602.879 349.517 592.249C349.517 581.618 340.899 573 330.268 573C319.637 573 311.02 581.618 311.02 592.249C311.02 602.879 319.637 611.497 330.268 611.497Z" fill="#312783"/>
<path d="M467.753 611.497C478.383 611.497 487.001 602.879 487.001 592.249C487.001 581.618 478.383 573 467.753 573C457.122 573 448.504 581.618 448.504 592.249C448.504 602.879 457.122 611.497 467.753 611.497Z" fill="#312783"/>
<path fill-rule="evenodd" clip-rule="evenodd" d="M473.123 683.342C481.9 669.604 486.979 653.281 486.979 635.776V635.529H448.408C448.319 641.683 447.116 647.561 444.996 652.986C439.433 667.207 427.529 678.253 412.756 682.642C408.239 683.993 403.455 684.713 398.495 684.713C389.845 684.713 381.709 682.513 374.618 678.638C361.402 671.438 351.806 658.43 349.242 643.044C348.838 640.599 348.601 638.084 348.572 635.529H310V635.776C310 646.713 311.982 657.197 315.622 666.872C320.927 681.014 329.744 693.431 341.027 703.067C351.846 712.327 364.923 719.014 379.322 722.18C385.496 723.551 391.907 724.271 398.495 724.271C413.732 724.271 428.082 720.414 440.607 713.629C442.767 719.576 443.95 725.987 443.95 732.683C443.95 763.454 419.008 788.395 388.228 788.395C380.125 788.395 372.428 786.667 365.483 783.558L331.235 814.423C347.334 825.827 366.998 832.529 388.228 832.529C442.767 832.529 486.979 788.316 486.979 733.778C486.979 715.355 481.93 698.106 473.123 683.342Z" fill="#312783"/>
<rect x="1" y="1470" width="795" height="490" fill="white"/>
<path d="M303.851 1822.56H296.171V1831.08H293.891V1822.56H286.211V1820.48H293.891V1812.2H296.171V1820.48H303.851V1822.56ZM330.643 1835.48C322.763 1835.48 317.403 1829.56 317.403 1821.68C317.403 1813.8 322.763 1807.88 330.643 1807.88C338.523 1807.88 343.923 1813.8 343.923 1821.68C343.923 1825.64 342.563 1829.08 340.243 1831.56L342.763 1834.24L340.483 1836.24L337.883 1833.48C335.883 1834.76 333.403 1835.48 330.643 1835.48ZM330.643 1832.52C332.563 1832.52 334.283 1832.04 335.723 1831.16L331.923 1827.04L334.243 1825.08L338.003 1829.16C339.563 1827.24 340.483 1824.64 340.483 1821.68C340.483 1815.44 336.603 1810.84 330.643 1810.84C324.643 1810.84 320.843 1815.44 320.843 1821.68C320.843 1827.88 324.643 1832.52 330.643 1832.52ZM364.989 1835H361.989V1832.28C360.509 1833.96 357.989 1835.48 355.109 1835.48C351.069 1835.48 348.949 1833.48 348.949 1829.32V1815.68H351.949V1828.4C351.949 1831.8 353.669 1832.8 356.309 1832.8C358.629 1832.8 360.869 1831.44 361.989 1829.88V1815.68H364.989V1835ZM379.74 1835.48C373.98 1835.48 369.86 1831.36 369.86 1825.32C369.86 1819.72 373.86 1815.2 379.38 1815.2C385.22 1815.2 388.66 1819.76 388.66 1825.56V1826.32H373.06C373.3 1829.96 375.82 1833 379.98 1833C382.22 1833 384.42 1832.12 385.98 1830.52L387.42 1832.48C385.46 1834.4 382.86 1835.48 379.74 1835.48ZM385.7 1824.08C385.66 1821.24 383.74 1817.68 379.34 1817.68C375.22 1817.68 373.18 1821.16 373.02 1824.08H385.7ZM416.631 1835H410.951V1824.08L400.671 1808.32H407.151L413.791 1819.04L420.351 1808.32H426.831L416.631 1824.08V1835ZM433.291 1835.48C427.411 1835.48 422.971 1831.52 422.971 1825.32C422.971 1819.72 427.091 1815.2 432.971 1815.2C438.731 1815.2 442.651 1819.52 442.651 1825.84V1826.96H428.291C428.611 1829.4 430.571 1831.44 433.851 1831.44C435.491 1831.44 437.771 1830.72 439.011 1829.52L441.251 1832.8C439.331 1834.56 436.291 1835.48 433.291 1835.48ZM437.731 1823.52C437.611 1821.68 436.331 1819.24 432.971 1819.24C429.811 1819.24 428.451 1821.6 428.211 1823.52H437.731ZM451.401 1835H446.321V1808.32H451.401V1835ZM485.518 1835H480.398V1822.8C480.398 1821 479.598 1819.72 477.518 1819.72C475.718 1819.72 474.238 1820.92 473.518 1821.96V1835H468.398V1822.8C468.398 1821 467.598 1819.72 465.518 1819.72C463.758 1819.72 462.278 1820.92 461.518 1822V1835H456.438V1815.68H461.518V1818.2C462.318 1817.04 464.878 1815.2 467.838 1815.2C470.678 1815.2 472.478 1816.52 473.198 1818.72C474.318 1816.96 476.878 1815.2 479.838 1815.2C483.398 1815.2 485.518 1817.08 485.518 1821.04V1835ZM499.46 1835.48C493.1 1835.48 489.26 1830.84 489.26 1825.32C489.26 1819.84 493.1 1815.2 499.46 1815.2C505.86 1815.2 509.7 1819.84 509.7 1825.32C509.7 1830.84 505.86 1835.48 499.46 1835.48ZM499.46 1830.96C502.62 1830.96 504.42 1828.36 504.42 1825.32C504.42 1822.32 502.62 1819.72 499.46 1819.72C496.3 1819.72 494.54 1822.32 494.54 1825.32C494.54 1828.36 496.3 1830.96 499.46 1830.96Z" fill="#312783"/>
<path fill-rule="evenodd" clip-rule="evenodd" d="M477.943 1630.81C486.721 1617.07 491.8 1600.75 491.8 1583.25V1583H453.228C453.139 1589.15 451.936 1595.03 449.816 1600.46C444.253 1614.68 432.35 1625.72 417.576 1630.11C413.059 1631.46 408.276 1632.18 403.315 1632.18C394.666 1632.18 386.529 1629.98 379.438 1626.11C366.223 1618.91 356.627 1605.9 354.063 1590.52C353.658 1588.07 353.421 1585.55 353.392 1583H314.82V1583.25C314.82 1594.18 316.803 1604.67 320.442 1614.34C325.748 1628.49 334.565 1640.9 345.847 1650.54C356.666 1659.8 369.744 1666.48 384.143 1669.65C390.316 1671.02 396.727 1671.74 403.315 1671.74C418.552 1671.74 432.902 1667.89 445.427 1661.1C447.587 1667.05 448.77 1673.46 448.77 1680.15C448.77 1710.92 423.829 1735.87 393.048 1735.87C384.946 1735.87 377.248 1734.14 370.304 1731.03L336.055 1761.89C352.155 1773.3 371.818 1780 393.048 1780C447.587 1780 491.8 1735.79 491.8 1681.25C491.8 1662.83 486.75 1645.58 477.943 1630.81Z" fill="#FFDE00"/>
<path fill-rule="evenodd" clip-rule="evenodd" d="M326.079 1671H338.908V1692.09H360V1704.92H338.908V1726H326.079V1704.92H305V1692.09H326.079V1671Z" fill="#312783"/>
</svg>
