<svg width="177" height="260" viewBox="0 0 177 260" fill="none" xmlns="http://www.w3.org/2000/svg">
<path d="M20.2681 38.4972C30.8989 38.4972 39.5168 29.8793 39.5168 19.2486C39.5168 8.6179 30.8989 0 20.2681 0C9.63743 0 1.01953 8.6179 1.01953 19.2486C1.01953 29.8793 9.63743 38.4972 20.2681 38.4972Z" fill="#312783"/>
<path d="M157.751 38.4972C168.381 38.4972 176.999 29.8793 176.999 19.2486C176.999 8.6179 168.381 0 157.751 0C147.12 0 138.502 8.6179 138.502 19.2486C138.502 29.8793 147.12 38.4972 157.751 38.4972Z" fill="#312783"/>
<path fill-rule="evenodd" clip-rule="evenodd" d="M163.123 110.342C171.9 96.6036 176.979 80.2815 176.979 62.7759V62.5293H138.408C138.319 68.6834 137.116 74.5613 134.996 79.9856C129.433 94.2071 117.529 105.253 102.756 109.642C98.2386 110.993 93.4554 111.713 88.4947 111.713C79.8454 111.713 71.709 109.513 64.618 105.638C51.4025 98.438 41.8064 85.4296 39.2422 70.0444C38.8378 67.5985 38.6012 65.0836 38.5716 62.5293H0V62.7759C0 73.7132 1.98232 84.1968 5.62152 93.8718C10.9275 108.014 19.7444 120.431 31.0269 130.067C41.8458 139.327 54.9233 146.014 69.3223 149.18C75.4961 150.551 81.9066 151.271 88.4947 151.271C103.732 151.271 118.082 147.414 130.607 140.629C132.767 146.576 133.95 152.987 133.95 159.683C133.95 190.454 109.008 215.395 78.228 215.395C70.1255 215.395 62.428 213.667 55.4836 210.558L21.2352 241.424C37.3346 252.827 56.998 259.529 78.228 259.529C132.767 259.529 176.979 215.316 176.979 160.778C176.979 142.355 171.93 125.106 163.123 110.342Z" fill="#312783"/>
</svg>
