<svg width="51" height="86" viewBox="0 0 51 86" fill="none" xmlns="http://www.w3.org/2000/svg">
<path d="M33.19 15.95C30.13 15.95 27.38 16.95 25.52 18.55V7.94003L13.34 0.900024V71.23L25.52 64.18V37.55V36.55C25.52 34.86 26.09 33.19 27.27 31.98C27.86 31.37 28.57 30.83 29.37 30.38C31.08 29.4 33.21 28.83 35.53 28.83C36.29 28.83 37.02 28.92 37.71 29.02V16.7C36.37 16.23 34.83 15.95 33.2 15.95H33.19Z" fill="white" stroke="black" stroke-width="0.5" stroke-linecap="round" stroke-linejoin="round"/>
<path d="M21.02 23.0001C17.96 23.0001 15.21 24.0001 13.35 25.6001V14.9901L1.16998 7.95007V64.2001L13.35 71.2301V44.6001V43.6001C13.35 41.9101 13.92 40.2401 15.1 39.0301C15.69 38.4201 16.4 37.8801 17.2 37.4301C18.91 36.4501 21.04 35.8801 23.36 35.8801C24.12 35.8801 24.85 35.9701 25.54 36.0701V23.7501C24.2 23.2801 22.66 23.0001 21.03 23.0001H21.02Z" fill="black" stroke="black" stroke-width="0.5" stroke-linecap="round" stroke-linejoin="round"/>
<path d="M25.53 36.0801L25.52 78.2601L37.71 85.3001V43.1101L25.53 36.0801Z" fill="black" stroke="black" stroke-width="0.5" stroke-linecap="round" stroke-linejoin="round"/>
<path d="M1.16998 7.95003L13.32 0.900024L25.52 7.94003L13.35 14.99L1.16998 7.95003Z" fill="white" stroke="black" stroke-width="0.5" stroke-linecap="round" stroke-linejoin="round"/>
<path d="M25.52 23.7501L37.7 16.7001V29.0301L25.53 36.0801L25.52 23.7501Z" fill="white" stroke="black" stroke-width="0.5" stroke-linecap="round" stroke-linejoin="round"/>
<path d="M27.83 17.1001C27.53 17.2401 27.24 17.3901 26.95 17.5501L14.71 24.6201L15.12 24.4301C16.02 24.0101 17 23.5801 17.98 23.3901L18.94 23.1901C19.91 23.0001 20.92 23.0401 21.9 23.0901C22.66 23.1301 23.42 23.2401 24.16 23.4201L25.52 23.7501L37.69 16.7001L36.46 16.3801C35.92 16.2401 35.37 16.1401 34.81 16.0901L34.1 16.0301C33.49 15.9801 32.88 15.9801 32.28 16.0301L31.47 16.1101C30.86 16.1701 30.26 16.2801 29.67 16.4501L29.15 16.6001C28.7 16.7301 28.26 16.8901 27.83 17.0901V17.1001Z" fill="white" stroke="black" stroke-width="0.5" stroke-linecap="round" stroke-linejoin="round"/>
<path d="M25.53 36.08L37.7 29.03L49.86 36.06L37.71 43.11L25.53 36.08Z" fill="white" stroke="black" stroke-width="0.5" stroke-linecap="round" stroke-linejoin="round"/>
<path d="M37.71 43.1101L49.86 36.0601L49.9 78.2701L37.71 85.3001V43.1101Z" fill="white" stroke="black" stroke-width="0.5" stroke-linecap="round" stroke-linejoin="round"/>
</svg>
