<svg width="226" height="268" viewBox="0 0 226 268" fill="none" xmlns="http://www.w3.org/2000/svg">
<path d="M18.8508 253.089H11.1708V261.609H8.89078V253.089H1.21078V251.009H8.89078V242.729H11.1708V251.009H18.8508V253.089ZM45.6433 266.009C37.7633 266.009 32.4033 260.089 32.4033 252.209C32.4033 244.329 37.7633 238.409 45.6433 238.409C53.5233 238.409 58.9233 244.329 58.9233 252.209C58.9233 256.169 57.5633 259.609 55.2433 262.089L57.7633 264.769L55.4833 266.769L52.8833 264.009C50.8833 265.289 48.4033 266.009 45.6433 266.009ZM45.6433 263.049C47.5633 263.049 49.2833 262.569 50.7233 261.689L46.9233 257.569L49.2433 255.609L53.0033 259.689C54.5633 257.769 55.4833 255.169 55.4833 252.209C55.4833 245.969 51.6033 241.369 45.6433 241.369C39.6433 241.369 35.8433 245.969 35.8433 252.209C35.8433 258.409 39.6433 263.049 45.6433 263.049ZM79.9892 265.529H76.9892V262.809C75.5092 264.489 72.9892 266.009 70.1092 266.009C66.0692 266.009 63.9492 264.009 63.9492 259.849V246.209H66.9492V258.929C66.9492 262.329 68.6692 263.329 71.3092 263.329C73.6292 263.329 75.8692 261.969 76.9892 260.409V246.209H79.9892V265.529ZM94.7405 266.009C88.9805 266.009 84.8605 261.889 84.8605 255.849C84.8605 250.249 88.8605 245.729 94.3805 245.729C100.22 245.729 103.66 250.289 103.66 256.089V256.849H88.0605C88.3005 260.489 90.8205 263.529 94.9805 263.529C97.2205 263.529 99.4205 262.649 100.98 261.049L102.42 263.009C100.46 264.929 97.8605 266.009 94.7405 266.009ZM100.7 254.609C100.66 251.769 98.7405 248.209 94.3405 248.209C90.2205 248.209 88.1805 251.689 88.0205 254.609H100.7ZM131.631 265.529H125.951V254.609L115.671 238.849H122.151L128.791 249.569L135.351 238.849H141.831L131.631 254.609V265.529ZM148.291 266.009C142.411 266.009 137.971 262.049 137.971 255.849C137.971 250.249 142.091 245.729 147.971 245.729C153.731 245.729 157.651 250.049 157.651 256.369V257.489H143.291C143.611 259.929 145.571 261.969 148.851 261.969C150.491 261.969 152.771 261.249 154.011 260.049L156.251 263.329C154.331 265.089 151.291 266.009 148.291 266.009ZM152.731 254.049C152.611 252.209 151.331 249.769 147.971 249.769C144.811 249.769 143.451 252.129 143.211 254.049H152.731ZM166.401 265.529H161.321V238.849H166.401V265.529ZM200.518 265.529H195.398V253.329C195.398 251.529 194.598 250.249 192.518 250.249C190.718 250.249 189.238 251.449 188.518 252.489V265.529H183.398V253.329C183.398 251.529 182.598 250.249 180.518 250.249C178.758 250.249 177.278 251.449 176.518 252.529V265.529H171.438V246.209H176.518V248.729C177.318 247.569 179.878 245.729 182.838 245.729C185.678 245.729 187.478 247.049 188.198 249.249C189.318 247.489 191.878 245.729 194.838 245.729C198.398 245.729 200.518 247.609 200.518 251.569V265.529ZM214.46 266.009C208.1 266.009 204.26 261.369 204.26 255.849C204.26 250.369 208.1 245.729 214.46 245.729C220.86 245.729 224.7 250.369 224.7 255.849C224.7 261.369 220.86 266.009 214.46 266.009ZM214.46 261.489C217.62 261.489 219.42 258.889 219.42 255.849C219.42 252.849 217.62 250.249 214.46 250.249C211.3 250.249 209.54 252.849 209.54 255.849C209.54 258.889 211.3 261.489 214.46 261.489Z" fill="#312783"/>
<path fill-rule="evenodd" clip-rule="evenodd" d="M192.943 48.3419C201.721 34.6036 206.8 18.2815 206.8 0.775855V0.529297H168.228C168.139 6.68339 166.936 12.5613 164.816 17.9856C159.253 32.2071 147.35 43.2529 132.576 47.6416C128.059 48.9928 123.276 49.7127 118.315 49.7127C109.666 49.7127 101.529 47.5134 94.4383 43.6375C81.2228 36.438 71.6267 23.4296 69.0625 8.04439C68.6582 5.59853 68.4215 3.08364 68.3919 0.529297H29.8203V0.775855C29.8203 11.7132 31.8026 22.1968 35.4418 31.8718C40.7478 46.0144 49.5647 58.431 60.8472 68.0665C71.6662 77.3272 84.7436 84.0139 99.1426 87.1797C105.316 88.5506 111.727 89.2705 118.315 89.2705C133.552 89.2705 147.902 85.4144 160.427 78.6291C162.587 84.5761 163.77 90.9866 163.77 97.6831C163.77 128.454 138.829 153.395 108.048 153.395C99.9448 153.395 92.2464 151.666 85.3013 148.557L51.0533 179.422C67.1531 190.826 86.8173 197.529 108.048 197.529C162.587 197.529 206.8 153.316 206.8 98.7778C206.8 80.355 201.75 63.1058 192.943 48.3419Z" fill="#FFDE00"/>
<path fill-rule="evenodd" clip-rule="evenodd" d="M41.0781 88.5293H53.9069V109.622H75V122.451H53.9069V143.529H41.0781V122.451H20V109.622H41.0781V88.5293Z" fill="#312783"/>
</svg>
