<svg width="187" height="197" viewBox="0 0 187 197" fill="none" xmlns="http://www.w3.org/2000/svg">
<path fill-rule="evenodd" clip-rule="evenodd" d="M172.945 47.8126C181.723 34.0743 186.802 17.7522 186.802 0.246558V0H148.23C148.141 6.15409 146.938 12.032 144.818 17.4563C139.255 31.6778 127.352 42.7236 112.578 47.1123C108.061 48.4635 103.278 49.1834 98.3169 49.1834C89.6677 49.1834 81.5313 46.9841 74.4402 43.1082C61.2247 35.9087 51.6287 22.9003 49.0645 7.51509C48.6601 5.06923 48.4234 2.55434 48.3938 0H9.82227V0.246558C9.82227 11.1839 11.8046 21.6675 15.4438 31.3425C20.7497 45.4851 29.5666 57.9017 40.8491 67.5372C51.6681 76.7979 64.7456 83.4846 79.1446 86.6504C85.3184 88.0213 91.7289 88.7412 98.3169 88.7412C113.554 88.7412 127.904 84.8851 140.429 78.0998C142.589 84.0468 143.772 90.4573 143.772 97.1538C143.772 127.924 118.831 152.866 88.0502 152.866C79.9467 152.866 72.2483 151.137 65.3032 148.028L31.0553 178.893C47.155 190.297 66.8193 197 88.0502 197C142.589 197 186.802 152.787 186.802 98.2485C186.802 79.8257 181.752 62.5765 172.945 47.8126Z" fill="#FFDE00"/>
<path fill-rule="evenodd" clip-rule="evenodd" d="M21.0781 88H33.9069V109.093H55V121.921H33.9069V143H21.0781V121.921H0V109.093H21.0781V88Z" fill="#312783"/>
</svg>
