<svg width="177" height="197" viewBox="0 0 177 197" fill="none" xmlns="http://www.w3.org/2000/svg">
<path fill-rule="evenodd" clip-rule="evenodd" d="M163.123 47.8126C171.9 34.0743 176.979 17.7522 176.979 0.246558V0H138.408C138.319 6.15409 137.116 12.032 134.996 17.4563C129.433 31.6778 117.529 42.7236 102.756 47.1123C98.2386 48.4635 93.4554 49.1834 88.4947 49.1834C79.8454 49.1834 71.709 46.9841 64.618 43.1082C51.4025 35.9087 41.8064 22.9003 39.2422 7.51509C38.8378 5.06923 38.6012 2.55434 38.5716 0H0V0.246558C0 11.1839 1.98232 21.6675 5.62152 31.3425C10.9275 45.4851 19.7444 57.9017 31.0269 67.5372C41.8458 76.7979 54.9233 83.4846 69.3223 86.6504C75.4961 88.0213 81.9066 88.7412 88.4947 88.7412C103.732 88.7412 118.082 84.8851 130.607 78.0998C132.767 84.0468 133.95 90.4573 133.95 97.1538C133.95 127.924 109.008 152.866 78.228 152.866C70.1255 152.866 62.428 151.138 55.4836 148.029L21.2352 178.894C37.3346 190.298 56.998 197 78.228 197C132.767 197 176.979 152.787 176.979 98.2485C176.979 79.8257 171.93 62.5765 163.123 47.8126Z" fill="#FFDE00"/>
</svg>
