<svg width="1840" height="782" viewBox="0 0 1840 782" fill="none" xmlns="http://www.w3.org/2000/svg">
<path d="M189.065 543H172.105V516.32H177.785V538H189.065V543ZM210.769 543H205.689V540.56C204.369 542.04 202.049 543.48 198.889 543.48C194.649 543.48 192.649 541.16 192.649 537.4V523.68H197.729V535.4C197.729 538.08 199.129 538.96 201.289 538.96C203.249 538.96 204.809 537.88 205.689 536.76V523.68H210.769V543ZM233.453 543H227.773L223.373 536.48L218.933 543H213.293L220.133 533.08L213.693 523.68H219.373L223.373 529.64L227.333 523.68H233.013L226.533 533.08L233.453 543ZM254.089 543H249.009V540.56C247.689 542.04 245.369 543.48 242.209 543.48C237.969 543.48 235.969 541.16 235.969 537.4V523.68H241.049V535.4C241.049 538.08 242.449 538.96 244.609 538.96C246.569 538.96 248.129 537.88 249.009 536.76V523.68H254.089V543ZM264.213 543H259.133V523.68H264.213V526.32C265.573 524.6 267.973 523.2 270.373 523.2V528.16C270.013 528.08 269.533 528.04 268.973 528.04C267.293 528.04 265.053 529 264.213 530.24V543ZM272.867 550.56L273.627 546C274.067 546.2 274.747 546.32 275.227 546.32C276.547 546.32 277.427 545.96 277.907 544.92L278.627 543.28L270.787 523.68H276.227L281.267 537.12L286.307 523.68H291.787L282.707 546.16C281.267 549.8 278.707 550.76 275.387 550.84C274.787 550.84 273.507 550.72 272.867 550.56Z" fill="white"/>
<path d="M594.994 543H589.314V532.08L579.034 516.32H585.514L592.154 527.04L598.714 516.32H605.194L594.994 532.08V543ZM611.655 543.48C605.775 543.48 601.335 539.52 601.335 533.32C601.335 527.72 605.455 523.2 611.335 523.2C617.095 523.2 621.015 527.52 621.015 533.84V534.96H606.655C606.975 537.4 608.935 539.44 612.215 539.44C613.855 539.44 616.135 538.72 617.375 537.52L619.615 540.8C617.695 542.56 614.655 543.48 611.655 543.48ZM616.095 531.52C615.975 529.68 614.695 527.24 611.335 527.24C608.175 527.24 606.815 529.6 606.575 531.52H616.095ZM629.764 543H624.684V516.32H629.764V543ZM663.881 543H658.761V530.8C658.761 529 657.961 527.72 655.881 527.72C654.081 527.72 652.601 528.92 651.881 529.96V543H646.761V530.8C646.761 529 645.961 527.72 643.881 527.72C642.121 527.72 640.641 528.92 639.881 530V543H634.801V523.68H639.881V526.2C640.681 525.04 643.241 523.2 646.201 523.2C649.041 523.2 650.841 524.52 651.561 526.72C652.681 524.96 655.241 523.2 658.201 523.2C661.761 523.2 663.881 525.08 663.881 529.04V543ZM677.824 543.48C671.464 543.48 667.624 538.84 667.624 533.32C667.624 527.84 671.464 523.2 677.824 523.2C684.224 523.2 688.064 527.84 688.064 533.32C688.064 538.84 684.224 543.48 677.824 543.48ZM677.824 538.96C680.984 538.96 682.784 536.36 682.784 533.32C682.784 530.32 680.984 527.72 677.824 527.72C674.664 527.72 672.904 530.32 672.904 533.32C672.904 536.36 674.664 538.96 677.824 538.96ZM715.307 543.48C707.627 543.48 701.587 537.88 701.587 529.68C701.587 521.48 707.627 515.88 715.307 515.88C720.027 515.88 723.307 518.12 725.427 521.16L722.667 522.72C721.147 520.44 718.347 518.84 715.307 518.84C709.467 518.84 705.027 523.28 705.027 529.68C705.027 536 709.467 540.52 715.307 540.52C718.347 540.52 721.147 538.88 722.667 536.64L725.467 538.16C723.227 541.24 720.027 543.48 715.307 543.48ZM731.098 520.92C729.978 520.92 729.058 520.04 729.058 518.92C729.058 517.8 729.978 516.88 731.098 516.88C732.218 516.88 733.098 517.8 733.098 518.92C733.098 520.04 732.218 520.92 731.098 520.92ZM732.578 543H729.578V523.68H732.578V543ZM754.603 543H751.643V530.36C751.643 526.92 749.883 525.88 747.283 525.88C744.923 525.88 742.723 527.32 741.563 528.88V543H738.563V523.68H741.563V526.48C742.923 524.84 745.562 523.2 748.483 523.2C752.483 523.2 754.603 525.24 754.603 529.44V543ZM769.393 543.48C763.633 543.48 759.513 539.36 759.513 533.32C759.513 527.72 763.513 523.2 769.033 523.2C774.873 523.2 778.313 527.76 778.313 533.56V534.32H762.713C762.953 537.96 765.473 541 769.633 541C771.873 541 774.073 540.12 775.633 538.52L777.073 540.48C775.113 542.4 772.513 543.48 769.393 543.48ZM775.353 532.08C775.313 529.24 773.393 525.68 768.993 525.68C764.873 525.68 762.833 529.16 762.673 532.08H775.353ZM789.332 543.48C786.132 543.48 783.492 542.48 781.532 540.44L783.052 538.28C784.332 539.76 786.772 541.04 789.412 541.04C792.372 541.04 794.012 539.64 794.012 537.72C794.012 533.04 782.052 535.92 782.052 528.76C782.052 525.72 784.612 523.2 789.212 523.2C792.532 523.2 794.852 524.44 796.372 526L794.972 528.08C793.812 526.68 791.732 525.64 789.212 525.64C786.572 525.64 784.932 526.96 784.932 528.68C784.932 532.88 796.892 530.12 796.892 537.64C796.892 540.88 794.292 543.48 789.332 543.48Z" fill="white"/>
<rect width="460" height="782" fill="#161616"/>
<path fill-rule="evenodd" clip-rule="evenodd" d="M300.123 339.813C308.9 326.074 313.979 309.752 313.979 292.247V292H275.408C275.319 298.154 274.116 304.032 271.996 309.456C266.433 323.678 254.529 334.724 239.756 339.112C235.239 340.463 230.455 341.183 225.495 341.183C216.845 341.183 208.709 338.984 201.618 335.108C188.402 327.909 178.806 314.9 176.242 299.515C175.838 297.069 175.601 294.554 175.572 292H137V292.247C137 303.184 138.982 313.668 142.622 323.342C147.927 337.485 156.744 349.902 168.027 359.537C178.846 368.798 191.923 375.485 206.322 378.65C212.496 380.021 218.907 380.741 225.495 380.741C240.732 380.741 255.082 376.885 267.607 370.1C269.767 376.047 270.95 382.457 270.95 389.154C270.95 419.924 246.008 444.866 215.228 444.866C207.125 444.866 199.428 443.137 192.483 440.029L158.235 470.894C174.334 482.298 193.998 489 215.228 489C269.767 489 313.979 444.787 313.979 390.249C313.979 371.826 308.93 354.576 300.123 339.813Z" fill="white"/>
<path d="M184.065 544H167.105V517.32H172.785V539H184.065V544ZM205.769 544H200.689V541.56C199.369 543.04 197.049 544.48 193.889 544.48C189.649 544.48 187.649 542.16 187.649 538.4V524.68H192.729V536.4C192.729 539.08 194.129 539.96 196.289 539.96C198.249 539.96 199.809 538.88 200.689 537.76V524.68H205.769V544ZM228.453 544H222.773L218.373 537.48L213.933 544H208.293L215.133 534.08L208.693 524.68H214.373L218.373 530.64L222.333 524.68H228.013L221.533 534.08L228.453 544ZM249.089 544H244.009V541.56C242.689 543.04 240.369 544.48 237.209 544.48C232.969 544.48 230.969 542.16 230.969 538.4V524.68H236.049V536.4C236.049 539.08 237.449 539.96 239.609 539.96C241.569 539.96 243.129 538.88 244.009 537.76V524.68H249.089V544ZM259.213 544H254.133V524.68H259.213V527.32C260.573 525.6 262.973 524.2 265.373 524.2V529.16C265.013 529.08 264.533 529.04 263.973 529.04C262.293 529.04 260.053 530 259.213 531.24V544ZM267.867 551.56L268.627 547C269.067 547.2 269.747 547.32 270.227 547.32C271.547 547.32 272.427 546.96 272.907 545.92L273.627 544.28L265.787 524.68H271.227L276.267 538.12L281.307 524.68H286.787L277.707 547.16C276.267 550.8 273.707 551.76 270.387 551.84C269.787 551.84 268.507 551.72 267.867 551.56Z" fill="white"/>
<rect x="460" width="460" height="782" fill="#312783"/>
<path fill-rule="evenodd" clip-rule="evenodd" d="M764.123 339.813C772.9 326.074 777.979 309.752 777.979 292.247V292H739.408C739.319 298.154 738.116 304.032 735.996 309.456C730.433 323.678 718.529 334.724 703.756 339.112C699.239 340.463 694.455 341.183 689.495 341.183C680.845 341.183 672.709 338.984 665.618 335.108C652.402 327.909 642.806 314.9 640.242 299.515C639.838 297.069 639.601 294.554 639.572 292H601V292.247C601 303.184 602.982 313.668 606.622 323.342C611.927 337.485 620.744 349.902 632.027 359.537C642.846 368.798 655.923 375.485 670.322 378.65C676.496 380.021 682.907 380.741 689.495 380.741C704.732 380.741 719.082 376.885 731.607 370.1C733.767 376.047 734.95 382.457 734.95 389.154C734.95 419.924 710.008 444.866 679.228 444.866C671.125 444.866 663.428 443.137 656.483 440.029L622.235 470.894C638.334 482.298 657.998 489 679.228 489C733.767 489 777.979 444.787 777.979 390.249C777.979 371.826 772.93 354.576 764.123 339.813Z" fill="#FFDE00"/>
<path d="M594.994 544H589.314V533.08L579.034 517.32H585.514L592.154 528.04L598.714 517.32H605.194L594.994 533.08V544ZM611.655 544.48C605.775 544.48 601.335 540.52 601.335 534.32C601.335 528.72 605.455 524.2 611.335 524.2C617.095 524.2 621.015 528.52 621.015 534.84V535.96H606.655C606.975 538.4 608.935 540.44 612.215 540.44C613.855 540.44 616.135 539.72 617.375 538.52L619.615 541.8C617.695 543.56 614.655 544.48 611.655 544.48ZM616.095 532.52C615.975 530.68 614.695 528.24 611.335 528.24C608.175 528.24 606.815 530.6 606.575 532.52H616.095ZM629.764 544H624.684V517.32H629.764V544ZM663.881 544H658.761V531.8C658.761 530 657.961 528.72 655.881 528.72C654.081 528.72 652.601 529.92 651.881 530.96V544H646.761V531.8C646.761 530 645.961 528.72 643.881 528.72C642.121 528.72 640.641 529.92 639.881 531V544H634.801V524.68H639.881V527.2C640.681 526.04 643.241 524.2 646.201 524.2C649.041 524.2 650.841 525.52 651.561 527.72C652.681 525.96 655.241 524.2 658.201 524.2C661.761 524.2 663.881 526.08 663.881 530.04V544ZM677.824 544.48C671.464 544.48 667.624 539.84 667.624 534.32C667.624 528.84 671.464 524.2 677.824 524.2C684.224 524.2 688.064 528.84 688.064 534.32C688.064 539.84 684.224 544.48 677.824 544.48ZM677.824 539.96C680.984 539.96 682.784 537.36 682.784 534.32C682.784 531.32 680.984 528.72 677.824 528.72C674.664 528.72 672.904 531.32 672.904 534.32C672.904 537.36 674.664 539.96 677.824 539.96ZM715.307 544.48C707.627 544.48 701.587 538.88 701.587 530.68C701.587 522.48 707.627 516.88 715.307 516.88C720.027 516.88 723.307 519.12 725.427 522.16L722.667 523.72C721.147 521.44 718.347 519.84 715.307 519.84C709.467 519.84 705.027 524.28 705.027 530.68C705.027 537 709.467 541.52 715.307 541.52C718.347 541.52 721.147 539.88 722.667 537.64L725.467 539.16C723.227 542.24 720.027 544.48 715.307 544.48ZM731.098 521.92C729.978 521.92 729.058 521.04 729.058 519.92C729.058 518.8 729.978 517.88 731.098 517.88C732.218 517.88 733.098 518.8 733.098 519.92C733.098 521.04 732.218 521.92 731.098 521.92ZM732.578 544H729.578V524.68H732.578V544ZM754.603 544H751.643V531.36C751.643 527.92 749.883 526.88 747.283 526.88C744.923 526.88 742.723 528.32 741.563 529.88V544H738.563V524.68H741.563V527.48C742.923 525.84 745.562 524.2 748.483 524.2C752.483 524.2 754.603 526.24 754.603 530.44V544ZM769.393 544.48C763.633 544.48 759.513 540.36 759.513 534.32C759.513 528.72 763.513 524.2 769.033 524.2C774.873 524.2 778.313 528.76 778.313 534.56V535.32H762.713C762.953 538.96 765.473 542 769.633 542C771.873 542 774.073 541.12 775.633 539.52L777.073 541.48C775.113 543.4 772.513 544.48 769.393 544.48ZM775.353 533.08C775.313 530.24 773.393 526.68 768.993 526.68C764.873 526.68 762.833 530.16 762.673 533.08H775.353ZM789.332 544.48C786.132 544.48 783.492 543.48 781.532 541.44L783.052 539.28C784.332 540.76 786.772 542.04 789.412 542.04C792.372 542.04 794.012 540.64 794.012 538.72C794.012 534.04 782.052 536.92 782.052 529.76C782.052 526.72 784.612 524.2 789.212 524.2C792.532 524.2 794.852 525.44 796.372 527L794.972 529.08C793.812 527.68 791.732 526.64 789.212 526.64C786.572 526.64 784.932 527.96 784.932 529.68C784.932 533.88 796.892 531.12 796.892 538.64C796.892 541.88 794.292 544.48 789.332 544.48Z" fill="#FFDE00"/>
<rect x="919" width="460" height="782" fill="#FFDE00"/>
<path d="M1099.76 542.478C1097.08 542.478 1094.52 541.758 1092.6 539.878L1095.08 535.518C1096.12 536.518 1097.48 537.438 1099.32 537.438C1101.84 537.438 1103.48 535.758 1103.48 533.158V515.318H1109.16V533.238C1109.16 539.558 1105.24 542.478 1099.76 542.478ZM1132.45 541.998H1127.37V539.558C1126.05 541.038 1123.73 542.478 1120.57 542.478C1116.33 542.478 1114.33 540.158 1114.33 536.398V522.678H1119.41V534.398C1119.41 537.078 1120.81 537.958 1122.97 537.958C1124.93 537.958 1126.49 536.878 1127.37 535.758V522.678H1132.45V541.998ZM1155.62 541.998H1150.54V530.318C1150.54 527.638 1149.14 526.718 1146.98 526.718C1144.98 526.718 1143.42 527.838 1142.58 528.998V541.998H1137.5V522.678H1142.58V525.198C1143.82 523.718 1146.18 522.198 1149.34 522.198C1153.58 522.198 1155.62 524.598 1155.62 528.358V541.998ZM1163.18 520.598C1161.54 520.598 1160.14 519.238 1160.14 517.558C1160.14 515.878 1161.54 514.558 1163.18 514.558C1164.86 514.558 1166.22 515.878 1166.22 517.558C1166.22 519.238 1164.86 520.598 1163.18 520.598ZM1165.74 541.998H1160.66V522.678H1165.74V541.998ZM1179.74 542.478C1173.38 542.478 1169.54 537.838 1169.54 532.318C1169.54 526.838 1173.38 522.198 1179.74 522.198C1186.14 522.198 1189.98 526.838 1189.98 532.318C1189.98 537.838 1186.14 542.478 1179.74 542.478ZM1179.74 537.958C1182.9 537.958 1184.7 535.358 1184.7 532.318C1184.7 529.318 1182.9 526.718 1179.74 526.718C1176.58 526.718 1174.82 529.318 1174.82 532.318C1174.82 535.358 1176.58 537.958 1179.74 537.958ZM1198.83 541.998H1193.75V522.678H1198.83V525.318C1200.19 523.598 1202.59 522.198 1204.99 522.198V527.158C1204.63 527.078 1204.15 527.038 1203.59 527.038C1201.91 527.038 1199.67 527.998 1198.83 529.238V541.998Z" fill="#312783"/>
<path d="M1081.27 267.968C1091.9 267.968 1100.52 259.35 1100.52 248.719C1100.52 238.089 1091.9 229.471 1081.27 229.471C1070.64 229.471 1062.02 238.089 1062.02 248.719C1062.02 259.35 1070.64 267.968 1081.27 267.968Z" fill="#312783"/>
<path d="M1218.75 267.968C1229.38 267.968 1238 259.35 1238 248.719C1238 238.089 1229.38 229.471 1218.75 229.471C1208.12 229.471 1199.5 238.089 1199.5 248.719C1199.5 259.35 1208.12 267.968 1218.75 267.968Z" fill="#312783"/>
<path fill-rule="evenodd" clip-rule="evenodd" d="M1224.12 339.813C1232.9 326.074 1237.98 309.752 1237.98 292.247V292H1199.41C1199.32 298.154 1198.12 304.032 1196 309.456C1190.43 323.678 1178.53 334.724 1163.76 339.112C1159.24 340.463 1154.46 341.183 1149.49 341.183C1140.85 341.183 1132.71 338.984 1125.62 335.108C1112.4 327.909 1102.81 314.9 1100.24 299.515C1099.84 297.069 1099.6 294.554 1099.57 292H1061V292.247C1061 303.184 1062.98 313.668 1066.62 323.342C1071.93 337.485 1080.74 349.902 1092.03 359.537C1102.85 368.798 1115.92 375.485 1130.32 378.65C1136.5 380.021 1142.91 380.741 1149.49 380.741C1164.73 380.741 1179.08 376.885 1191.61 370.1C1193.77 376.047 1194.95 382.457 1194.95 389.154C1194.95 419.924 1170.01 444.866 1139.23 444.866C1131.13 444.866 1123.43 443.137 1116.48 440.029L1082.24 470.894C1098.33 482.298 1118 489 1139.23 489C1193.77 489 1237.98 444.787 1237.98 390.249C1237.98 371.826 1232.93 354.576 1224.12 339.813Z" fill="#312783"/>
<rect x="1378" width="460" height="782" fill="white"/>
<path d="M1513.85 527.56H1506.17V536.08H1503.89V527.56H1496.21V525.48H1503.89V517.2H1506.17V525.48H1513.85V527.56ZM1540.64 540.48C1532.76 540.48 1527.4 534.56 1527.4 526.68C1527.4 518.8 1532.76 512.88 1540.64 512.88C1548.52 512.88 1553.92 518.8 1553.92 526.68C1553.92 530.64 1552.56 534.08 1550.24 536.56L1552.76 539.24L1550.48 541.24L1547.88 538.48C1545.88 539.76 1543.4 540.48 1540.64 540.48ZM1540.64 537.52C1542.56 537.52 1544.28 537.04 1545.72 536.16L1541.92 532.04L1544.24 530.08L1548 534.16C1549.56 532.24 1550.48 529.64 1550.48 526.68C1550.48 520.44 1546.6 515.84 1540.64 515.84C1534.64 515.84 1530.84 520.44 1530.84 526.68C1530.84 532.88 1534.64 537.52 1540.64 537.52ZM1574.99 540H1571.99V537.28C1570.51 538.96 1567.99 540.48 1565.11 540.48C1561.07 540.48 1558.95 538.48 1558.95 534.32V520.68H1561.95V533.4C1561.95 536.8 1563.67 537.8 1566.31 537.8C1568.63 537.8 1570.87 536.44 1571.99 534.88V520.68H1574.99V540ZM1589.74 540.48C1583.98 540.48 1579.86 536.36 1579.86 530.32C1579.86 524.72 1583.86 520.2 1589.38 520.2C1595.22 520.2 1598.66 524.76 1598.66 530.56V531.32H1583.06C1583.3 534.96 1585.82 538 1589.98 538C1592.22 538 1594.42 537.12 1595.98 535.52L1597.42 537.48C1595.46 539.4 1592.86 540.48 1589.74 540.48ZM1595.7 529.08C1595.66 526.24 1593.74 522.68 1589.34 522.68C1585.22 522.68 1583.18 526.16 1583.02 529.08H1595.7ZM1626.63 540H1620.95V529.08L1610.67 513.32H1617.15L1623.79 524.04L1630.35 513.32H1636.83L1626.63 529.08V540ZM1643.29 540.48C1637.41 540.48 1632.97 536.52 1632.97 530.32C1632.97 524.72 1637.09 520.2 1642.97 520.2C1648.73 520.2 1652.65 524.52 1652.65 530.84V531.96H1638.29C1638.61 534.4 1640.57 536.44 1643.85 536.44C1645.49 536.44 1647.77 535.72 1649.01 534.52L1651.25 537.8C1649.33 539.56 1646.29 540.48 1643.29 540.48ZM1647.73 528.52C1647.61 526.68 1646.33 524.24 1642.97 524.24C1639.81 524.24 1638.45 526.6 1638.21 528.52H1647.73ZM1661.4 540H1656.32V513.32H1661.4V540ZM1695.52 540H1690.4V527.8C1690.4 526 1689.6 524.72 1687.52 524.72C1685.72 524.72 1684.24 525.92 1683.52 526.96V540H1678.4V527.8C1678.4 526 1677.6 524.72 1675.52 524.72C1673.76 524.72 1672.28 525.92 1671.52 527V540H1666.44V520.68H1671.52V523.2C1672.32 522.04 1674.88 520.2 1677.84 520.2C1680.68 520.2 1682.48 521.52 1683.2 523.72C1684.32 521.96 1686.88 520.2 1689.84 520.2C1693.4 520.2 1695.52 522.08 1695.52 526.04V540ZM1709.46 540.48C1703.1 540.48 1699.26 535.84 1699.26 530.32C1699.26 524.84 1703.1 520.2 1709.46 520.2C1715.86 520.2 1719.7 524.84 1719.7 530.32C1719.7 535.84 1715.86 540.48 1709.46 540.48ZM1709.46 535.96C1712.62 535.96 1714.42 533.36 1714.42 530.32C1714.42 527.32 1712.62 524.72 1709.46 524.72C1706.3 524.72 1704.54 527.32 1704.54 530.32C1704.54 533.36 1706.3 535.96 1709.46 535.96Z" fill="#312783"/>
<path fill-rule="evenodd" clip-rule="evenodd" d="M1687.94 335.813C1696.72 322.074 1701.8 305.752 1701.8 288.247V288H1663.23C1663.14 294.154 1661.94 300.032 1659.82 305.456C1654.25 319.678 1642.35 330.724 1627.58 335.112C1623.06 336.463 1618.28 337.183 1613.31 337.183C1604.67 337.183 1596.53 334.984 1589.44 331.108C1576.22 323.909 1566.63 310.9 1564.06 295.515C1563.66 293.069 1563.42 290.554 1563.39 288H1524.82V288.247C1524.82 299.184 1526.8 309.668 1530.44 319.342C1535.75 333.485 1544.56 345.902 1555.85 355.537C1566.67 364.798 1579.74 371.485 1594.14 374.65C1600.32 376.021 1606.73 376.741 1613.31 376.741C1628.55 376.741 1642.9 372.885 1655.43 366.1C1657.59 372.047 1658.77 378.457 1658.77 385.154C1658.77 415.924 1633.83 440.866 1603.05 440.866C1594.95 440.866 1587.25 439.137 1580.3 436.029L1546.06 466.894C1562.15 478.298 1581.82 485 1603.05 485C1657.59 485 1701.8 440.787 1701.8 386.249C1701.8 367.826 1696.75 350.576 1687.94 335.813Z" fill="#FFDE00"/>
<path fill-rule="evenodd" clip-rule="evenodd" d="M1536.08 376H1548.91V397.093H1570V409.921H1548.91V431H1536.08V409.921H1515V397.093H1536.08V376Z" fill="#312783"/>
</svg>
