<svg width="633" height="170" viewBox="0 0 633 170" fill="none" xmlns="http://www.w3.org/2000/svg">
<path d="M43.4592 32.9502C36.7597 32.9502 30.7389 35.1396 26.6667 38.6426V15.4132L0 0V123.153L26.6667 138.544V80.2408V78.0514C26.6667 74.3514 27.9146 70.6951 30.4981 68.046C31.7898 66.7104 33.3443 65.5282 35.0958 64.543C38.8396 62.3974 43.503 61.1494 48.5824 61.1494C50.2463 61.1494 51.8445 61.3465 53.3552 61.5654V34.5922C50.4215 33.5632 47.0498 32.9502 43.4811 32.9502H43.4592Z" fill="#F5F5F5"/>
<path d="M53.3324 61.5874L53.3105 153.935L79.9991 169.349V76.9788L53.3324 61.5874Z" fill="#F5F5F5"/>
<path d="M163.66 107V64.1001H181.96C190.78 64.1001 196.48 68.6001 196.48 76.4001C196.48 82.4001 193.42 85.8801 188.5 87.0801V87.2001C198.4 89.0601 194.8 105.86 197.08 106.58V107H189.58C187.6 105.2 191.62 90.4401 181.3 90.4401H170.8V107H163.66ZM170.8 70.1601V84.3201H180.46C184.84 84.3201 189.4 83.4801 189.4 77.2401C189.4 71.0601 184.84 70.1601 180.46 70.1601H170.8Z" fill="#F5F5F5"/>
<path d="M221.832 76.3401H228.132V107H221.832V103.04H221.712C220.092 105.44 216.912 107.84 211.632 107.84C205.932 107.84 201.432 104.54 201.432 97.5201V76.3401H207.792V95.7201C207.792 99.8601 209.532 102.5 213.852 102.5C218.712 102.5 221.832 99.5601 221.832 95.0001V76.3401Z" fill="#F5F5F5"/>
<path d="M249.913 75.5001C257.773 75.5001 263.593 81.6201 263.593 91.7001C263.593 101.78 257.773 107.9 249.913 107.9C245.173 107.9 242.173 105.56 240.553 103.46H240.433V107H234.133V64.1001H240.433V80.0601H240.553C242.173 77.7201 245.173 75.5001 249.913 75.5001ZM248.833 102.74C254.353 102.74 257.293 97.7001 257.293 91.7001C257.293 85.7001 254.353 80.6601 248.833 80.6601C243.673 80.6601 240.493 84.8601 240.493 91.7001C240.493 98.4801 243.673 102.74 248.833 102.74Z" fill="#F5F5F5"/>
<path d="M288.64 63.6201L283.66 71.4801H278.74L281.32 63.6201H288.64ZM281.56 102.74C286.78 102.74 288.88 99.5001 289.42 97.6401H295.72C294.16 103.46 289.6 107.9 281.74 107.9C272.2 107.9 266.38 101.3 266.38 91.7001C266.38 81.7401 272.2 75.5001 281.44 75.5001C291.34 75.5001 296.2 82.4001 296.2 93.3201H272.68C272.68 98.4801 275.98 102.74 281.56 102.74ZM281.44 80.4801C276.34 80.4801 272.68 83.9001 272.68 88.6401H289.9C289.9 83.9001 286.54 80.4801 281.44 80.4801Z" fill="#F5F5F5"/>
<path d="M317.02 75.5001C322.72 75.5001 327.22 78.8001 327.22 85.8201V107H320.86V87.6201C320.86 83.4801 319.12 80.8401 314.8 80.8401C309.94 80.8401 306.82 83.7801 306.82 88.3401V107H300.52V76.3401H306.82V80.3001H306.94C308.56 77.9001 311.74 75.5001 317.02 75.5001Z" fill="#F5F5F5"/>
<path d="M345.066 107V64.1001H354.306L366.306 97.1001H366.426L378.366 64.1001H387.606V107H380.646V74.4801H380.526L369.186 107H363.486L352.146 74.4801H352.026V107H345.066Z" fill="#F5F5F5"/>
<path d="M412.927 84.3801C412.927 82.1601 411.607 80.4801 407.407 80.4801C402.367 80.4801 400.507 82.0401 400.207 86.0001H394.087C394.387 80.1201 398.167 75.5001 407.407 75.5001C414.187 75.5001 419.227 78.0801 419.227 86.2401V100.82C419.227 102.98 419.707 104.12 422.167 103.88V106.88C420.727 107.42 419.707 107.54 418.507 107.54C415.147 107.54 413.587 106.34 412.987 103.34H412.867C410.947 106.04 407.467 107.9 402.727 107.9C396.487 107.9 392.647 104.3 392.647 99.1401C392.647 92.4201 397.627 90.3201 405.307 88.8201C410.047 87.9201 412.927 87.3201 412.927 84.3801ZM404.107 102.92C409.327 102.92 412.927 100.34 412.927 95.3601V90.7401C411.907 91.4601 409.447 92.1801 406.507 92.7801C401.287 93.9201 399.007 95.4201 399.007 98.5401C399.007 101.36 400.687 102.92 404.107 102.92Z" fill="#F5F5F5"/>
<path d="M425.972 64.1001H432.332V107H425.972V64.1001Z" fill="#F5F5F5"/>
<path d="M459.989 64.1001H466.289V107H459.989V103.46H459.869C458.249 105.56 455.249 107.9 450.509 107.9C442.649 107.9 436.829 101.78 436.829 91.7001C436.829 81.6201 442.649 75.5001 450.509 75.5001C455.249 75.5001 458.249 77.7201 459.869 80.0601H459.989V64.1001ZM451.589 102.74C456.749 102.74 459.929 98.4801 459.929 91.7001C459.929 84.8601 456.749 80.6601 451.589 80.6601C446.069 80.6601 443.129 85.7001 443.129 91.7001C443.129 97.7001 446.069 102.74 451.589 102.74Z" fill="#F5F5F5"/>
<path d="M486.117 107.9C476.517 107.9 470.697 101.24 470.697 91.7001C470.697 82.1601 476.517 75.5001 486.117 75.5001C495.717 75.5001 501.537 82.1601 501.537 91.7001C501.537 101.24 495.717 107.9 486.117 107.9ZM486.117 102.74C492.117 102.74 495.237 98.0001 495.237 91.7001C495.237 85.3401 492.117 80.6601 486.117 80.6601C480.117 80.6601 476.997 85.3401 476.997 91.7001C476.997 98.0001 480.117 102.74 486.117 102.74Z" fill="#F5F5F5"/>
<path d="M522.391 75.5001C528.091 75.5001 532.591 78.8001 532.591 85.8201V107H526.231V87.6201C526.231 83.4801 524.491 80.8401 520.171 80.8401C515.311 80.8401 512.191 83.7801 512.191 88.3401V107H505.891V76.3401H512.191V80.3001H512.311C513.931 77.9001 517.111 75.5001 522.391 75.5001Z" fill="#F5F5F5"/>
<path d="M556.892 84.3801C556.892 82.1601 555.572 80.4801 551.372 80.4801C546.332 80.4801 544.472 82.0401 544.172 86.0001H538.052C538.352 80.1201 542.132 75.5001 551.372 75.5001C558.152 75.5001 563.192 78.0801 563.192 86.2401V100.82C563.192 102.98 563.672 104.12 566.132 103.88V106.88C564.692 107.42 563.672 107.54 562.472 107.54C559.112 107.54 557.552 106.34 556.952 103.34H556.832C554.912 106.04 551.432 107.9 546.692 107.9C540.452 107.9 536.612 104.3 536.612 99.1401C536.612 92.4201 541.592 90.3201 549.272 88.8201C554.012 87.9201 556.892 87.3201 556.892 84.3801ZM548.072 102.92C553.292 102.92 556.892 100.34 556.892 95.3601V90.7401C555.872 91.4601 553.412 92.1801 550.472 92.7801C545.252 93.9201 542.972 95.4201 542.972 98.5401C542.972 101.36 544.652 102.92 548.072 102.92Z" fill="#F5F5F5"/>
<path d="M591.357 64.1001H597.657V107H591.357V103.46H591.237C589.617 105.56 586.617 107.9 581.877 107.9C574.017 107.9 568.197 101.78 568.197 91.7001C568.197 81.6201 574.017 75.5001 581.877 75.5001C586.617 75.5001 589.617 77.7201 591.237 80.0601H591.357V64.1001ZM582.957 102.74C588.117 102.74 591.297 98.4801 591.297 91.7001C591.297 84.8601 588.117 80.6601 582.957 80.6601C577.437 80.6601 574.497 85.7001 574.497 91.7001C574.497 97.7001 577.437 102.74 582.957 102.74Z" fill="#F5F5F5"/>
<path d="M617.484 107.9C607.884 107.9 602.064 101.24 602.064 91.7001C602.064 82.1601 607.884 75.5001 617.484 75.5001C627.084 75.5001 632.904 82.1601 632.904 91.7001C632.904 101.24 627.084 107.9 617.484 107.9ZM617.484 102.74C623.484 102.74 626.604 98.0001 626.604 91.7001C626.604 85.3401 623.484 80.6601 617.484 80.6601C611.484 80.6601 608.364 85.3401 608.364 91.7001C608.364 98.0001 611.484 102.74 617.484 102.74Z" fill="#F5F5F5"/>
</svg>
