<svg width="55" height="86" viewBox="0 0 55 86" fill="none" xmlns="http://www.w3.org/2000/svg">
<path d="M37.54 16.81V29.13C36.86 29.04 36.12 28.94 35.36 28.94C33.04 28.94 30.91 29.51 29.2 30.49C28.4 30.95 27.69 31.48 27.1 32.09C25.92 33.3 25.35 34.98 25.35 36.66V64.29L13.19 71.34V15.09L1.00999 8.05L13.16 1H13.18L25.36 8.05V18.65C27.22 17.05 29.97 16.05 33.03 16.05C34.66 16.05 36.2 16.33 37.54 16.81Z" fill="black" stroke="white" stroke-width="0.5" stroke-linecap="round" stroke-linejoin="round"/>
<path d="M25.36 8.04V8.05L13.18 1.01V1L25.36 8.04Z" fill="black" stroke="white" stroke-width="0.5" stroke-linecap="round" stroke-linejoin="round"/>
<path d="M20.85 23.1C17.79 23.1 15.04 24.1001 13.18 25.7001V15.09L1 8.05005V64.3001L13.18 71.3301V44.7001V43.7001C13.18 42.0101 13.75 40.3401 14.93 39.1301C15.52 38.5201 16.23 37.98 17.03 37.53C18.74 36.55 20.87 35.98 23.19 35.98C23.95 35.98 24.68 36.07 25.37 36.17V23.85C24.03 23.38 22.49 23.1 20.86 23.1H20.85Z" fill="white" stroke="white" stroke-width="0.5" stroke-linecap="round" stroke-linejoin="round"/>
<path d="M25.37 36.1801L25.36 78.3601L37.55 85.4001V43.2101L25.37 36.1801Z" fill="white" stroke="white" stroke-width="0.5" stroke-linecap="round" stroke-linejoin="round"/>
<path d="M49.7 36.1701L37.55 43.2101L25.37 36.1801L25.36 23.8601L37.54 16.8101V29.1301L49.7 36.1701Z" fill="black" stroke="white" stroke-width="0.5" stroke-linecap="round" stroke-linejoin="round"/>
<path d="M27.67 17.2C27.37 17.34 27.08 17.49 26.79 17.65L14.55 24.72L14.96 24.53C15.86 24.11 16.84 23.68 17.82 23.49L18.78 23.29C19.75 23.1 20.76 23.14 21.74 23.19C22.5 23.23 23.26 23.34 24 23.52L25.36 23.85L37.53 16.8L36.3 16.48C35.76 16.34 35.21 16.24 34.65 16.19L33.94 16.13C33.33 16.08 32.72 16.08 32.12 16.13L31.31 16.21C30.7 16.27 30.1 16.38 29.51 16.55L28.99 16.7C28.54 16.83 28.1 16.99 27.67 17.19V17.2Z" fill="black" stroke="white" stroke-width="0.5" stroke-linecap="round" stroke-linejoin="round"/>
<path d="M37.55 43.21L49.7 36.17L49.74 78.38L37.55 85.4V43.21Z" fill="black" stroke="white" stroke-width="0.5" stroke-linecap="round" stroke-linejoin="round"/>
<path d="M53.5001 34C52.673 34 52 34.6727 52 35.5C52 36.327 52.673 37 53.5001 37C54.3273 37 55.0003 36.327 55.0003 35.5C55.0003 34.6727 54.3273 34 53.5001 34ZM53.5001 36.6658C52.8572 36.6658 52.3342 36.1428 52.3342 35.5C52.3342 34.8569 52.8572 34.3339 53.5001 34.3339C54.1431 34.3339 54.6661 34.8569 54.6661 35.5C54.6661 36.1428 54.1431 36.6658 53.5001 36.6658Z" fill="white"/>
<path d="M53.9925 35.7717C53.8967 35.9361 53.7185 36.0381 53.5275 36.0381C53.2309 36.0381 52.9892 35.7966 52.9892 35.5C52.9892 35.2031 53.2309 34.9614 53.5275 34.9614C53.7185 34.9614 53.8967 35.0638 53.9925 35.2279L54.0049 35.2494H54.3664L54.3447 35.1912C54.2818 35.0245 54.1714 34.8828 54.0253 34.7817C53.8788 34.6803 53.7067 34.6265 53.5275 34.6265C53.0459 34.6265 52.6543 35.0184 52.6543 35.5C52.6543 35.9815 53.0459 36.3731 53.5275 36.3731C53.7067 36.3731 53.8788 36.3195 54.0253 36.2179C54.1714 36.1168 54.2818 35.9751 54.3447 35.8084L54.3664 35.7502H54.0049L53.9925 35.7717Z" fill="white"/>
</svg>
