<?xml version="1.0" encoding="UTF-8"?>
<svg id="Capa_1" data-name="Capa 1" xmlns="http://www.w3.org/2000/svg" viewBox="0 0 305.42 57.25">
  <defs>
    <style>
      .cls-1 {
        fill: #fff;
      }
    </style>
  </defs>
  <path class="cls-1" d="m9.5,39.28l4.08-1.26V3.79h-2.81c-1.83,0-3.24.21-4.25.63-1,.42-1.8,1.2-2.38,2.33s-1.05,2.81-1.4,5.03H-.4c.09-1.64.18-3.58.27-5.83C-.04,3.72,0,1.73,0,0h38.19c0,1.73.04,3.72.13,5.96.09,2.24.18,4.18.27,5.83h-3.14c-.36-2.22-.83-3.89-1.4-5.03-.58-1.13-1.37-1.91-2.37-2.33-1-.42-2.42-.63-4.25-.63h-2.81v30.82c0,1.02.09,1.78.27,2.26.18.49.56.91,1.14,1.26.58.36,1.54.73,2.88,1.13v2.33c-4.41-.13-7.54-.2-9.36-.2-2.94,0-6.29.07-10.03.2v-2.33Z"/>
  <path class="cls-1" d="m44.3,55.92c-.96-.89-1.44-1.93-1.44-3.13,0-.84.26-1.54.77-2.1.51-.56,1.19-.83,2.04-.83.31,0,.63.02.97.07.33.04.63.09.9.13.89.22,1.81.33,2.74.33,1.11,0,2.02-.4,2.71-1.2.69-.8,1.46-2.29,2.31-4.46l.8-2.06-10.9-24.16c-.67-1.46-1.29-2.44-1.87-2.93-.58-.49-1.67-.95-3.28-1.4v-2.13c.89.04,2.22.09,3.98.13,1.76.04,3.44.07,5.05.07,3.25,0,6.09-.07,8.49-.2v2.13l-2.81,1.06,1.94,4.53c1.87,4.39,3.32,8.19,4.35,11.38.94-2.84,2.3-6.52,4.08-11.05l1.87-4.86-2.54-1.06v-2.13c1.52.09,3.39.13,5.62.13.89,0,2.54-.04,4.95-.13v2.13c-1.52.31-2.57.72-3.18,1.23-.6.51-1.21,1.56-1.84,3.16l-10.97,27.63c-1.65,4.13-3.31,7-4.98,8.62-1.67,1.62-3.6,2.43-5.78,2.43-1.7,0-3.02-.44-3.98-1.33Z"/>
  <path class="cls-1" d="m75.37,54.19l3.21-1.26V17.77c0-1.07-.2-1.81-.6-2.23-.4-.42-1.29-.88-2.67-1.36v-2.13c3.43,0,6.16-.05,8.19-.17,2.03-.11,3.87-.3,5.52-.57v3.4c2.5-2.49,5.31-3.73,8.43-3.73,2.23,0,4.21.63,5.95,1.9,1.74,1.27,3.11,3.07,4.11,5.43,1,2.35,1.5,5.08,1.5,8.19s-.59,6.08-1.77,8.52c-1.18,2.44-2.83,4.33-4.95,5.66-2.12,1.33-4.54,2-7.26,2-1.12,0-2.23-.14-3.34-.43-1.12-.29-2.01-.65-2.68-1.1v9.45c0,.98.29,1.7.87,2.16.58.47,1.69.94,3.34,1.43v2.13c-4.15-.13-7.27-.2-9.36-.2-2.45,0-5.28.07-8.49.2v-2.13Zm21.37-18.81c1.05-1.97,1.57-4.83,1.57-8.55,0-3.33-.42-5.91-1.27-7.76-.85-1.84-2.05-2.76-3.61-2.76-.76,0-1.54.21-2.34.63-.8.42-1.49.96-2.07,1.63v18.84c1.03.62,2.12.93,3.28.93,1.92,0,3.4-.99,4.45-2.96Z"/>
  <path class="cls-1" d="m116.23,38.28c-2.54-2.93-3.81-6.77-3.81-11.52,0-3.15.61-5.91,1.84-8.29,1.23-2.37,2.96-4.21,5.22-5.52,2.25-1.31,4.87-1.96,7.86-1.96,4.15,0,7.34,1.19,9.6,3.56,2.25,2.37,3.4,5.78,3.44,10.22,0,1.07-.04,1.84-.13,2.33h-17.19c.09,3.02.7,5.42,1.84,7.19,1.14,1.78,2.89,2.66,5.25,2.66,3.03,0,5.44-1.44,7.22-4.33l2.68,1.66c-.98,2.57-2.64,4.62-4.98,6.12-2.34,1.51-5.03,2.26-8.06,2.26-4.64,0-8.23-1.46-10.77-4.39Zm15.38-14.78c0-2.93-.37-5.08-1.1-6.46-.74-1.38-1.75-2.06-3.04-2.06s-2.37.75-3.11,2.26c-.74,1.51-1.15,3.59-1.24,6.26h8.49Z"/>
  <path class="cls-1" d="m153.88,11.98v22.63c0,1.02.09,1.78.27,2.26.18.49.56.91,1.14,1.26.58.36,1.54.73,2.88,1.13v2.33l-2.34-.07c-1.87-.09-3.23-.13-4.08-.13s-3.14.07-6.89.2v-2.33l4.08-1.26V6.99c0-.98-.09-1.72-.27-2.23-.18-.51-.57-.94-1.17-1.3-.6-.36-1.57-.73-2.91-1.13V0h13.78l20.53,27.69V6.99c0-1.02-.09-1.78-.27-2.26-.18-.49-.56-.91-1.14-1.26-.58-.36-1.54-.73-2.88-1.13V0l2.34.07c1.87.09,3.23.13,4.08.13s3.14-.07,6.89-.2v2.33l-4.08,1.26v38.08h-7.96l-22-29.69Z"/>
  <path class="cls-1" d="m197.29,40.84c-2.36-1.22-4.2-3.02-5.52-5.39-1.32-2.37-1.97-5.25-1.97-8.62s.66-6.25,1.97-8.62c1.31-2.37,3.15-4.17,5.52-5.39,2.36-1.22,5.06-1.83,8.09-1.83s5.73.61,8.09,1.83c2.36,1.22,4.2,3.02,5.52,5.39,1.31,2.37,1.97,5.25,1.97,8.62s-.66,6.25-1.97,8.62c-1.32,2.38-3.15,4.17-5.52,5.39-2.36,1.22-5.06,1.83-8.09,1.83s-5.73-.61-8.09-1.83Zm11.87-4.93c.74-1.89,1.1-4.91,1.1-9.09s-.37-7.2-1.1-9.09c-.74-1.89-2-2.83-3.78-2.83s-3.04.94-3.78,2.83c-.74,1.89-1.1,4.92-1.1,9.09s.37,7.2,1.1,9.09c.74,1.89,1.99,2.83,3.78,2.83s3.04-.94,3.78-2.83Z"/>
  <path class="cls-1" d="m229.65,39.88c-.76-.93-1.3-2.01-1.64-3.23-.33-1.22-.5-2.72-.5-4.49V15.64h-4.41v-3.59h4.41v-6.12l10.43-2.33v8.45h7.62l-.74,3.59h-6.89v18.24c0,2.13.78,3.2,2.34,3.2,1.38,0,2.85-.8,4.41-2.4l2.21,2.2c-1.11,1.73-2.55,3.13-4.31,4.19-1.76,1.07-3.78,1.6-6.05,1.6-3.08,0-5.37-.93-6.89-2.8Z"/>
  <path class="cls-1" d="m252.72,38.28c-2.54-2.93-3.81-6.77-3.81-11.52,0-3.15.61-5.91,1.84-8.29,1.23-2.37,2.96-4.21,5.22-5.52,2.25-1.31,4.87-1.96,7.86-1.96,4.15,0,7.34,1.19,9.6,3.56,2.25,2.37,3.4,5.78,3.44,10.22,0,1.07-.04,1.84-.13,2.33h-17.19c.09,3.02.7,5.42,1.84,7.19,1.14,1.78,2.89,2.66,5.25,2.66,3.03,0,5.44-1.44,7.22-4.33l2.68,1.66c-.98,2.57-2.64,4.62-4.98,6.12-2.34,1.51-5.03,2.26-8.06,2.26-4.64,0-8.23-1.46-10.77-4.39Zm15.38-14.78c0-2.93-.37-5.08-1.1-6.46-.74-1.38-1.75-2.06-3.04-2.06s-2.37.75-3.11,2.26c-.74,1.51-1.15,3.59-1.24,6.26h8.49Z"/>
  <path class="cls-1" d="m282.68,40.87v-8.79h2.81c.4,2.09,1.16,3.77,2.27,5.06,1.11,1.29,2.56,1.93,4.35,1.93,1.2,0,2.2-.31,2.98-.93.78-.62,1.17-1.44,1.17-2.46,0-1.11-.45-2.01-1.34-2.7-.89-.69-2.3-1.43-4.21-2.23-1.83-.8-3.33-1.55-4.51-2.26-1.18-.71-2.2-1.71-3.04-3-.85-1.29-1.27-2.93-1.27-4.93,0-2.93,1.2-5.26,3.61-6.99,2.41-1.73,5.37-2.6,8.89-2.6,1.52,0,3.57.22,6.15.67.54.13,1.49.29,2.88.47,0,4.44.04,7.5.13,9.19h-2.88c-.58-4.48-2.43-6.72-5.55-6.72-1.16,0-2.13.29-2.91.87-.78.58-1.17,1.35-1.17,2.33,0,1.11.43,1.99,1.3,2.63.87.64,2.28,1.43,4.25,2.36,1.83.8,3.33,1.58,4.51,2.33,1.18.75,2.2,1.76,3.04,3.03.85,1.26,1.27,2.83,1.27,4.69,0,3.06-1.14,5.47-3.41,7.22-2.27,1.75-5.35,2.63-9.23,2.63s-7.16-.6-10.1-1.8Z"/>
</svg>