<svg width="1841" height="782" viewBox="0 0 1841 782" fill="none" xmlns="http://www.w3.org/2000/svg">
<path d="M190.065 37H173.105V10.32H178.785V32H190.065V37ZM211.769 37H206.689V34.56C205.369 36.04 203.049 37.48 199.889 37.48C195.649 37.48 193.649 35.16 193.649 31.4V17.68H198.729V29.4C198.729 32.08 200.129 32.96 202.289 32.96C204.249 32.96 205.809 31.88 206.689 30.76V17.68H211.769V37ZM234.453 37H228.773L224.373 30.48L219.933 37H214.293L221.133 27.08L214.693 17.68H220.373L224.373 23.64L228.333 17.68H234.013L227.533 27.08L234.453 37ZM255.089 37H250.009V34.56C248.689 36.04 246.369 37.48 243.209 37.48C238.969 37.48 236.969 35.16 236.969 31.4V17.68H242.049V29.4C242.049 32.08 243.449 32.96 245.609 32.96C247.569 32.96 249.129 31.88 250.009 30.76V17.68H255.089V37ZM265.213 37H260.133V17.68H265.213V20.32C266.573 18.6 268.973 17.2 271.373 17.2V22.16C271.013 22.08 270.533 22.04 269.973 22.04C268.293 22.04 266.053 23 265.213 24.24V37ZM273.867 44.56L274.627 40C275.067 40.2 275.747 40.32 276.227 40.32C277.547 40.32 278.427 39.96 278.907 38.92L279.627 37.28L271.787 17.68H277.227L282.267 31.12L287.307 17.68H292.787L283.707 40.16C282.267 43.8 279.707 44.76 276.387 44.84C275.787 44.84 274.507 44.72 273.867 44.56Z" fill="white"/>
<path d="M595.994 37H590.314V26.08L580.034 10.32H586.514L593.154 21.04L599.714 10.32H606.194L595.994 26.08V37ZM612.655 37.48C606.775 37.48 602.335 33.52 602.335 27.32C602.335 21.72 606.455 17.2 612.335 17.2C618.095 17.2 622.015 21.52 622.015 27.84V28.96H607.655C607.975 31.4 609.935 33.44 613.215 33.44C614.855 33.44 617.135 32.72 618.375 31.52L620.615 34.8C618.695 36.56 615.655 37.48 612.655 37.48ZM617.095 25.52C616.975 23.68 615.695 21.24 612.335 21.24C609.175 21.24 607.815 23.6 607.575 25.52H617.095ZM630.764 37H625.684V10.32H630.764V37ZM664.881 37H659.761V24.8C659.761 23 658.961 21.72 656.881 21.72C655.081 21.72 653.601 22.92 652.881 23.96V37H647.761V24.8C647.761 23 646.961 21.72 644.881 21.72C643.121 21.72 641.641 22.92 640.881 24V37H635.801V17.68H640.881V20.2C641.681 19.04 644.241 17.2 647.201 17.2C650.041 17.2 651.841 18.52 652.561 20.72C653.681 18.96 656.241 17.2 659.201 17.2C662.761 17.2 664.881 19.08 664.881 23.04V37ZM678.824 37.48C672.464 37.48 668.624 32.84 668.624 27.32C668.624 21.84 672.464 17.2 678.824 17.2C685.224 17.2 689.064 21.84 689.064 27.32C689.064 32.84 685.224 37.48 678.824 37.48ZM678.824 32.96C681.984 32.96 683.784 30.36 683.784 27.32C683.784 24.32 681.984 21.72 678.824 21.72C675.664 21.72 673.904 24.32 673.904 27.32C673.904 30.36 675.664 32.96 678.824 32.96ZM716.307 37.48C708.627 37.48 702.587 31.88 702.587 23.68C702.587 15.48 708.627 9.88 716.307 9.88C721.027 9.88 724.307 12.12 726.427 15.16L723.667 16.72C722.147 14.44 719.347 12.84 716.307 12.84C710.467 12.84 706.027 17.28 706.027 23.68C706.027 30 710.467 34.52 716.307 34.52C719.347 34.52 722.147 32.88 723.667 30.64L726.467 32.16C724.227 35.24 721.027 37.48 716.307 37.48ZM732.098 14.92C730.978 14.92 730.058 14.04 730.058 12.92C730.058 11.8 730.978 10.88 732.098 10.88C733.218 10.88 734.098 11.8 734.098 12.92C734.098 14.04 733.218 14.92 732.098 14.92ZM733.578 37H730.578V17.68H733.578V37ZM755.603 37H752.643V24.36C752.643 20.92 750.883 19.88 748.283 19.88C745.923 19.88 743.723 21.32 742.563 22.88V37H739.563V17.68H742.563V20.48C743.923 18.84 746.562 17.2 749.483 17.2C753.483 17.2 755.603 19.24 755.603 23.44V37ZM770.393 37.48C764.633 37.48 760.513 33.36 760.513 27.32C760.513 21.72 764.513 17.2 770.033 17.2C775.873 17.2 779.313 21.76 779.313 27.56V28.32H763.713C763.953 31.96 766.473 35 770.633 35C772.873 35 775.073 34.12 776.633 32.52L778.073 34.48C776.113 36.4 773.513 37.48 770.393 37.48ZM776.353 26.08C776.313 23.24 774.393 19.68 769.993 19.68C765.873 19.68 763.833 23.16 763.673 26.08H776.353ZM790.332 37.48C787.132 37.48 784.492 36.48 782.532 34.44L784.052 32.28C785.332 33.76 787.772 35.04 790.412 35.04C793.372 35.04 795.012 33.64 795.012 31.72C795.012 27.04 783.052 29.92 783.052 22.76C783.052 19.72 785.612 17.2 790.212 17.2C793.532 17.2 795.852 18.44 797.372 20L795.972 22.08C794.812 20.68 792.732 19.64 790.212 19.64C787.572 19.64 785.932 20.96 785.932 22.68C785.932 26.88 797.892 24.12 797.892 31.64C797.892 34.88 795.292 37.48 790.332 37.48Z" fill="white"/>
<rect width="460" height="782" fill="#161616"/>
<path fill-rule="evenodd" clip-rule="evenodd" d="M277.219 338.064C282.773 329.426 285.987 319.162 285.987 308.155V308H261.58C261.524 311.87 260.763 315.566 259.421 318.976C255.901 327.919 248.369 334.864 239.021 337.624C236.162 338.473 233.136 338.926 229.997 338.926C224.524 338.926 219.375 337.543 214.888 335.106C206.526 330.579 200.454 322.399 198.831 312.725C198.575 311.187 198.426 309.606 198.407 308H174V308.155C174 315.032 175.254 321.624 177.557 327.708C180.915 336.6 186.494 344.408 193.633 350.467C200.479 356.29 208.754 360.494 217.865 362.485C221.772 363.347 225.828 363.799 229.997 363.799C239.638 363.799 248.719 361.375 256.644 357.108C258.011 360.848 258.759 364.878 258.759 369.089C258.759 388.437 242.977 404.12 223.5 404.12C218.373 404.12 213.502 403.033 209.108 401.079L187.437 420.486C197.624 427.657 210.066 431.871 223.5 431.871C258.011 431.871 285.987 404.071 285.987 369.777C285.987 358.193 282.792 347.347 277.219 338.064Z" fill="white"/>
<path d="M203.783 466.455H193.051V449.678H196.645V463.311H203.783V466.455ZM217.516 466.455H214.302V464.92C213.466 465.851 211.998 466.756 209.999 466.756C207.316 466.756 206.05 465.298 206.05 462.933V454.306H209.265V461.676C209.265 463.361 210.151 463.914 211.518 463.914C212.758 463.914 213.745 463.235 214.302 462.531V454.306H217.516V466.455ZM231.87 466.455H228.276L225.492 462.355L222.682 466.455H219.113L223.442 460.217L219.366 454.306H222.961L225.492 458.054L227.997 454.306H231.592L227.491 460.217L231.87 466.455ZM244.928 466.455H241.713V464.92C240.878 465.851 239.41 466.756 237.411 466.756C234.728 466.756 233.462 465.298 233.462 462.933V454.306H236.677V461.676C236.677 463.361 237.562 463.914 238.929 463.914C240.169 463.914 241.156 463.235 241.713 462.531V454.306H244.928V466.455ZM251.334 466.455H248.119V454.306H251.334V455.966C252.194 454.885 253.713 454.005 255.232 454.005V457.123C255.004 457.073 254.7 457.048 254.346 457.048C253.283 457.048 251.865 457.651 251.334 458.431V466.455ZM256.81 471.208L257.291 468.341C257.569 468.467 258 468.542 258.303 468.542C259.139 468.542 259.695 468.316 259.999 467.662L260.455 466.631L255.494 454.306H258.936L262.125 462.757L265.314 454.306H268.782L263.036 468.441C262.125 470.73 260.505 471.334 258.404 471.384C258.025 471.384 257.215 471.309 256.81 471.208Z" fill="white"/>
<rect x="460" width="460" height="782" fill="#312783"/>
<path fill-rule="evenodd" clip-rule="evenodd" d="M737.123 338.155C742.629 329.532 745.815 319.287 745.815 308.298V308.144H721.62C721.565 312.006 720.81 315.696 719.48 319.101C715.991 328.028 708.524 334.961 699.257 337.716C696.423 338.564 693.423 339.016 690.311 339.016C684.885 339.016 679.782 337.635 675.334 335.202C667.044 330.683 661.025 322.518 659.416 312.861C659.163 311.325 659.014 309.747 658.996 308.144H634.801V308.298C634.801 315.164 636.044 321.744 638.327 327.817C641.655 336.694 647.186 344.488 654.263 350.536C661.05 356.349 669.253 360.546 678.285 362.534C682.157 363.394 686.179 363.846 690.311 363.846C699.869 363.846 708.87 361.426 716.727 357.166C718.082 360.899 718.824 364.923 718.824 369.127C718.824 388.441 703.179 404.097 683.871 404.097C678.789 404.097 673.96 403.012 669.604 401.06L648.121 420.435C658.22 427.593 670.554 431.8 683.871 431.8C718.082 431.8 745.815 404.048 745.815 369.814C745.815 358.25 742.648 347.423 737.123 338.155Z" fill="#FFDE00"/>
<path d="M631.035 466.276H627.472V459.435L621.023 449.563H625.088L629.253 456.278L633.368 449.563H637.433L631.035 459.435V466.276ZM641.485 466.576C637.797 466.576 635.012 464.096 635.012 460.212C635.012 456.704 637.596 453.873 641.285 453.873C644.898 453.873 647.357 456.579 647.357 460.538V461.239H638.349C638.55 462.768 639.779 464.046 641.837 464.046C642.865 464.046 644.295 463.595 645.073 462.843L646.478 464.898C645.274 466 643.367 466.576 641.485 466.576ZM644.27 459.084C644.195 457.932 643.392 456.403 641.285 456.403C639.302 456.403 638.449 457.882 638.299 459.084H644.27ZM652.845 466.276H649.658V449.563H652.845V466.276ZM674.246 466.276H671.034V458.633C671.034 457.506 670.532 456.704 669.227 456.704C668.098 456.704 667.17 457.456 666.718 458.107V466.276H663.507V458.633C663.507 457.506 663.005 456.704 661.7 456.704C660.596 456.704 659.668 457.456 659.191 458.132V466.276H656.005V454.173H659.191V455.752C659.693 455.025 661.299 453.873 663.155 453.873C664.937 453.873 666.066 454.7 666.518 456.078C667.22 454.975 668.826 453.873 670.683 453.873C672.916 453.873 674.246 455.05 674.246 457.531V466.276ZM682.991 466.576C679.002 466.576 676.593 463.67 676.593 460.212C676.593 456.779 679.002 453.873 682.991 453.873C687.006 453.873 689.415 456.779 689.415 460.212C689.415 463.67 687.006 466.576 682.991 466.576ZM682.991 463.745C684.974 463.745 686.103 462.116 686.103 460.212C686.103 458.333 684.974 456.704 682.991 456.704C681.009 456.704 679.905 458.333 679.905 460.212C679.905 462.116 681.009 463.745 682.991 463.745ZM706.504 466.576C701.686 466.576 697.897 463.068 697.897 457.932C697.897 452.795 701.686 449.287 706.504 449.287C709.464 449.287 711.522 450.691 712.852 452.595L711.12 453.572C710.167 452.144 708.41 451.142 706.504 451.142C702.84 451.142 700.055 453.923 700.055 457.932C700.055 461.891 702.84 464.722 706.504 464.722C708.41 464.722 710.167 463.695 711.12 462.292L712.877 463.244C711.472 465.173 709.464 466.576 706.504 466.576ZM716.409 452.444C715.706 452.444 715.129 451.893 715.129 451.192C715.129 450.49 715.706 449.914 716.409 449.914C717.111 449.914 717.663 450.49 717.663 451.192C717.663 451.893 717.111 452.444 716.409 452.444ZM717.337 466.276H715.455V454.173H717.337V466.276ZM731.153 466.276H729.296V458.358C729.296 456.203 728.192 455.552 726.561 455.552C725.081 455.552 723.701 456.454 722.973 457.431V466.276H721.091V454.173H722.973V455.927C723.826 454.9 725.482 453.873 727.314 453.873C729.823 453.873 731.153 455.151 731.153 457.782V466.276ZM740.43 466.576C736.817 466.576 734.233 463.996 734.233 460.212C734.233 456.704 736.742 453.873 740.204 453.873C743.868 453.873 746.025 456.729 746.025 460.362V460.838H736.24C736.391 463.119 737.971 465.023 740.581 465.023C741.986 465.023 743.366 464.472 744.344 463.469L745.248 464.697C744.018 465.9 742.387 466.576 740.43 466.576ZM744.169 459.435C744.144 457.656 742.939 455.426 740.179 455.426C737.595 455.426 736.315 457.606 736.215 459.435H744.169ZM752.937 466.576C750.93 466.576 749.274 465.95 748.045 464.672L748.998 463.319C749.801 464.246 751.332 465.048 752.988 465.048C754.844 465.048 755.873 464.171 755.873 462.968C755.873 460.037 748.371 461.841 748.371 457.356C748.371 455.451 749.977 453.873 752.862 453.873C754.945 453.873 756.4 454.649 757.353 455.627L756.475 456.93C755.748 456.053 754.443 455.401 752.862 455.401C751.206 455.401 750.177 456.228 750.177 457.305C750.177 459.936 757.68 458.208 757.68 462.918C757.68 464.948 756.049 466.576 752.937 466.576Z" fill="#FFDE00"/>
<rect x="920" width="460" height="782" fill="#FFDE00"/>
<g clip-path="url(#clip0_1028_671)">
<path d="M1118.74 468.472C1117.03 468.472 1115.4 468.02 1114.17 466.84L1115.76 464.103C1116.42 464.731 1117.29 465.309 1118.46 465.309C1120.07 465.309 1121.12 464.254 1121.12 462.622V451.424H1124.74V462.672C1124.74 466.639 1122.24 468.472 1118.74 468.472ZM1139.61 468.171H1136.37V466.639C1135.53 467.568 1134.05 468.472 1132.03 468.472C1129.32 468.472 1128.05 467.016 1128.05 464.656V456.044H1131.29V463.4C1131.29 465.083 1132.18 465.635 1133.56 465.635C1134.81 465.635 1135.81 464.957 1136.37 464.254V456.044H1139.61V468.171ZM1154.4 468.171H1151.16V460.839C1151.16 459.157 1150.27 458.58 1148.89 458.58C1147.61 458.58 1146.61 459.283 1146.08 460.011V468.171H1142.84V456.044H1146.08V457.626C1146.87 456.697 1148.38 455.743 1150.39 455.743C1153.1 455.743 1154.4 457.249 1154.4 459.609V468.171ZM1159.23 454.738C1158.19 454.738 1157.29 453.885 1157.29 452.83C1157.29 451.776 1158.19 450.947 1159.23 450.947C1160.3 450.947 1161.17 451.776 1161.17 452.83C1161.17 453.885 1160.3 454.738 1159.23 454.738ZM1160.87 468.171H1157.62V456.044H1160.87V468.171ZM1169.8 468.472C1165.74 468.472 1163.29 465.56 1163.29 462.095C1163.29 458.655 1165.74 455.743 1169.8 455.743C1173.89 455.743 1176.34 458.655 1176.34 462.095C1176.34 465.56 1173.89 468.472 1169.8 468.472ZM1169.8 465.635C1171.82 465.635 1172.97 464.003 1172.97 462.095C1172.97 460.212 1171.82 458.58 1169.8 458.58C1167.79 458.58 1166.66 460.212 1166.66 462.095C1166.66 464.003 1167.79 465.635 1169.8 465.635ZM1181.99 468.171H1178.75V456.044H1181.99V457.701C1182.86 456.621 1184.39 455.743 1185.92 455.743V458.856C1185.69 458.806 1185.39 458.781 1185.03 458.781C1183.96 458.781 1182.53 459.383 1181.99 460.162V468.171Z" fill="#312783"/>
<path d="M1106.94 296.164C1113.73 296.164 1119.23 290.755 1119.23 284.082C1119.23 277.409 1113.73 272 1106.94 272C1100.15 272 1094.65 277.409 1094.65 284.082C1094.65 290.755 1100.15 296.164 1106.94 296.164Z" fill="#312783"/>
<path d="M1194.71 296.164C1201.5 296.164 1207 290.755 1207 284.082C1207 277.409 1201.5 272 1194.71 272C1187.92 272 1182.42 277.409 1182.42 284.082C1182.42 290.755 1187.92 296.164 1194.71 296.164Z" fill="#312783"/>
<path fill-rule="evenodd" clip-rule="evenodd" d="M1198.14 341.261C1203.74 332.637 1206.99 322.392 1206.99 311.404V311.249H1182.36C1182.31 315.112 1181.54 318.802 1180.18 322.206C1176.63 331.133 1169.03 338.067 1159.6 340.822C1156.72 341.67 1153.66 342.121 1150.5 342.121C1144.97 342.121 1139.78 340.741 1135.25 338.308C1126.82 333.789 1120.69 325.624 1119.05 315.966C1118.79 314.431 1118.64 312.853 1118.62 311.249H1094V311.404C1094 318.269 1095.27 324.85 1097.59 330.923C1100.98 339.8 1106.61 347.594 1113.81 353.642C1120.72 359.455 1129.06 363.652 1138.26 365.639C1142.2 366.5 1146.29 366.952 1150.5 366.952C1160.22 366.952 1169.39 364.531 1177.38 360.272C1178.76 364.005 1179.52 368.029 1179.52 372.232C1179.52 391.547 1163.59 407.202 1143.94 407.202C1138.77 407.202 1133.86 406.117 1129.42 404.166L1107.56 423.539C1117.83 430.698 1130.39 434.904 1143.94 434.904C1178.76 434.904 1206.99 407.152 1206.99 372.919C1206.99 361.355 1203.76 350.528 1198.14 341.261Z" fill="#312783"/>
</g>
<rect x="1380" width="460" height="782" fill="white"/>
<path d="M1550.85 458.632H1546.02V463.99H1544.59V458.632H1539.76V457.325H1544.59V452.118H1546.02V457.325H1550.85V458.632ZM1567.68 466.756C1562.73 466.756 1559.36 463.034 1559.36 458.079C1559.36 453.124 1562.73 449.402 1567.68 449.402C1572.63 449.402 1576.02 453.124 1576.02 458.079C1576.02 460.569 1575.17 462.732 1573.71 464.292L1575.29 465.977L1573.86 467.234L1572.23 465.499C1570.97 466.304 1569.41 466.756 1567.68 466.756ZM1567.68 464.895C1568.89 464.895 1569.97 464.593 1570.87 464.04L1568.48 461.449L1569.94 460.217L1572.3 462.782C1573.28 461.575 1573.86 459.94 1573.86 458.079C1573.86 454.155 1571.42 451.263 1567.68 451.263C1563.91 451.263 1561.52 454.155 1561.52 458.079C1561.52 461.978 1563.91 464.895 1567.68 464.895ZM1589.26 466.455H1587.37V464.744C1586.44 465.801 1584.86 466.756 1583.05 466.756C1580.51 466.756 1579.18 465.499 1579.18 462.883V454.306H1581.07V462.305C1581.07 464.442 1582.15 465.071 1583.81 465.071C1585.26 465.071 1586.67 464.216 1587.37 463.235V454.306H1589.26V466.455ZM1598.53 466.756C1594.91 466.756 1592.32 464.166 1592.32 460.368C1592.32 456.847 1594.83 454.005 1598.3 454.005C1601.97 454.005 1604.13 456.872 1604.13 460.519V460.997H1594.33C1594.48 463.285 1596.07 465.197 1598.68 465.197C1600.09 465.197 1601.47 464.644 1602.45 463.638L1603.35 464.87C1602.12 466.077 1600.49 466.756 1598.53 466.756ZM1602.27 459.588C1602.25 457.802 1601.04 455.564 1598.28 455.564C1595.69 455.564 1594.41 457.752 1594.31 459.588H1602.27ZM1621.71 466.455H1618.14V459.588L1611.68 449.679H1615.75L1619.92 456.419L1624.04 449.679H1628.12L1621.71 459.588V466.455ZM1632.17 466.756C1628.48 466.756 1625.69 464.266 1625.69 460.368C1625.69 456.847 1628.28 454.005 1631.97 454.005C1635.59 454.005 1638.06 456.721 1638.06 460.695V461.399H1629.03C1629.23 462.933 1630.47 464.216 1632.53 464.216C1633.56 464.216 1634.99 463.763 1635.77 463.009L1637.18 465.071C1635.97 466.178 1634.06 466.756 1632.17 466.756ZM1634.96 459.236C1634.89 458.079 1634.09 456.545 1631.97 456.545C1629.99 456.545 1629.13 458.029 1628.98 459.236H1634.96ZM1643.55 466.455H1640.36V449.679H1643.55V466.455ZM1664.99 466.455H1661.77V458.783C1661.77 457.652 1661.27 456.847 1659.96 456.847C1658.83 456.847 1657.9 457.601 1657.45 458.255V466.455H1654.23V458.783C1654.23 457.652 1653.73 456.847 1652.42 456.847C1651.32 456.847 1650.39 457.601 1649.91 458.28V466.455H1646.72V454.306H1649.91V455.891C1650.41 455.162 1652.02 454.005 1653.88 454.005C1655.67 454.005 1656.8 454.835 1657.25 456.218C1657.95 455.111 1659.56 454.005 1661.42 454.005C1663.66 454.005 1664.99 455.187 1664.99 457.677V466.455ZM1673.75 466.756C1669.75 466.756 1667.34 463.839 1667.34 460.368C1667.34 456.922 1669.75 454.005 1673.75 454.005C1677.77 454.005 1680.18 456.922 1680.18 460.368C1680.18 463.839 1677.77 466.756 1673.75 466.756ZM1673.75 463.914C1675.74 463.914 1676.87 462.279 1676.87 460.368C1676.87 458.482 1675.74 456.847 1673.75 456.847C1671.76 456.847 1670.66 458.482 1670.66 460.368C1670.66 462.279 1671.76 463.914 1673.75 463.914Z" fill="#312783"/>
<path fill-rule="evenodd" clip-rule="evenodd" d="M1660.23 338.064C1665.75 329.426 1668.94 319.162 1668.94 308.155V308H1644.7C1644.65 311.87 1643.89 315.566 1642.56 318.976C1639.06 327.919 1631.58 334.864 1622.3 337.624C1619.46 338.473 1616.46 338.926 1613.34 338.926C1607.91 338.926 1602.79 337.543 1598.34 335.106C1590.04 330.579 1584.01 322.399 1582.39 312.725C1582.14 311.187 1581.99 309.606 1581.97 308H1557.74V308.155C1557.74 315.032 1558.98 321.624 1561.27 327.708C1564.6 336.6 1570.14 344.408 1577.23 350.467C1584.03 356.29 1592.25 360.494 1601.29 362.485C1605.17 363.347 1609.2 363.799 1613.34 363.799C1622.91 363.799 1631.93 361.375 1639.8 357.108C1641.16 360.848 1641.9 364.878 1641.9 369.089C1641.9 388.437 1626.23 404.12 1606.89 404.12C1601.8 404.12 1596.96 403.033 1592.6 401.079L1571.08 420.486C1581.2 427.657 1593.55 431.871 1606.89 431.871C1641.16 431.871 1668.94 404.071 1668.94 369.777C1668.94 358.193 1665.76 347.347 1660.23 338.064Z" fill="#FFDE00"/>
<path fill-rule="evenodd" clip-rule="evenodd" d="M1564.81 363.333H1572.87V376.596H1586.12V384.662H1572.87V397.917H1564.81V384.662H1551.57V376.596H1564.81V363.333Z" fill="#312783"/>
<defs>
<clipPath id="clip0_1028_671">
<rect width="113" height="204" fill="white" transform="translate(1094 272)"/>
</clipPath>
</defs>
</svg>
