<svg width="177" height="271" viewBox="0 0 177 271" fill="none" xmlns="http://www.w3.org/2000/svg">
<path fill-rule="evenodd" clip-rule="evenodd" d="M163.123 48.3419C171.9 34.6036 176.979 18.2815 176.979 0.775855V0.529297H138.408C138.319 6.68339 137.116 12.5613 134.996 17.9856C129.433 32.2071 117.529 43.2529 102.756 47.6416C98.2387 48.9928 93.4554 49.7127 88.4947 49.7127C79.8454 49.7127 71.709 47.5134 64.618 43.6375C51.4025 36.438 41.8064 23.4296 39.2422 8.04439C38.8378 5.59853 38.6011 3.08364 38.5716 0.529297H0V0.775855C0 11.7132 1.98232 22.1968 5.62152 31.8718C10.9275 46.0144 19.7444 58.431 31.0269 68.0665C41.8458 77.3272 54.9233 84.0139 69.3223 87.1797C75.4961 88.5506 81.9066 89.2705 88.4947 89.2705C103.732 89.2705 118.082 85.4144 130.607 78.6291C132.767 84.5761 133.95 90.9866 133.95 97.6831C133.95 128.454 109.008 153.395 78.228 153.395C70.1255 153.395 62.428 151.667 55.4836 148.558L21.2352 179.424C37.3346 190.827 56.998 197.529 78.228 197.529C132.767 197.529 176.979 153.316 176.979 98.7778C176.979 80.355 171.93 63.1058 163.123 48.3419Z" fill="white"/>
<path d="M47.0648 262.529H30.1048V235.849H35.7848V257.529H47.0648V262.529ZM68.7689 262.529H63.6889V260.089C62.3689 261.569 60.0489 263.009 56.8889 263.009C52.6489 263.009 50.6489 260.689 50.6489 256.929V243.209H55.7289V254.929C55.7289 257.609 57.1289 258.489 59.2889 258.489C61.2489 258.489 62.8089 257.409 63.6889 256.289V243.209H68.7689V262.529ZM91.453 262.529H85.773L81.373 256.009L76.933 262.529H71.293L78.133 252.609L71.693 243.209H77.373L81.373 249.169L85.333 243.209H91.013L84.533 252.609L91.453 262.529ZM112.089 262.529H107.009V260.089C105.689 261.569 103.369 263.009 100.209 263.009C95.9692 263.009 93.9692 260.689 93.9692 256.929V243.209H99.0492V254.929C99.0492 257.609 100.449 258.489 102.609 258.489C104.569 258.489 106.129 257.409 107.009 256.289V243.209H112.089V262.529ZM122.213 262.529H117.133V243.209H122.213V245.849C123.573 244.129 125.973 242.729 128.373 242.729V247.689C128.013 247.609 127.533 247.569 126.973 247.569C125.293 247.569 123.053 248.529 122.213 249.769V262.529ZM130.867 270.089L131.627 265.529C132.067 265.729 132.747 265.849 133.227 265.849C134.547 265.849 135.427 265.489 135.907 264.449L136.627 262.809L128.787 243.209H134.227L139.267 256.649L144.307 243.209H149.787L140.707 265.689C139.267 269.329 136.707 270.289 133.387 270.369C132.787 270.369 131.507 270.249 130.867 270.089Z" fill="white"/>
</svg>
