<svg width="177" height="265" viewBox="0 0 177 265" fill="none" xmlns="http://www.w3.org/2000/svg">
<path fill-rule="evenodd" clip-rule="evenodd" d="M163.123 48.3419C171.9 34.6036 176.979 18.2815 176.979 0.775855V0.529297H138.408C138.319 6.68339 137.116 12.5613 134.996 17.9856C129.433 32.2071 117.529 43.2529 102.756 47.6416C98.2386 48.9928 93.4554 49.7127 88.4947 49.7127C79.8454 49.7127 71.709 47.5134 64.618 43.6375C51.4025 36.438 41.8064 23.4296 39.2422 8.04439C38.8378 5.59853 38.6012 3.08364 38.5716 0.529297H0V0.775855C0 11.7132 1.98232 22.1968 5.62152 31.8718C10.9275 46.0144 19.7444 58.431 31.0269 68.0665C41.8458 77.3272 54.9233 84.0139 69.3223 87.1797C75.4961 88.5506 81.9066 89.2705 88.4947 89.2705C103.732 89.2705 118.082 85.4144 130.607 78.6291C132.767 84.5761 133.95 90.9866 133.95 97.6831C133.95 128.454 109.008 153.395 78.228 153.395C70.1254 153.395 62.4278 151.667 55.4833 148.558L21.235 179.423C37.3344 190.827 56.9979 197.529 78.228 197.529C132.767 197.529 176.979 153.316 176.979 98.7778C176.979 80.355 171.93 63.1058 163.123 48.3419Z" fill="white"/>
<path d="M47.0648 252.529H30.1048V225.849H35.7848V247.529H47.0648V252.529ZM68.7689 252.529H63.6889V250.089C62.3689 251.569 60.0489 253.009 56.8889 253.009C52.6489 253.009 50.6489 250.689 50.6489 246.929V233.209H55.7289V244.929C55.7289 247.609 57.1289 248.489 59.2889 248.489C61.2489 248.489 62.8089 247.409 63.6889 246.289V233.209H68.7689V252.529ZM91.453 252.529H85.773L81.373 246.009L76.933 252.529H71.293L78.133 242.609L71.693 233.209H77.373L81.373 239.169L85.333 233.209H91.013L84.533 242.609L91.453 252.529ZM112.089 252.529H107.009V250.089C105.689 251.569 103.369 253.009 100.209 253.009C95.9692 253.009 93.9692 250.689 93.9692 246.929V233.209H99.0492V244.929C99.0492 247.609 100.449 248.489 102.609 248.489C104.569 248.489 106.129 247.409 107.009 246.289V233.209H112.089V252.529ZM122.213 252.529H117.133V233.209H122.213V235.849C123.573 234.129 125.973 232.729 128.373 232.729V237.689C128.013 237.609 127.533 237.569 126.973 237.569C125.293 237.569 123.053 238.529 122.213 239.769V252.529ZM130.867 260.089L131.627 255.529C132.067 255.729 132.747 255.849 133.227 255.849C134.547 255.849 135.427 255.489 135.907 254.449L136.627 252.809L128.787 233.209H134.227L139.267 246.649L144.307 233.209H149.787L140.707 255.689C139.267 259.329 136.707 260.289 133.387 260.369C132.787 260.369 131.507 260.249 130.867 260.089Z" fill="white"/>
</svg>
