<svg width="220" height="263" viewBox="0 0 220 263" fill="none" xmlns="http://www.w3.org/2000/svg">
<path fill-rule="evenodd" clip-rule="evenodd" d="M185.123 48.3419C193.9 34.6036 198.979 18.2815 198.979 0.775855V0.529297H160.408C160.319 6.68339 159.116 12.5613 156.996 17.9856C151.433 32.2071 139.529 43.2529 124.756 47.6416C120.239 48.9928 115.455 49.7127 110.495 49.7127C101.845 49.7127 93.709 47.5134 86.618 43.6375C73.4025 36.438 63.8064 23.4296 61.2422 8.04439C60.8378 5.59853 60.6011 3.08364 60.5716 0.529297H22V0.775855C22 11.7132 23.9823 22.1968 27.6215 31.8718C32.9275 46.0144 41.7444 58.431 53.0269 68.0665C63.8458 77.3272 76.9233 84.0139 91.3223 87.1797C97.4961 88.5506 103.907 89.2705 110.495 89.2705C125.732 89.2705 140.082 85.4144 152.607 78.6291C154.767 84.5761 155.95 90.9866 155.95 97.6831C155.95 128.454 131.008 153.395 100.228 153.395C92.1255 153.395 84.428 151.667 77.4836 148.558L43.2352 179.424C59.3346 190.827 78.998 197.529 100.228 197.529C154.767 197.529 198.979 153.316 198.979 98.7778C198.979 80.355 193.93 63.1058 185.123 48.3419Z" fill="#FFDE00"/>
<path d="M15.9944 262.529H10.3144V251.609L0.034375 235.849H6.51438L13.1544 246.569L19.7144 235.849H26.1944L15.9944 251.609V262.529ZM32.6547 263.009C26.7747 263.009 22.3347 259.049 22.3347 252.849C22.3347 247.249 26.4547 242.729 32.3347 242.729C38.0947 242.729 42.0147 247.049 42.0147 253.369V254.489H27.6547C27.9747 256.929 29.9347 258.969 33.2147 258.969C34.8547 258.969 37.1347 258.249 38.3747 257.049L40.6147 260.329C38.6947 262.089 35.6547 263.009 32.6547 263.009ZM37.0947 251.049C36.9747 249.209 35.6947 246.769 32.3347 246.769C29.1747 246.769 27.8147 249.129 27.5747 251.049H37.0947ZM50.7641 262.529H45.6841V235.849H50.7641V262.529ZM84.8813 262.529H79.7613V250.329C79.7613 248.529 78.9613 247.249 76.8813 247.249C75.0813 247.249 73.6013 248.449 72.8813 249.489V262.529H67.7613V250.329C67.7613 248.529 66.9613 247.249 64.8813 247.249C63.1213 247.249 61.6413 248.449 60.8813 249.529V262.529H55.8013V243.209H60.8813V245.729C61.6813 244.569 64.2413 242.729 67.2013 242.729C70.0413 242.729 71.8413 244.049 72.5613 246.249C73.6813 244.489 76.2413 242.729 79.2013 242.729C82.7613 242.729 84.8813 244.609 84.8813 248.569V262.529ZM98.8238 263.009C92.4638 263.009 88.6238 258.369 88.6238 252.849C88.6238 247.369 92.4638 242.729 98.8238 242.729C105.224 242.729 109.064 247.369 109.064 252.849C109.064 258.369 105.224 263.009 98.8238 263.009ZM98.8238 258.489C101.984 258.489 103.784 255.889 103.784 252.849C103.784 249.849 101.984 247.249 98.8238 247.249C95.6638 247.249 93.9038 249.849 93.9038 252.849C93.9038 255.889 95.6638 258.489 98.8238 258.489ZM136.307 263.009C128.627 263.009 122.587 257.409 122.587 249.209C122.587 241.009 128.627 235.409 136.307 235.409C141.027 235.409 144.307 237.649 146.427 240.689L143.667 242.249C142.147 239.969 139.347 238.369 136.307 238.369C130.467 238.369 126.027 242.809 126.027 249.209C126.027 255.529 130.467 260.049 136.307 260.049C139.347 260.049 142.147 258.409 143.667 256.169L146.467 257.689C144.227 260.769 141.027 263.009 136.307 263.009ZM152.098 240.449C150.978 240.449 150.058 239.569 150.058 238.449C150.058 237.329 150.978 236.409 152.098 236.409C153.218 236.409 154.098 237.329 154.098 238.449C154.098 239.569 153.218 240.449 152.098 240.449ZM153.578 262.529H150.578V243.209H153.578V262.529ZM175.603 262.529H172.643V249.889C172.643 246.449 170.883 245.409 168.283 245.409C165.923 245.409 163.723 246.849 162.563 248.409V262.529H159.563V243.209H162.563V246.009C163.923 244.369 166.562 242.729 169.483 242.729C173.483 242.729 175.603 244.769 175.603 248.969V262.529ZM190.393 263.009C184.633 263.009 180.513 258.889 180.513 252.849C180.513 247.249 184.513 242.729 190.033 242.729C195.873 242.729 199.313 247.289 199.313 253.089V253.849H183.713C183.953 257.489 186.473 260.529 190.633 260.529C192.873 260.529 195.073 259.649 196.633 258.049L198.073 260.009C196.113 261.929 193.513 263.009 190.393 263.009ZM196.353 251.609C196.313 248.769 194.393 245.209 189.993 245.209C185.873 245.209 183.833 248.689 183.673 251.609H196.353ZM210.332 263.009C207.132 263.009 204.492 262.009 202.532 259.969L204.052 257.809C205.332 259.289 207.772 260.569 210.412 260.569C213.372 260.569 215.012 259.169 215.012 257.249C215.012 252.569 203.052 255.449 203.052 248.289C203.052 245.249 205.612 242.729 210.212 242.729C213.532 242.729 215.852 243.969 217.372 245.529L215.972 247.609C214.812 246.209 212.732 245.169 210.212 245.169C207.572 245.169 205.932 246.489 205.932 248.209C205.932 252.409 217.892 249.649 217.892 257.169C217.892 260.409 215.292 263.009 210.332 263.009Z" fill="#FFDE00"/>
</svg>
