<svg width="177" height="327" viewBox="0 0 177 327" fill="none" xmlns="http://www.w3.org/2000/svg">
<path d="M38.7594 326.009C36.0794 326.009 33.5194 325.289 31.5994 323.409L34.0794 319.049C35.1194 320.049 36.4794 320.969 38.3194 320.969C40.8394 320.969 42.4794 319.289 42.4794 316.689V298.849H48.1594V316.769C48.1594 323.089 44.2394 326.009 38.7594 326.009ZM71.4525 325.529H66.3725V323.089C65.0525 324.569 62.7325 326.009 59.5725 326.009C55.3325 326.009 53.3325 323.689 53.3325 319.929V306.209H58.4125V317.929C58.4125 320.609 59.8125 321.489 61.9725 321.489C63.9325 321.489 65.4925 320.409 66.3725 319.289V306.209H71.4525V325.529ZM94.6166 325.529H89.5366V313.849C89.5366 311.169 88.1366 310.249 85.9766 310.249C83.9766 310.249 82.4166 311.369 81.5766 312.529V325.529H76.4966V306.209H81.5766V308.729C82.8166 307.249 85.1766 305.729 88.3366 305.729C92.5766 305.729 94.6166 308.129 94.6166 311.889V325.529ZM102.181 304.129C100.541 304.129 99.1406 302.769 99.1406 301.089C99.1406 299.409 100.541 298.089 102.181 298.089C103.861 298.089 105.221 299.409 105.221 301.089C105.221 302.769 103.861 304.129 102.181 304.129ZM104.741 325.529H99.6606V306.209H104.741V325.529ZM118.738 326.009C112.378 326.009 108.538 321.369 108.538 315.849C108.538 310.369 112.378 305.729 118.738 305.729C125.138 305.729 128.978 310.369 128.978 315.849C128.978 321.369 125.138 326.009 118.738 326.009ZM118.738 321.489C121.898 321.489 123.698 318.889 123.698 315.849C123.698 312.849 121.898 310.249 118.738 310.249C115.578 310.249 113.818 312.849 113.818 315.849C113.818 318.889 115.578 321.489 118.738 321.489ZM137.827 325.529H132.747V306.209H137.827V308.849C139.187 307.129 141.587 305.729 143.987 305.729V310.689C143.627 310.609 143.147 310.569 142.587 310.569C140.907 310.569 138.667 311.529 137.827 312.769V325.529Z" fill="#312783"/>
<path d="M20.2681 38.4972C30.8989 38.4972 39.5168 29.8793 39.5168 19.2486C39.5168 8.6179 30.8989 0 20.2681 0C9.63743 0 1.01953 8.6179 1.01953 19.2486C1.01953 29.8793 9.63743 38.4972 20.2681 38.4972Z" fill="#312783"/>
<path d="M157.751 38.4972C168.381 38.4972 176.999 29.8793 176.999 19.2486C176.999 8.6179 168.381 0 157.751 0C147.12 0 138.502 8.6179 138.502 19.2486C138.502 29.8793 147.12 38.4972 157.751 38.4972Z" fill="#312783"/>
<path fill-rule="evenodd" clip-rule="evenodd" d="M163.123 110.342C171.9 96.6036 176.979 80.2815 176.979 62.7759V62.5293H138.408C138.319 68.6834 137.116 74.5613 134.996 79.9856C129.433 94.2071 117.529 105.253 102.756 109.642C98.2387 110.993 93.4554 111.713 88.4947 111.713C79.8454 111.713 71.709 109.513 64.618 105.638C51.4025 98.438 41.8064 85.4296 39.2422 70.0444C38.8378 67.5985 38.6011 65.0836 38.5716 62.5293H0V62.7759C0 73.7132 1.98232 84.1968 5.62152 93.8718C10.9275 108.014 19.7444 120.431 31.0269 130.067C41.8458 139.327 54.9233 146.014 69.3223 149.18C75.4961 150.551 81.9066 151.271 88.4947 151.271C103.732 151.271 118.082 147.414 130.607 140.629C132.767 146.576 133.95 152.987 133.95 159.683C133.95 190.454 109.008 215.395 78.228 215.395C70.1255 215.395 62.428 213.667 55.4836 210.558L21.2352 241.424C37.3346 252.827 56.998 259.529 78.228 259.529C132.767 259.529 176.979 215.316 176.979 160.778C176.979 142.355 171.93 125.106 163.123 110.342Z" fill="#312783"/>
</svg>
