<?xml version="1.0" encoding="UTF-8"?>
<svg id="Capa_1" data-name="Capa 1" xmlns="http://www.w3.org/2000/svg" viewBox="0 0 309.36 67.62">
  <defs>
    <style>
      .cls-1 {
        fill: #fff;
      }
    </style>
  </defs>
  <g>
    <path class="cls-1" d="m.94,46.27c1.07-.2,2.21-.47,3.41-.8,1.14-.27,1.47-.6,1.67-1.33,1.34-6.19,2.68-12.45,3.95-18.77l3.14-15.51c.2-.87.27-1.6.27-2.06,0-.8-.27-1.13-1.27-1.4-1-.27-2.21-.53-3.75-.8.07-.87.2-1.6.54-2.26l.27-.13c2.88.2,5.48.33,7.76.33,2.88,0,5.35-.13,7.36-.33,0,.87-.13,1.6-.4,2.26l-.27.13-3.48.73c-1,.27-1.41.67-1.61,1.66-.87,3.66-2.01,8.92-3.34,15.78l-.4,2-3.14,15.64c-.27,1.6-.4,2.6-.4,2.93,0,.6.27,1,.74,1.13.54.13,1.74.2,3.61.2h8.03c3.81,0,5.88-1.4,7.76-4.39,1-1.66,2.07-3.66,3.21-5.92l.4-.27c.74.2,1.61.87,2.14,1.4-.74,2.6-2.07,6.59-3.95,12.05l-.4.2c-2.14-.13-5.15-.2-9.1-.2h-15.58c-2.81,0-5.48.07-8.09.27.07-1,.33-1.73.67-2.33l.27-.2Z"/>
    <path class="cls-1" d="m43.6,41.54l4.01-13.65c.94-3.06,1.41-4.73,1.41-4.93,0-.33-.13-.47-.4-.47-1.14,0-4.01,2-6.96,5.13-.2-.6-.27-1.46-.2-2.53l.07-.4c3.75-4,7.62-6.53,10.37-6.53,1.34,0,2.27.93,2.27,2.2,0,.73-.2,1.73-.6,3.13l-.74,2.4-5.08,16.31c-.47,1.33-.67,2.13-.67,2.46,0,.4.2.6.53.6,1.14,0,4.28-2.2,7.22-5.66l.33.13c-.2,1.27-.54,2.46-.94,3.6-2.94,3.53-6.82,6.06-9.3,6.06-1.61,0-2.81-1-2.81-2.26,0-.6.47-2.46,1.47-5.59ZM54.5,3.26c1.41,0,2.47,1,2.47,2.6,0,1.93-1.6,3.86-3.41,3.86-1.41,0-2.47-.93-2.47-2.73s1.54-3.73,3.41-3.73Z"/>
    <path class="cls-1" d="m65.14,52.26c.8,0,1.34,0,1.54.07v-.13c-4.48-1.66-6.75-3.53-6.75-5.72,0-1.86,2.01-3.99,6.09-5.59v-.33c-3.28-1.26-5.42-3.73-5.42-7.52-.13-7.32,6.35-15.05,13.91-14.85,1.67,0,3.28.53,4.88,1.6.33.2.74.33,1.34.33,1.61,0,4.01-.4,7.22-1.2l.27.13c-.2,1.07-.67,2.2-1.34,3.33-1.54,0-3.61-.07-6.22-.27v.2c.54.8,1,2.53,1,4.19,0,6.19-4.55,12.85-11.5,14.05-3.41,1-5.55,3.13-5.55,4.73s1.34,2.86,4.01,3.93l4.35,1.67c5.62,2.13,8.09,4.19,8.09,7.12,0,4.79-6.49,9.25-15.38,9.25s-14.51-3.4-14.51-7.66,6.15-7.32,13.98-7.32Zm7.36,2.2l-1.94-.67c-.33-.07-.74-.07-1.2-.07-7.83,0-12.77,1.93-12.77,5.46s3.68,5.73,10.3,5.73c5.48,0,10.23-2.46,10.23-5.59,0-1.67-1.34-3.59-4.61-4.86Zm1.4-34.22c-5.15-.27-8.56,8.72-8.43,13.98,0,2.46.94,4.39,3.08,4.39,4.08.27,8.49-8.39,8.43-14.11,0-2.73-.87-4.26-3.08-4.26Z"/>
    <path class="cls-1" d="m104.66,41.48l4.01-12.32c1.14-3.33,1.67-5.46,1.67-6.39,0-1-.27-1.53-1.27-1.53-3.48-.4-12.44,12.45-17.46,23.43-.47.93-1,2.33-1.61,4.13l-.47.27c-.2.07-.4.07-.74.07-1.07,0-1.87-.4-2.14-1.13.6-1.93,1.27-4.46,2.01-7.52-.13.47.27-1.06,1.14-4.59,3.28-12.71,5.55-21.97,6.96-27.69.47-2.2.74-3.46.74-3.79s-.27-.6-.87-.67c-1.74-.27-2.94-.4-3.54-.47.2-.87.4-1.46.67-1.86l.13-.13,8.23-1.26,1,.6-3.68,15.04c-1.14,4.53-2.94,10.92-5.48,19.17h.4c3.54-5.93,6.55-10.19,9.03-12.78,2.47-2.6,5.02-3.86,7.49-3.86s3.88,1.4,3.88,3.86c0,1.53-.54,4-1.61,7.26l-4.21,12.85c-.47,1.2-.67,2-.67,2.46,0,.4.2.6.54.6.67,0,1.81-.6,3.34-1.8,1.6-1.2,3.01-2.53,4.28-3.99l.4.13c-.27,1.33-.6,2.53-1,3.59-1.27,1.53-2.88,3-4.81,4.33-1.94,1.27-3.68,1.93-5.28,1.93s-2.54-1.07-2.54-2.2c0-.6.47-2.53,1.47-5.73Z"/>
    <path class="cls-1" d="m122.92,39.41l2.81-10.79,1.07-4.06c.47-1.66.67-2.6.67-2.86,0-.33-.2-.53-.54-.53-2.07,0-3.95.07-5.75.2,0-.73.13-1.4.4-1.93l.2-.2c3.01-.4,4.82-.67,5.48-.8.67-.07,1.07-.4,1.27-.87l1.07-2.33,1.74-3.73.27-.2c.47-.07,1.61-.13,3.41-.13l-2.41,7.52c1-.2,2.14-.27,3.41-.27h5.42c-.27,1.13-.6,2-1.07,2.6l-.33.2-7.83-.13-4.75,18.64-.33,1.46c-.47,1.8-.67,2.86-.67,3.33,0,.6.27.87.87.87.74,0,1.87-.67,3.48-1.93,1.67-1.33,3.21-2.93,4.75-4.73l.4.13.07,1.07c0,.53-.07,1.13-.13,1.86-1.67,2.13-3.48,3.93-5.55,5.39s-3.88,2.2-5.42,2.2c-2.07,0-3.41-1.26-3.41-3.2,0-1,.47-3.26,1.4-6.79Z"/>
    <path class="cls-1" d="m153.48,18.91v22.63c0,1.02.09,1.78.27,2.26.18.49.56.91,1.14,1.26.58.36,1.54.73,2.88,1.13v2.33l-2.34-.07c-1.87-.09-3.23-.13-4.08-.13s-3.14.07-6.89.2v-2.33l4.08-1.26V13.92c0-.98-.09-1.72-.27-2.23-.18-.51-.57-.94-1.17-1.3-.6-.35-1.57-.73-2.91-1.13v-2.33h13.78l20.53,27.69V13.92c0-1.02-.09-1.78-.27-2.26-.18-.49-.56-.91-1.14-1.26-.58-.35-1.54-.73-2.88-1.13v-2.33l2.34.07c1.87.09,3.23.13,4.08.13s3.14-.07,6.89-.2v2.33l-4.08,1.26v38.08h-7.96l-22-29.69Z"/>
    <path class="cls-1" d="m196.88,47.77c-2.36-1.22-4.2-3.02-5.52-5.39-1.32-2.37-1.97-5.25-1.97-8.62s.66-6.25,1.97-8.62c1.31-2.37,3.15-4.17,5.52-5.39,2.36-1.22,5.06-1.83,8.09-1.83s5.73.61,8.09,1.83c2.36,1.22,4.2,3.02,5.52,5.39,1.31,2.38,1.97,5.25,1.97,8.62s-.66,6.25-1.97,8.62c-1.32,2.37-3.15,4.17-5.52,5.39s-5.06,1.83-8.09,1.83-5.73-.61-8.09-1.83Zm11.87-4.93c.74-1.88,1.1-4.91,1.1-9.09s-.37-7.2-1.1-9.09c-.74-1.89-2-2.83-3.78-2.83s-3.04.94-3.78,2.83c-.74,1.89-1.1,4.92-1.1,9.09s.37,7.2,1.1,9.09c.74,1.89,1.99,2.83,3.78,2.83s3.04-.94,3.78-2.83Z"/>
    <path class="cls-1" d="m229.25,46.8c-.76-.93-1.3-2.01-1.64-3.23-.33-1.22-.5-2.72-.5-4.49v-16.51h-4.41v-3.6h4.41v-6.12l10.43-2.33v8.45h7.62l-.74,3.6h-6.89v18.24c0,2.13.78,3.2,2.34,3.2,1.38,0,2.85-.8,4.41-2.4l2.21,2.2c-1.11,1.73-2.55,3.13-4.31,4.19-1.76,1.06-3.78,1.6-6.05,1.6-3.08,0-5.37-.93-6.89-2.8Z"/>
    <path class="cls-1" d="m252.32,45.2c-2.54-2.93-3.81-6.77-3.81-11.52,0-3.15.61-5.91,1.84-8.29,1.23-2.37,2.96-4.21,5.22-5.52,2.25-1.31,4.87-1.96,7.86-1.96,4.15,0,7.34,1.19,9.6,3.56,2.25,2.37,3.4,5.78,3.44,10.22,0,1.07-.04,1.84-.13,2.33h-17.19c.09,3.02.7,5.42,1.84,7.19,1.14,1.78,2.89,2.66,5.25,2.66,3.03,0,5.44-1.44,7.22-4.33l2.68,1.66c-.98,2.57-2.64,4.62-4.98,6.12s-5.03,2.26-8.06,2.26c-4.64,0-8.23-1.46-10.77-4.39Zm15.38-14.78c0-2.93-.37-5.08-1.1-6.46-.74-1.38-1.75-2.06-3.04-2.06s-2.37.75-3.11,2.26c-.74,1.51-1.15,3.59-1.24,6.26h8.49Z"/>
    <path class="cls-1" d="m282.28,47.8v-8.79h2.81c.4,2.09,1.16,3.77,2.27,5.06,1.11,1.29,2.56,1.93,4.35,1.93,1.2,0,2.2-.31,2.98-.93.78-.62,1.17-1.44,1.17-2.46,0-1.11-.45-2.01-1.34-2.7-.89-.69-2.3-1.43-4.21-2.23-1.83-.8-3.33-1.55-4.51-2.26-1.18-.71-2.2-1.71-3.04-3-.85-1.29-1.27-2.93-1.27-4.93,0-2.93,1.2-5.26,3.61-6.99,2.41-1.73,5.37-2.6,8.89-2.6,1.52,0,3.57.22,6.15.67.54.13,1.49.29,2.88.46,0,4.44.04,7.5.13,9.19h-2.88c-.58-4.48-2.43-6.72-5.55-6.72-1.16,0-2.13.29-2.91.87-.78.58-1.17,1.35-1.17,2.33,0,1.11.43,1.99,1.3,2.63.87.64,2.28,1.43,4.25,2.36,1.83.8,3.33,1.58,4.51,2.33,1.18.75,2.2,1.76,3.04,3.03.85,1.26,1.27,2.83,1.27,4.69,0,3.06-1.14,5.47-3.41,7.22-2.27,1.75-5.35,2.63-9.23,2.63s-7.16-.6-10.1-1.8Z"/>
  </g>
  <g>
    <path class="cls-1" d="m249.46,60.03c1.41,0,2.32.96,2.32,2.45,0,1.64-1.07,2.72-2.42,2.72-1.57,0-2.5-.99-2.5-2.52s1.1-2.65,2.6-2.65Zm-.07.51c-.52,0-.89.2-1.14.59-.25.38-.37.85-.37,1.39,0,1.32.57,2.18,1.55,2.18.46,0,.8-.21,1.01-.62.22-.42.33-.89.33-1.41,0-1.4-.54-2.13-1.38-2.13Z"/>
    <path class="cls-1" d="m252.83,64.66c.24-.05.43-.11.57-.15.09-.03.11-.08.11-.25.01-.3.01-.83.01-1.58s0-1.38-.01-1.78c0-.08-.04-.11-.13-.11-.36,0-.62,0-.76.01,0-.17.01-.3.04-.4l.03-.03.67-.15c.1-.03.15-.07.15-.2v-.32c0-1.88,1.12-2.85,2.51-2.85.54,0,1.05.15,1.05.43s-.15.57-.36.71h-.11c-.3-.3-.77-.56-1.12-.56-.41,0-.68.18-.81.54-.12.36-.19.83-.19,1.41v.84c.15-.02.33-.03.56-.03h1.18c-.03.25-.08.44-.13.57l-.04.05-1.54-.03c-.01.39-.01,1.01-.01,1.88,0,.76,0,1.3.01,1.64,0,.12.06.2.15.22.33.05.64.1.91.13,0,.17-.02.31-.08.43l-.05.03c-.44-.03-.91-.04-1.41-.04-.43,0-.86.01-1.3.04,0-.17.02-.3.05-.41l.04-.03Z"/>
    <path class="cls-1" d="m260.65,64.68l.67-.21v-5.65h-.46c-.3,0-.53.04-.7.1-.17.07-.3.2-.39.38-.1.19-.17.46-.23.83h-.52c.01-.27.03-.59.04-.96s.02-.7.02-.98h6.28c0,.29,0,.61.02.98.01.37.03.69.04.96h-.52c-.06-.37-.14-.64-.23-.83-.1-.19-.23-.31-.39-.38-.17-.07-.4-.1-.7-.1h-.46v5.09c0,.17.01.29.04.37.03.08.09.15.19.21s.25.12.47.19v.38c-.73-.02-1.24-.03-1.54-.03-.48,0-1.03.01-1.65.03v-.38Z"/>
    <path class="cls-1" d="m266.15,67.43c-.16-.15-.24-.32-.24-.52,0-.14.04-.25.13-.35.08-.09.2-.14.34-.14.05,0,.1,0,.16.01.06,0,.1.01.15.02.15.04.3.05.45.05.18,0,.33-.07.45-.2.11-.13.24-.38.38-.74l.13-.34-1.79-3.99c-.11-.24-.21-.4-.31-.48-.1-.08-.28-.16-.54-.23v-.35c.15,0,.36.01.65.02.29,0,.57.01.83.01.54,0,1-.01,1.4-.03v.35l-.46.18.32.75c.31.73.55,1.35.71,1.88.15-.47.38-1.08.67-1.83l.31-.8-.42-.18v-.35c.25.01.56.02.92.02.15,0,.42,0,.81-.02v.35c-.25.05-.42.12-.52.2-.1.08-.2.26-.3.52l-1.8,4.56c-.27.68-.54,1.16-.82,1.42-.28.27-.59.4-.95.4-.28,0-.5-.07-.65-.22Z"/>
    <path class="cls-1" d="m271.26,67.14l.53-.21v-5.81c0-.18-.03-.3-.1-.37-.07-.07-.21-.14-.44-.23v-.35c.56,0,1.01,0,1.35-.03.33-.02.64-.05.91-.09v.56c.41-.41.87-.62,1.39-.62.37,0,.69.1.98.31s.51.51.68.9.25.84.25,1.35-.1,1-.29,1.41-.47.71-.81.93c-.35.22-.75.33-1.19.33-.18,0-.37-.02-.55-.07-.18-.05-.33-.11-.44-.18v1.56c0,.16.05.28.14.36.1.08.28.16.55.24v.35c-.68-.02-1.2-.03-1.54-.03-.4,0-.87.01-1.4.03v-.35Zm3.51-3.11c.17-.33.26-.8.26-1.41,0-.55-.07-.98-.21-1.28-.14-.3-.34-.46-.59-.46-.12,0-.25.03-.38.1-.13.07-.25.16-.34.27v3.11c.17.1.35.15.54.15.32,0,.56-.16.73-.49Z"/>
    <path class="cls-1" d="m277.98,64.51c-.42-.48-.63-1.12-.63-1.9,0-.52.1-.98.3-1.37s.49-.7.86-.91c.37-.22.8-.32,1.29-.32.68,0,1.21.2,1.58.59.37.39.56.96.57,1.69,0,.18,0,.3-.02.38h-2.83c.01.5.12.9.3,1.19.19.29.47.44.86.44.5,0,.89-.24,1.19-.72l.44.28c-.16.43-.43.76-.82,1.01s-.83.37-1.33.37c-.76,0-1.35-.24-1.77-.73Zm2.53-2.44c0-.48-.06-.84-.18-1.07-.12-.23-.29-.34-.5-.34s-.39.12-.51.37c-.12.25-.19.59-.2,1.03h1.4Z"/>
    <path class="cls-1" d="m284.17,60.17v3.74c0,.17.01.29.04.37.03.08.09.15.19.21s.25.12.47.19v.38h-.39c-.31-.03-.53-.03-.67-.03s-.52.01-1.13.03v-.38l.67-.21v-5.13c0-.16-.01-.28-.04-.37-.03-.08-.09-.16-.19-.21s-.26-.12-.48-.19v-.38h2.27l3.38,4.58v-3.42c0-.17-.01-.29-.04-.37-.03-.08-.09-.15-.19-.21-.1-.06-.25-.12-.47-.19v-.38h.39c.31.03.53.03.67.03s.52-.01,1.13-.03v.38l-.67.21v6.29h-1.31l-3.62-4.91Z"/>
    <path class="cls-1" d="m291.58,64.93c-.39-.2-.69-.5-.91-.89-.22-.39-.33-.87-.33-1.42s.11-1.03.33-1.42c.22-.39.52-.69.91-.89.39-.2.83-.3,1.33-.3s.94.1,1.33.3c.39.2.69.5.91.89.22.39.32.87.32,1.42s-.11,1.03-.32,1.42c-.22.39-.52.69-.91.89-.39.2-.83.3-1.33.3s-.94-.1-1.33-.3Zm1.95-.81c.12-.31.18-.81.18-1.5s-.06-1.19-.18-1.5-.33-.47-.62-.47-.5.16-.62.47c-.12.31-.18.81-.18,1.5s.06,1.19.18,1.5c.12.31.33.47.62.47s.5-.16.62-.47Z"/>
    <path class="cls-1" d="m296.9,64.77c-.12-.15-.21-.33-.27-.53-.05-.2-.08-.45-.08-.74v-2.73h-.73v-.59h.73v-1.01l1.72-.38v1.4h1.25l-.12.59h-1.13v3.01c0,.35.13.53.38.53.23,0,.47-.13.73-.4l.36.36c-.18.29-.42.52-.71.69-.29.18-.62.26-1,.26-.51,0-.88-.15-1.13-.46Z"/>
    <path class="cls-1" d="m300.7,64.51c-.42-.48-.63-1.12-.63-1.9,0-.52.1-.98.3-1.37s.49-.7.86-.91c.37-.22.8-.32,1.29-.32.68,0,1.21.2,1.58.59.37.39.56.96.57,1.69,0,.18,0,.3-.02.38h-2.83c.01.5.12.9.3,1.19.19.29.47.44.86.44.5,0,.89-.24,1.19-.72l.44.28c-.16.43-.43.76-.82,1.01s-.83.37-1.33.37c-.76,0-1.35-.24-1.77-.73Zm2.53-2.44c0-.48-.06-.84-.18-1.07-.12-.23-.29-.34-.5-.34s-.39.12-.51.37c-.12.25-.19.59-.2,1.03h1.4Z"/>
    <path class="cls-1" d="m305.62,64.94v-1.45h.46c.07.34.19.62.37.84.18.21.42.32.71.32.2,0,.36-.05.49-.15.13-.1.19-.24.19-.41,0-.18-.07-.33-.22-.45-.15-.11-.38-.24-.69-.37-.3-.13-.55-.26-.74-.37-.19-.12-.36-.28-.5-.5s-.21-.48-.21-.81c0-.48.2-.87.59-1.16.4-.29.88-.43,1.46-.43.25,0,.59.04,1.01.11.09.02.25.05.47.08,0,.73,0,1.24.02,1.52h-.47c-.09-.74-.4-1.11-.91-1.11-.19,0-.35.05-.48.14-.13.1-.19.22-.19.38,0,.18.07.33.21.43.14.11.38.24.7.39.3.13.55.26.74.39.19.12.36.29.5.5s.21.47.21.78c0,.51-.19.9-.56,1.19-.37.29-.88.43-1.52.43s-1.18-.1-1.66-.3Z"/>
  </g>
</svg>