<?xml version="1.0" encoding="UTF-8"?>
<svg id="Capa_1" data-name="Capa 1" xmlns="http://www.w3.org/2000/svg" viewBox="0 0 1080 120">
  <defs>
    <style>
      .cls-1 {
        fill: #fff;
        stroke-width: 0px;
      }
    </style>
  </defs>
  <path class="cls-1" d="M316.65,115.36c15.93,0,29.84-8.64,37.3-21.5l-14.03-8.1c-4.66,8.02-13.34,13.43-23.27,13.43-14.85,0-26.93-12.08-26.93-26.92s12.08-26.93,26.93-26.93c9.97,0,18.68,5.44,23.33,13.52l14.02-8.1c-7.44-12.91-21.38-21.59-37.34-21.59-23.8,0-43.1,19.3-43.1,43.1s19.3,43.09,43.1,43.09Z"/>
  <path class="cls-1" d="M431.73,115.37c23.8,0,43.1-19.3,43.1-43.1s-19.3-43.1-43.1-43.1-43.1,19.3-43.1,43.1,19.3,43.1,43.1,43.1ZM431.73,45.35c14.85,0,26.93,12.08,26.93,26.93s-12.08,26.93-26.93,26.93-26.93-12.08-26.93-26.93,12.08-26.93,26.93-26.93Z"/>
  <polygon class="cls-1" points="196.39 113.59 232.98 113.59 232.98 98.84 196.39 98.84 196.39 78.89 227.55 78.89 227.55 64.49 196.39 64.49 196.39 45.72 232.51 45.72 232.51 30.97 196.39 30.97 192.49 30.97 180.22 30.97 180.22 113.59 192.49 113.59 196.39 113.59"/>
  <path class="cls-1" d="M56.31,4.63c-22.25,0-41.3,18.1-41.3,40.34v68.62s82.61,0,82.61,0V44.97c0-22.25-19.06-40.34-41.3-40.34ZM56.31,57.6c-7.57,0-13.71-6.14-13.71-13.71s6.14-13.71,13.71-13.71,13.71,6.14,13.71,13.71-6.14,13.71-13.71,13.71Z"/>
  <polygon class="cls-1" points="571.42 30.97 547.15 95.08 522.79 30.97 505.43 30.97 538.37 113.59 540.14 113.59 554.18 113.59 555.95 113.59 588.77 30.97 571.42 30.97"/>
  <rect class="cls-1" x="628.86" y="30.97" width="16.17" height="82.63"/>
  <path class="cls-1" d="M723.07,113.59c57.42-.21,57.62-82.48,0-82.63h-26.44v82.63h26.44ZM712.8,46.08h10.27c14.57-.26,26.82,11.56,26.56,26.2.26,14.65-11.99,26.46-26.56,26.2h-10.27v-52.41Z"/>
  <rect class="cls-1" x="918.25" y="30.97" width="16.17" height="82.63"/>
  <path class="cls-1" d="M1021.9,115.37c23.8,0,43.1-19.3,43.1-43.1s-19.3-43.1-43.1-43.1-43.1,19.3-43.1,43.1,19.3,43.1,43.1,43.1ZM1021.9,45.35c14.85,0,26.93,12.08,26.93,26.93s-12.08,26.93-26.93,26.93-26.93-12.08-26.93-26.93,12.08-26.93,26.93-26.93Z"/>
  <path class="cls-1" d="M823.44,84.32h15.24l16.88,29.27h18.3l-19.14-32.15c.36-.16.73-.32,1.08-.49,9.09-4.43,14.85-13.06,14.76-23.31.07-10.33-5.24-18.76-14.28-23.43-4.49-2.32-9.64-3.44-15.46-3.36l-19.25.12h-14.28v82.63h16.17v-29.27ZM823.44,45.72h16.65c7.36-.11,13.76,4.43,13.69,11.92.12,6.96-6.07,12.11-12.87,11.92h-17.48v-23.84Z"/>
</svg>