<svg width="796" height="1960" viewBox="0 0 796 1960" fill="none" xmlns="http://www.w3.org/2000/svg">
<rect width="795" height="490" fill="#161616"/>
<rect x="1" y="980" width="795" height="490" fill="#312783"/>
<rect x="1" y="490" width="795" height="490" fill="#FFDE00"/>
<rect x="1" y="1470" width="795" height="490" fill="white"/>
<path fill-rule="evenodd" clip-rule="evenodd" d="M445.219 192.064C450.773 183.426 453.987 173.162 453.987 162.155V162H429.58C429.524 165.87 428.763 169.566 427.421 172.976C423.901 181.919 416.369 188.864 407.021 191.624C404.162 192.473 401.136 192.926 397.997 192.926C392.524 192.926 387.375 191.543 382.888 189.106C374.526 184.579 368.454 176.399 366.831 166.725C366.575 165.187 366.426 163.606 366.407 162H342V162.155C342 169.032 343.254 175.624 345.557 181.708C348.915 190.6 354.494 198.408 361.633 204.467C368.479 210.29 376.754 214.494 385.865 216.485C389.772 217.347 393.828 217.799 397.997 217.799C407.638 217.799 416.719 215.375 424.644 211.108C426.011 214.848 426.759 218.878 426.759 223.089C426.759 242.437 410.977 258.12 391.5 258.12C386.373 258.12 381.502 257.033 377.108 255.079L355.437 274.486C365.624 281.657 378.066 285.871 391.5 285.871C426.011 285.871 453.987 258.071 453.987 223.777C453.987 212.193 450.792 201.347 445.219 192.064Z" fill="white"/>
<path d="M371.783 320.455H361.051V303.678H364.645V317.311H371.783V320.455ZM385.516 320.455H382.302V318.92C381.466 319.851 379.998 320.756 377.999 320.756C375.316 320.756 374.05 319.298 374.05 316.933V308.306H377.265V315.676C377.265 317.361 378.151 317.914 379.518 317.914C380.758 317.914 381.745 317.235 382.302 316.531V308.306H385.516V320.455ZM399.87 320.455H396.276L393.492 316.355L390.682 320.455H387.113L391.442 314.217L387.366 308.306H390.961L393.492 312.054L395.997 308.306H399.592L395.491 314.217L399.87 320.455ZM412.928 320.455H409.713V318.92C408.878 319.851 407.41 320.756 405.411 320.756C402.728 320.756 401.462 319.298 401.462 316.933V308.306H404.677V315.676C404.677 317.361 405.562 317.914 406.929 317.914C408.169 317.914 409.156 317.235 409.713 316.531V308.306H412.928V320.455ZM419.334 320.455H416.119V308.306H419.334V309.966C420.194 308.885 421.713 308.005 423.232 308.005V311.123C423.004 311.073 422.7 311.048 422.346 311.048C421.283 311.048 419.865 311.651 419.334 312.431V320.455ZM424.81 325.208L425.291 322.341C425.569 322.467 426 322.542 426.303 322.542C427.139 322.542 427.695 322.316 427.999 321.662L428.455 320.631L423.494 308.306H426.936L430.125 316.757L433.314 308.306H436.782L431.036 322.441C430.125 324.73 428.505 325.334 426.404 325.384C426.025 325.384 425.215 325.309 424.81 325.208Z" fill="white"/>
<g clip-path="url(#clip0_1019_1477)">
<path d="M366.743 829.472C365.032 829.472 363.398 829.02 362.172 827.84L363.755 825.103C364.419 825.731 365.287 826.309 366.462 826.309C368.071 826.309 369.118 825.254 369.118 823.622V812.424H372.744V823.672C372.744 827.639 370.241 829.472 366.743 829.472ZM387.615 829.171H384.372V827.639C383.529 828.568 382.048 829.472 380.03 829.472C377.324 829.472 376.047 828.016 376.047 825.656V817.044H379.29V824.4C379.29 826.083 380.184 826.635 381.563 826.635C382.814 826.635 383.81 825.957 384.372 825.254V817.044H387.615V829.171ZM402.403 829.171H399.16V821.839C399.16 820.157 398.266 819.58 396.887 819.58C395.61 819.58 394.614 820.283 394.078 821.011V829.171H390.835V817.044H394.078V818.626C394.87 817.697 396.377 816.743 398.394 816.743C401.101 816.743 402.403 818.249 402.403 820.609V829.171ZM407.232 815.738C406.185 815.738 405.291 814.885 405.291 813.83C405.291 812.776 406.185 811.947 407.232 811.947C408.305 811.947 409.173 812.776 409.173 813.83C409.173 814.885 408.305 815.738 407.232 815.738ZM408.867 829.171H405.623V817.044H408.867V829.171ZM417.803 829.472C413.742 829.472 411.291 826.56 411.291 823.095C411.291 819.655 413.742 816.743 417.803 816.743C421.889 816.743 424.34 819.655 424.34 823.095C424.34 826.56 421.889 829.472 417.803 829.472ZM417.803 826.635C419.82 826.635 420.969 825.003 420.969 823.095C420.969 821.212 419.82 819.58 417.803 819.58C415.785 819.58 414.662 821.212 414.662 823.095C414.662 825.003 415.785 826.635 417.803 826.635ZM429.99 829.171H426.746V817.044H429.99V818.701C430.858 817.621 432.39 816.743 433.922 816.743V819.856C433.692 819.806 433.386 819.781 433.028 819.781C431.956 819.781 430.526 820.383 429.99 821.162V829.171Z" fill="#312783"/>
<path d="M354.941 657.164C361.728 657.164 367.23 651.755 367.23 645.082C367.23 638.409 361.728 633 354.941 633C348.154 633 342.652 638.409 342.652 645.082C342.652 651.755 348.154 657.164 354.941 657.164Z" fill="#312783"/>
<path d="M442.711 657.164C449.497 657.164 454.999 651.755 454.999 645.082C454.999 638.409 449.497 633 442.711 633C435.924 633 430.422 638.409 430.422 645.082C430.422 651.755 435.924 657.164 442.711 657.164Z" fill="#312783"/>
<path fill-rule="evenodd" clip-rule="evenodd" d="M446.141 702.261C451.744 693.637 454.987 683.392 454.987 672.404V672.249H430.362C430.305 676.112 429.537 679.802 428.184 683.206C424.632 692.133 417.033 699.067 407.601 701.822C404.717 702.67 401.664 703.121 398.497 703.121C392.975 703.121 387.78 701.741 383.253 699.308C374.816 694.789 368.69 686.624 367.053 676.966C366.795 675.431 366.644 673.853 366.625 672.249H342V672.404C342 679.269 343.266 685.85 345.589 691.923C348.976 700.8 354.605 708.594 361.808 714.642C368.715 720.455 377.064 724.652 386.257 726.639C390.198 727.5 394.291 727.952 398.497 727.952C408.224 727.952 417.386 725.531 425.382 721.272C426.761 725.005 427.516 729.029 427.516 733.232C427.516 752.547 411.593 768.202 391.942 768.202C386.769 768.202 381.855 767.117 377.422 765.166L355.557 784.539C365.835 791.698 378.388 795.904 391.942 795.904C426.761 795.904 454.987 768.152 454.987 733.919C454.987 722.355 451.763 711.528 446.141 702.261Z" fill="#312783"/>
</g>
<path fill-rule="evenodd" clip-rule="evenodd" d="M446.123 1172.16C451.629 1163.53 454.815 1153.29 454.815 1142.3V1142.14H430.62C430.565 1146.01 429.81 1149.7 428.48 1153.1C424.991 1162.03 417.524 1168.96 408.257 1171.72C405.423 1172.56 402.423 1173.02 399.311 1173.02C393.885 1173.02 388.782 1171.64 384.334 1169.2C376.044 1164.68 370.025 1156.52 368.416 1146.86C368.163 1145.33 368.014 1143.75 367.996 1142.14H343.801V1142.3C343.801 1149.16 345.044 1155.74 347.327 1161.82C350.655 1170.69 356.186 1178.49 363.263 1184.54C370.05 1190.35 378.253 1194.55 387.285 1196.53C391.157 1197.39 395.179 1197.85 399.311 1197.85C408.869 1197.85 417.87 1195.43 425.727 1191.17C427.082 1194.9 427.824 1198.92 427.824 1203.13C427.824 1222.44 412.179 1238.1 392.871 1238.1C387.789 1238.1 382.96 1237.01 378.604 1235.06L357.121 1254.43C367.22 1261.59 379.554 1265.8 392.871 1265.8C427.082 1265.8 454.815 1238.05 454.815 1203.81C454.815 1192.25 451.648 1181.42 446.123 1172.16Z" fill="#FFDE00"/>
<path d="M340.035 1300.28H336.472V1293.44L330.023 1283.56H334.088L338.253 1290.28L342.368 1283.56H346.433L340.035 1293.44V1300.28ZM350.485 1300.58C346.797 1300.58 344.012 1298.1 344.012 1294.21C344.012 1290.7 346.596 1287.87 350.285 1287.87C353.898 1287.87 356.357 1290.58 356.357 1294.54V1295.24H347.349C347.55 1296.77 348.779 1298.05 350.837 1298.05C351.865 1298.05 353.295 1297.59 354.073 1296.84L355.478 1298.9C354.274 1300 352.367 1300.58 350.485 1300.58ZM353.27 1293.08C353.195 1291.93 352.392 1290.4 350.285 1290.4C348.302 1290.4 347.449 1291.88 347.299 1293.08H353.27ZM361.845 1300.28H358.658V1283.56H361.845V1300.28ZM383.246 1300.28H380.034V1292.63C380.034 1291.51 379.532 1290.7 378.227 1290.7C377.098 1290.7 376.17 1291.46 375.718 1292.11V1300.28H372.507V1292.63C372.507 1291.51 372.005 1290.7 370.7 1290.7C369.596 1290.7 368.668 1291.46 368.191 1292.13V1300.28H365.005V1288.17H368.191V1289.75C368.693 1289.03 370.299 1287.87 372.155 1287.87C373.937 1287.87 375.066 1288.7 375.518 1290.08C376.22 1288.98 377.826 1287.87 379.683 1287.87C381.916 1287.87 383.246 1289.05 383.246 1291.53V1300.28ZM391.991 1300.58C388.002 1300.58 385.593 1297.67 385.593 1294.21C385.593 1290.78 388.002 1287.87 391.991 1287.87C396.006 1287.87 398.415 1290.78 398.415 1294.21C398.415 1297.67 396.006 1300.58 391.991 1300.58ZM391.991 1297.75C393.974 1297.75 395.103 1296.12 395.103 1294.21C395.103 1292.33 393.974 1290.7 391.991 1290.7C390.009 1290.7 388.905 1292.33 388.905 1294.21C388.905 1296.12 390.009 1297.75 391.991 1297.75ZM415.504 1300.58C410.686 1300.58 406.897 1297.07 406.897 1291.93C406.897 1286.8 410.686 1283.29 415.504 1283.29C418.464 1283.29 420.522 1284.69 421.852 1286.59L420.12 1287.57C419.167 1286.14 417.41 1285.14 415.504 1285.14C411.84 1285.14 409.055 1287.92 409.055 1291.93C409.055 1295.89 411.84 1298.72 415.504 1298.72C417.41 1298.72 419.167 1297.69 420.12 1296.29L421.877 1297.24C420.472 1299.17 418.464 1300.58 415.504 1300.58ZM425.409 1286.44C424.706 1286.44 424.129 1285.89 424.129 1285.19C424.129 1284.49 424.706 1283.91 425.409 1283.91C426.111 1283.91 426.663 1284.49 426.663 1285.19C426.663 1285.89 426.111 1286.44 425.409 1286.44ZM426.337 1300.28H424.455V1288.17H426.337V1300.28ZM440.153 1300.28H438.296V1292.36C438.296 1290.2 437.192 1289.55 435.561 1289.55C434.081 1289.55 432.701 1290.45 431.973 1291.43V1300.28H430.091V1288.17H431.973V1289.93C432.826 1288.9 434.482 1287.87 436.314 1287.87C438.823 1287.87 440.153 1289.15 440.153 1291.78V1300.28ZM449.43 1300.58C445.817 1300.58 443.233 1298 443.233 1294.21C443.233 1290.7 445.742 1287.87 449.204 1287.87C452.868 1287.87 455.025 1290.73 455.025 1294.36V1294.84H445.24C445.391 1297.12 446.971 1299.02 449.581 1299.02C450.986 1299.02 452.366 1298.47 453.344 1297.47L454.248 1298.7C453.018 1299.9 451.387 1300.58 449.43 1300.58ZM453.169 1293.44C453.144 1291.66 451.939 1289.43 449.179 1289.43C446.595 1289.43 445.315 1291.61 445.215 1293.44H453.169ZM461.937 1300.58C459.93 1300.58 458.274 1299.95 457.045 1298.67L457.998 1297.32C458.801 1298.25 460.332 1299.05 461.988 1299.05C463.844 1299.05 464.873 1298.17 464.873 1296.97C464.873 1294.04 457.371 1295.84 457.371 1291.36C457.371 1289.45 458.977 1287.87 461.862 1287.87C463.945 1287.87 465.4 1288.65 466.353 1289.63L465.475 1290.93C464.748 1290.05 463.443 1289.4 461.862 1289.4C460.206 1289.4 459.177 1290.23 459.177 1291.31C459.177 1293.94 466.68 1292.21 466.68 1296.92C466.68 1298.95 465.049 1300.58 461.937 1300.58Z" fill="#FFDE00"/>
<path d="M339.845 1782.63H335.02V1787.99H333.587V1782.63H328.762V1781.32H333.587V1776.12H335.02V1781.32H339.845V1782.63ZM356.679 1790.76C351.728 1790.76 348.361 1787.03 348.361 1782.08C348.361 1777.12 351.728 1773.4 356.679 1773.4C361.631 1773.4 365.024 1777.12 365.024 1782.08C365.024 1784.57 364.169 1786.73 362.711 1788.29L364.295 1789.98L362.862 1791.23L361.229 1789.5C359.972 1790.3 358.414 1790.76 356.679 1790.76ZM356.679 1788.9C357.886 1788.9 358.967 1788.59 359.871 1788.04L357.484 1785.45L358.941 1784.22L361.304 1786.78C362.284 1785.58 362.862 1783.94 362.862 1782.08C362.862 1778.16 360.424 1775.26 356.679 1775.26C352.91 1775.26 350.522 1778.16 350.522 1782.08C350.522 1785.98 352.91 1788.9 356.679 1788.9ZM378.26 1790.45H376.375V1788.74C375.445 1789.8 373.861 1790.76 372.052 1790.76C369.513 1790.76 368.181 1789.5 368.181 1786.88V1778.31H370.066V1786.3C370.066 1788.44 371.147 1789.07 372.806 1789.07C374.264 1789.07 375.671 1788.22 376.375 1787.24V1778.31H378.26V1790.45ZM387.528 1790.76C383.909 1790.76 381.32 1788.17 381.32 1784.37C381.32 1780.85 383.834 1778 387.302 1778C390.971 1778 393.132 1780.87 393.132 1784.52V1785H383.331C383.482 1787.29 385.065 1789.2 387.679 1789.2C389.086 1789.2 390.469 1788.64 391.449 1787.64L392.353 1788.87C391.122 1790.08 389.489 1790.76 387.528 1790.76ZM391.273 1783.59C391.248 1781.8 390.041 1779.56 387.277 1779.56C384.688 1779.56 383.406 1781.75 383.306 1783.59H391.273ZM410.707 1790.45H407.138V1783.59L400.679 1773.68H404.751L408.923 1780.42L413.045 1773.68H417.116L410.707 1783.59V1790.45ZM421.175 1790.76C417.48 1790.76 414.691 1788.27 414.691 1784.37C414.691 1780.85 417.279 1778 420.974 1778C424.593 1778 427.056 1780.72 427.056 1784.69V1785.4H418.033C418.234 1786.93 419.466 1788.22 421.527 1788.22C422.557 1788.22 423.99 1787.76 424.769 1787.01L426.176 1789.07C424.97 1790.18 423.06 1790.76 421.175 1790.76ZM423.965 1783.24C423.889 1782.08 423.085 1780.54 420.974 1780.54C418.988 1780.54 418.134 1782.03 417.983 1783.24H423.965ZM432.554 1790.45H429.362V1773.68H432.554V1790.45ZM453.99 1790.45H450.773V1782.78C450.773 1781.65 450.271 1780.85 448.964 1780.85C447.833 1780.85 446.903 1781.6 446.45 1782.26V1790.45H443.233V1782.78C443.233 1781.65 442.731 1780.85 441.424 1780.85C440.318 1780.85 439.388 1781.6 438.911 1782.28V1790.45H435.719V1778.31H438.911V1779.89C439.413 1779.16 441.022 1778 442.881 1778C444.666 1778 445.797 1778.83 446.249 1780.22C446.953 1779.11 448.561 1778 450.421 1778C452.658 1778 453.99 1779.19 453.99 1781.68V1790.45ZM462.75 1790.76C458.754 1790.76 456.341 1787.84 456.341 1784.37C456.341 1780.92 458.754 1778 462.75 1778C466.771 1778 469.184 1780.92 469.184 1784.37C469.184 1787.84 466.771 1790.76 462.75 1790.76ZM462.75 1787.91C464.736 1787.91 465.867 1786.28 465.867 1784.37C465.867 1782.48 464.736 1780.85 462.75 1780.85C460.765 1780.85 459.659 1782.48 459.659 1784.37C459.659 1786.28 460.765 1787.91 462.75 1787.91Z" fill="#312783"/>
<path fill-rule="evenodd" clip-rule="evenodd" d="M449.231 1662.06C454.747 1653.43 457.938 1643.16 457.938 1632.16V1632H433.702C433.646 1635.87 432.891 1639.57 431.559 1642.98C428.063 1651.92 420.584 1658.86 411.302 1661.62C408.463 1662.47 405.458 1662.93 402.341 1662.93C396.907 1662.93 391.794 1661.54 387.339 1659.11C379.035 1654.58 373.006 1646.4 371.395 1636.73C371.141 1635.19 370.992 1633.61 370.974 1632H346.738V1632.16C346.738 1639.03 347.984 1645.62 350.27 1651.71C353.604 1660.6 359.144 1668.41 366.233 1674.47C373.031 1680.29 381.248 1684.49 390.295 1686.48C394.174 1687.35 398.202 1687.8 402.341 1687.8C411.915 1687.8 420.931 1685.37 428.801 1681.11C430.158 1684.85 430.901 1688.88 430.901 1693.09C430.901 1712.44 415.23 1728.12 395.89 1728.12C390.799 1728.12 385.963 1727.03 381.6 1725.08L360.081 1744.49C370.196 1751.66 382.551 1755.87 395.89 1755.87C430.158 1755.87 457.938 1728.07 457.938 1693.78C457.938 1682.19 454.765 1671.35 449.231 1662.06Z" fill="#FFDE00"/>
<path fill-rule="evenodd" clip-rule="evenodd" d="M353.811 1687.33H361.871V1700.6H375.124V1708.66H361.871V1721.92H353.811V1708.66H340.566V1700.6H353.811V1687.33Z" fill="#312783"/>
<defs>
<clipPath id="clip0_1019_1477">
<rect width="113" height="204" fill="white" transform="translate(342 633)"/>
</clipPath>
</defs>
</svg>
