<svg width="426" height="124" viewBox="0 0 426 124" fill="none" xmlns="http://www.w3.org/2000/svg">
<rect width="424.75" height="123.47" transform="translate(0.0599976)" fill="white"/>
<path d="M412.61 35.81V48.13C411.93 48.04 411.19 47.94 410.43 47.94C408.11 47.94 405.98 48.51 404.27 49.49C403.47 49.95 402.76 50.48 402.17 51.09C400.99 52.3 400.42 53.98 400.42 55.66V83.29L388.26 90.34V34.09L376.08 27.05L388.23 20H388.25L400.43 27.05V37.65C402.29 36.05 405.04 35.05 408.1 35.05C409.73 35.05 411.27 35.33 412.61 35.81Z" fill="white" stroke="black" stroke-width="0.5" stroke-linecap="round" stroke-linejoin="round"/>
<path d="M400.43 27.04V27.05L388.25 20.01V20L400.43 27.04Z" fill="white" stroke="black" stroke-width="0.5" stroke-linecap="round" stroke-linejoin="round"/>
<path d="M395.92 42.1C392.86 42.1 390.11 43.1001 388.25 44.7001V34.09L376.07 27.05V83.3001L388.25 90.3301V63.7001V62.7001C388.25 61.0101 388.82 59.3401 390 58.1301C390.59 57.5201 391.3 56.98 392.1 56.53C393.81 55.55 395.94 54.98 398.26 54.98C399.02 54.98 399.75 55.07 400.44 55.17V42.85C399.1 42.38 397.56 42.1 395.93 42.1H395.92Z" fill="black" stroke="black" stroke-width="0.5" stroke-linecap="round" stroke-linejoin="round"/>
<path d="M400.44 55.1801L400.43 97.3601L412.62 104.4V62.2101L400.44 55.1801Z" fill="black" stroke="black" stroke-width="0.5" stroke-linecap="round" stroke-linejoin="round"/>
<path d="M424.77 55.1701L412.62 62.2101L400.44 55.1801L400.43 42.8601L412.61 35.8101V48.1301L424.77 55.1701Z" fill="white" stroke="black" stroke-width="0.5" stroke-linecap="round" stroke-linejoin="round"/>
<path d="M402.74 36.2C402.44 36.34 402.15 36.49 401.86 36.65L389.62 43.72L390.03 43.53C390.93 43.11 391.91 42.68 392.89 42.49L393.85 42.29C394.82 42.1 395.83 42.14 396.81 42.19C397.57 42.23 398.33 42.34 399.07 42.52L400.43 42.85L412.6 35.8L411.37 35.48C410.83 35.34 410.28 35.24 409.72 35.19L409.01 35.13C408.4 35.08 407.79 35.08 407.19 35.13L406.38 35.21C405.77 35.27 405.17 35.38 404.58 35.55L404.06 35.7C403.61 35.83 403.17 35.99 402.74 36.19V36.2Z" fill="white" stroke="black" stroke-width="0.5" stroke-linecap="round" stroke-linejoin="round"/>
<path d="M412.62 62.21L424.77 55.17L424.81 97.38L412.62 104.4V62.21Z" fill="white" stroke="black" stroke-width="0.5" stroke-linecap="round" stroke-linejoin="round"/>
<path d="M162.83 38.91C159.77 38.91 157.02 39.91 155.16 41.51V30.9L142.98 23.86V80.11L155.16 87.14V60.51V59.51C155.16 57.82 155.73 56.15 156.91 54.94C157.5 54.33 158.21 53.79 159.01 53.34C160.72 52.36 162.85 51.79 165.17 51.79C165.93 51.79 166.66 51.88 167.35 51.98V39.66C166.01 39.19 164.47 38.91 162.84 38.91H162.83Z" fill="#575756"/>
<path d="M167.35 51.99L167.34 94.17L179.53 101.21V59.02L167.35 51.99Z" fill="black"/>
<path d="M279.38 38.91C276.32 38.91 273.57 39.91 271.71 41.51V30.9L259.53 23.86V80.11L271.71 87.14V60.51V59.51C271.71 57.82 272.28 56.15 273.46 54.94C274.05 54.33 274.76 53.79 275.56 53.34C277.27 52.36 279.4 51.79 281.72 51.79C282.48 51.79 283.21 51.88 283.9 51.98V39.66C282.56 39.19 281.02 38.91 279.39 38.91H279.38Z" fill="black"/>
<path d="M283.89 51.99L283.88 94.17L296.07 101.21V59.02L283.89 51.99Z" fill="black"/>
<path d="M12.49 0V115.31" stroke="#E4E4E4" stroke-width="0.25" stroke-miterlimit="10"/>
<path d="M0.0599976 16.66L62.98 53.37" stroke="#E4E4E4" stroke-width="0.25" stroke-miterlimit="10"/>
<path d="M0.0599976 18.4L62.98 55.1" stroke="#E4E4E4" stroke-width="0.25" stroke-miterlimit="10"/>
<path d="M0.0599976 21.86L62.98 58.57" stroke="#E4E4E4" stroke-width="0.25" stroke-miterlimit="10"/>
<path d="M0.0599976 25.3199L62.98 62.0299" stroke="#E4E4E4" stroke-width="0.25" stroke-miterlimit="10"/>
<path d="M0.0599976 28.78L62.98 65.49" stroke="#E4E4E4" stroke-width="0.25" stroke-miterlimit="10"/>
<path d="M0.0599976 20.13L62.98 56.83" stroke="#E4E4E4" stroke-width="0.25" stroke-miterlimit="10"/>
<path d="M0.0599976 27.05L62.98 63.76" stroke="#E4E4E4" stroke-width="0.25" stroke-miterlimit="10"/>
<path d="M0.0599976 23.59L62.98 60.3" stroke="#E4E4E4" stroke-width="0.25" stroke-miterlimit="10"/>
<path d="M0.0599976 30.51L62.98 67.22" stroke="#E4E4E4" stroke-width="0.25" stroke-miterlimit="10"/>
<path d="M0.0599976 72.92L62.98 109.63" stroke="#E4E4E4" stroke-width="0.25" stroke-miterlimit="10"/>
<path d="M0.0599976 86.76L62.98 123.47" stroke="#E4E4E4" stroke-width="0.25" stroke-miterlimit="10"/>
<path d="M24.67 0V115.31" stroke="#E4E4E4" stroke-width="0.25" stroke-miterlimit="10"/>
<path d="M36.84 0V115.31" stroke="#E4E4E4" stroke-width="0.25" stroke-miterlimit="10"/>
<path d="M49.03 0V115.31" stroke="#E4E4E4" stroke-width="0.25" stroke-miterlimit="10"/>
<path d="M32.34 38.91C29.28 38.91 26.53 39.91 24.67 41.51V30.9L12.49 23.86V80.11L24.67 87.14V60.51V59.51C24.67 57.82 25.24 56.15 26.42 54.94C27.01 54.33 27.72 53.79 28.52 53.34C30.23 52.36 32.36 51.79 34.68 51.79C35.44 51.79 36.17 51.88 36.86 51.98V39.66C35.52 39.19 33.98 38.91 32.35 38.91H32.34Z" fill="black"/>
<path d="M36.85 51.99L36.84 94.17L49.03 101.21V59.02L36.85 51.99Z" fill="black"/>
</svg>
