<svg width="97" height="888" viewBox="0 0 97 888" fill="none" xmlns="http://www.w3.org/2000/svg">
<path d="M44.1328 74.8643L35.4069 74.8643C35.376 67.5258 29.4163 61.5793 22.0691 61.5793C14.7218 61.5793 8.75772 67.5214 8.72688 74.8643L0.00094169 74.8643C0.0317765 62.7026 9.89417 52.8578 22.0647 52.8578C34.2352 52.8578 44.0932 62.7026 44.124 74.8643L44.1328 74.8643Z" fill="white"/>
<path d="M96.9961 74.8643L88.2702 74.8643C88.2393 67.5258 82.2796 61.5793 74.9324 61.5793C67.5851 61.5793 61.621 67.5214 61.5902 74.8643L52.8642 74.8643C52.8951 62.7026 62.7575 52.8578 74.928 52.8578C87.0985 52.8578 96.9564 62.7026 96.9873 74.8643L96.9961 74.8643Z" fill="white"/>
<path fill-rule="evenodd" clip-rule="evenodd" d="M96.906 0H0V44.0482H96.906V0ZM88.0964 8.80964H8.80964V35.2385H88.0964V8.80964Z" fill="white"/>
<path d="M96.9876 345.418H61.1992V352.505H96.9876V345.418Z" fill="white"/>
<path d="M96.9844 338.111C96.988 338.064 96.988 338.021 96.988 337.975V338.111H96.9844Z" fill="white"/>
<path d="M96.9879 337.975C96.9879 338.021 96.9879 338.064 96.9843 338.111H90.1452C90.1523 338.036 90.1523 337.96 90.1523 337.885C90.1523 335.273 89.2146 332.878 87.6507 331.025C85.6966 328.698 82.7656 327.22 79.4874 327.22C76.2092 327.22 73.2781 328.698 71.324 331.025C69.7601 332.878 68.8224 335.273 68.8224 337.885C68.8224 337.96 68.8224 338.036 68.8296 338.111H61.2031C61.2031 338.064 61.2031 338.021 61.2031 337.975C61.2031 335.509 61.7006 333.161 62.6024 331.025C65.3152 324.593 71.682 320.081 79.0973 320.081C86.5126 320.081 92.8794 324.593 95.5921 331.025C96.494 333.161 96.9915 335.509 96.9915 337.975H96.9879Z" fill="white"/>
<path d="M96.9876 359.591V359.68C96.9876 362.164 96.4829 364.53 95.5667 366.677H62.62C61.7038 364.53 61.1992 362.164 61.1992 359.68V359.591H96.9876Z" fill="white"/>
<path d="M54.0296 309.039V309H18.0516V309.039H18.0123V320.105C17.9729 320.102 17.9335 320.102 17.8942 320.102C15.4284 320.102 13.0806 320.599 10.9441 321.501C4.51292 324.214 0 330.577 0 337.996C0 345.415 4.51292 351.778 10.9441 354.491C13.0806 355.392 15.4284 355.89 17.8942 355.89C17.9335 355.89 17.9729 355.89 18.0123 355.886V348.26C17.9443 348.267 17.8727 348.267 17.8047 348.267C15.1922 348.267 12.7979 347.329 10.9441 345.765C8.61784 343.811 7.13978 340.88 7.13978 337.602C7.13978 334.324 8.61784 331.393 10.9441 329.439C12.7979 327.875 15.1922 326.937 17.8047 326.937C17.8727 326.937 17.9443 326.937 18.0123 326.944V348.26H18.0302V355.886H18.0123V366.63H18.0516V366.676H54.0296V366.63H54.0691V309.039H54.0296ZM25.3668 316.355H46.7145V337.836V359.318H25.3668V316.355Z" fill="white"/>
<path d="M14.3969 587C14.3969 590.731 13.0054 594.132 10.7149 596.702C10.5092 596.929 10.3036 597.152 10.0837 597.365C7.59711 599.827 4.22592 601.376 0.496094 601.482V635.397C4.22592 635.503 7.59711 637.052 10.0837 639.515C10.3419 639.766 10.5858 640.027 10.8153 640.298C13.0484 642.853 14.3969 646.206 14.3969 649.879C14.3969 649.918 14.3969 649.961 14.3969 650H96.4961V587H14.4017H14.3969ZM86.9037 640.298H67.7286V620.711H58.141V640.298H22.2678C19.896 634.758 15.5302 630.292 10.0837 627.834V609.045C15.4919 606.606 19.8338 602.189 22.2152 596.702H58.141V611.435H67.7286V596.702H86.9037V640.298Z" fill="white"/>
<path d="M96.1973 849.179C96.2467 849.179 96.2923 849.179 96.3417 849.182V856.448C96.2619 856.44 96.1821 856.44 96.1022 856.44C93.3268 856.44 90.7833 857.436 88.8139 859.098C86.3426 861.174 84.7724 864.288 84.7724 867.77C84.7724 871.253 86.3426 874.367 88.8139 876.442C90.7833 878.104 93.3268 879.1 96.1022 879.1C96.1821 879.1 96.2619 879.1 96.3417 879.092V887.194C96.2923 887.194 96.2467 887.194 96.1973 887.194C93.5777 887.194 91.0837 886.666 88.8139 885.708C81.9818 882.826 77.1875 876.062 77.1875 868.185C77.1875 860.307 81.9818 853.543 88.8139 850.661C91.0837 849.703 93.5777 849.175 96.1973 849.175V849.179Z" fill="white"/>
<path d="M69.4943 849V868.143C69.4943 878.667 60.9628 887.198 50.4389 887.198C44.1315 887.198 38.5388 884.134 35.0753 879.416C31.6079 884.134 26.019 887.198 19.7115 887.198C9.22195 887.198 0.716977 878.731 0.652344 868.261V849.133H8.08516V868.143C8.08516 874.454 13.2026 879.575 19.5176 879.575C25.8327 879.575 30.9539 874.454 30.9539 868.143V849H38.8088V868.143H38.7669C38.7669 868.706 38.7441 869.261 38.6909 869.812H38.8088V868.143H38.8126C38.8126 874.454 43.93 879.575 50.245 879.575C56.5601 879.575 61.6813 874.454 61.6813 868.143H61.6661V849H69.4943Z" fill="white"/>
</svg>
