<svg width="64" height="71" viewBox="0 0 64 71" fill="none" xmlns="http://www.w3.org/2000/svg">
<g clip-path="url(#clip0_513_276)">
<path d="M48.03 22.2999C47.19 22.0699 46.32 21.82 45.46 21.54C42.39 20.55 39.57 19.33 37.13 18C37.08 17.97 37.03 17.94 36.98 17.92L36.27 17.52C36.48 17.5 50.11 16.2 50.11 16.2L48.02 22.2999H48.03Z" fill="white" stroke="black" stroke-width="0.5" stroke-linecap="round" stroke-linejoin="round"/>
<path d="M55.32 23.69L50.65 33.67C48.38 33.43 45.91 32.97 43.36 32.28C42.52 32.05 41.65 31.8 40.79 31.52C37.72 30.53 34.9 29.31 32.46 27.98L36.98 17.92C37.03 17.95 37.08 17.98 37.13 18C39.57 19.33 42.39 20.55 45.46 21.54C46.32 21.82 47.19 22.07 48.03 22.3C48.08 22.31 49.26 22.61 49.26 22.61L51.14 23.03L52.88 23.35L54.23 23.55L55.32 23.68V23.69Z" fill="white" stroke="black" stroke-width="0.5" stroke-linecap="round" stroke-linejoin="round"/>
<path d="M30.61 30.71L30.66 30.78L30.57 30.79L30.61 30.71Z" fill="white" stroke="black" stroke-width="0.5" stroke-linecap="round" stroke-linejoin="round"/>
<path d="M44.14 28.93L41.33 24.8601L36.67 18.1L36.63 18.05" fill="white"/>
<path d="M44.14 28.93L41.33 24.8601L36.67 18.1L36.63 18.05" stroke="black" stroke-width="0.5" stroke-linecap="round" stroke-linejoin="round"/>
<path d="M37.13 18C39.57 19.33 42.39 20.55 45.46 21.54C46.32 21.82 47.19 22.07 48.03 22.3" fill="white"/>
<path d="M37.13 18C39.57 19.33 42.39 20.55 45.46 21.54C46.32 21.82 47.19 22.07 48.03 22.3" stroke="black" stroke-width="0.5" stroke-linecap="round" stroke-linejoin="round"/>
<path d="M22.54 19.12L22.64 19.26L22.48 19.27L22.54 19.12Z" fill="white" stroke="black" stroke-width="0.5" stroke-linecap="round" stroke-linejoin="round"/>
<path d="M30.61 30.71L30.66 30.78L30.57 30.79L30.61 30.71Z" fill="white" stroke="black" stroke-width="0.5" stroke-linecap="round" stroke-linejoin="round"/>
<path d="M44.14 28.93L41.33 24.8601L36.67 18.1L36.63 18.05" fill="white"/>
<path d="M44.14 28.93L41.33 24.8601L36.67 18.1L36.63 18.05" stroke="black" stroke-width="0.5" stroke-linecap="round" stroke-linejoin="round"/>
<path d="M37.13 18C39.57 19.33 42.39 20.55 45.46 21.54C46.32 21.82 47.19 22.07 48.03 22.3" fill="white"/>
<path d="M37.13 18C39.57 19.33 42.39 20.55 45.46 21.54C46.32 21.82 47.19 22.07 48.03 22.3" stroke="black" stroke-width="0.5" stroke-linecap="round" stroke-linejoin="round"/>
<path d="M63.41 56.5401L57.46 69.2701L43.43 70.4601L43.46 70.3901L22.31 40.0701H22.3L5.43 15.7901L4.3 14.1501L10.23 1.43005L36.29 38.8601L36.3 38.8801L49.43 57.6501L49.4 57.7201L63.41 56.5401Z" fill="white" stroke="black" stroke-width="0.5" stroke-linecap="round" stroke-linejoin="round"/>
<path d="M44.14 28.93L41.33 24.86L36.67 18.1L41.38 24.86L44.23 28.95L44.64 29.54L44.61 29.6" fill="black"/>
<path d="M44.14 28.93L41.33 24.86L36.67 18.1L41.38 24.86L44.23 28.95L44.64 29.54L44.61 29.6" stroke="black" stroke-width="0.5" stroke-linecap="round" stroke-linejoin="round"/>
<path d="M13.26 27.09L7.3 39.83L0.25 29.72L6.21 16.98L13.26 27.09Z" fill="white" stroke="black" stroke-width="0.5" stroke-linecap="round" stroke-linejoin="round"/>
<path d="M15.16 33.87C15.33 33.59 15.48 33.3 15.62 33L21.62 20.21L21.39 20.6C20.9 21.46 20.33 22.37 19.64 23.09L18.97 23.8C18.28 24.51 17.43 25.05 16.59 25.57C15.94 25.97 15.26 26.31 14.55 26.59L13.25 27.09L7.29 39.83L8.49 39.39C9.01 39.2 9.52 38.96 10.01 38.68L10.63 38.33C11.16 38.03 11.66 37.68 12.12 37.28L12.74 36.75C13.21 36.35 13.63 35.92 14.02 35.44L14.36 35.02C14.66 34.66 14.92 34.27 15.17 33.87H15.16Z" fill="white" stroke="black" stroke-width="0.5" stroke-linecap="round" stroke-linejoin="round"/>
<path d="M36.67 17.74C36.54 17.67 36.41 17.59 36.28 17.52L36.58 17.95L36.64 18.04L36.67 18.09L41.34 24.85L44.19 28.88L44.65 29.53L63.41 56.55L49.39 57.74L30.67 30.78L30.61 30.71L27.31 25.98L22.64 19.26L22.55 19.13L22.2 18.62C21.59 20.99 19.91 23.39 17.39 25.14C16.06 26.07 14.63 26.72 13.26 27.1L6.22 16.99C6.83 16.68 7.49 16.33 8.11 15.9C10.02 14.57 11.44 12.89 12.28 11.11C12.68 10.28 12.95 9.44 13.09 8.6C13.34 7.06 12.95 5.49 12.12 4.17C12.06 4.06 11.99 3.95 11.91 3.85L11.33 3.03L10.21 1.45L24.2 0.25C24.55 0.89 25.03 1.55 25.62 2.23L26.41 3.09C26.98 3.66 27.63 4.23 28.35 4.8C28.67 5.06 29 5.32 29.36 5.57C29.73 5.84 30.11 6.11 30.51 6.36C33.08 8.08 36.25 9.72 39.8 11.05C39.9 11.09 40.01 11.13 40.12 11.17C40.26 11.22 40.4 11.27 40.55 11.33C40.69 11.38 40.83 11.43 40.98 11.48C43.43 12.35 45.83 13 48.1 13.44C48.12 13.44 48.13 13.44 48.14 13.44L50.11 16.24L50.56 16.88L55.31 23.69C53.04 23.45 50.57 22.99 48.02 22.3C47.18 22.07 46.31 21.82 45.45 21.54C42.38 20.55 39.56 19.33 37.12 18" fill="black"/>
<path d="M36.67 17.74C36.54 17.67 36.41 17.59 36.28 17.52L36.58 17.95L36.64 18.04L36.67 18.09L41.34 24.85L44.19 28.88L44.65 29.53L63.41 56.55L49.39 57.74L30.67 30.78L30.61 30.71L27.31 25.98L22.64 19.26L22.55 19.13L22.2 18.62C21.59 20.99 19.91 23.39 17.39 25.14C16.06 26.07 14.63 26.72 13.26 27.1L6.22 16.99C6.83 16.68 7.49 16.33 8.11 15.9C10.02 14.57 11.44 12.89 12.28 11.11C12.68 10.28 12.95 9.44 13.09 8.6C13.34 7.06 12.95 5.49 12.12 4.17C12.06 4.06 11.99 3.95 11.91 3.85L11.33 3.03L10.21 1.45L24.2 0.25C24.55 0.89 25.03 1.55 25.62 2.23L26.41 3.09C26.98 3.66 27.63 4.23 28.35 4.8C28.67 5.06 29 5.32 29.36 5.57C29.73 5.84 30.11 6.11 30.51 6.36C33.08 8.08 36.25 9.72 39.8 11.05C39.9 11.09 40.01 11.13 40.12 11.17C40.26 11.22 40.4 11.27 40.55 11.33C40.69 11.38 40.83 11.43 40.98 11.48C43.43 12.35 45.83 13 48.1 13.44C48.12 13.44 48.13 13.44 48.14 13.44L50.11 16.24L50.56 16.88L55.31 23.69C53.04 23.45 50.57 22.99 48.02 22.3C47.18 22.07 46.31 21.82 45.45 21.54C42.38 20.55 39.56 19.33 37.12 18" stroke="black" stroke-width="0.5" stroke-linecap="round" stroke-linejoin="round"/>
</g>
<defs>
<clipPath id="clip0_513_276">
<rect width="63.66" height="70.71" fill="white"/>
</clipPath>
</defs>
</svg>
