<svg width="60" height="57" viewBox="0 0 60 57" fill="none" xmlns="http://www.w3.org/2000/svg">
<g clip-path="url(#clip0_105_190)">
<path d="M49.375 1.25001L49.3762 1.25C50.6119 1.24887 51.835 1.48523 52.9753 1.94481C54.1155 2.40436 55.1494 3.07766 56.0186 3.92463C56.8878 4.77153 57.5753 5.77536 58.0433 6.87778C58.5113 7.98013 58.7512 9.16041 58.75 10.3514V10.3526V46.6474V46.6486C58.7512 47.8396 58.5113 49.0199 58.0433 50.1222C57.5753 51.2247 56.8878 52.2285 56.0186 53.0754C55.1494 53.9223 54.1155 54.5956 52.9753 55.0552C51.835 55.5148 50.6119 55.7511 49.3762 55.75H49.375H10.625H10.6239C9.38809 55.7511 8.16496 55.5148 7.02473 55.0552C5.88455 54.5956 4.85065 53.9223 3.98139 53.0754C3.11221 52.2285 2.42474 51.2247 1.95671 50.1222C1.48871 49.0199 1.24885 47.8396 1.25 46.6486V46.6474L1.25001 10.3526L1.25 10.3514C1.24885 9.16041 1.48871 7.98013 1.95671 6.87778C2.42474 5.77535 3.11221 4.77153 3.98139 3.92463C4.85065 3.07766 5.88455 2.40436 7.02473 1.94481C8.16496 1.48523 9.3881 1.24887 10.6239 1.25H10.625L49.375 1.25001Z" stroke="#52525B" stroke-width="2.5"/>
<path d="M13.5 39.973V14.9076C13.5 14.7371 13.575 14.6397 13.75 14.6397C14.175 14.6397 14.575 14.6397 15.15 14.6153C15.725 14.591 16.375 14.591 17.05 14.5666C17.725 14.5422 18.45 14.5422 19.225 14.5179C20 14.4935 20.75 14.4935 21.5 14.4935C23.55 14.4935 25.25 14.7371 26.65 15.2487C27.905 15.6639 29.0494 16.3462 30 17.2461C30.8056 18.0336 31.428 18.9806 31.825 20.023C32.2034 21.0382 32.398 22.1096 32.4 23.1897C32.4 25.2846 31.9 27.014 30.9 28.3781C29.8954 29.7404 28.4927 30.776 26.875 31.3499C25.175 31.9589 23.3 32.1781 21.25 32.1781C20.65 32.1781 20.25 32.1781 20 32.1538C19.75 32.1294 19.4 32.1294 18.925 32.1294V39.9487C18.9306 39.9887 18.9278 40.0295 18.9169 40.0685C18.9061 40.1076 18.8872 40.1441 18.8616 40.1759C18.8359 40.2077 18.804 40.2341 18.7676 40.2537C18.7313 40.2732 18.6913 40.2855 18.65 40.2897H13.8C13.6 40.2897 13.5 40.1922 13.5 39.973ZM18.95 19.341V27.5256C19.3 27.5499 19.625 27.5743 19.925 27.5743H21.25C22.226 27.5754 23.1961 27.4275 24.125 27.1358C24.922 26.9075 25.634 26.4591 26.175 25.8448C26.7 25.2358 26.95 24.4076 26.95 23.3358C26.9735 22.5746 26.7741 21.8227 26.375 21.1679C25.9582 20.5354 25.3451 20.049 24.625 19.7794C23.6865 19.4213 22.6822 19.2554 21.675 19.2922C21.025 19.2922 20.45 19.2922 19.975 19.3166C19.6333 19.2948 19.2902 19.303 18.95 19.341V19.341Z" fill="#52525B"/>
<path d="M48 26.0397C47.2452 25.6523 46.4368 25.3733 45.6 25.2115C44.681 25.0087 43.7423 24.9025 42.8 24.8948C42.2941 24.8778 41.7884 24.9353 41.3 25.0653C40.9886 25.1285 40.7124 25.3021 40.525 25.5525C40.3987 25.7501 40.3296 25.9774 40.325 26.2102C40.3366 26.4419 40.4243 26.6639 40.575 26.8435C40.812 27.1143 41.1006 27.3377 41.425 27.5012C42 27.7935 42.6 28.0615 43.2 28.3051C44.5507 28.7481 45.843 29.345 47.05 30.0833C47.871 30.5863 48.5499 31.2813 49.025 32.1051C49.4267 32.8822 49.6243 33.7442 49.6 34.614C49.6203 35.7654 49.2802 36.8954 48.625 37.8538C47.9277 38.8262 46.9547 39.5795 45.825 40.0217C44.6 40.5333 43.1 40.8012 41.3 40.8012C40.1587 40.8057 39.0198 40.6996 37.9 40.4845C37.0183 40.3361 36.1608 40.074 35.35 39.7051C35.2628 39.6624 35.1904 39.5959 35.1415 39.5137C35.0926 39.4315 35.0695 39.3371 35.075 39.2422V35.0038C35.0728 34.9621 35.0808 34.9206 35.0981 34.8825C35.1155 34.8444 35.1418 34.8109 35.175 34.7845C35.2102 34.7645 35.2511 34.7561 35.2916 34.7605C35.3322 34.7649 35.3701 34.7819 35.4 34.8089C36.363 35.3621 37.409 35.7648 38.5 36.0025C39.4633 36.2467 40.4547 36.3695 41.45 36.3679C42.4 36.3679 43.075 36.2461 43.525 36.0269C43.7257 35.9365 43.8958 35.7923 44.0154 35.6111C44.1349 35.4299 44.199 35.2192 44.2 35.0038C44.2 34.6627 44 34.3461 43.6 34.0294C43.2 33.7127 42.375 33.3474 41.15 32.8845C39.8933 32.4531 38.6999 31.8635 37.6 31.1307C36.8166 30.5867 36.1676 29.8794 35.7 29.0602C35.301 28.2908 35.1035 27.4373 35.125 26.5756C35.1287 25.5362 35.4225 24.5173 35.975 23.6281C36.6101 22.6503 37.5217 21.872 38.6 21.3871C39.775 20.8025 41.25 20.5345 43.025 20.5345C44.0624 20.5348 45.0984 20.6081 46.125 20.7538C46.8631 20.8511 47.5856 21.0394 48.275 21.314C48.3849 21.352 48.4748 21.4308 48.525 21.5333C48.5538 21.6284 48.5706 21.7265 48.575 21.8256V25.7961C48.5754 25.8434 48.5643 25.8902 48.5426 25.9325C48.5208 25.9749 48.4891 26.0116 48.45 26.0397C48.3046 26.0906 48.1454 26.0906 48 26.0397Z" fill="#52525B"/>
</g>
<defs>
<clipPath id="clip0_105_190">
<rect width="60" height="57" fill="white"/>
</clipPath>
</defs>
</svg>
