<svg width="676" height="676" viewBox="0 0 676 676" fill="none" xmlns="http://www.w3.org/2000/svg">
<g clip-path="url(#clip0_102_382)">
<rect width="675.999" height="675.999" rx="150" fill="white"/>
<line x1="-141.811" y1="37.835" x2="774.656" y2="37.835" stroke="#B6B6B6" stroke-opacity="0.34" stroke-width="2.99999"/>
<line x1="-141.811" y1="78.835" x2="774.656" y2="78.835" stroke="#B6B6B6" stroke-opacity="0.34" stroke-width="2.99999"/>
<line x1="-141.811" y1="119.835" x2="774.656" y2="119.835" stroke="#B6B6B6" stroke-opacity="0.34" stroke-width="2.99999"/>
<line x1="-141.811" y1="160.835" x2="774.656" y2="160.835" stroke="#B6B6B6" stroke-opacity="0.34" stroke-width="2.99999"/>
<line x1="-141.811" y1="201.836" x2="774.656" y2="201.836" stroke="#B6B6B6" stroke-opacity="0.34" stroke-width="2.99999"/>
<line x1="-141.811" y1="242.836" x2="774.656" y2="242.836" stroke="#B6B6B6" stroke-opacity="0.34" stroke-width="2.99999"/>
<line x1="-141.811" y1="283.834" x2="774.656" y2="283.834" stroke="#B6B6B6" stroke-opacity="0.34" stroke-width="2.99999"/>
<line x1="-141.811" y1="324.834" x2="774.656" y2="324.834" stroke="#B6B6B6" stroke-opacity="0.34" stroke-width="2.99999"/>
<line x1="-141.811" y1="365.835" x2="774.656" y2="365.835" stroke="#B6B6B6" stroke-opacity="0.34" stroke-width="2.99999"/>
<line x1="-141.811" y1="406.835" x2="774.656" y2="406.835" stroke="#B6B6B6" stroke-opacity="0.34" stroke-width="2.99999"/>
<line x1="-141.811" y1="447.835" x2="774.656" y2="447.835" stroke="#B6B6B6" stroke-opacity="0.34" stroke-width="2.99999"/>
<line x1="-141.811" y1="488.834" x2="774.656" y2="488.834" stroke="#B6B6B6" stroke-opacity="0.34" stroke-width="2.99999"/>
<line x1="-141.811" y1="529.834" x2="774.656" y2="529.834" stroke="#B6B6B6" stroke-opacity="0.34" stroke-width="2.99999"/>
<line x1="-141.811" y1="570.834" x2="774.656" y2="570.834" stroke="#B6B6B6" stroke-opacity="0.34" stroke-width="2.99999"/>
<line x1="-141.811" y1="611.834" x2="774.656" y2="611.834" stroke="#B6B6B6" stroke-opacity="0.34" stroke-width="2.99999"/>
<line x1="-141.811" y1="652.834" x2="774.656" y2="652.834" stroke="#B6B6B6" stroke-opacity="0.34" stroke-width="2.99999"/>
<line x1="23.0374" y1="825.568" x2="23.0373" y2="-90.8987" stroke="#B6B6B6" stroke-opacity="0.34" stroke-width="2.99999"/>
<line x1="64.0374" y1="825.568" x2="64.0373" y2="-90.8987" stroke="#B6B6B6" stroke-opacity="0.34" stroke-width="2.99999"/>
<line x1="105.037" y1="825.568" x2="105.037" y2="-90.8987" stroke="#B6B6B6" stroke-opacity="0.34" stroke-width="2.99999"/>
<line x1="146.037" y1="825.568" x2="146.037" y2="-90.8987" stroke="#B6B6B6" stroke-opacity="0.34" stroke-width="2.99999"/>
<line x1="187.037" y1="825.568" x2="187.037" y2="-90.8987" stroke="#B6B6B6" stroke-opacity="0.34" stroke-width="2.99999"/>
<line x1="228.037" y1="825.568" x2="228.037" y2="-90.8987" stroke="#B6B6B6" stroke-opacity="0.34" stroke-width="2.99999"/>
<line x1="269.037" y1="825.568" x2="269.037" y2="-90.8987" stroke="#B6B6B6" stroke-opacity="0.34" stroke-width="2.99999"/>
<line x1="310.037" y1="825.568" x2="310.037" y2="-90.8987" stroke="#B6B6B6" stroke-opacity="0.34" stroke-width="2.99999"/>
<line x1="351.037" y1="825.568" x2="351.037" y2="-90.8987" stroke="#B6B6B6" stroke-opacity="0.34" stroke-width="2.99999"/>
<line x1="392.037" y1="825.568" x2="392.037" y2="-90.8987" stroke="#B6B6B6" stroke-opacity="0.34" stroke-width="2.99999"/>
<line x1="433.036" y1="825.568" x2="433.036" y2="-90.8987" stroke="#B6B6B6" stroke-opacity="0.34" stroke-width="2.99999"/>
<line x1="474.036" y1="825.568" x2="474.036" y2="-90.8987" stroke="#B6B6B6" stroke-opacity="0.34" stroke-width="2.99999"/>
<line x1="515.036" y1="825.568" x2="515.036" y2="-90.8987" stroke="#B6B6B6" stroke-opacity="0.34" stroke-width="2.99999"/>
<line x1="556.036" y1="825.568" x2="556.036" y2="-90.8987" stroke="#B6B6B6" stroke-opacity="0.34" stroke-width="2.99999"/>
<line x1="597.036" y1="825.568" x2="597.036" y2="-90.8987" stroke="#B6B6B6" stroke-opacity="0.34" stroke-width="2.99999"/>
<line x1="638.036" y1="825.568" x2="638.036" y2="-90.8987" stroke="#B6B6B6" stroke-opacity="0.34" stroke-width="2.99999"/>
<rect x="-94.9299" y="-165.426" width="255.214" height="1302.47" fill="#DAEEFD" stroke="#31A8FF" stroke-width="20"/>
<path fill-rule="evenodd" clip-rule="evenodd" d="M140.358 191.784V476.124C140.358 478.611 141.464 479.716 143.674 479.716H197.282C197.738 479.668 198.18 479.529 198.582 479.308C198.983 479.086 199.337 478.786 199.62 478.425C199.904 478.064 200.112 477.65 200.232 477.207C200.353 476.764 200.383 476.302 200.321 475.847V387.147C205.571 387.147 209.44 387.147 212.203 387.423C214.966 387.699 219.388 387.699 226.019 387.699C248.678 387.699 269.403 385.212 288.193 378.304C306.073 371.794 321.577 360.046 332.681 344.593C343.734 329.118 349.261 309.499 349.261 285.735C349.239 273.483 347.088 261.329 342.905 249.813C338.517 237.988 331.638 227.245 322.733 218.312C312.226 208.104 299.577 200.364 285.706 195.653C270.232 189.85 251.441 187.087 228.783 187.087H228.782C220.493 187.087 212.203 187.087 203.637 187.363C199.501 187.497 195.495 187.566 191.617 187.632C187.462 187.704 183.456 187.773 179.597 187.916C176.01 188.049 172.486 188.118 169.088 188.184C165.419 188.256 161.896 188.325 158.596 188.469C152.241 188.745 147.819 188.745 143.122 188.745H143.122C141.187 188.745 140.358 189.85 140.358 191.784ZM200.597 334.921V242.076C204.358 241.645 208.15 241.553 211.927 241.799C217.177 241.523 223.532 241.523 230.717 241.523C241.85 241.105 252.95 242.987 263.323 247.05C271.283 250.108 278.059 255.626 282.666 262.8C287.077 270.228 289.282 278.758 289.022 287.393C289.022 299.552 286.258 308.947 280.456 315.855C274.476 322.823 266.606 327.909 257.797 330.5C247.529 333.808 236.807 335.487 226.019 335.474H211.374C208.296 335.474 204.98 335.236 201.426 334.981C201.152 334.961 200.875 334.941 200.597 334.921ZM495.161 308.67C504.41 310.507 513.345 313.671 521.688 318.065C523.296 318.643 525.054 318.643 526.662 318.065C527.094 317.747 527.445 317.33 527.685 316.85C527.925 316.369 528.048 315.839 528.044 315.302V270.261C527.995 269.137 527.809 268.024 527.491 266.945C526.936 265.783 525.942 264.888 524.728 264.458C517.107 261.342 509.122 259.207 500.964 258.103C489.617 256.45 478.166 255.619 466.699 255.616C447.08 255.616 430.777 258.655 417.79 265.287C405.87 270.788 395.795 279.616 388.775 290.709C382.669 300.796 379.421 312.353 379.38 324.144C379.143 333.92 381.326 343.602 385.736 352.33C390.904 361.622 398.078 369.646 406.737 375.817C418.894 384.13 432.085 390.818 445.975 395.713C459.515 400.963 468.633 405.108 473.055 408.7C477.476 412.292 479.687 415.885 479.687 419.753C479.675 422.197 478.967 424.587 477.646 426.642C476.324 428.698 474.444 430.334 472.226 431.359C467.252 433.846 459.791 435.227 449.291 435.227C438.289 435.246 427.331 433.853 416.684 431.083C404.626 428.386 393.064 423.818 382.42 417.543C382.09 417.236 381.67 417.043 381.222 416.994C380.774 416.944 380.322 417.039 379.933 417.266C379.566 417.565 379.275 417.946 379.083 418.378C378.891 418.81 378.804 419.281 378.828 419.753V467.834C378.767 468.91 379.023 469.98 379.563 470.913C380.103 471.846 380.904 472.601 381.867 473.084C390.828 477.269 400.307 480.242 410.052 481.926C422.429 484.366 435.018 485.57 447.633 485.519C467.528 485.519 484.108 482.479 497.648 476.676C510.134 471.66 520.889 463.114 528.596 452.083C535.838 441.212 539.597 428.393 539.373 415.332C539.641 405.465 537.458 395.686 533.017 386.87C527.766 377.525 520.262 369.641 511.188 363.935C497.846 355.56 483.563 348.789 468.634 343.764C462.002 341 455.37 337.961 449.014 334.645C445.429 332.79 442.238 330.256 439.619 327.184C437.953 325.147 436.984 322.628 436.856 320C436.907 317.359 437.671 314.781 439.067 312.539C441.138 309.698 444.191 307.729 447.633 307.012C453.03 305.537 458.62 304.885 464.212 305.078C474.627 305.165 485.003 306.37 495.161 308.67Z" fill="#001E36"/>
</g>
<defs>
<clipPath id="clip0_102_382">
<rect width="675.999" height="675.999" rx="150" fill="white"/>
</clipPath>
</defs>
</svg>
