<svg width="60" height="57" viewBox="0 0 60 57" fill="none" xmlns="http://www.w3.org/2000/svg">
<g clip-path="url(#clip0_102_26)">
<path d="M49.375 1.25001L49.3762 1.25C50.6119 1.24887 51.835 1.48523 52.9753 1.94481C54.1155 2.40436 55.1494 3.07766 56.0186 3.92463C56.8878 4.77153 57.5753 5.77536 58.0433 6.87778C58.5113 7.98013 58.7512 9.16041 58.75 10.3514V10.3526V46.6474V46.6486C58.7512 47.8396 58.5113 49.0199 58.0433 50.1222C57.5753 51.2247 56.8878 52.2285 56.0186 53.0754C55.1494 53.9223 54.1155 54.5956 52.9753 55.0552C51.835 55.5148 50.6119 55.7511 49.3762 55.75H49.375H10.625H10.6239C9.38809 55.7511 8.16496 55.5148 7.02473 55.0552C5.88455 54.5956 4.85065 53.9223 3.98139 53.0754C3.11221 52.2285 2.42474 51.2247 1.95671 50.1222C1.48871 49.0199 1.24885 47.8396 1.25 46.6486V46.6474L1.25001 10.3526L1.25 10.3514C1.24885 9.16041 1.48871 7.98013 1.95671 6.87778C2.42474 5.77535 3.11221 4.77153 3.98139 3.92463C4.85065 3.07766 5.88455 2.40436 7.02473 1.94481C8.16496 1.48523 9.3881 1.24887 10.6239 1.25H10.625L49.375 1.25001Z" stroke="#D9D9D9" stroke-width="2.5"/>
<path d="M13.5 39.9731V14.9077C13.5 14.7372 13.575 14.6397 13.75 14.6397C14.175 14.6397 14.575 14.6397 15.15 14.6154C15.725 14.591 16.375 14.591 17.05 14.5667C17.725 14.5423 18.45 14.5423 19.225 14.5179C20 14.4936 20.75 14.4936 21.5 14.4936C23.55 14.4936 25.25 14.7372 26.65 15.2487C27.905 15.664 29.0494 16.3463 30 17.2462C30.8056 18.0336 31.428 18.9807 31.825 20.0231C32.2034 21.0382 32.398 22.1097 32.4 23.1897C32.4 25.2846 31.9 27.0141 30.9 28.3782C29.8954 29.7404 28.4927 30.7761 26.875 31.35C25.175 31.959 23.3 32.1782 21.25 32.1782C20.65 32.1782 20.25 32.1782 20 32.1538C19.75 32.1295 19.4 32.1295 18.925 32.1295V39.9487C18.9306 39.9888 18.9278 40.0296 18.9169 40.0686C18.9061 40.1076 18.8872 40.1441 18.8616 40.1759C18.8359 40.2077 18.804 40.2342 18.7676 40.2538C18.7313 40.2733 18.6913 40.2855 18.65 40.2897H13.8C13.6 40.2897 13.5 40.1923 13.5 39.9731ZM18.95 19.341V27.5256C19.3 27.55 19.625 27.5744 19.925 27.5744H21.25C22.226 27.5755 23.1961 27.4276 24.125 27.1359C24.922 26.9075 25.634 26.4591 26.175 25.8449C26.7 25.2359 26.95 24.4077 26.95 23.3359C26.9735 22.5747 26.7741 21.8227 26.375 21.168C25.9582 20.5355 25.3451 20.0491 24.625 19.7795C23.6865 19.4213 22.6822 19.2555 21.675 19.2923C21.025 19.2923 20.45 19.2923 19.975 19.3167C19.6333 19.2949 19.2902 19.3031 18.95 19.341V19.341Z" fill="#D9D9D9"/>
<path d="M48 26.0397C47.2452 25.6524 46.4368 25.3734 45.6 25.2115C44.681 25.0087 43.7423 24.9026 42.8 24.8949C42.2941 24.8779 41.7884 24.9353 41.3 25.0654C40.9886 25.1285 40.7124 25.3021 40.525 25.5526C40.3987 25.7502 40.3296 25.9775 40.325 26.2102C40.3366 26.442 40.4243 26.664 40.575 26.8436C40.812 27.1144 41.1006 27.3377 41.425 27.5013C42 27.7936 42.6 28.0615 43.2 28.3051C44.5507 28.7482 45.843 29.345 47.05 30.0833C47.871 30.5863 48.5499 31.2813 49.025 32.1051C49.4267 32.8822 49.6243 33.7443 49.6 34.6141C49.6203 35.7654 49.2802 36.8955 48.625 37.8538C47.9277 38.8262 46.9547 39.5796 45.825 40.0218C44.6 40.5333 43.1 40.8013 41.3 40.8013C40.1587 40.8058 39.0198 40.6997 37.9 40.4846C37.0183 40.3361 36.1608 40.074 35.35 39.7051C35.2628 39.6625 35.1904 39.596 35.1415 39.5138C35.0926 39.4315 35.0695 39.3372 35.075 39.2423V35.0038C35.0728 34.9622 35.0808 34.9207 35.0981 34.8826C35.1155 34.8445 35.1418 34.8109 35.175 34.7846C35.2102 34.7646 35.2511 34.7562 35.2916 34.7606C35.3322 34.765 35.3701 34.7819 35.4 34.809C36.363 35.3621 37.409 35.7649 38.5 36.0026C39.4633 36.2468 40.4547 36.3696 41.45 36.3679C42.4 36.3679 43.075 36.2461 43.525 36.0269C43.7257 35.9366 43.8958 35.7923 44.0154 35.6111C44.1349 35.4299 44.199 35.2193 44.2 35.0038C44.2 34.6628 44 34.3461 43.6 34.0295C43.2 33.7128 42.375 33.3474 41.15 32.8846C39.8933 32.4531 38.6999 31.8635 37.6 31.1308C36.8166 30.5867 36.1676 29.8794 35.7 29.0602C35.301 28.2909 35.1035 27.4374 35.125 26.5756C35.1287 25.5362 35.4225 24.5174 35.975 23.6282C36.6101 22.6503 37.5217 21.8721 38.6 21.3872C39.775 20.8026 41.25 20.5346 43.025 20.5346C44.0624 20.5349 45.0984 20.6082 46.125 20.7538C46.8631 20.8512 47.5856 21.0394 48.275 21.3141C48.3849 21.352 48.4748 21.4309 48.525 21.5333C48.5538 21.6284 48.5706 21.7266 48.575 21.8256V25.7961C48.5754 25.8435 48.5643 25.8902 48.5426 25.9326C48.5208 25.9749 48.4891 26.0116 48.45 26.0397C48.3046 26.0907 48.1454 26.0907 48 26.0397Z" fill="#D9D9D9"/>
</g>
<defs>
<clipPath id="clip0_102_26">
<rect width="60" height="57" fill="white"/>
</clipPath>
</defs>
</svg>
