<svg width="463" height="967" viewBox="0 0 463 967" fill="none" xmlns="http://www.w3.org/2000/svg">
<path d="M410.133 122.864L401.407 122.864C401.376 115.526 395.416 109.579 388.069 109.579C380.722 109.579 374.758 115.521 374.727 122.864L366.001 122.864C366.032 110.703 375.894 100.858 388.065 100.858C400.235 100.858 410.093 110.703 410.124 122.864L410.133 122.864Z" fill="white"/>
<path d="M462.996 122.864L454.27 122.864C454.239 115.526 448.28 109.579 440.932 109.579C433.585 109.579 427.621 115.521 427.59 122.864L418.864 122.864C418.895 110.703 428.757 100.858 440.928 100.858C453.098 100.858 462.956 110.703 462.987 122.864L462.996 122.864Z" fill="white"/>
<path fill-rule="evenodd" clip-rule="evenodd" d="M462.906 48H366V92.0482H462.906V48ZM454.096 56.8096H374.81V83.2385H454.096V56.8096Z" fill="white"/>
<path d="M462.988 393.418H427.199V400.505H462.988V393.418Z" fill="white"/>
<path d="M462.984 386.111C462.988 386.064 462.988 386.021 462.988 385.975V386.111H462.984Z" fill="white"/>
<path d="M462.988 385.975C462.988 386.021 462.988 386.064 462.984 386.111H456.145C456.152 386.036 456.152 385.96 456.152 385.885C456.152 383.273 455.215 380.878 453.651 379.025C451.697 376.698 448.766 375.22 445.487 375.22C442.209 375.22 439.278 376.698 437.324 379.025C435.76 380.878 434.822 383.273 434.822 385.885C434.822 385.96 434.822 386.036 434.83 386.111H427.203C427.203 386.064 427.203 386.021 427.203 385.975C427.203 383.509 427.701 381.161 428.602 379.025C431.315 372.593 437.682 368.081 445.097 368.081C452.513 368.081 458.879 372.593 461.592 379.025C462.494 381.161 462.991 383.509 462.991 385.975H462.988Z" fill="white"/>
<path d="M462.988 407.591V407.68C462.988 410.164 462.483 412.53 461.567 414.677H428.62C427.704 412.53 427.199 410.164 427.199 407.68V407.591H462.988Z" fill="white"/>
<path d="M420.03 357.039V357H384.052V357.039H384.012V368.105C383.973 368.102 383.934 368.102 383.894 368.102C381.428 368.102 379.081 368.599 376.944 369.501C370.513 372.214 366 378.577 366 385.996C366 393.415 370.513 399.778 376.944 402.491C379.081 403.392 381.428 403.89 383.894 403.89C383.934 403.89 383.973 403.89 384.012 403.886V396.26C383.944 396.267 383.873 396.267 383.805 396.267C381.192 396.267 378.798 395.329 376.944 393.765C374.618 391.811 373.14 388.88 373.14 385.602C373.14 382.324 374.618 379.393 376.944 377.439C378.798 375.875 381.192 374.937 383.805 374.937C383.873 374.937 383.944 374.937 384.012 374.944V396.26H384.03V403.886H384.012V414.63H384.052V414.676H420.03V414.63H420.069V357.039H420.03ZM391.367 364.355H412.715V385.836V407.318H391.367V364.355Z" fill="white"/>
<path d="M380.397 635C380.397 638.731 379.005 642.132 376.715 644.702C376.509 644.929 376.304 645.152 376.084 645.365C373.597 647.827 370.226 649.376 366.496 649.482V683.397C370.226 683.503 373.597 685.052 376.084 687.515C376.342 687.766 376.586 688.027 376.815 688.298C379.048 690.853 380.397 694.206 380.397 697.879C380.397 697.918 380.397 697.961 380.397 698H462.496V635H380.402H380.397ZM452.904 688.298H433.729V668.711H424.141V688.298H388.268C385.896 682.758 381.53 678.292 376.084 675.834V657.045C381.492 654.606 385.834 650.189 388.215 644.702H424.141V659.435H433.729V644.702H452.904V688.298Z" fill="white"/>
<path d="M462.197 897.179C462.247 897.179 462.292 897.179 462.342 897.182V904.448C462.262 904.44 462.182 904.44 462.102 904.44C459.327 904.44 456.783 905.436 454.814 907.098C452.343 909.174 450.772 912.288 450.772 915.77C450.772 919.253 452.343 922.367 454.814 924.442C456.783 926.104 459.327 927.1 462.102 927.1C462.182 927.1 462.262 927.1 462.342 927.092V935.194C462.292 935.194 462.247 935.194 462.197 935.194C459.578 935.194 457.084 934.666 454.814 933.708C447.982 930.826 443.188 924.062 443.188 916.185C443.188 908.307 447.982 901.543 454.814 898.661C457.084 897.703 459.578 897.175 462.197 897.175V897.179Z" fill="white"/>
<path d="M435.494 897V916.143C435.494 926.667 426.963 935.198 416.439 935.198C410.132 935.198 404.539 932.134 401.075 927.416C397.608 932.134 392.019 935.198 385.712 935.198C375.222 935.198 366.717 926.731 366.652 916.261V897.133H374.085V916.143C374.085 922.454 379.203 927.575 385.518 927.575C391.833 927.575 396.954 922.454 396.954 916.143V897H404.809V916.143H404.767C404.767 916.706 404.744 917.261 404.691 917.812H404.809V916.143H404.813C404.813 922.454 409.93 927.575 416.245 927.575C422.56 927.575 427.681 922.454 427.681 916.143H427.666V897H435.494Z" fill="white"/>
<path d="M125.602 169.96L105.792 169.96C105.722 153.3 92.1916 139.8 75.5116 139.8C58.8316 139.8 45.2916 153.29 45.2216 169.96L25.4116 169.96C25.4816 142.35 47.8716 120 75.5016 120C103.132 120 125.512 142.35 125.582 169.96L125.602 169.96Z" fill="white"/>
<path d="M245.602 169.96L225.792 169.96C225.722 153.3 212.192 139.8 195.512 139.8C178.832 139.8 165.292 153.29 165.222 169.96L145.412 169.96C145.482 142.35 167.872 120 195.502 120C223.132 120 245.512 142.35 245.582 169.96L245.602 169.96Z" fill="white"/>
<path fill-rule="evenodd" clip-rule="evenodd" d="M245.41 0H25.4102V100H245.41V0ZM225.41 20H45.4102V80H225.41V20Z" fill="white"/>
<path d="M271 406.761H171V426.561H271V406.761Z" fill="white"/>
<path d="M270.988 386.341C270.998 386.211 270.998 386.091 270.998 385.961V386.341H270.988Z" fill="white"/>
<path d="M271.002 385.961C271.002 386.091 271.002 386.211 270.992 386.341H251.882C251.902 386.131 251.902 385.921 251.902 385.711C251.902 378.411 249.282 371.721 244.912 366.541C239.452 360.041 231.262 355.911 222.102 355.911C212.942 355.911 204.752 360.041 199.292 366.541C194.922 371.721 192.302 378.411 192.302 385.711C192.302 385.921 192.302 386.131 192.322 386.341H171.012C171.012 386.211 171.012 386.091 171.012 385.961C171.012 379.071 172.402 372.511 174.922 366.541C182.502 348.571 200.292 335.961 221.012 335.961C241.732 335.961 259.522 348.571 267.102 366.541C269.622 372.511 271.012 379.071 271.012 385.961H271.002Z" fill="white"/>
<path d="M271 446.361V446.611C271 453.551 269.59 460.161 267.03 466.161H174.97C172.41 460.161 171 453.551 171 446.611V446.361H271Z" fill="white"/>
<path d="M150.97 305.11V305H50.44V305.11H50.33V336.03C50.22 336.02 50.11 336.02 50 336.02C43.11 336.02 36.55 337.41 30.58 339.93C12.61 347.51 0 365.29 0 386.02C0 406.75 12.61 424.53 30.58 432.11C36.55 434.63 43.11 436.02 50 436.02C50.11 436.02 50.22 436.02 50.33 436.01V414.7C50.14 414.72 49.94 414.72 49.75 414.72C42.45 414.72 35.76 412.1 30.58 407.73C24.08 402.27 19.95 394.08 19.95 384.92C19.95 375.76 24.08 367.57 30.58 362.11C35.76 357.74 42.45 355.12 49.75 355.12C49.94 355.12 50.14 355.12 50.33 355.14V414.7H50.38V436.01H50.33V466.03H50.44V466.16H150.97V466.03H151.08V305.11H150.97ZM70.88 325.55H130.53V385.575V445.6H70.88V325.55Z" fill="white"/>
<path d="M64.195 601.121C64.195 608.831 61.285 615.861 56.495 621.171C56.065 621.641 55.635 622.101 55.175 622.541C49.975 627.631 42.925 630.831 35.125 631.051V701.141C42.925 701.361 49.975 704.561 55.175 709.651C55.715 710.171 56.225 710.711 56.705 711.271C61.375 716.551 64.195 723.481 64.195 731.071C64.195 731.151 64.195 731.241 64.195 731.321H235.885V601.121H64.205H64.195ZM215.825 711.271H175.725V670.791H155.675V711.271H80.655C75.695 699.821 66.565 690.591 55.175 685.511V646.681C66.485 641.641 75.565 632.511 80.545 621.171H155.675V651.621H175.725V621.171H215.825V711.271Z" fill="white"/>
<path d="M260.969 866.47C261.099 866.47 261.219 866.47 261.349 866.48V885.59C261.139 885.57 260.929 885.57 260.719 885.57C253.419 885.57 246.729 888.19 241.549 892.56C235.049 898.02 230.919 906.21 230.919 915.37C230.919 924.53 235.049 932.72 241.549 938.18C246.729 942.55 253.419 945.17 260.719 945.17C260.929 945.17 261.139 945.17 261.349 945.15V966.46C261.219 966.46 261.099 966.46 260.969 966.46C254.079 966.46 247.519 965.07 241.549 962.55C223.579 954.97 210.969 937.18 210.969 916.46C210.969 895.74 223.579 877.95 241.549 870.37C247.519 867.85 254.079 866.46 260.969 866.46V866.47Z" fill="white"/>
<path d="M190.73 866V916.35C190.73 944.03 168.29 966.47 140.61 966.47C124.02 966.47 109.31 958.41 100.2 946C91.0802 958.41 76.3802 966.47 59.7902 966.47C32.2002 966.47 9.83016 944.2 9.66016 916.66V866.35H29.2101V916.35C29.2101 932.95 42.6702 946.42 59.2802 946.42C75.8902 946.42 89.3602 932.95 89.3602 916.35V866H110.02V916.35H109.91C109.91 917.83 109.85 919.29 109.71 920.74H110.02V916.35H110.03C110.03 932.95 123.49 946.42 140.1 946.42C156.71 946.42 170.18 932.95 170.18 916.35H170.14V866H190.73Z" fill="white"/>
</svg>
