<svg width="1349" height="170" viewBox="0 0 1349 170" fill="none" xmlns="http://www.w3.org/2000/svg">
<path d="M100.191 169.96L80.3814 169.96C80.3114 153.3 66.7814 139.8 50.1014 139.8C33.4214 139.8 19.8814 153.29 19.8114 169.96L0.00140381 169.96C0.0714062 142.35 22.4614 120 50.0914 120C77.7214 120 100.101 142.35 100.171 169.96L100.191 169.96Z" fill="white"/>
<path d="M220.191 169.96L200.381 169.96C200.311 153.3 186.781 139.8 170.101 139.8C153.421 139.8 139.881 153.29 139.811 169.96L120.001 169.96C120.071 142.35 142.461 120 170.091 120C197.721 120 220.101 142.35 220.171 169.96L220.191 169.96Z" fill="white"/>
<path fill-rule="evenodd" clip-rule="evenodd" d="M220 0H0V100H220V0ZM200 20H20V80H200V20Z" fill="white"/>
<path d="M626.191 106.16H526.191V125.96H626.191V106.16Z" fill="white"/>
<path d="M626.18 85.7403C626.19 85.6103 626.19 85.4904 626.19 85.3604V85.7403H626.18Z" fill="white"/>
<path d="M626.193 85.3604C626.193 85.4904 626.193 85.6103 626.183 85.7403H607.073C607.093 85.5303 607.093 85.3204 607.093 85.1104C607.093 77.8104 604.473 71.1204 600.103 65.9404C594.643 59.4404 586.453 55.3104 577.293 55.3104C568.133 55.3104 559.943 59.4404 554.483 65.9404C550.113 71.1204 547.493 77.8104 547.493 85.1104C547.493 85.3204 547.493 85.5303 547.513 85.7403H526.203C526.203 85.6103 526.203 85.4904 526.203 85.3604C526.203 78.4704 527.593 71.9104 530.113 65.9404C537.693 47.9704 555.483 35.3604 576.203 35.3604C596.923 35.3604 614.713 47.9704 622.293 65.9404C624.813 71.9104 626.203 78.4704 626.203 85.3604H626.193Z" fill="white"/>
<path d="M626.191 145.76V146.01C626.191 152.95 624.781 159.56 622.221 165.56H530.161C527.601 159.56 526.191 152.95 526.191 146.01V145.76H626.191Z" fill="white"/>
<path d="M506.161 4.50941V4.39941H405.631V4.50941H405.521V35.4294C405.411 35.4194 405.301 35.4194 405.191 35.4194C398.301 35.4194 391.741 36.8094 385.771 39.3294C367.801 46.9094 355.191 64.6894 355.191 85.4194C355.191 106.149 367.801 123.929 385.771 131.509C391.741 134.029 398.301 135.419 405.191 135.419C405.301 135.419 405.411 135.419 405.521 135.409V114.099C405.331 114.119 405.131 114.119 404.941 114.119C397.641 114.119 390.951 111.499 385.771 107.129C379.271 101.669 375.141 93.4794 375.141 84.3194C375.141 75.1594 379.271 66.9694 385.771 61.5094C390.951 57.1394 397.641 54.5194 404.941 54.5194C405.131 54.5194 405.331 54.5194 405.521 54.5394V114.099H405.571V135.409H405.521V165.429H405.631V165.559H506.161V165.429H506.271V4.50941H506.161ZM426.071 24.9494H485.721V84.9744V144.999H426.071V24.9494Z" fill="white"/>
<path d="M790.269 19.8799C790.269 27.5899 787.359 34.6199 782.569 39.9299C782.139 40.3999 781.709 40.8599 781.249 41.2999C776.049 46.3899 768.999 49.5899 761.199 49.8099V119.9C768.999 120.12 776.049 123.32 781.249 128.41C781.789 128.93 782.299 129.47 782.779 130.03C787.449 135.31 790.269 142.24 790.269 149.83C790.269 149.91 790.269 150 790.269 150.08H961.959V19.8799H790.279H790.269ZM941.899 130.03H901.799V89.5499H881.749V130.03H806.729C801.769 118.58 792.639 109.35 781.249 104.27V65.4399C792.559 60.3999 801.639 51.2699 806.619 39.9299H881.749V70.3799H901.799V39.9299H941.899V130.03Z" fill="white"/>
<path d="M1348.27 35.2151C1348.4 35.2151 1348.52 35.2151 1348.65 35.2251V54.3351C1348.44 54.3151 1348.23 54.3151 1348.02 54.3151C1340.72 54.3151 1334.03 56.9351 1328.85 61.3051C1322.35 66.7651 1318.22 74.9551 1318.22 84.1151C1318.22 93.2751 1322.35 101.465 1328.85 106.925C1334.03 111.295 1340.72 113.915 1348.02 113.915C1348.23 113.915 1348.44 113.915 1348.65 113.895V135.205C1348.52 135.205 1348.4 135.205 1348.27 135.205C1341.38 135.205 1334.82 133.815 1328.85 131.295C1310.88 123.715 1298.27 105.925 1298.27 85.2051C1298.27 64.4851 1310.88 46.6951 1328.85 39.1151C1334.82 36.5951 1341.38 35.2051 1348.27 35.2051V35.2151Z" fill="white"/>
<path d="M1278.03 34.7451V85.0951C1278.03 112.775 1255.59 135.215 1227.91 135.215C1211.32 135.215 1196.61 127.155 1187.5 114.745C1178.38 127.155 1163.68 135.215 1147.09 135.215C1119.5 135.215 1097.13 112.945 1096.96 85.4051V35.0951H1116.51V85.0951C1116.51 101.695 1129.97 115.165 1146.58 115.165C1163.19 115.165 1176.66 101.695 1176.66 85.0951V34.7451H1197.32V85.0951H1197.21C1197.21 86.5751 1197.15 88.0351 1197.01 89.4851H1197.32V85.0951H1197.33C1197.33 101.695 1210.79 115.165 1227.4 115.165C1244.01 115.165 1257.48 101.695 1257.48 85.0951H1257.44V34.7451H1278.03Z" fill="white"/>
</svg>
