<svg width="272" height="967" viewBox="0 0 272 967" fill="none" xmlns="http://www.w3.org/2000/svg">
<path d="M125.602 169.96L105.792 169.96C105.722 153.3 92.1916 139.8 75.5116 139.8C58.8316 139.8 45.2916 153.29 45.2216 169.96L25.4116 169.96C25.4816 142.35 47.8716 120 75.5016 120C103.132 120 125.512 142.35 125.582 169.96L125.602 169.96Z" fill="white"/>
<path d="M245.602 169.96L225.792 169.96C225.722 153.3 212.192 139.8 195.512 139.8C178.832 139.8 165.292 153.29 165.222 169.96L145.412 169.96C145.482 142.35 167.872 120 195.502 120C223.132 120 245.512 142.35 245.582 169.96L245.602 169.96Z" fill="white"/>
<path fill-rule="evenodd" clip-rule="evenodd" d="M245.41 0H25.4102V100H245.41V0ZM225.41 20H45.4102V80H225.41V20Z" fill="white"/>
<path d="M271 406.721H171V426.521H271V406.721Z" fill="white"/>
<path d="M270.988 386.301C270.998 386.171 270.998 386.051 270.998 385.921V386.301H270.988Z" fill="white"/>
<path d="M271.002 385.921C271.002 386.051 271.002 386.171 270.992 386.301H251.882C251.902 386.091 251.902 385.881 251.902 385.671C251.902 378.371 249.282 371.681 244.912 366.501C239.452 360.001 231.262 355.871 222.102 355.871C212.942 355.871 204.752 360.001 199.292 366.501C194.922 371.681 192.302 378.371 192.302 385.671C192.302 385.881 192.302 386.091 192.322 386.301H171.012C171.012 386.171 171.012 386.051 171.012 385.921C171.012 379.031 172.402 372.471 174.922 366.501C182.502 348.531 200.292 335.921 221.012 335.921C241.732 335.921 259.522 348.531 267.102 366.501C269.622 372.471 271.012 379.031 271.012 385.921H271.002Z" fill="white"/>
<path d="M271 446.321V446.571C271 453.511 269.59 460.121 267.03 466.121H174.97C172.41 460.121 171 453.511 171 446.571V446.321H271Z" fill="white"/>
<path d="M150.97 305.07V304.96H50.44V305.07H50.33V335.99C50.22 335.98 50.11 335.98 50 335.98C43.11 335.98 36.55 337.37 30.58 339.89C12.61 347.47 0 365.25 0 385.98C0 406.71 12.61 424.49 30.58 432.07C36.55 434.59 43.11 435.98 50 435.98C50.11 435.98 50.22 435.98 50.33 435.97V414.66C50.14 414.68 49.94 414.68 49.75 414.68C42.45 414.68 35.76 412.06 30.58 407.69C24.08 402.23 19.95 394.04 19.95 384.88C19.95 375.72 24.08 367.53 30.58 362.07C35.76 357.7 42.45 355.08 49.75 355.08C49.94 355.08 50.14 355.08 50.33 355.1V414.66H50.38V435.97H50.33V465.99H50.44V466.12H150.97V465.99H151.08V305.07H150.97ZM70.88 325.51H130.53V385.535V445.56H70.88V325.51Z" fill="white"/>
<path d="M64.195 601.121C64.195 608.831 61.285 615.861 56.495 621.171C56.065 621.641 55.635 622.101 55.175 622.541C49.975 627.631 42.925 630.831 35.125 631.051V701.141C42.925 701.361 49.975 704.561 55.175 709.651C55.715 710.171 56.225 710.711 56.705 711.271C61.375 716.551 64.195 723.481 64.195 731.071C64.195 731.151 64.195 731.241 64.195 731.321H235.885V601.121H64.205H64.195ZM215.825 711.271H175.725V670.791H155.675V711.271H80.655C75.695 699.821 66.565 690.591 55.175 685.511V646.681C66.485 641.641 75.565 632.511 80.545 621.171H155.675V651.621H175.725V621.171H215.825V711.271Z" fill="white"/>
<path d="M260.969 866.791C261.099 866.791 261.219 866.791 261.349 866.801V885.911C261.139 885.891 260.929 885.891 260.719 885.891C253.419 885.891 246.729 888.511 241.549 892.881C235.049 898.341 230.919 906.531 230.919 915.691C230.919 924.851 235.049 933.041 241.549 938.501C246.729 942.871 253.419 945.491 260.719 945.491C260.929 945.491 261.139 945.491 261.349 945.471V966.781C261.219 966.781 261.099 966.781 260.969 966.781C254.079 966.781 247.519 965.391 241.549 962.871C223.579 955.291 210.969 937.501 210.969 916.781C210.969 896.061 223.579 878.271 241.549 870.691C247.519 868.171 254.079 866.781 260.969 866.781V866.791Z" fill="white"/>
<path d="M190.73 866.321V916.671C190.73 944.351 168.29 966.791 140.61 966.791C124.02 966.791 109.31 958.731 100.2 946.321C91.0802 958.731 76.3802 966.791 59.7902 966.791C32.2002 966.791 9.83016 944.521 9.66016 916.981V866.671H29.2101V916.671C29.2101 933.271 42.6702 946.741 59.2802 946.741C75.8902 946.741 89.3602 933.271 89.3602 916.671V866.321H110.02V916.671H109.91C109.91 918.151 109.85 919.611 109.71 921.061H110.02V916.671H110.03C110.03 933.271 123.49 946.741 140.1 946.741C156.71 946.741 170.18 933.271 170.18 916.671H170.14V866.321H190.73Z" fill="white"/>
</svg>
