<svg width="1077" height="147" viewBox="0 0 1077 147" fill="none" xmlns="http://www.w3.org/2000/svg">
<path d="M0.71875 3.08203H58.043C86.9492 3.08203 106.871 22.3203 106.871 51.3242C106.871 80.2305 86.2656 99.5664 56.5781 99.5664H30.2109V144H0.71875V3.08203ZM30.2109 26.4219V76.5195H50.1328C67.0273 76.5195 76.8906 67.5352 76.8906 51.4219C76.8906 35.4062 67.125 26.4219 50.2305 26.4219H30.2109ZM187.926 0.640625C229.625 0.640625 255.895 28.668 255.895 73.5898C255.895 118.414 229.625 146.441 187.926 146.441C146.129 146.441 119.957 118.414 119.957 73.5898C119.957 28.668 146.129 0.640625 187.926 0.640625ZM187.926 25.25C164.879 25.25 150.035 44 150.035 73.5898C150.035 103.082 164.781 121.734 187.926 121.734C210.973 121.734 225.719 103.082 225.719 73.5898C225.719 44 210.973 25.25 187.926 25.25ZM304.43 26.1289V71.0508H329.82C344.664 71.0508 353.355 62.5547 353.355 48.5898C353.355 34.918 344.176 26.1289 329.527 26.1289H304.43ZM304.43 92.4375V144H274.938V3.08203H332.652C365.074 3.08203 383.629 20.1719 383.629 48.0039C383.629 66.0703 374.254 81.6953 358.043 88.043L387.73 144H354.332L328.062 92.4375H304.43ZM466.246 144H436.754V27.3984H396.031V3.08203H507.066V27.3984H466.246V144ZM552.867 144H523.375V3.08203H615.66V27.3984H552.867V65.1914H610.191V88.5312H552.867V144ZM696.715 0.640625C738.414 0.640625 764.684 28.668 764.684 73.5898C764.684 118.414 738.414 146.441 696.715 146.441C654.918 146.441 628.746 118.414 628.746 73.5898C628.746 28.668 654.918 0.640625 696.715 0.640625ZM696.715 25.25C673.668 25.25 658.824 44 658.824 73.5898C658.824 103.082 673.57 121.734 696.715 121.734C719.762 121.734 734.508 103.082 734.508 73.5898C734.508 44 719.762 25.25 696.715 25.25ZM874.84 119.586V144H783.727V3.08203H813.219V119.586H874.84ZM921.812 144H892.32V3.08203H921.812V144ZM1008.82 0.640625C1050.52 0.640625 1076.79 28.668 1076.79 73.5898C1076.79 118.414 1050.52 146.441 1008.82 146.441C967.027 146.441 940.855 118.414 940.855 73.5898C940.855 28.668 967.027 0.640625 1008.82 0.640625ZM1008.82 25.25C985.777 25.25 970.934 44 970.934 73.5898C970.934 103.082 985.68 121.734 1008.82 121.734C1031.87 121.734 1046.62 103.082 1046.62 73.5898C1046.62 44 1031.87 25.25 1008.82 25.25Z" fill="black"/>
</svg>
