<svg width="892" height="234" viewBox="0 0 892 234" fill="none" xmlns="http://www.w3.org/2000/svg">
<path d="M35.0343 114.724H35.0226C28.1507 114.666 21.5804 111.893 16.7446 107.01C11.9089 102.127 9.20011 95.5306 9.20901 88.6584C9.2179 81.7863 11.9438 75.1964 16.7921 70.3261C21.6405 65.4558 28.2179 62.7001 35.09 62.6602H35.1583C42.0005 62.7464 48.5292 65.5428 53.3125 70.436C58.0958 75.3292 60.7432 81.9198 60.674 88.7622V97.9731C60.6722 99.1846 60.1897 100.346 59.3324 101.202C58.4751 102.058 57.3132 102.539 56.1017 102.539C54.8902 102.539 53.7283 102.058 52.871 101.202C52.0137 100.346 51.5312 99.1846 51.5294 97.9731V88.7505C51.5974 84.3306 49.9096 80.0643 46.8361 76.8873C43.7626 73.7103 39.5545 71.8821 35.1349 71.8037H35.0909C30.6419 71.8436 26.3884 73.6374 23.2544 76.7954C20.1204 79.9534 18.3591 84.2205 18.3532 88.6697C18.3473 93.1188 20.0972 97.3906 23.2228 100.557C26.3484 103.723 30.5971 105.528 35.0459 105.58C36.2571 105.584 37.4174 106.068 38.2721 106.926C39.1267 107.784 39.6059 108.946 39.6043 110.158C39.6028 111.369 39.1206 112.53 38.2638 113.386C37.407 114.242 36.2455 114.723 35.0343 114.724Z" fill="white"/>
<path d="M75.8351 102.544C75.2346 102.544 74.6401 102.426 74.0854 102.197C73.5307 101.967 73.0266 101.63 72.602 101.206C72.1775 100.781 71.8407 100.277 71.6109 99.7223C71.3811 99.1676 71.2628 98.5731 71.2628 97.9726V27.9687C71.3102 23.2016 69.483 18.6067 66.1749 15.1738C64.57 13.5054 62.6446 12.1785 60.5142 11.2725C58.3839 10.3666 56.0924 9.90037 53.7774 9.90182C50.2316 9.92876 46.7724 11.0007 43.8326 12.9835C40.8928 14.9664 38.603 17.772 37.2496 21.0496C35.8962 24.3271 35.5393 27.931 36.2236 31.4103C36.9079 34.8896 38.603 38.0899 41.0968 40.6108C42.7372 42.2863 44.6952 43.6181 46.8561 44.5284C49.0171 45.4387 51.3378 45.9093 53.6827 45.9126C54.8939 45.9161 56.0542 46.4002 56.9088 47.2584C57.7635 48.1167 58.2426 49.279 58.2411 50.4902C58.2395 51.7014 57.7574 52.8625 56.9006 53.7186C56.0437 54.5746 54.8822 55.0557 53.671 55.0561H53.6593C50.1075 55.0534 46.592 54.3428 43.3179 52.966C40.0439 51.5891 37.0771 49.5736 34.5909 47.0371C29.5435 41.9239 26.7217 35.0229 26.7403 27.8382C26.759 20.6534 29.6166 13.7672 34.6905 8.68021C37.1812 6.16465 40.1469 4.16894 43.4152 2.80894C46.6836 1.44894 50.1896 0.751755 53.7296 0.757852L53.8009 0.758333C57.3379 0.755934 60.8389 1.46802 64.0939 2.85187C67.3489 4.23572 70.2909 6.26283 72.7433 8.81156C77.7108 13.9505 80.4628 20.8338 80.4073 27.981V97.9727C80.4073 98.5731 80.289 99.1676 80.0592 99.7223C79.8294 100.277 79.4926 100.781 79.0681 101.206C78.6435 101.63 78.1394 101.967 77.5847 102.197C77.03 102.426 76.4355 102.544 75.8351 102.544Z" fill="white"/>
<path d="M95.558 102.543C94.9575 102.544 94.363 102.425 93.8083 102.196C93.2536 101.966 92.7495 101.629 92.3249 101.205C91.9004 100.78 91.5636 100.276 91.3338 99.7214C91.104 99.1667 90.9857 98.5721 90.9857 97.9717V60.9029C90.9153 53.7691 93.6767 46.8986 98.6642 41.7977C103.652 36.6968 110.459 33.7818 117.592 33.6919L117.663 33.6914C121.203 33.6853 124.709 34.3826 127.978 35.7427C131.246 37.1027 134.212 39.0986 136.702 41.6143C141.776 46.7012 144.634 53.5873 144.653 60.772C144.671 67.9567 141.849 74.8576 136.802 79.9707C134.316 82.5072 131.349 84.5227 128.075 85.8995C124.801 87.2764 121.285 87.987 117.734 87.9897H117.722C116.511 87.9893 115.349 87.5082 114.492 86.6522C113.636 85.7961 113.154 84.635 113.152 83.4238C113.15 82.2126 113.63 81.0503 114.484 80.192C115.339 79.3338 116.499 78.8497 117.71 78.8462C120.055 78.8429 122.376 78.3723 124.537 77.462C126.698 76.5517 128.656 75.2199 130.296 73.5444C133.647 70.1485 135.521 65.566 135.508 60.7951C135.496 56.0243 133.599 51.4516 130.23 48.0732C128.586 46.4114 126.629 45.0927 124.472 44.1935C122.314 43.2944 120 42.8327 117.662 42.8354H117.616C112.905 42.9174 108.418 44.8642 105.141 48.2488C101.863 51.6335 100.061 56.1799 100.13 60.8911V97.9717C100.13 98.5721 100.012 99.1666 99.7822 99.7213C99.5524 100.276 99.2156 100.78 98.791 101.205C98.3664 101.629 97.8624 101.966 97.3076 102.196C96.7529 102.425 96.1584 102.544 95.558 102.543Z" fill="white"/>
<path d="M141.628 233.279C139.994 233.281 138.39 232.84 136.986 232.004C135.581 231.168 134.429 229.968 133.652 228.53L84.8674 138.426C82.6633 134.608 79.3616 132.418 75.7991 132.412C72.2659 132.418 68.9651 134.609 66.76 138.427L17.9768 228.53C16.8325 230.644 14.8956 232.216 12.592 232.901C10.2885 233.587 7.80705 233.329 5.69361 232.185C3.58016 231.04 2.00784 229.103 1.32253 226.8C0.637216 224.496 0.895046 222.015 2.03931 219.901L50.8762 129.699C50.9085 129.641 50.9407 129.582 50.9739 129.524C56.4055 120.001 65.6858 114.306 75.8001 114.289C85.9426 114.306 95.2229 120.001 100.655 129.524C100.688 129.582 100.72 129.641 100.752 129.699L149.589 219.901C150.336 221.281 150.711 222.831 150.679 224.4C150.647 225.968 150.208 227.502 149.406 228.85C148.604 230.198 147.465 231.315 146.102 232.092C144.739 232.868 143.197 233.277 141.628 233.279Z" fill="white"/>
<path d="M270.812 136.814C270.812 146.03 264.368 153.533 251.237 153.533H237.128V176.288H225.873V120.91H251.481C264.612 120.91 270.812 127.516 270.812 136.814ZM259.638 137.059C259.638 132.165 256.457 129.555 249.606 129.555H237.128V144.888H249.688C256.457 144.888 259.638 141.707 259.638 137.059Z" fill="white"/>
<path d="M299.932 134.042V143.503C299.066 143.397 298.195 143.343 297.322 143.34C290.634 143.34 287.29 146.521 287.29 153.29V176.289H276.524V134.124H286.23V141.219C288.351 136.326 292.347 133.716 297.159 133.716C298.094 133.703 299.026 133.813 299.932 134.042Z" fill="white"/>
<path d="M303.013 155.247C303.013 141.708 312.147 133.145 324.462 133.145C336.696 133.145 345.831 141.708 345.831 155.247C345.831 168.704 336.696 177.268 324.462 177.268C312.147 177.268 303.013 168.786 303.013 155.247ZM334.901 155.247C334.901 147.01 330.661 141.871 324.381 141.871C318.101 141.871 313.859 147.091 313.859 155.247C313.859 163.403 318.101 168.541 324.381 168.541C330.661 168.541 334.901 163.403 334.901 155.247Z" fill="white"/>
<path d="M393.182 117.566V176.288H383.476V169.192C380.784 174.494 376.054 177.267 369.611 177.267C359.579 177.267 350.607 169.192 350.607 155.246C350.607 141.055 359.172 133.144 369.203 133.144C375.075 133.144 379.561 135.346 382.415 139.424V117.566H393.182ZM382.415 155.246C382.415 147.172 378.012 141.789 371.976 141.789C365.614 141.789 361.455 147.09 361.455 155.246C361.455 163.402 365.859 168.622 371.976 168.622C378.093 168.622 382.415 163.483 382.415 155.246Z" fill="white"/>
<path d="M401.325 121.725C401.309 120.45 401.671 119.2 402.366 118.131C403.06 117.063 404.056 116.224 405.228 115.721C406.399 115.219 407.693 115.075 408.946 115.308C410.199 115.541 411.355 116.14 412.267 117.029C413.18 117.919 413.808 119.06 414.072 120.306C414.337 121.553 414.225 122.85 413.753 124.034C413.28 125.217 412.466 126.234 411.416 126.956C410.365 127.677 409.124 128.07 407.85 128.086C406.997 128.123 406.146 127.984 405.348 127.68C404.551 127.375 403.825 126.91 403.214 126.314C402.602 125.719 402.12 125.004 401.795 124.215C401.47 123.425 401.31 122.578 401.325 121.725ZM402.386 134.122H413.151V176.287H402.386L402.386 134.122Z" fill="white"/>
<path d="M461.571 179.061C461.571 185.911 455.455 192.599 438.572 192.599C424.218 192.599 418.591 188.276 418.591 182.894C418.591 179.061 421.119 175.798 430.172 174.085C423.484 173.024 420.793 170.415 420.793 166.337C420.793 162.911 423.157 160.139 429.193 158.589C423.892 156.061 421.282 151.656 421.282 146.845C421.282 139.667 427.398 133.143 439.877 133.143C442.218 133.117 444.552 133.419 446.81 134.04L448.114 132.979C451.214 130.533 453.742 129.473 458.554 129.473H461.245V136.895H458.554C456.941 136.758 455.319 137.01 453.823 137.628C455.211 138.744 456.343 140.144 457.145 141.733C457.947 143.323 458.4 145.066 458.473 146.845C458.473 154.104 451.784 160.71 439.877 160.71H439.551C431.64 160.71 430.579 162.178 430.579 163.809C430.579 165.032 431.314 165.93 434.983 166.256L447.381 167.397C457.086 168.294 461.571 171.72 461.571 179.061ZM450.888 181.018C450.888 178.652 449.175 177.102 444.2 176.695L437.675 176.124C430.661 177.266 428.948 179.142 428.948 181.425C428.948 184.28 432.211 186.074 439.388 186.074C447.625 186.074 450.888 183.953 450.888 181.018ZM431.885 146.845C431.885 151.004 434.657 154.267 439.877 154.267C445.016 154.267 447.951 151.004 447.951 146.845C447.951 142.849 445.016 139.667 439.877 139.667C434.657 139.667 431.885 142.849 431.885 146.845Z" fill="white"/>
<path d="M465.923 121.725C465.907 120.45 466.269 119.2 466.963 118.131C467.658 117.063 468.654 116.224 469.825 115.721C470.996 115.219 472.29 115.075 473.543 115.308C474.796 115.541 475.952 116.14 476.865 117.029C477.777 117.919 478.406 119.06 478.67 120.306C478.934 121.553 478.823 122.85 478.35 124.034C477.877 125.217 477.064 126.234 476.013 126.955C474.963 127.677 473.722 128.07 472.447 128.086C471.594 128.123 470.743 127.984 469.946 127.68C469.149 127.375 468.422 126.91 467.811 126.314C467.2 125.719 466.717 125.004 466.393 124.215C466.068 123.425 465.908 122.578 465.923 121.725ZM466.983 134.122H477.749V176.287H466.983V134.122Z" fill="white"/>
<path d="M484.477 155.247C484.477 141.708 493.611 133.145 505.926 133.145C518.16 133.145 527.295 141.708 527.295 155.247C527.295 168.704 518.16 177.268 505.926 177.268C493.611 177.268 484.477 168.786 484.477 155.247ZM516.365 155.247C516.365 147.01 512.125 141.871 505.845 141.871C499.564 141.871 495.323 147.091 495.323 155.247C495.323 163.403 499.564 168.541 505.845 168.541C512.125 168.541 516.365 163.403 516.365 155.247Z" fill="white"/>
<path d="M531.524 163.974H542.045C542.942 167.726 545.879 169.683 551.017 169.683C556.399 169.683 558.847 167.726 558.847 164.871C558.847 162.424 557.378 160.712 553.545 160.059L544.492 158.347C535.929 156.715 532.34 152.719 532.34 146.275C532.34 139.262 538.375 133.145 549.875 133.145C561.212 133.145 567.491 138.609 568.878 147.091H558.275C557.623 142.851 554.686 140.73 549.793 140.73C544.899 140.73 542.453 142.932 542.453 145.623C542.453 147.907 543.677 149.456 548.081 150.19L556.971 151.74C566.187 153.29 569.53 157.612 569.53 164.137C569.53 171.151 563.984 177.268 551.099 177.268C538.538 177.268 533.074 171.885 531.524 163.974Z" fill="white"/>
<path d="M574.055 155.247C574.055 141.708 583.189 133.145 595.504 133.145C607.738 133.145 616.873 141.708 616.873 155.247C616.873 168.704 607.738 177.268 595.504 177.268C583.189 177.268 574.055 168.786 574.055 155.247ZM605.943 155.247C605.943 147.01 601.703 141.871 595.423 141.871C589.143 141.871 584.901 147.091 584.901 155.247C584.901 163.403 589.143 168.541 595.423 168.541C601.703 168.541 605.943 163.403 605.943 155.247Z" fill="white"/>
<path d="M694.349 120.91L672.165 176.288H661.645L640.031 120.91H651.449L667.19 163.973L682.85 120.91H694.349Z" fill="white"/>
<path d="M692.055 155.247C692.055 141.708 701.189 133.145 713.504 133.145C725.738 133.145 734.873 141.708 734.873 155.247C734.873 168.704 725.738 177.268 713.504 177.268C701.189 177.268 692.055 168.786 692.055 155.247ZM723.943 155.247C723.943 147.01 719.703 141.871 713.423 141.871C707.143 141.871 702.901 147.091 702.901 155.247C702.901 163.403 707.143 168.541 713.423 168.541C719.703 168.541 723.943 163.403 723.943 155.247Z" fill="white"/>
<path d="M752.757 176.288H741.991V117.566H752.757V176.288Z" fill="white"/>
<path d="M759.785 155.165C759.785 141.464 768.675 133.145 780.827 133.145C792.816 133.145 799.178 139.751 800.565 148.967H789.636C788.656 144.236 785.802 141.871 780.745 141.871C774.629 141.871 770.714 146.765 770.714 155.084C770.714 163.403 774.466 168.541 780.827 168.541C785.965 168.541 788.575 166.095 789.636 161.445H800.482C799.096 170.824 792.327 177.268 780.827 177.268C768.675 177.268 759.785 168.949 759.785 155.165Z" fill="white"/>
<path d="M843.812 148.638V176.287H834.105V170.904C830.844 175.226 826.357 177.265 820.648 177.265C811.678 177.265 805.479 171.964 805.479 164.624C805.479 157.61 809.883 152.634 820.404 151.575L833.127 150.27V147.986C833.127 143.255 830.191 140.972 825.542 140.972C820.648 140.972 817.957 142.929 817.142 147.088H806.376C807.518 137.954 814.287 133.142 825.379 133.142C836.797 133.142 843.812 137.954 843.812 148.638ZM833.046 159.812V156.712L822.933 158.017C818.446 158.588 816.407 160.954 816.407 164.134C816.407 167.397 819.018 170.006 823.503 170.006C829.702 170.006 833.046 165.847 833.046 159.812ZM830.599 127.27H820.078L828.642 114.547H841.038L830.599 127.27Z" fill="white"/>
<path d="M891.218 149.701V176.289H880.452V152.147C880.452 145.216 877.189 142.116 872.215 142.116C867.158 142.116 863.487 145.542 863.487 152.147V176.289H852.722V134.124H862.428V140.077C865.2 135.428 869.686 133.145 875.722 133.145C884.529 133.145 891.218 138.364 891.218 149.701Z" fill="white"/>
</svg>
