<svg width="40" height="40" viewBox="0 0 40 40" fill="none" xmlns="http://www.w3.org/2000/svg">
<path d="M27.7032 27.1895H22.3753C22.2335 27.1892 22.0976 27.1325 21.9976 27.032C21.8976 26.9315 21.8416 26.7954 21.8419 26.6536V13.2816C21.8419 12.9862 22.0811 12.747 22.3753 12.747H27.315C31.022 12.747 31.7998 14.9299 31.7998 16.7599C31.7998 17.8187 31.5187 18.6592 30.9606 19.2761C32.32 19.8369 33.052 21.1009 33.052 22.9295C33.052 25.5974 31.0521 27.1895 27.7032 27.1895ZM19.9676 27.1894H8.90157C8.83143 27.1892 8.76201 27.1752 8.69728 27.1482C8.63256 27.1211 8.57381 27.0816 8.52439 27.0318C8.47497 26.982 8.43586 26.923 8.40929 26.8581C8.38273 26.7931 8.36923 26.7236 8.36957 26.6535V13.2815C8.36957 12.9861 8.60747 12.7469 8.90157 12.7469H14.0713C17.2999 12.7469 19.2266 14.4854 19.2266 17.3977C19.2266 19.3349 18.2528 20.8564 16.6829 21.4746L20.3651 26.2992C20.4326 26.3763 20.4766 26.4713 20.4918 26.5727C20.507 26.6742 20.4928 26.7778 20.4508 26.8714C20.4088 26.965 20.3408 27.0446 20.255 27.1007C20.1691 27.1568 20.069 27.1871 19.9664 27.188M19.986 0C8.949 0 0 8.9486 0 19.986C0 31.026 8.9486 39.975 19.987 39.975C31.0254 39.975 39.973 31.0264 39.973 19.988C39.973 8.9496 31.027 0.002 19.988 0.002" fill="white"/>
</svg>
