<?xml version="1.0" encoding="UTF-8"?>
<svg id="Capa_1" data-name="Capa 1" xmlns="http://www.w3.org/2000/svg" viewBox="0 0 296.97 172.44">
  <path d="m76.14,117.05c-3.33.08-6.54.16-9.86.24-.3.98-.61,2-.91,3.03-1.09,3.74-2.18,7.48-3.26,11.23-.16.55-.27,1.12-.4,1.68-.03.13-.05.27-.09.4-.51,2.02-2.22,3.16-4.1,2.75-1.85-.4-3.12-2.21-2.72-4.16.39-1.89.96-3.74,1.49-5.6.83-2.93,1.69-5.86,2.53-8.79.09-.32.16-.66.23-.97-4.29-.72-8.56-1.43-12.91-2.15-.35,1.27-.72,2.57-1.08,3.87-1.67,6.08-3.33,12.16-5,18.24-.37,1.36-1.14,2.39-2.54,2.81-2.53.75-4.91-1.49-4.34-4.12.35-1.59.82-3.15,1.25-4.72,1.57-5.72,3.15-11.44,4.72-17.15.07-.26.09-.52.14-.84-1.57-.53-3.11-1.02-4.64-1.56-9.68-3.44-18.71-8.09-26.75-14.55-1.58-1.27-3.07-2.67-4.59-4.03-.4-.36-.77-.77-1.07-1.22-.88-1.33-.71-3.09.36-4.23,1.08-1.15,2.79-1.41,4.2-.61.35.2.68.45.97.73,7.15,6.85,15.5,11.81,24.61,15.54,2.63,1.08,5.34,1.95,8.02,2.9.24.09.51.11.84.19,2.06-7.51,4.1-14.95,6.21-22.61-.52.2-.85.33-1.18.46-5.47,2.21-10.94,4.42-16.4,6.63-.93.37-1.85.64-2.86.35-1.63-.47-2.7-1.89-2.55-3.58.08-.98.3-1.94.49-2.9.92-4.52,1.86-9.03,2.79-13.55.09-.43.15-.86.27-1.51-.35.29-.57.43-.73.61-3.44,3.66-6.87,7.32-10.29,10.99-.36.39-.64.87-.92,1.33-1.1,1.83-3.54,2.4-5.33,1.24-1.56-1.01-2.06-3.03-1.11-4.66.27-.46.63-.88,1-1.28,6.75-7.25,13.51-14.48,20.27-21.72.16-.17.32-.35.49-.51,1.23-1.18,2.83-1.46,4.21-.74,1.37.72,2.06,2.1,1.81,3.76-.18,1.21-.45,2.4-.69,3.6-.81,3.99-1.64,7.97-2.45,11.96-.44,2.13-.88,4.25-1.31,6.38-.09.46-.16.92-.27,1.55.52-.2.89-.34,1.26-.48,5.59-2.26,11.19-4.52,16.78-6.79.83-.34,1.67-.61,2.57-.43,2.12.4,3.31,2.36,2.77,4.55-.29,1.18-.64,2.36-.96,3.53-1.91,6.93-3.81,13.85-5.72,20.78-.37,1.34-.74,2.68-1.1,4.02-.07.26-.11.52-.2.9,4.29,1.01,8.58,1.71,13.02,2.04.34-1.14.68-2.23.99-3.33,2.14-7.42,4.28-14.85,6.42-22.27.12-.42.26-.85.45-1.24.62-1.26,1.61-2,3.04-2.04,1.46-.04,2.59.61,3.21,1.92.86,1.81,1.65,3.64,2.07,5.62,1.38,6.53,2.75,13.06,4.13,19.59.08.36.16.71.27,1.15,1.07-.2,2.07-.37,3.05-.58,5.23-1.14,10.24-2.87,14.87-5.62.93-.55,1.93-.86,3.01-.56,1.27.36,2.14,1.17,2.47,2.47.33,1.32-.01,2.5-1.02,3.43-.42.39-.92.69-1.42.98-5.21,3.03-10.84,4.94-16.7,6.2-.89.19-1.79.36-2.8.56.08.39.14.74.22,1.09,1.03,4.91,2.07,9.81,3.07,14.73.14.68.19,1.43.06,2.11-.3,1.5-1.56,2.5-3.11,2.63-1.38.12-2.76-.69-3.35-2.03-.23-.52-.37-1.09-.49-1.65-1.05-4.94-2.09-9.88-3.14-14.82-.08-.36-.17-.72-.26-1.12Zm-1.45-6.97c-.89-4.21-1.74-8.23-2.59-12.26-1.41,4.09-2.61,8.19-3.79,12.44,2.19-.06,4.21-.12,6.38-.19Z"/>
  <path d="m247.5,61.78c-1.79-9.31-3.53-18.37-5.29-27.55-.37.14-.65.23-.91.35-11.76,5.49-24.08,9.23-36.81,11.69-5.19,1-10.42,1.82-15.68,2.35-4.01.4-8.04.73-12.07.87-5.22.18-10.45.24-15.67.15-3.89-.07-7.79-.42-11.67-.72-5.72-.44-11.39-1.24-17.02-2.28-16.78-3.08-32.86-8.18-47.75-16.68-7.1-4.05-13.67-8.84-19.43-14.67-2.34-2.37-4.51-4.88-6.45-7.59-.33-.46-.65-.96-.85-1.49-.56-1.47-.02-3.09,1.25-3.96,1.26-.85,2.99-.74,4.15.3.25.22.48.48.68.75,5.23,7.22,11.85,12.92,19.27,17.76,7.68,5.01,15.92,8.86,24.53,11.96,8.31,2.99,16.82,5.2,25.5,6.79,5.07.93,10.17,1.66,15.3,2.14,3.48.33,6.96.58,10.45.69,4.71.14,9.43.23,14.14.13,3.93-.08,7.86-.35,11.77-.73,4.48-.44,8.97-.96,13.41-1.68,14.97-2.42,29.4-6.61,42.98-13.48,1.96-.99,3.68-.57,5.41.33,1.03.54,1.43,1.59,1.64,2.69.35,1.8.69,3.59,1.03,5.39,1.79,9.35,3.59,18.7,5.38,28.06.29,1.53.64,3.05.88,4.59.11.69.12,1.44-.04,2.11-.45,1.83-2.43,2.89-4.23,2.29-.57-.19-1.11-.5-1.62-.83-5.77-3.76-11.52-7.53-17.29-11.3-.33-.22-.67-.42-1.22-.76.17,1.09.3,1.94.44,2.79,1.27,7.76,2.54,15.52,3.82,23.28.09.57.25,1.13.34,1.69.3,1.78-.79,3.46-2.49,3.91-1.67.44-3.43-.44-4.03-2.11-.3-.85-.44-1.77-.59-2.67-1.83-10.96-3.66-21.93-5.45-32.9-.12-.71-.1-1.51.1-2.2.55-1.89,2.55-2.83,4.39-2.13.53.2,1.03.51,1.51.82,5.68,3.71,11.35,7.42,17.03,11.14.3.2.62.38,1.15.7Z"/>
  <path d="m182.05,157.35c0-.4,0-.77,0-1.14-.28-13.6-.57-27.2-.85-40.79-.01-.64.02-1.3.19-1.9.4-1.41,1.42-2.23,2.84-2.44,1.35-.19,2.48.33,3.27,1.44.33.46.57,1,.78,1.53,2.66,6.67,5.31,13.35,7.96,20.02.15.37.31.72.62,1.06,0-.25.01-.5,0-.75-.38-5.72-.77-11.44-1.14-17.15-.34-5.14-.67-10.29-.98-15.43-.13-2.08,1.27-3.72,3.22-3.86,2.01-.15,3.61,1.27,3.77,3.42.23,3.11.42,6.23.62,9.34.32,4.84.64,9.68.95,14.52.23,3.45.45,6.9.67,10.35.32,4.91.64,9.81.96,14.72.15,2.37.34,4.74.45,7.11.08,1.75-.86,3.14-2.36,3.66-1.49.52-3.13-.02-4.02-1.36-.3-.45-.51-.96-.71-1.46-3.05-7.65-6.09-15.3-9.13-22.95-.11-.27-.23-.53-.48-.78-.01.22-.04.43-.04.65.15,7.19.29,14.38.45,21.57.01.54.07,1.08.13,1.62.17,1.52-.44,2.65-1.56,3.66-1.59,1.43-3.52,2.13-5.45,2.86-5.44,2.05-11.05,3.43-16.78,4.36-9.05,1.47-18.15,1.79-27.28,1.34-12.91-.64-25.59-2.77-38.07-6.12-12.21-3.27-24.02-7.62-35.38-13.15-.52-.25-1.04-.5-1.53-.81-1.61-1.02-2.17-2.91-1.35-4.52.79-1.56,2.61-2.23,4.36-1.59.44.16.87.38,1.3.58,13.25,6.36,27.03,11.17,41.36,14.44,5.98,1.36,12.02,2.41,18.11,3.16,7.45.92,14.93,1.36,22.43,1.14,9.18-.28,18.24-1.42,27.03-4.24,1.58-.51,3.13-1.11,4.69-1.67.31-.11.61-.28.95-.43Z"/>
  <path d="m63.24,55.5c-.04.48-.07.84-.09,1.2-.17,3.01-.34,6.03-.52,9.04-.02.37-.08.74-.17,1.1-.43,1.71-1.93,2.79-3.62,2.62-1.63-.16-2.89-1.5-3.02-3.2-.02-.24,0-.47,0-.71.43-7.69.86-15.37,1.29-23.06.18-3.18.33-6.37.54-9.55.04-.65-.18-.99-.74-1.25-3.65-1.71-7.29-3.43-10.93-5.16-.49-.23-1-.45-1.42-.77-1.3-1.02-1.65-2.79-.89-4.21.76-1.42,2.45-2.18,3.98-1.61,1.84.68,3.64,1.47,5.43,2.29,10.22,4.7,19.93,10.28,28.92,17.07,2.84,2.15,5.56,4.45,7.99,7.07,1.2,1.3,2.32,2.66,3.15,4.23.64,1.21,1.1,2.47,1.05,3.88-.07,2.4-1.27,4.02-3.43,4.96-1.53.66-3.16.72-4.79.67-.54-.02-1.08-.08-1.77-.13.17.26.25.43.37.55,3.07,2.84,5.76,6.03,8.54,9.14,1.67,1.87,3.38,3.71,5.12,5.52,1.56,1.62,3.33,2.98,5.15,4.29,3.26,2.34,6.9,3.73,10.81,4.44,2.67.49,5.34.93,8.03,1.31,1.31.19,2.63.21,3.95.29,2,.11,4,.19,6,.3,2.56.13,4.06,2.8,2.88,5.03-.69,1.29-1.84,1.95-3.27,1.83-4.09-.34-8.21-.21-12.27-.87-3.78-.61-7.57-1.18-11.24-2.31-5-1.53-9.29-4.28-13.08-7.79-2.31-2.13-4.43-4.49-6.58-6.79-1.51-1.61-2.91-3.31-4.39-4.95-4.2-4.67-8.86-8.78-14.45-11.74-1.73-.92-3.57-1.63-5.36-2.42-.33-.14-.7-.18-1.18-.3Zm23.49-2.3c-.41-.54-.63-.91-.93-1.21-1.4-1.42-2.76-2.9-4.26-4.21-5.08-4.41-10.68-8.09-16.46-11.52-.19-.11-.42-.17-.75-.29-.17,3.28-.34,6.44-.51,9.62.52.25.97.49,1.43.7,5.66,2.62,11.4,5.01,17.51,6.41,1.21.28,2.43.58,3.98.52Z"/>
  <path d="m295.29,108.44c-.06,2.87-.34,5.7-1.19,8.45-.44,1.43-1.05,2.79-1.93,4.01-2.43,3.39-6.17,4.52-10.06,3.06-1.68-.63-3.13-1.61-4.46-2.79-2.13-1.88-3.86-4.09-5.36-6.49-3.66-5.84-6.02-12.2-7.47-18.91-.85-3.92-1.33-7.89-1.18-11.91.09-2.65.46-5.27,1.39-7.77.5-1.34,1.16-2.6,2.08-3.71,2.27-2.73,5.57-3.71,8.98-2.66,2.47.76,4.45,2.29,6.25,4.06,1.94,1.92,3.51,4.14,4.87,6.49,3.98,6.86,6.45,14.24,7.53,22.09.28,2.01.38,4.05.56,6.07Zm-10.48-16.86c-.95-2.59-2.08-5.05-3.45-7.39-1.27-2.17-2.7-4.23-4.55-5.96-.61-.57-1.3-1.1-2.03-1.51-1.34-.75-2.01-.54-2.72.8-.32.59-.62,1.23-.74,1.88-.28,1.56-.56,3.14-.64,4.72-.2,3.92.4,7.77,1.29,11.58.06.25.17.48.25.67,4.21-1.6,8.34-3.18,12.59-4.8Zm-10.69,11.11c1.72,4.36,3.71,8.38,6.73,11.81.6.68,1.27,1.32,1.99,1.88.55.43,1.19.78,1.84,1.05.78.33,1.21.21,1.67-.48.42-.64.78-1.35,1.03-2.08.6-1.78.76-3.64.8-5.51.06-3.06-.29-6.08-.89-9.08-.16-.78-.35-1.56-.54-2.39-4.32,1.43-8.46,2.98-12.62,4.81Z"/>
  <path d="m173.75,75.49c.64.28,1.16.51,1.68.74,1.71.75,3.15,1.85,4.33,3.29,1.93,2.36,2.05,4.84.39,7.41-2.19,3.37-5.35,5.31-9.16,6.3-1.91.5-3.85.78-5.82.85-3.32.1-6.63.36-9.91.89-1.62.26-3.26.19-4.86-.13-.87-.17-1.74-.6-2.49-1.09-.97-.63-1.39-1.65-1.38-2.8,0-1.19.03-2.37.07-3.56.1-3.19.22-6.37.32-9.55.17-5.25.32-10.5.48-15.75,0-.03,0-.07,0-.1.15-2.97,1.41-4.12,4.37-4.08,1.73.03,3.46-.04,5.19,0,5.03.14,9.88,1.15,14.55,3.04,2,.81,3.86,1.87,5.21,3.6.61.79,1.13,1.7,1.5,2.63.76,1.92.43,3.78-.89,5.34-.75.89-1.75,1.58-2.65,2.35-.25.21-.55.37-.94.63Zm.31,8.05c-.45-.65-1.1-.97-1.76-1.2-1.95-.67-3.89-1.42-5.89-1.9-3.98-.96-8.06-1-12.13-.98-.16,0-.31.07-.58.14-.08,2.85-.15,5.68-.23,8.61.55-.03.98-.02,1.41-.08,1.21-.16,2.41-.41,3.62-.51,2.3-.18,4.6-.27,6.9-.42,2.11-.13,4.17-.52,6.09-1.44,1.06-.5,1.95-1.19,2.57-2.23Zm-2.59-14.73c-.62-.42-1-.76-1.45-.98-.79-.39-1.6-.73-2.42-1.04-2.94-1.08-5.99-1.73-9.11-1.97-1.4-.11-2.82-.02-4.22-.02-.3,1.65-.37,6.54-.12,7.3.2,0,.4.01.6,0,2.47-.19,4.93-.38,7.4-.58,2.61-.21,5.17-.68,7.57-1.78.51-.24,1-.53,1.74-.93Z"/>
  <path d="m176.24,124.95c-.02,6.16-.55,12.25-2.07,18.24-.57,2.24-1.25,4.45-2.41,6.46-.62,1.08-1.32,2.15-2.19,3.04-2.71,2.77-6.46,2.59-9.02-.33-1.11-1.27-1.86-2.75-2.45-4.31-1.03-2.67-1.61-5.46-2.02-8.28-.79-5.46-.94-10.94-.58-16.44.35-5.39,1.03-10.74,2.83-15.86.54-1.53,1.23-3.01,2.03-4.42.52-.93,1.26-1.78,2.05-2.5,2.41-2.16,5.62-2.08,8.01.11,1.02.93,1.74,2.07,2.36,3.29,1.09,2.17,1.73,4.48,2.21,6.85.95,4.67,1.27,9.4,1.26,14.16Zm-11.01,21.89c2.22-2.85,3.99-13.87,3.73-17.39-2.18.18-4.37.13-6.59.61,0,.44-.02.81,0,1.18.13,1.96.21,3.93.42,5.88.31,2.83.79,5.63,1.8,8.32.17.46.41.91.63,1.41Zm1.18-40.04c-2.16,2.32-4.16,14.27-3.69,16.63,2.13-.33,4.3-.2,6.49-.63-.23-5.49-.65-10.86-2.8-16Z"/>
  <path d="m219.81,112.68c-.14,1.3-.29,2.59-.42,3.89-.61,6.03-1.22,12.07-1.83,18.1-.48,4.75-.96,9.51-1.45,14.26-.05.47-.15.94-.32,1.38-.6,1.48-2.19,2.35-3.7,2.09-1.62-.29-2.84-1.59-2.88-3.22-.02-1.08.11-2.16.21-3.24.44-4.49.9-8.97,1.35-13.46.37-3.74.72-7.49,1.1-11.23.44-4.42.9-8.83,1.34-13.25.37-3.67.71-7.35,1.09-11.03.06-.64.15-1.28.35-1.89.44-1.4,1.47-2.2,2.89-2.37,1.44-.17,2.59.45,3.35,1.68.28.45.47.98.65,1.49,5.18,14.74,10.35,29.47,15.52,44.21.91,2.59,1.83,5.18,2.72,7.77.17.51.32,1.04.36,1.58.12,1.64-.83,3.01-2.36,3.51-1.49.49-3.12-.08-3.98-1.47-.32-.51-.54-1.09-.74-1.67-4.24-12.05-8.46-24.1-12.7-36.15-.12-.34-.26-.67-.39-1-.06.01-.12.02-.18.03Z"/>
  <path d="m240.14,96.82c5.11-.11,10.03.97,14.82,2.66,3.24,1.14,5.84,3.08,7.52,6.18,1.85,3.42,2.06,6.91.56,10.48-.52,1.24-1.19,2.44-1.9,3.59-1.95,3.15-4.17,6.1-6.51,8.96-1.74,2.14-3.95,3.7-6.28,5.11-1.36.82-2.84.56-4.25.18-1.28-.35-1.93-1.42-2.33-2.63-3.24-9.63-6.68-19.2-9.41-29-.19-.67-.32-1.42-.23-2.09.23-1.7,1.35-2.68,2.96-3.11.59-.16,1.19-.29,1.8-.32,1.08-.05,2.17-.01,3.25-.01Zm7.29,29.19c.66-.65,1.23-1.13,1.7-1.7,2.37-2.88,4.61-5.86,6.52-9.07.43-.72.77-1.51,1.08-2.29.43-1.09.31-2.18-.11-3.27-.71-1.82-2.08-2.9-3.84-3.53-3.85-1.38-7.8-2.28-11.9-2.41-.21,0-.43.06-.71.09,2.1,7.49,4.7,14.72,7.27,22.18Z"/>
  <path d="m151.54,117.11c.06,3.72-1.51,6.7-4.25,9.09-1.09.95-2.29,1.82-3.53,2.57-2.52,1.52-5.11,2.94-7.68,4.38-2.46,1.37-5.12,2.08-7.88,2.55-1.57.27-2.92.05-4.27-.76-1.29-.77-2-1.83-1.96-3.31.03-1.05.15-2.09.26-3.14.31-3.17.61-6.34.96-9.5.48-4.27.99-8.54,1.51-12.81.21-1.75.51-3.48.72-5.23.4-3.25,2.39-4.6,5.57-3.74,2.28.61,4.37,1.64,6.42,2.78,3.76,2.09,7.14,4.69,10.16,7.74,2,2.02,3.39,4.4,3.8,7.26.1.7.12,1.42.17,2.13Zm-22.19,11.27c.87-.32,1.6-.52,2.26-.84,3.38-1.65,6.68-3.45,9.78-5.59.66-.46,1.28-1,1.85-1.57.6-.6,1.01-1.33,1.17-2.21.4-2.2-.3-4.02-1.84-5.54-2.91-2.87-6.12-5.34-9.8-7.17-.23-.12-.49-.19-.8-.32-1.21,7.69-1.85,15.37-2.62,23.25Z"/>
  <path d="m192.43,65.77c.14,5.61.28,11.19.42,16.81.3.02.46.05.62.03,3.94-.43,7.88-.88,11.83-1.31,2.93-.32,5.86-.63,8.8-.91.59-.06,1.24-.02,1.8.16,2.15.69,2.97,3.34,1.63,5.16-.72.98-1.72,1.5-2.94,1.6-2.36.2-4.73.4-7.08.64-2.8.29-5.59.63-8.39.93-2.9.32-5.8.6-8.7.94-2.5.29-4.25-1.14-4.34-3.65-.1-2.81-.15-5.63-.22-8.44-.12-4.34-.24-8.68-.36-13.02-.01-.41-.02-.81-.02-1.22,0-2.25,1.04-3.56,3.23-4.03,2.18-.47,4.37-.94,6.56-1.4,5.7-1.2,11.4-2.39,17.11-3.59.33-.07.67-.12,1-.15,1.89-.13,3.38,1,3.69,2.77.3,1.69-.71,3.29-2.47,3.81-1.04.3-2.11.5-3.17.72-6.1,1.3-12.19,2.59-18.29,3.89-.22.05-.44.15-.72.24Z"/>
  <path d="m107.31,142.83c.91-.03,1.69-.05,2.46-.09,4.63-.26,9.27-.52,13.9-.79,1.15-.06,2.3-.15,3.45-.18.5-.01,1.03.01,1.51.14,1.65.45,2.68,1.93,2.56,3.58-.11,1.64-1.34,3-3.04,3.19-1.55.17-3.11.22-4.66.31-3.58.2-7.17.41-10.75.6-3.15.17-6.29.33-9.44.46-.57.02-1.17-.04-1.7-.22-1.47-.49-2.41-1.89-2.27-3.48.09-1.04.37-2.06.62-3.08,1.85-7.5,3.71-14.99,5.56-22.48,1.64-6.64,3.27-13.29,4.92-19.92.14-.55.33-1.11.62-1.6.78-1.31,2.35-1.92,3.78-1.53,1.53.41,2.59,1.69,2.54,3.27-.03.94-.25,1.88-.47,2.79-2.03,8.29-4.08,16.57-6.12,24.86-1.15,4.67-2.28,9.34-3.46,14.17Z"/>
  <path d="m106.54,57.19c.21-1.57.34-3.17.65-4.72.28-1.36,1.16-2.3,2.56-2.61,1.3-.29,2.42.06,3.31,1.07.66.76.89,1.66.78,2.65-.09.77-.25,1.54-.3,2.32-.35,5.47,1.47,10.12,5.37,13.95,1.45,1.43,3.17,2.43,5.19,2.85,2.83.59,5.16-.25,6.94-2.52,1.38-1.77,2.01-3.84,2.14-6.04.07-1.24-.09-2.5-.14-3.75-.02-.41-.07-.81-.06-1.22.04-1.68,1.13-2.96,2.78-3.28,1.54-.3,3.1.5,3.7,2.02.28.71.41,1.5.49,2.27.45,4.13.02,8.13-1.96,11.85-1.99,3.74-4.95,6.34-9.14,7.34-3.25.77-6.4.36-9.42-1.02-3.82-1.74-6.71-4.54-8.94-8.05-2.48-3.91-3.8-8.49-3.94-13.12Z"/>
  <path d="m203.39,68.82c1.83.02,3.25,1.51,3.2,3.36-.05,1.96-1.77,3.72-3.61,3.69-1.82-.03-3.16-1.49-3.13-3.42.03-2.12,1.53-3.66,3.55-3.64Z"/>
</svg>