<?xml version="1.0" encoding="UTF-8"?>
<svg id="Layer_1" data-name="Layer 1" xmlns="http://www.w3.org/2000/svg" viewBox="0 0 100 100">
  <defs>
    <style>
      .cls-1 {
        fill: #fff;
      }
    </style>
  </defs>
  <path class="cls-1" d="m100,40.54c-7.75-.25-16.56-.43-25.86-.54,6.53-6.68,12.64-13.01,18.52-19.09-4.3-4.68-8.9-9.27-13.57-13.57-6.08,5.89-12.42,12-19.09,18.52-.11-9.3-.29-18.12-.54-25.86-6.3,0-12.61,0-18.91,0-.25,7.75-.43,16.56-.54,25.86-6.68-6.53-13.01-12.64-19.09-18.52-4.68,4.3-9.27,8.9-13.57,13.57,5.89,6.08,12,12.42,18.52,19.09-9.3.11-18.12.29-25.86.54,0,6.3,0,12.61,0,18.91,7.75.25,16.56.43,25.86.54-6.53,6.68-12.64,13.01-18.52,19.09,4.3,4.68,8.89,9.27,13.57,13.57,6.08-5.89,12.42-12,19.09-18.52.11,9.3.29,18.12.54,25.86h18.91c.25-7.75.43-16.56.54-25.86,6.68,6.53,13.01,12.64,19.09,18.52,4.68-4.3,9.27-8.9,13.57-13.57-5.89-6.08-12-12.42-18.52-19.09,9.3-.11,18.12-.29,25.86-.54v-18.91Z"/>
</svg>