<svg width="21" height="21" viewBox="0 0 21 21" fill="none" xmlns="http://www.w3.org/2000/svg">
<path d="M2 9C1.17157 9 0.5 9.67157 0.5 10.5C0.5 11.3284 1.17157 12 2 12V9ZM10.5 12C11.3284 12 12 11.3284 12 10.5C12 9.67157 11.3284 9 10.5 9V12ZM10.5 9C9.67157 9 9 9.67157 9 10.5C9 11.3284 9.67157 12 10.5 12V9ZM19 12C19.8284 12 20.5 11.3284 20.5 10.5C20.5 9.67157 19.8284 9 19 9V12ZM9.43942 11.5607C10.0252 12.1465 10.975 12.1465 11.5607 11.5607C12.1465 10.975 12.1465 10.0252 11.5607 9.43942L9.43942 11.5607ZM5.55124 3.42992C4.96545 2.84413 4.01571 2.84413 3.42992 3.42992C2.84413 4.01571 2.84413 4.96545 3.42992 5.55124L5.55124 3.42992ZM11.5607 9.43934C10.9749 8.85355 10.0251 8.85355 9.43934 9.43934C8.85355 10.0251 8.85355 10.9749 9.43934 11.5607L11.5607 9.43934ZM15.4488 17.5702C16.0346 18.1559 16.9844 18.1559 17.5702 17.5702C18.1559 16.9844 18.1559 16.0346 17.5702 15.4488L15.4488 17.5702ZM11.5607 11.5607C12.1465 10.9749 12.1465 10.0251 11.5607 9.43934C10.975 8.85355 10.0252 8.85355 9.43942 9.43934L11.5607 11.5607ZM3.42992 15.4488C2.84413 16.0346 2.84413 16.9844 3.42992 17.5702C4.01571 18.1559 4.96545 18.1559 5.55124 17.5702L3.42992 15.4488ZM9.43934 9.43942C8.85355 10.0252 8.85355 10.975 9.43934 11.5607C10.0251 12.1465 10.9749 12.1465 11.5607 11.5607L9.43934 9.43942ZM17.5702 5.55124C18.1559 4.96545 18.1559 4.01571 17.5702 3.42992C16.9844 2.84413 16.0346 2.84413 15.4488 3.42992L17.5702 5.55124ZM9 10.5C9 11.3284 9.67157 12 10.5 12C11.3284 12 12 11.3284 12 10.5H9ZM12 2C12 1.17157 11.3284 0.5 10.5 0.5C9.67157 0.5 9 1.17157 9 2H12ZM12 10.5C12 9.67157 11.3284 9 10.5 9C9.67157 9 9 9.67157 9 10.5H12ZM9 19C9 19.8284 9.67157 20.5 10.5 20.5C11.3284 20.5 12 19.8284 12 19H9ZM2 12H10.5V9H2V12ZM10.5 12H19V9H10.5V12ZM11.5607 9.43942L5.55124 3.42992L3.42992 5.55124L9.43942 11.5607L11.5607 9.43942ZM9.43934 11.5607L15.4488 17.5702L17.5702 15.4488L11.5607 9.43934L9.43934 11.5607ZM9.43942 9.43934L3.42992 15.4488L5.55124 17.5702L11.5607 11.5607L9.43942 9.43934ZM11.5607 11.5607L17.5702 5.55124L15.4488 3.42992L9.43934 9.43942L11.5607 11.5607ZM12 10.5V2H9V10.5H12ZM9 10.5V19H12V10.5H9Z" fill="white"/>
</svg>
