<svg width="12" height="12" viewBox="0 0 12 12" fill="none" xmlns="http://www.w3.org/2000/svg">
<path d="M3.68356 0.477159C3.26947 0.487259 2.94197 0.831133 2.95207 1.24522C2.96217 1.65931 3.30605 1.98681 3.72014 1.97671L3.68356 0.477159ZM10.968 1.79994C11.3821 1.78984 11.7096 1.44596 11.6995 1.03187C11.6894 0.617782 11.3455 0.290283 10.9314 0.300383L10.968 1.79994ZM11.6995 1.06845C11.7096 0.654356 11.3821 0.310482 10.968 0.300383C10.5539 0.290283 10.21 0.617782 10.1999 1.03187L11.6995 1.06845ZM10.0231 8.27972C10.013 8.69381 10.3405 9.03768 10.7546 9.04778C11.1687 9.05788 11.5126 8.73038 11.5227 8.31629L10.0231 8.27972ZM11.48 1.58049C11.7729 1.2876 11.7729 0.812723 11.48 0.519829C11.1871 0.226936 10.7123 0.226936 10.4194 0.519829L11.48 1.58049ZM0.519871 10.4193C0.226978 10.7122 0.226978 11.1871 0.519871 11.48C0.812764 11.7729 1.28764 11.7729 1.58053 11.48L0.519871 10.4193ZM3.72014 1.97671L10.968 1.79994L10.9314 0.300383L3.68356 0.477159L3.72014 1.97671ZM10.1999 1.03187L10.0231 8.27972L11.5227 8.31629L11.6995 1.06845L10.1999 1.03187ZM10.4194 0.519829L0.519871 10.4193L1.58053 11.48L11.48 1.58049L10.4194 0.519829Z" fill="white"/>
</svg>
