<svg width="29" height="29" viewBox="0 0 29 29" fill="none" xmlns="http://www.w3.org/2000/svg">
<path d="M9.14286 18.0714C9.46663 18.9148 9.99717 19.6633 10.6857 20.2482C12.8755 22.0862 16.0622 22.1095 18.2786 20.3036C18.9766 19.7291 19.5194 18.9886 19.8571 18.15" stroke="white" stroke-width="3" stroke-linecap="round" stroke-linejoin="round"/>
<path fill-rule="evenodd" clip-rule="evenodd" d="M27 14.5C27 21.4036 21.4036 27 14.5 27C7.59644 27 2 21.4036 2 14.5C2 7.59644 7.59644 2 14.5 2C17.8152 2 20.9946 3.31696 23.3388 5.66117C25.683 8.00537 27 11.1848 27 14.5Z" stroke="white" stroke-width="3" stroke-linecap="round" stroke-linejoin="round"/>
<path d="M9.14286 12.7143V10.9286" stroke="white" stroke-width="3" stroke-linecap="round"/>
<path d="M19.8572 12.7143V10.9286" stroke="white" stroke-width="3" stroke-linecap="round"/>
</svg>
