<svg width="18" height="18" viewBox="0 0 18 18" fill="none" xmlns="http://www.w3.org/2000/svg">
<path d="M6.68414 3.47718C6.27005 3.48728 5.94255 3.83115 5.95265 4.24524C5.96275 4.65933 6.30663 4.98683 6.72072 4.97673L6.68414 3.47718ZM13.9686 4.79996C14.3827 4.78986 14.7102 4.44598 14.7001 4.03189C14.69 3.6178 14.3461 3.2903 13.932 3.3004L13.9686 4.79996ZM14.7001 4.06847C14.7102 3.65438 14.3827 3.3105 13.9686 3.3004C13.5545 3.2903 13.2106 3.6178 13.2005 4.03189L14.7001 4.06847ZM13.0237 11.2797C13.0136 11.6938 13.3411 12.0377 13.7552 12.0478C14.1693 12.0579 14.5132 11.7304 14.5233 11.3163L13.0237 11.2797ZM14.4806 4.58051C14.7735 4.28762 14.7735 3.81274 14.4806 3.51985C14.1877 3.22696 13.7129 3.22696 13.42 3.51985L14.4806 4.58051ZM3.52045 13.4193C3.22756 13.7122 3.22756 14.1871 3.52045 14.48C3.81334 14.7729 4.28822 14.7729 4.58111 14.48L3.52045 13.4193ZM6.72072 4.97673L13.9686 4.79996L13.932 3.3004L6.68414 3.47718L6.72072 4.97673ZM13.2005 4.03189L13.0237 11.2797L14.5233 11.3163L14.7001 4.06847L13.2005 4.03189ZM13.42 3.51985L3.52045 13.4193L4.58111 14.48L14.4806 4.58051L13.42 3.51985Z" fill="white"/>
</svg>
