<svg width="18" height="18" viewBox="0 0 18 18" fill="none" xmlns="http://www.w3.org/2000/svg">
<path d="M6.68356 3.47716C6.26947 3.48726 5.94197 3.83113 5.95207 4.24522C5.96217 4.65931 6.30605 4.98681 6.72014 4.97671L6.68356 3.47716ZM13.968 4.79994C14.3821 4.78984 14.7096 4.44596 14.6995 4.03187C14.6894 3.61778 14.3455 3.29028 13.9314 3.30038L13.968 4.79994ZM14.6995 4.06845C14.7096 3.65436 14.3821 3.31048 13.968 3.30038C13.5539 3.29028 13.21 3.61778 13.1999 4.03187L14.6995 4.06845ZM13.0231 11.2797C13.013 11.6938 13.3405 12.0377 13.7546 12.0478C14.1687 12.0579 14.5126 11.7304 14.5227 11.3163L13.0231 11.2797ZM14.48 4.58049C14.7729 4.2876 14.7729 3.81272 14.48 3.51983C14.1871 3.22694 13.7123 3.22694 13.4194 3.51983L14.48 4.58049ZM3.51987 13.4193C3.22698 13.7122 3.22698 14.1871 3.51987 14.48C3.81276 14.7729 4.28764 14.7729 4.58053 14.48L3.51987 13.4193ZM6.72014 4.97671L13.968 4.79994L13.9314 3.30038L6.68356 3.47716L6.72014 4.97671ZM13.1999 4.03187L13.0231 11.2797L14.5227 11.3163L14.6995 4.06845L13.1999 4.03187ZM13.4194 3.51983L3.51987 13.4193L4.58053 14.48L14.48 4.58049L13.4194 3.51983Z" fill="#52525B"/>
</svg>
